
<?xml version="1.0" encoding="UTF-8" standalone="no"?>
<svg
   width="100%"
   height="100%"
   viewBox="0 0 169.84448 18.467926"
   version="1.1"
   id="svg5"
   xmlns:xlink="http://www.w3.org/1999/xlink"
   xmlns="http://www.w3.org/2000/svg"
>
  <g
     id="layer1"
     transform="translate(-22.627089,-199.95126)">
    <g
       aria-label="dale Tristan Hutchinson"
       id="paths"
       >
          
      <!-- <mask id="pm"  maskContentUnits="objectBoundingBox" maskUnits="objectBoundingBox">
         <image href="../assets/paint-mask.png" x="0" y="0" width="200" height="400" />
      </mask> -->
      <clipPath id='d-clip-path'>
         <path
         style='fill:white;'
            d="m 56.229671,247.04145 c -0.03387,0 -0.08467,-0.0508 -0.08467,-0.0847 0,-0.11853 0.186267,-0.16933 0.270933,-0.16933 0.220133,0 0.355599,0.0169 0.355599,0.3556 0,0.508 -0.253999,0.98213 -0.253999,1.49013 0,0.0508 0.01693,0.0677 0.0508,0.0677 0.01693,0 0.08467,-0.0339 0.118533,-0.0339 0.06773,0 0.06773,0.1524 0.06773,0.2032 0,0.254 -0.355599,0.8128 -0.406399,0.8636 -0.06773,0.1016 -0.08467,0.1524 -0.08467,0.28786 0,0.1016 0.0508,0.22013 0.0508,0.32173 0,0.254 -0.169333,0.57574 -0.169333,0.79587 0,0.1016 0.08467,0.2032 0.08467,0.32173 0,0.23707 -0.220133,0.54187 -0.220133,0.84667 0,0.0508 0.01693,0.0847 0.06773,0.0847 0,-0.47413 0.372533,-0.3556 0.507999,-0.72813 v -0.508 c -0.0508,-0.0508 -0.186266,-0.0847 -0.186266,-0.18626 0,-0.0677 0.304799,-0.37254 0.338666,-0.37254 0,0.254 -0.03387,0.77894 0.186266,0.77894 0.406399,0 0.1524,-0.8636 0.321733,-0.99907 0.321733,-0.254 0.321733,-1.81186 0.321733,-1.81186 0.186266,-0.18627 0.321732,-0.1016 0.321732,-0.28787 0,-0.0847 -0.08467,-0.23706 -0.08467,-0.33866 0,-0.0677 0.08467,-0.13547 0.08467,-0.2032 0,-0.2032 -0.237066,-0.0847 -0.237066,-0.23707 0,-0.16933 0.524932,-0.18627 0.524932,-0.62653 0,-0.4572 0.03387,-1.1176 0.338666,-1.59173 0.118533,-0.18627 0.186267,-0.42333 0.270933,-0.64347 0.0508,-0.762 0.558799,-1.47319 0.558799,-2.31986 0,-0.28787 -0.389466,-0.5588 -0.694265,-0.5588 -0.626532,0 -1.168398,0.508 -1.219198,0.98213 -0.0508,0.3556 -0.321733,0.52493 -0.304799,0.88053 -0.1016,0.54187 -0.761999,0.99907 -0.761999,1.5748 0,0.27093 -0.491065,0.4064 -0.491065,0.89747 0,0.22013 -0.08467,0.42333 -0.135467,0.62653 0,0.0169 -0.287866,0.62653 -0.389466,0.6604 -0.355599,0.1016 -0.423332,0.91439 -0.931331,0.91439 -0.254,0 -0.592666,-0.16933 -0.846665,-0.16933 -0.1524,0 -0.677332,0.13547 -0.677332,0.16933 -0.118533,0.44027 -0.728132,0.54187 -0.761999,0.7112 -0.1016,0.42334 -0.440266,0.98213 -0.711198,1.27 -0.3048,0.32173 -0.609599,0.99907 -0.711199,1.23613 -0.118533,0.28787 -0.270933,0.4572 -0.304799,0.74507 0,0.28786 -0.270933,0.44026 -0.270933,0.69426 0,0.18627 -0.0508,0.37254 -0.0508,0.54187 0,0.32173 0,0.93133 0.270933,1.25306 0.220133,0.254 -0.08467,0.4572 0.982131,0.82973 0.06773,0.0169 0.1524,0.0339 0.237066,0.0339 0.1524,0 0.321733,-0.0677 0.491066,-0.0677 0.1016,0 0.728132,-0.6096 0.812798,-0.8128 0.287867,-0.77893 0.745066,-1.3716 1.015998,-2.25213 0.03387,-0.11853 0.389466,-0.94826 0.389466,-1.0668 0,-0.0169 0,-0.0169 0,-0.0169 0.3556,-0.0847 0.3048,-0.762 0.3556,-1.13453 0.08467,-0.0339 0.237066,-0.3048 0.372532,-0.3048 0.220133,0 0,-0.7112 0.254,-0.79587 0.118533,0 0.1016,0.3556 0.152399,0.3556 0.220133,0 0.270933,-1.016 0.270933,-1.10066 0,0 0,0 0,0.0169 0,-0.0169 0.06773,-0.0339 0.1016,-0.0508 0,0.0339 0.03387,0.13547 0.0508,0.13547 0.118533,0 0.118533,-0.22014 0.118533,-0.32173 0,-0.13547 -0.03387,-0.27094 -0.03387,-0.4064 0,-0.27094 0.338666,-0.44027 0.338666,-0.6096 0,-0.0339 -0.01693,-0.0847 -0.03387,-0.13547 z m -1.964263,1.99813 c 0.0508,0.0677 0.08467,0.11853 0.08467,0.16933 0,0.1524 -0.287867,0.67734 -0.474133,0.79587 -0.304799,0.6096 -0.694265,1.1684 -1.015998,1.76106 -0.355599,0.6604 -1.151464,2.40453 -1.337731,2.40453 -0.203199,0 -0.220132,-0.59267 -0.220132,-0.7112 0,-0.3556 0.220132,-1.28693 0.524932,-1.79493 0.06773,-0.11853 0.118533,-0.23706 0.1524,-0.3556 0.457199,-1.18533 1.405463,-2.03199 2.285995,-2.26906 z m 1.168398,-0.32173 c 0,-0.0508 -0.01693,-0.1524 -0.01693,-0.22014 0.03387,0.0339 0.03387,0.0677 0.03387,0.1016 0,0.0508 -0.01693,0.0677 -0.01693,0.11854 z m 1.507063,0.88053 c 0.08467,0.0508 0.08467,0.0339 0.08467,0.1016 0,0.0847 -0.03387,0.1016 -0.06773,0.16933 -0.01693,-0.0339 -0.0508,-0.0677 -0.0508,-0.1016 0,-0.0508 0.01693,-0.1016 0.03387,-0.16933 z m 0.254,0.0508 c -0.03387,0 -0.0508,-0.0677 -0.0508,-0.0847 0,-0.0508 0.01693,-0.0847 0.0508,-0.1016 0.06773,0 0.0508,0.1016 0.0508,0.1524 0,0.0169 -0.03387,0.0169 -0.0508,0.0339 z m -0.999065,7.24745 c 0,0.0508 0,0.1016 0,0.1524 0,-0.22013 0.220133,-0.18627 0.220133,-0.4064 -0.01693,-0.0339 -0.01693,-0.1016 -0.01693,-0.1524 0,-0.254 -0.03387,-0.74506 0.220133,-0.98213 0.0508,-0.0169 0.1016,-0.0847 0.1016,-0.13547 0,-0.0847 -0.135467,-0.11853 -0.135467,-0.2032 0,-0.0677 0.1524,-0.16933 0.1524,-0.27093 0,-0.1016 -0.118533,-0.18626 -0.118533,-0.27093 0,-0.11853 0.186266,-0.254 0.186266,-0.508 0,-0.2032 0.03387,-0.4064 0.03387,-0.6096 0,-0.1524 -0.06773,-0.28786 -0.06773,-0.44026 0,-0.508 0.3556,-0.6096 0.3556,-0.84667 0,-0.1016 -0.1016,-0.52493 -0.270933,-0.52493 -0.118533,0 -0.0508,0.44026 -0.304799,0.44026 -0.03387,0 -0.06773,-0.0169 -0.1016,-0.0169 -0.03387,0 -0.660399,1.016 -0.728132,1.10067 -0.08467,0.18626 -0.135467,0.40639 -0.169333,0.59266 0,0.0508 0.06773,0.1016 0.118533,0.1016 0.118533,0 0.253999,-0.7112 0.406399,-0.7112 0.01693,0 0.03387,0.0339 0.03387,0.0508 0,0.22013 -0.135467,0.72813 -0.389466,0.9652 0.03387,0 0.1016,0 0.1016,0.0508 0,0.0169 -0.01693,0.0339 -0.03387,0.0339 -0.0508,0 -0.03387,-0.0677 -0.0508,-0.1016 -0.1016,0.0677 -0.135466,0.1524 -0.135466,0.23706 0,0.0508 0.01693,0.1016 0.01693,0.1524 0,0.23707 -0.270933,0.254 -0.270933,0.49107 0,0.0677 0.01693,0.11853 0.01693,0.18626 0,0.2032 -0.169333,0.4064 -0.169333,0.57574 0,0.13546 0.118533,0.22013 0.118533,0.42333 0,0.32173 -0.06773,0.7112 -0.118533,1.04986 0.0508,0.0847 0.101599,0.1524 0.101599,0.23707 0,0.1016 -0.118533,0.23707 -0.118533,0.38947 0,0.254 0.270933,0.96519 0.541866,0.96519 0.524932,0 0.643465,-0.91439 0.643465,-0.96519 0,-0.27094 0.01693,-0.52494 0.1524,-0.79587 0,-0.11853 -0.2032,-0.1524 -0.321733,-0.254 z m 0.321733,-4.19946 c 0,-0.0169 -0.01693,-0.13546 0.03387,-0.16933 0.03387,0 0.0508,0.0339 0.0508,0.0677 0,0.0169 -0.118533,0.37254 -0.152399,0.69427 -0.0508,-0.11853 -0.06773,-0.22013 -0.06773,-0.32173 0,-0.1016 0,-0.2032 0.135466,-0.27094 z m -0.948265,3.94546 c -0.01693,-0.0339 -0.06773,-0.0677 -0.06773,-0.0847 0,-0.0339 0.0508,-0.0677 0.06773,-0.1016 0.01693,0.0339 0.06773,0.0677 0.06773,0.1016 0,0.0169 -0.0508,0.0508 -0.06773,0.0847 z m 0.880532,-2.87866 v 0.0508 h -0.03387 z m -0.626532,1.03293 c -0.01693,-0.0339 -0.06773,-0.0508 -0.06773,-0.0677 0,-0.0339 0.03387,-0.0677 0.03387,-0.0847 0.0508,0.0339 0.06773,0.0339 0.06773,0.0677 0,0.0339 -0.01693,0.0677 -0.03387,0.0847 z m 0.406399,-7.73852 c 0,0 0,-0.0169 0,-0.0169 0.01693,0.0169 0.03387,0.0169 0.06773,0.0169 0.01693,0 0.03387,0 0.03387,-0.0508 -0.03387,0.0169 -0.06773,0.0339 -0.1016,0.0508 z"
            />
      </clipPath>
      <!-- <clipPath id='paint-clip-path'>
              <mask id="pm"  maskContentUnits="objectBoundingBox" maskUnits="objectBoundingBox">
         <image href="../assets/paint-mask.png" x="0" y="0" width="200" height="400" />
         </mask>
      </clipPath> -->

      <path
         style="display:inline;fill:none;fill-opacity:1;stroke:#ee0000ff;stroke-width:1.8;stroke-linecap:square;stroke-linejoin:round;stroke-dasharray:46.8;stroke-dashoffset:46.8;stroke-opacity:1"
         d="m 25.7,206.95126 c -3.363914,3.05811 -3.16004,4.79103 -3.16004,4.79103 0,0 0.407747,1.83486 1.121304,1.9368 l 0.713558,0.10194 c 0,0 0,-1.32518 1.936798,-4.9949 1.936799,-3.66973 3.873597,-10.19368 4.587155,-8.35882 0.713557,1.83486 -1.121305,3.0581 -2.038736,7.74719 -0.917431,4.6891 -1.019368,6.82977 -0.917431,8.8685 l 0.101937,2.03874" id="p-1"
      />
      <path
           style="fill:none;stroke:#ee0000;stroke-width:1.8;stroke-linecap:square;stroke-linejoin:round;stroke-dasharray:97.2;stroke-dashoffset:97.2;stroke-opacity:1"
           d="m 34.321218,207.17674 c 0,0 -0.499293,-0.4483 -1.00016,0.22499 -1.720352,2.31257 -2.620243,3.96253 -2.431553,4.95316 0.188691,0.99063 0.130964,1.50151 0.990632,1.11357 0.518903,-0.0472 0.558929,-1.53527 1.219351,-2.47873 0.660421,-0.94346 0.943459,-2.68885 2.736032,-3.44362 1.792573,-0.75477 2.159951,-0.4217 2.159951,-0.4217 0,0 -2.151371,7.91506 -1.405184,9.24304 1.226497,1.36802 0.990632,2.68886 1.651054,0.89629 0.660422,-1.79257 1.651054,-5.42489 1.651054,-5.42489 0,0 0.80194,-0.94346 1.132151,-1.55671 0.330211,-0.61325 0.518903,0.80194 0.566076,-3.67949 0.04717,-4.48143 -0.141519,-5.42489 0.04717,-4.38709 0.188692,1.03781 -0.377384,7.87789 -0.377384,10.61392 0,2.73603 0.69677,4.51778 1.215672,4.75364 0.518903,0.23587 2.652511,-6.35752 2.888376,-6.97077 0.235865,-0.61325 3.127797,-0.18683 1.072296,-0.41729 2.680997,-0.69327 3.296694,-2.81785 3.296694,-2.81785 0,0 -1.019709,-1.01043 -1.727304,-1.15195 -0.707594,-0.14151 -2.311475,2.40583 -2.641686,3.16059 -0.330211,0.75477 -0.277467,3.77214 0.335781,4.47973 0.613249,0.7076 0.741927,0.64032 1.402349,0.3101 0.660421,-0.33021 3.167859,-3.0916 4.064146,-3.6105 l 0.896284,-0.51891"
           id="p-2" />
         
          <path
           style="fill:none;stroke:#ee0000;stroke-width:1.8;stroke-linecap:square;stroke-linejoin:round;stroke-dasharray:10.8;stroke-dashoffset:10.8;stroke-opacity:1"
           d="m 50.991634,204.00723 c 1.606055,0.40832 1.95993,0.19055 4.818163,-0.40832 2.85823,-0.59887 3.865417,-0.87108 4.763717,-0.95275 0.898303,-0.0817 0.898303,-0.0817 0.898303,-0.0817"
           id="p-3" />
           
        <path
           style="fill:none;stroke:#ee0000;stroke-width:2.2;stroke-linecap:square;stroke-linejoin:round;stroke-dasharray:12.54;stroke-dashoffset:12.54;stroke-opacity:1"
           d="m 56.043058,202.48284 c -0.08166,7.37696 0.2295,12.38567 0.2295,12.38567"
           id="p-4" />

      <path
           style="fill:none;stroke:#ee0000;stroke-width:2.69999;stroke-linecap:square;stroke-linejoin:round;stroke-dasharray:23.2199;stroke-dashoffset:23.2199;stroke-opacity:1"
           d="m 60.760727,206.78684 c -1.763207,4.18762 -2.134819,8.77615 -1.840952,8.37208 0.29387,-0.40406 -0.734668,-3.30601 2.240743,-6.31816 2.975415,-3.01214 2.497879,-3.08561 2.975415,-3.01214 0.477535,0.0735 0,2.68154 0,2.68154"
           id="p-5" />
        
        <path
           style="fill:none;stroke:#ee0000;stroke-width:2.69999;stroke-linecap:square;stroke-linejoin:round;stroke-dasharray:70.1997;stroke-dashoffset:70.1997;stroke-opacity:1"
           d="m 67.188288,207.04054 c -0.379783,5.19037 -0.316487,6.45631 0.316484,7.02599 0.632973,0.56967 0.886161,0.94945 1.519131,-0.1266 0.632973,-1.07605 0.490139,-2.69652 0.743329,-3.45609 0.253188,-0.75957 0.686922,-1.67098 0.813517,-2.36725 0.126596,-0.69627 4.076602,-3.41804 4.076602,-3.41804 0,0 -4.683991,3.79783 -3.987721,4.55739 0.69627,0.75957 0.759566,0.51261 1.455835,0.44931 0.696267,-0.0633 0.07651,-0.2164 2.02551,-0.51261 1.835062,-0.27889 1.482508,-0.2618 2.170238,0.21961 0,0 -0.06374,0.3626 -0.448108,0.88886 -0.685852,0.93905 -2.988074,3.00585 -3.937531,4.52498 -0.949457,1.51913 -1.392539,2.53189 -1.076053,2.91167 0.316487,0.37978 1.582428,-0.0633 1.582428,-0.0633 0,0 0.632974,-0.12659 1.012757,-0.56967 0.379782,-0.44308 1.96221,-3.35475 1.96221,-3.35475 0,0 0.379783,-1.26594 1.645727,-2.08881 1.265944,-0.82286 1.77232,-0.94945 1.77232,-0.94945"
           id="p-6" />
           <path
           style="fill:none;stroke:#ee0000;stroke-width:1.97;stroke-linecap:square;stroke-linejoin:round;stroke-dasharray:29.6999;stroke-dashoffset:29.6999;stroke-opacity:1"
           d="m 81.937837,203.10369 c -0.76559,13.78063 -0.990764,14.23098 -0.135104,13.8707 l 0.85566,-0.36028 c 0,0 0.360278,-1.35104 1.801389,-3.69285 1.441111,-2.3418 2.481841,-5.13225 2.481841,-5.13225"
           id="p-7" />
           <path
           style="fill:none;stroke:#ee0000;stroke-width:1.25;stroke-linecap:square;stroke-linejoin:round;stroke-dasharray:9.625;stroke-dashoffset:9.625;stroke-opacity:1"
           d="m 78.100448,207.08163 c 2.127279,0.3393 1.146218,-0.44708 5.080544,-1.66069 0.414711,-0.12793 0.890304,-0.73376 3.000928,-0.9921 l 2.660614,-0.32565"
           id="p-8" />
           <path
           style="fill:none;stroke:#ee0000;stroke-width:2.69999;stroke-linecap:square;stroke-linejoin:round;stroke-dasharray:68.8497;stroke-dashoffset:68.8497;stroke-opacity:1"
           d="m 90.738459,206.87537 c -0.338684,-0.38069 -0.285488,0.18575 -0.837223,0.73503 -0.943289,0.93909 -0.545365,0.7738 -1.256452,1.82615 -0.841511,1.24536 -0.78587,1.43307 -1.012572,3.16705 -0.164549,1.25859 0.569988,1.07049 0.569988,1.07049 0,0 0.588475,0.1744 1.866381,-2.15778 1.277906,-2.33218 0.990378,-2.55581 2.651654,-3.89761 1.661279,-1.34181 1.757122,-1.08622 1.757122,-1.08622 0,0 -0.70285,3.00308 -1.022327,5.3672 -0.319476,2.36413 0,4.7602 0.287531,5.30331 0.287528,0.54311 0.638953,0.7348 0.926481,0.60701 0.287528,-0.12779 0.479213,-1.18207 1.214011,-3.35451 0.734796,-2.17244 1.627487,-3.75752 1.725631,-4.54267 0.09814,-0.78515 0.196287,-2.84616 0.196287,-2.84616 0,0 -0.245359,3.68038 -0.09814,4.46553 0.147217,0.78514 0.09814,0.93236 0.637935,0.53979 0.539787,-0.39258 1.815644,-2.99338 2.649864,-3.53317 0.83422,-0.53979 1.5703,-0.3435 1.5703,-0.3435 0,0 0.0981,-1.71751 -0.19629,1.03051 -0.29443,2.74801 -0.73607,5.98675 -0.3435,6.33025 0.39257,0.3435 1.07958,0.0981 1.07958,0.0981 0,0 0.73225,-1.26464 1.42308,-3.2878 l 0.687,-2.01195"
           id="p-9" />
         <path
           style="fill:none;stroke:#ee0000;stroke-width:2.69999;stroke-linecap:square;stroke-linejoin:round;stroke-dasharray:0.809997;stroke-dashoffset:0.809997;stroke-opacity:1"
           d="m 67.490571,204.01759 c -0.100404,0.55222 -0.100404,0.55222 -0.100404,0.55222"
           id="p-10" />
        <path
           style="fill:none;stroke:#ee0000;stroke-width:2.69999;stroke-linecap:square;stroke-linejoin:round;stroke-dasharray:14.8499;stroke-dashoffset:14.8499;stroke-opacity:1"
           d="m 108.59965,202.82264 c -1.01343,6.72241 -1.85795,7.83719 -1.24989,10.23564 0.60805,2.39844 1.04721,3.58078 1.04721,3.58078"
           id="p-11" />
        <path
           style="fill:none;stroke:#ee0000;stroke-width:2.5;stroke-linecap:square;stroke-linejoin:round;stroke-dasharray:12.25;stroke-dashoffset:12.25;stroke-opacity:1"
           d="m 114.47286,202.50583 c -0.58112,2.57729 -1.83695,11.97227 -1.83695,11.97227"
           id="p-12" />
        <path
           style="fill:none;stroke:#ee0000;stroke-width:1.5;stroke-linecap:square;stroke-linejoin:round;stroke-dasharray:9.15;stroke-dashoffset:9.15;stroke-opacity:1"
           d="m 107.28219,209.95043 c 6.87974,-1.87905 8.40884,-2.77015 8.40884,-2.77015"
           id="p-13" />
        <path
           style="fill:none;stroke:#ee0000;stroke-width:2.69999;stroke-linecap:square;stroke-linejoin:round;stroke-dasharray:31.3199;stroke-dashoffset:31.3199;stroke-opacity:1"
           d="m 118.36235,206.43721 c -0.50097,4.43585 -0.8855,5.84985 -0.37878,6.01875 0.50671,0.16891 2.37186,-1.59345 2.37186,-1.59345 0,0 0.84452,-1.48636 1.48636,-2.16198 0.64184,-0.67562 2.06064,-1.4188 2.33089,-1.31746 0.27024,0.10135 -1.27175,6.96783 -1.20105,7.84198 0.20851,2.57807 1.38981,-0.077 2.30315,-0.96595 0.19518,-0.18996 0.21535,-1.36973 1.26256,-2.78853 1.04721,-1.4188 1.04721,-1.38502 1.04721,-1.38502"
           id="p-14" />
        <path
           style="fill:none;stroke:#ee0000;stroke-width:1.97;stroke-linecap:square;stroke-linejoin:round;stroke-dasharray:140.939;stroke-dashoffset:140.939;stroke-opacity:1"
           d="m 130.42216,202.78886 c -0.97965,10.16807 -1.21612,11.1815 -1.04721,12.76921 0.1689,1.5877 0.67562,1.38502 0.94586,1.35124 0.27025,-0.0338 2.26333,-3.27676 2.26333,-3.27676 0,0 -0.7094,-1.08099 2.63491,-4.05371 3.34432,-2.97273 4.01994,-3.17542 4.32397,-3.07407 0.30403,0.10134 0.7094,0.20268 0.60806,0.57427 -0.10135,0.37159 -0.30403,2.33089 -0.30403,1.31746 0,-1.01343 0,-1.52014 -0.33781,-1.55392 -0.33781,-0.0338 -2.6687,1.65526 -2.90517,2.09442 -0.23646,0.43915 -0.84452,2.46601 -0.67562,3.27675 0.16891,0.81074 0.43916,1.72283 0.81075,1.9593 0.37159,0.23646 0.64184,0.40537 1.14855,0.10134 0.50671,-0.30403 4.29018,-3.58078 4.42531,-3.81725 0.13512,-0.23647 2.22954,-9.2222 2.22954,-9.2222 0,0 -3.17541,13.81641 -2.73626,12.56652 0.43916,-1.2499 -0.40537,-1.38502 2.09442,-3.47944 2.49979,-2.09442 2.33089,-1.89174 2.56736,-1.45258 0.23646,0.43915 -0.0676,3.61456 0,4.89824 0.0676,1.28367 0.50671,1.75661 0.81074,1.79039 0.30403,0.0338 -0.30403,0.74318 1.45258,-2.33089 1.75661,-3.07407 2.36467,-2.77004 2.60114,-4.52665 0.23646,-1.75661 0.0676,-3.78346 0.20268,-1.24989 0.13513,2.53357 -0.77696,2.63491 -0.23647,4.72933 0.5405,2.09442 0.94587,2.1282 1.21612,2.16198 0.27025,0.0338 1.48636,-1.52014 1.92551,-2.19576 0.43916,-0.67562 1.08099,-2.39845 1.18234,-3.10785 0.10134,-0.7094 0,-2.19576 0,-2.19576 0,0 -0.30403,3.51322 -0.20269,4.45908 0.10134,0.94587 0.57428,0.84453 0.57428,0.84453 0,0 0.50671,0.10134 0.94587,-0.60806 0.43915,-0.7094 0.97964,-2.06064 1.45258,-2.66869 0.47293,-0.60806 1.55392,-1.41881 1.89173,-1.35124 0.33781,0.0676 -0.50671,2.43223 -0.50671,4.59421 0,2.16198 0.13512,3.64834 0.33781,3.85103 0.20268,0.20268 0.67562,-0.20269 0.94586,-0.81074 0.27025,-0.60806 0.0676,-1.21612 1.11478,-2.87139 l 0.47293,-0.67561"
           id="p-15" />
        <path
           style="fill:none;stroke:#ee0000;stroke-width:1.5;stroke-linecap:square;stroke-linejoin:round;stroke-dasharray:8.4;stroke-dashoffset:8.4;stroke-opacity:1"
           d="m 126.89504,207.10831 c 2.61011,-0.46639 6.56661,-2.48976 6.56661,-2.48976 l 1.32381,-0.0752"
           id="p-16" />
        <path
           style="fill:none;stroke:#ee0000;stroke-width:2.69999;stroke-linecap:square;stroke-linejoin:round;stroke-dasharray:2.69999;stroke-dashoffset:2.69999;stroke-opacity:1"
           d="m 151.77173,204.03876 c 0,0.43915 0,0.47293 0,0.47293"
           id="p-17" />
        <path
           style="fill:none;stroke:#ee0000;stroke-width:2.4;stroke-linecap:square;stroke-linejoin:round;stroke-dasharray:70.8;stroke-dashoffset:70.8;stroke-opacity:1"
           d="m 167.24198,204.66483 c -3.79704,4.12437 -4.5058,3.59298 -3.50575,4.59141 1.31968,1.31755 2.32736,-0.33611 3.57122,-0.33611 1.24385,0 1.75,1.25008 2.02956,2.1176 -0.26628,1.56981 -0.97453,4.05649 -1.65399,4.57553 -0.73924,1.28651 -0.76503,0.80443 -1.42303,1.22829 -0.62751,0.40422 -1.57119,1.30932 -2.02946,1.04746 -0.45826,-0.26187 -0.91652,0.19639 -0.91652,-0.7856 0,-0.98199 0.93666,-1.873 2.27868,-3.02523 1.02333,-0.87861 3.05617,-2.18366 4.67843,-2.95484 1.25284,-0.59558 2.08626,-0.61131 2.08626,-0.61131 0,0 0.17899,0.98448 0.98448,-0.17899 0.80548,-1.16348 0,-1.70047 0.80548,-1.16348 0.80548,0.53699 -2.50595,2.41645 -1.52147,3.66942 0.98448,1.25298 0.98448,2.14796 2.05846,1.87946 1.07398,-0.26849 1.61096,-0.44749 2.23745,-2.68494 0.62649,-2.23745 0.2685,-3.66942 -0.35799,-4.5644 -0.62649,-0.89498 -0.35799,-2.14796 -2.23745,-0.98448 -1.87946,1.16347 -1.16348,3.93792 -1.16348,3.93792 l 2.14796,-0.2685 c 0,0 1.43196,-0.44749 2.23745,-0.80548 0.80548,-0.35799 0.57406,-1.09394 1.28596,-0.97631 l 0.93494,0.15449"
           id="p-18" />
        
        <path
           style="fill:none;stroke:#ee0000;stroke-width:2.2;stroke-linecap:square;stroke-linejoin:round;stroke-dasharray:28.6;stroke-dashoffset:28.6;stroke-opacity:1"
           d="m 182.25034,206.8154 c -0.44418,6.00892 -0.95532,3.58028 -0.53758,5.2231 0.28826,1.13361 1.13239,-0.19713 1.66105,-0.96978 0.52866,-0.77266 0.98224,-2.13026 1.83623,-2.69958 0.85399,-0.56933 1.42331,-0.488 1.42331,-0.488 0,0 -0.60999,2.7653 -0.65066,4.83927 -0.0407,2.07397 0,2.48063 0.40667,2.88729 0.40666,0.40666 0.77265,-0.0407 1.01665,-0.488 0.24399,-0.44732 0.93532,-2.23663 1.26064,-2.92795 0.32533,-0.69133 1.05732,-1.70798 1.05732,-1.70798"
           id="p-19" />
      
      <clipPath id="dth-clip-path"> 
      <path
             
             style="display:inline;fill:white;stroke:none;stroke-width:0.1;stroke-dasharray:none;stroke-opacity:1;"  id="text-outline"
             d="m 31.552126,199.95126 c -0.652639,0 -1.216773,0.5293 -1.26969,1.02319 -0.05292,0.37042 -0.335449,0.54684 -0.31781,0.91726 -0.105833,0.56444 -0.79375,1.04049 -0.79375,1.64021 0,0.28223 -0.51108,0.42331 -0.51108,0.93483 0,0.22931 -0.08816,0.44101 -0.141077,0.65267 0,0.0176 -0.300343,0.65253 -0.406177,0.68781 -0.370415,0.10583 -0.4408,0.9524 -0.969966,0.9524 -0.264584,0 -0.617534,-0.17622 -0.882117,-0.17622 -0.15875,0 -0.705383,0.14094 -0.705383,0.17622 -0.123472,0.45861 -0.758472,0.56465 -0.79375,0.74104 -0.105833,0.44097 -0.458301,1.02306 -0.740524,1.32292 -0.317499,0.33514 -0.635207,1.04083 -0.74104,1.28777 -0.123473,0.29986 -0.282015,0.47632 -0.317293,0.77618 0,0.29987 -0.28267,0.45838 -0.28267,0.72296 0,0.19403 -0.05271,0.38792 -0.05271,0.5643 0,0.33514 -6.9e-5,0.97021 0.282153,1.30535 0.229305,0.26459 -0.08805,0.47649 1.023194,0.86455 0.07056,0.0176 0.158818,0.0351 0.247013,0.0351 0.15875,0 0.335208,-0.0703 0.511597,-0.0703 0.105833,0 0.758265,-0.63531 0.84646,-0.84698 0.29986,-0.81139 0.776111,-1.42889 1.058333,-2.34611 0.03528,-0.12347 0.40566,-0.98757 0.40566,-1.11104 v -0.0176 c 0.370417,-0.0882 0.317603,-0.79378 0.37052,-1.18184 0.08819,-0.0353 0.246979,-0.3173 0.38809,-0.3173 0.229306,0 0,-0.74121 0.264583,-0.8294 0.123472,0 0.10573,0.37052 0.158647,0.37052 0.229306,0 0.282153,-1.0585 0.282153,-1.1467 v 0.0181 c 0,-0.0176 0.07066,-0.0356 0.105937,-0.0532 0,0.0353 0.03507,0.14107 0.05271,0.14107 0.123472,0 0.123507,-0.22903 0.123507,-0.33486 0,-0.14111 -0.03514,-0.28263 -0.03514,-0.42375 0,-0.28222 0.35295,-0.45819 0.35295,-0.63458 0,-0.0319 -0.01523,-0.0785 -0.03101,-0.12609 -0.0016,7.9e-4 -0.0031,0.002 -0.0047,0.003 v -0.0176 c -0.03528,0 -0.08785,-0.0531 -0.08785,-0.0884 0,-0.12347 0.193959,-0.17621 0.282153,-0.17621 0.229306,0 0.37052,0.0172 0.37052,0.37 0,0.52916 -0.264583,1.02319 -0.264583,1.55236 0,0.0529 0.01743,0.0708 0.05271,0.0708 0.01764,0 0.08823,-0.0357 0.123507,-0.0357 0.07056,0 0.0708,0.15896 0.0708,0.21187 0,0.26459 -0.37083,0.84677 -0.423746,0.89969 -0.07056,0.10583 -0.08785,0.15861 -0.08785,0.29972 0,0.10583 0.05271,0.22955 0.05271,0.33538 0,0.26458 -0.176217,0.59958 -0.176217,0.82889 0,0.10583 0.08785,0.21139 0.08785,0.33487 0,0.24694 -0.228927,0.56461 -0.228927,0.88211 0,0.0529 0.01737,0.0884 0.07028,0.0884 0,-0.49389 0.388056,-0.37055 0.529167,-0.75861 v -0.52917 c -0.05292,-0.0529 -0.193787,-0.0879 -0.193787,-0.19378 0,-0.0706 0.317156,-0.38809 0.352434,-0.38809 0,0.26459 -0.03501,0.81132 0.194303,0.81132 0.423334,0 0.158474,-0.89966 0.334863,-1.04077 0.335139,-0.26459 0.33538,-1.88722 0.33538,-1.88722 0.194028,-0.19402 0.334864,-0.10621 0.334864,-0.30024 0,-0.0882 -0.08785,-0.24659 -0.08785,-0.35243 0,-0.0705 0.08785,-0.14133 0.08785,-0.21188 0,-0.21167 -0.246497,-0.0883 -0.246497,-0.24701 0,-0.17639 0.546737,-0.19405 0.546737,-0.65267 0,-0.47625 0.03494,-1.16389 0.352433,-1.65778 0.123472,-0.19403 0.194476,-0.44095 0.28267,-0.67025 0.05292,-0.79375 0.581877,-1.53496 0.581877,-2.4169 0,-0.29986 -0.405971,-0.58188 -0.72347,-0.58188 z m -2.522327,5.50354 c 0.0017,0.005 0.003,0.01 0.0047,0.015 0.0034,-0.002 0.007,-0.003 0.01034,-0.005 -0.0051,-0.003 -0.01026,-0.006 -0.01499,-0.0103 z m 0.01499,0.0103 c 0.01384,0.007 0.02999,0.007 0.05581,0.007 0.01764,0 0.03514,-3.3e-4 0.03514,-0.0532 -0.03033,0.0151 -0.06063,0.0308 -0.09095,0.046 z M 144.2822,201.00955 c -0.12348,0 -0.56438,2.02854 -0.54674,2.0991 l 0.0176,-0.0176 c -0.22931,0.37042 -0.2116,0.67021 -0.28215,1.0759 -0.15875,0.4057 -0.40566,0.88216 -0.40566,1.27021 0,0.0706 0.0176,0.12331 0.0176,0.17622 0,0.14111 -0.12351,0.26462 -0.12351,0.38809 0,0.0705 0.10594,0.17639 0.10594,0.26458 0,0.0882 -0.22923,0.24671 -0.28215,0.45837 -0.0882,0.3175 -0.24702,0.6526 -0.24702,0.93483 0,0.0705 0.0176,0.17645 0.0176,0.24701 0,0.33514 -0.26458,0.60006 -0.26458,0.97048 0,0.37042 -0.26458,0.74052 -0.26458,1.00511 0,0.0705 0.0527,0.17646 0.0527,0.24701 0,0.0351 -0.005,0.0688 -0.0124,0.10181 -0.72544,0.26652 -1.83833,1.28002 -2.38641,1.87378 -0.40569,0.44097 -2.06365,1.60507 -2.27532,1.60507 -0.45861,0 -0.6351,-1.41131 -0.6351,-2.06395 0,-0.79375 0.35285,-1.48132 0.5116,-2.20452 0.47625,-0.8643 1.37597,-2.08153 2.08152,-2.08153 0.0706,0 0.12351,0.0353 0.12351,0.12351 -0.0176,0.19402 -0.0532,0.38778 -0.0532,0.59945 0,0.26458 0.19431,0.61753 0.45889,0.61753 0.51153,0 0.74052,-1.34069 0.74052,-1.81694 0,-0.70555 -1.88722,-0.96997 -1.88722,-0.96997 -0.19403,0 -0.81136,0.31753 -0.93483,0.65267 -0.0882,0.21167 -0.49381,0.0704 -0.54673,0.3173 -0.0529,0.24695 -0.29997,0.28229 -0.37052,0.51159 -0.10584,0.3175 -0.40549,0.54705 -0.58188,0.86455 -0.0364,0.067 -0.0737,0.1386 -0.11111,0.21239 -0.004,-2.6e-4 -0.008,-0.001 -0.0124,-0.001 -0.0529,0 -0.0882,0.0531 -0.1235,0.0884 0.0242,0 0.0524,0.0112 0.0806,0.0233 -0.28955,0.58858 -0.57464,1.30982 -0.57464,1.63504 0,0.67027 -0.26458,1.32274 -0.26458,2.0283 0.0176,0.28222 -0.0175,0.65275 0.10593,0.89969 0.37042,0.77612 0.42334,1.92236 1.85209,1.92236 0.82902,0 2.3284,-1.49893 2.62826,-1.81643 0.26458,-0.26459 1.67552,-1.74659 1.76372,-1.76423 0.0344,-0.075 0.0889,-0.1476 0.15502,-0.21859 -0.0179,0.0477 -0.0315,0.0961 -0.0315,0.14831 0,0.75847 -0.51159,1.37591 -0.51159,2.0991 0,0.33514 0.96996,0.77566 1.23455,0.77566 0.0882,0 0.70592,-1.60504 0.8294,-2.01073 0.17639,-0.61736 1.09355,-1.71063 1.07591,-1.67535 0.0176,-0.17639 1.11114,-1.18184 1.48156,-1.18184 0.12347,0 0.15865,0.7406 0.15865,0.98754 0,0.15875 -0.0884,0.3352 -0.0884,0.51159 0,0.29986 0.1943,0.61733 0.1943,0.93483 0,0.4057 -0.0176,0.79385 -0.0176,1.16427 0,0.19403 -0.10593,0.35285 -0.10593,0.5116 0,0.21167 0.15896,0.37052 0.21187,0.6351 0.15875,1.49931 0.82878,1.90479 1.5167,1.90479 0.37042,0 0.56441,-1.09358 0.67025,-1.19941 0.19403,-0.19403 0.10597,-0.52937 0.22944,-0.74104 0.17639,-0.3175 0.17642,-0.68766 0.38809,-0.98753 0.17639,-0.26458 0.37052,-0.67042 0.37052,-1.0232 0,-0.0773 0.32482,-0.47963 0.50023,-0.75602 0.0204,0.23635 0.0465,0.47554 0.0465,0.72088 0,0.51153 0.45826,1.14636 0.61701,1.49914 0.26459,0.59972 1.02351,1.25263 1.60559,1.25263 0.4057,0 1.09324,-0.24719 1.28726,-0.59996 0.0882,-0.26459 0.44132,-0.51135 0.44132,-0.70538 0.0353,-0.22931 0.33483,-0.47632 0.47594,-0.77618 0.0882,-0.15875 0.0356,-0.37063 0.1943,-0.47646 0.0216,-0.0177 0.0426,-0.0404 0.0636,-0.0662 0.0838,0.4605 0.27309,0.82476 0.69453,0.82476 1.02306,0 1.46399,-0.77611 1.99316,-1.5875 0.24694,-0.37042 0.77605,-1.1817 0.81132,-1.48156 0.0529,-0.44097 1.05875,-1.39372 1.2175,-1.39372 0.0353,0 0.0527,0.1058 0.0527,0.14108 0,0.15875 -0.0708,0.35285 -0.0708,0.5116 0,0.28222 0.0708,0.56474 0.0708,0.84697 0,0.14111 -0.0177,0.56428 -0.22944,0.70539 -0.0353,0.0353 -0.0703,0.0707 -0.0703,0.10593 0,0.0882 0.10542,0.14119 0.10542,0.24702 -0.0353,0.21167 -0.14108,0.44055 -0.14108,0.63458 0,0.14111 0.17673,0.21198 0.17673,0.31781 0,0.0529 -0.0356,0.1233 -0.0356,0.17622 0,0.0706 0.0181,0.12374 0.0181,0.1943 0,0.0705 -0.31781,0.56424 -0.31781,0.84646 0,0.22931 0.0708,0.44088 0.0708,0.68782 0,0.15875 -0.0181,0.3352 -0.0181,0.51159 0.0353,0.93486 0.35292,2.24018 1.28778,2.24018 0.14111,-0.0882 0.21153,-0.12351 0.29972,-0.12351 0.0529,0 0.14112,0.0174 0.26459,0.0351 h 5.1e-4 c 0.26458,-0.22931 0.47626,-0.81118 0.52917,-0.84646 0.17639,-0.0882 0.17622,-0.21163 0.17622,-0.40566 0,-0.2293 0.35295,-0.44097 0.35295,-0.79375 0,-0.10583 -0.0351,-0.22954 -0.0351,-0.33538 0,0.0176 0.22937,-0.91719 0.24701,-0.93483 0.21167,-0.2293 0.15858,-0.58181 0.4408,-0.86403 0.15875,-0.12348 0.0353,-0.38798 0.14108,-0.54673 0.22931,-0.14111 0.81132,-1.00542 0.81132,-1.32292 0,-0.12347 -0.0884,-0.1943 -0.21188,-0.1943 -0.68791,0 -0.79347,0.82906 -1.12861,1.18184 -0.17638,0.19403 -0.2118,0.33493 -0.22944,0.58187 0,0.12348 -0.22925,0.10584 -0.28216,0.26459 -0.28223,0.58208 -0.93496,2.2226 -1.16427,2.2226 -0.17639,0 -0.14107,-1.0232 -0.14107,-1.55236 0,-0.56445 0.0175,-1.09355 0.15864,-1.34049 v -0.0176 c 0,-0.0353 -0.0703,-0.17632 -0.0703,-0.28215 0.0882,-0.0706 0.28216,-0.1236 0.28216,-0.22944 0,-0.0882 -0.19431,-0.22896 -0.19431,-0.35244 0,-0.0705 0.0532,-0.17645 0.0532,-0.24701 0,-0.0706 -0.0351,-0.14138 -0.0351,-0.1943 0,-0.29986 0.37,-0.42289 0.37,-0.77567 0,-1.7286 0.0709,-2.34611 -0.74052,-2.34611 -0.29986,0 -0.67052,0.0526 -0.86455,0.33487 -0.0882,0.14111 -0.75854,0.42347 -1.04076,0.75861 -0.21167,0.24694 -0.38785,0.58208 -0.58188,0.79375 -0.70555,0.49389 -1.2876,1.85208 -1.72857,1.85208 -0.0353,-0.0529 -0.0708,-0.0882 -0.0708,-0.14108 0,-0.35278 0.28246,-0.74076 0.33538,-1.0759 0.0353,-0.77611 0.0708,-1.55242 0.0708,-2.32854 0,-0.40569 -0.0181,-0.84646 -0.54726,-0.84646 -0.31751,0 -0.86403,0.21142 -0.86403,0.45837 0,0.61736 -0.24701,1.28802 -0.24701,1.88774 0,0.10583 0.0176,0.19396 0.0176,0.28215 0,0.12348 -0.0884,0.21147 -0.0884,0.3173 0,0.14111 0.0708,0.28212 0.0708,0.42323 0,0.18886 -0.007,0.36071 -0.015,0.5364 -0.008,0.0262 -0.0145,0.0531 -0.0202,0.0811 -0.24694,1.14653 -0.89983,1.92247 -1.6583,2.82205 -0.0353,0.0353 -0.0707,0.0357 -0.10593,0.0357 -0.45861,0 -0.47594,-1.94069 -0.47594,-2.27583 0,-0.0353 -3e-5,-0.0702 0.0176,-0.0879 0.12348,-0.3175 0.0176,-0.65299 0.14107,-0.97049 0.0353,-0.42334 0.0884,-0.84629 0.0884,-1.28726 0,-0.635 -0.3175,-1.94041 -0.79375,-2.08152 -0.26459,-0.0706 -0.60003,-0.19431 -0.84698,-0.19431 -0.41672,0 -0.81226,2.23037 -0.9772,3.48816 -0.11108,0.14699 -0.22539,0.28531 -0.34571,0.39274 -0.15875,0.45861 -0.15858,0.89965 -0.4408,1.30535 -0.38805,0.56444 -0.67035,1.09358 -0.77618,1.72858 -0.0529,0.24694 -0.29973,0.21136 -0.29973,0.47594 0,0.10583 -0.68778,1.05833 -0.82889,1.05833 -0.0882,0 -0.37052,-0.89924 -0.37052,-0.8816 0,-0.28222 0.15858,-0.72326 0.17622,-1.04076 0.0706,-1.16416 0.22944,-2.38142 0.22944,-3.52795 0,-0.88194 -0.053,-1.14636 -1.02319,-1.49914 -0.0705,-0.0176 -0.14087,-0.0357 -0.19379,-0.0357 -0.21166,0 -0.40572,0.24732 -0.65267,0.30024 -0.3175,0.0706 -0.58198,0.21159 -0.68781,0.54673 0,0.24694 -0.44105,0.24674 -0.5116,0.3173 -0.26458,0.2293 -0.93482,1.21698 -1.19941,1.21698 -0.15875,0 -0.14108,-0.17602 -0.14108,-0.22893 0,-0.89959 0.65216,-1.51726 0.65216,-2.43448 0,-0.47625 0.40611,-1.30534 0.42375,-1.30534 0,-0.19403 0.0879,-0.38785 0.0879,-0.58188 0,-0.0529 -0.0176,-0.10573 -0.0176,-0.15865 0,-0.17638 0.22944,-0.37045 0.22944,-0.65267 0,-0.52917 0.45851,-1.72872 0.42323,-1.69344 0.37042,-0.49389 0.61753,-1.51683 0.61753,-1.74614 0,-0.45861 -0.4235,-0.40595 -0.88211,-0.59997 -0.0706,-0.0353 -0.12338,-0.0527 -0.15865,-0.0527 z m -8.21965,7.54941 -0.0176,-0.0351 c -0.003,0.0137 -0.007,0.0325 -0.0109,0.0512 0.01,-0.005 0.0197,-0.0116 0.0284,-0.016 z m -0.0284,0.016 c -0.0676,0.0379 -0.14779,0.0963 -0.14779,0.14263 0,0.0176 0.0174,0.0357 0.0527,0.0357 0.0568,0 0.11415,-0.10209 0.0951,-0.17829 z m -94.23352,-7.28327 c -0.3175,0 -0.81132,0.0176 -0.81132,0.40566 0,0.19403 0.105936,0.37058 0.105936,0.61753 0,0.26458 -0.01809,0.5291 -0.01809,0.81132 0,0.12347 0.01809,0.26455 0.01809,0.40566 0,0.35278 -0.123506,0.86459 -0.123506,1.25264 0,0.14112 0.03514,0.2641 0.03514,0.38757 0,0.15875 -0.105937,0.30014 -0.105937,0.45889 0,0.17639 0.05323,0.33527 0.05323,0.49402 0,0.0706 -0.01802,0.12337 -0.03566,0.15865 -0.105833,0.59972 -0.247013,1.12872 -0.247013,1.76372 0,0.38806 0.194303,0.74094 0.194303,1.16427 0,0.26389 -0.01038,0.52779 -0.02274,0.79168 -0.354763,0.0958 -0.782995,0.61102 -0.894519,1.02526 -0.01764,0.0705 -0.05295,0.17601 -0.123506,0.22893 -0.493889,0.45861 -0.405488,0.89966 -0.581877,1.56993 -0.05292,0.22931 -0.229374,0.24735 -0.247013,0.42374 -0.229305,0.635 -0.405936,1.26959 -0.599964,1.95751 0,0.38805 -0.40566,1.711 -0.670243,1.711 -0.05292,0 -0.247013,-0.61725 -0.247013,-0.68781 0,-0.0705 0.01802,-0.15889 0.03566,-0.22944 -0.105834,-0.10584 -0.141593,-0.22897 -0.141593,-0.35244 0,-0.10584 0.01809,-0.24705 0.01809,-0.37052 0,-0.26458 -0.01809,-0.5291 -0.01809,-0.81132 0,-0.81139 0.176733,-1.71093 0.176733,-2.52232 0,-0.37042 0.282154,-0.74105 0.282154,-1.00563 0,-1.32292 0.511596,-2.66357 0.511596,-3.8101 0,-0.82903 -0.546771,-1.02268 -0.934826,-1.02268 -0.440972,0 -0.617395,0.29975 -0.917257,0.42323 -0.546804,0.21166 -0.846736,0.77581 -1.305347,1.00511 -0.405694,-0.52916 -0.811251,-0.89917 -1.62264,-0.89917 -1.217082,0 -1.428991,0.88194 -1.92288,1.5875 -0.617361,0.88195 -0.74073,1.46392 -0.952396,2.01073 -0.211667,0.5468 -0.4408,1.12892 -0.4408,1.71101 -0.01764,0.15875 -0.123473,0.2293 -0.264584,0.26458 v 0.52917 c 0.335139,0.0353 0.211667,0.21139 0.264584,0.33486 0,0.74083 0.652466,1.12913 1.23455,1.12913 0.829027,0 0.793922,-0.018 1.675866,-1.62316 0.352778,-0.74083 0.970002,-2.09895 1.093474,-2.13423 0.440972,-0.12347 0.370107,-0.40548 0.47594,-0.84646 0.03528,-0.15875 0.670623,-0.72347 0.7059,-0.72347 0.229305,-0.12347 0.282188,-0.28209 0.40566,-0.56431 0.440972,0 0.229375,-0.44112 0.511596,-0.49403 0.141111,-0.0176 0.26448,-0.0525 0.42323,-0.0879 0.01764,0.19403 0.105937,0.37021 0.105937,0.58188 -0.176389,0.33513 -0.264583,0.10577 -0.264583,1.34049 0,0.0882 -7e-5,0.19396 0.01757,0.28215 0,0.19403 -0.264515,0.51177 -0.282154,0.86455 -0.08819,1.49931 -0.247013,3.24559 -0.247013,4.62142 0,0.24695 0.264583,0.33524 0.264583,0.6351 0,0.17639 -0.01757,0.35278 -0.01757,0.52917 0.01764,0.29986 -0.01757,0.61715 0.247014,0.84646 0.08819,0.0529 0.0174,0.26448 0.193786,0.42323 0.299861,0.28222 0.511425,0.56482 0.952397,0.56482 0.264584,0 0.688296,-3e-4 0.829407,-0.31781 0.123472,-0.28222 0.370314,-0.49361 0.42323,-0.86403 0,-0.37042 -3.6e-5,-0.97048 0.141076,-1.23506 0.176389,-0.22931 0.07032,-0.51143 0.193787,-0.68782 0.229305,-0.44097 0.317845,-1.09361 0.441317,-1.5875 0.123472,-0.51153 0.405385,-0.98753 0.47594,-1.5167 0,-0.21105 0.139677,-0.50889 0.31781,-0.80615 v 0.0124 c 0,0.4057 -0.105937,0.81128 -0.105937,1.21698 0,0.28222 0.105937,0.52903 0.105937,0.82889 0,0.22931 -0.01809,0.56469 -0.01809,0.86455 0,1.0407 0.28267,0.81118 0.28267,1.64021 0,0.15875 0.01737,0.28246 0.07028,0.33538 0.388056,0.37041 0.388159,1.81659 1.16427,1.90479 0.123472,0 0.264617,-0.0884 0.38809,-0.0884 0.105833,0 0.176389,0.12351 0.264583,0.12351 0.01764,0 0.352743,-0.28205 0.40566,-0.4408 0.08819,-0.24694 0.511563,-0.24677 0.652674,-0.70538 0.15875,-0.54681 0.440731,-1.0058 0.45837,-1.62316 0,-0.0706 -0.01757,-0.14087 -0.01757,-0.19379 0,-0.0882 0.01757,-0.17639 0.01757,-0.26458 0,-0.10584 -0.05271,-0.19395 -0.05271,-0.28215 0,-0.0353 0.0175,-0.0706 0.03514,-0.10594 0.08819,0 0.176458,0.0176 0.247013,0.0176 0.07582,-0.35065 0.0849,-0.70607 0.08578,-1.06143 0.08541,0.21024 0.244959,0.51558 0.443384,0.62063 0.07056,0.0353 0.123368,0.12317 0.158646,0.21136 0.370416,0.54681 0.846874,0.5294 1.53479,0.59996 0.105833,-0.0706 0.211392,-0.14131 0.334864,-0.21187 0.05292,0.0353 0.123816,0.0532 0.176733,0.0532 0.299861,0 1.463925,-1.42895 1.746147,-1.53479 0.29986,-0.10583 0.564445,-0.89975 1.058333,-1.1467 0.194028,0 0.282153,-0.28212 0.282153,-0.42323 0,-0.17639 0.952397,-0.96996 0.952397,-0.96996 0.176389,-0.12347 0.705383,-0.33501 0.705383,-0.56431 0,-0.14111 -0.17632,-0.1943 -0.282153,-0.1943 -0.546805,0 -1.287536,0.84681 -1.481563,1.02319 -0.917222,0.81139 -1.85198,1.55243 -2.80448,2.32854 -0.194028,0.15875 -0.511597,0.37 -0.77618,0.37 -0.635,0 -0.687814,-1.48156 -0.687814,-2.27531 0,-0.28222 0.01781,-0.77618 0.35295,-0.77618 0.246945,0 0.493579,0.0708 0.740524,0.0708 0.987778,0 1.993435,-0.91736 2.187463,-1.28778 0.08819,-0.17639 0.211391,-0.28219 0.334863,-0.40566 0.141111,-0.15875 0.211701,-0.44097 0.38809,-0.52917 0.176389,-0.12347 0.247014,-0.29992 0.247014,-0.51159 0,-0.10583 -0.01757,-0.2119 -0.01757,-0.33538 0,-0.0529 0.01757,-0.1233 0.01757,-0.17622 0,-0.9525 -1.499168,-1.62264 -2.41639,-1.62264 -0.282222,0 -0.405798,0.26476 -0.635104,0.35295 -0.388054,0.15875 -0.617533,0.51107 -0.882116,0.77566 -0.123472,0.38805 -0.722849,0.54688 -0.8816,1.04077 -0.08819,0.28222 -0.264928,0.5118 -0.441317,0.72347 0.0016,0.006 0.0031,0.0127 0.0047,0.0191 -0.249073,0.37046 -0.185134,0.92066 -0.427881,1.21543 -0.229305,0.28222 -0.211873,1.09364 -0.211873,1.44642 0,0.13484 0.112973,0.26967 0.12299,0.38912 -5.5e-5,0.0107 -4.31e-4,0.0211 -5.17e-4,0.032 -0.0089,0.085 -0.08682,0.18347 -0.08682,0.26665 0,0.088 0.03522,0.16743 0.05581,0.24392 -0.01819,0.11338 -0.04611,0.20527 -0.09095,0.25011 -0.123472,0 -0.08853,-0.67024 -0.176733,-0.67024 -0.123472,0 1.72e-4,0.40566 -0.176217,0.40566 -0.03528,0 -0.07059,3e-5 -0.123506,-0.0176 -0.440972,0.84667 -1.023193,3.35121 -1.287777,3.35121 -0.105833,-0.0176 -0.08829,-0.38808 -0.105937,-0.65267 -0.01764,0.0176 -0.03507,0.0176 -0.05271,0.0176 -0.423332,0 -0.494026,-0.3351 -0.494026,-0.67024 0,-0.2293 0.01757,-0.37021 0.01757,-0.58188 0,-0.51153 0.28267,-0.61726 0.28267,-1.21698 0,-0.28223 -0.01789,-0.7059 -0.0708,-0.7059 -0.05292,0 -0.08829,0.0532 -0.105937,0.0532 -0.05292,0 -0.07028,-0.14132 -0.07028,-0.21188 0,-0.29986 0.247014,-0.33521 0.247014,-0.77618 0,-0.261 -0.01742,-0.4188 -0.136426,-0.54157 0.05121,-0.31265 0.10279,-0.46005 0.153996,-0.88676 0,-0.17639 -0.159164,-0.26455 -0.159164,-0.40566 0,-0.14111 0.159164,-0.28264 0.159164,-0.42375 0,-0.10583 -0.0708,-0.21146 -0.0708,-0.31729 0,-0.26458 0.141077,-0.58219 0.141077,-0.89969 0,-0.14112 -0.07028,-0.28212 -0.07028,-0.42323 0,-0.14111 0.07028,-0.35292 0.07028,-0.49403 0,-0.0882 -0.05271,-0.15882 -0.05271,-0.24701 0,-0.0529 0.05271,-0.12323 0.05271,-0.19379 0,-0.10583 -0.07028,-0.17632 -0.07028,-0.28215 0.03528,-0.24695 -0.01805,-0.49416 0.10542,-0.72347 0,0 0.01809,-0.0174 0.01809,-0.0351 0,-0.10584 -0.0708,-0.19395 -0.0708,-0.28215 0,-0.75847 0.211873,-2.01077 0.211873,-2.92799 0,-0.47626 -0.05302,-0.59996 -0.635103,-0.59996 z m 18.450036,0.75861 c -1.058333,0 -2.028369,0.33496 -3.069063,0.4408 -0.194028,0.0176 -0.388297,0.10593 -0.599963,0.10593 -0.299861,0 -0.564169,-0.21187 -0.86403,-0.21187 -0.194028,0 -0.617534,0.0883 -0.617534,0.24701 0,0.0882 0.03566,0.14132 0.03566,0.21188 0,0.2293 -2.557983,0.74083 -2.822567,0.79375 -0.229304,0.0529 -0.440937,0.0879 -0.670243,0.0879 -0.176389,0 -0.387918,-0.10542 -0.564307,-0.10542 -0.194027,0 -0.37052,0.17611 -0.37052,0.33486 0,0.56444 0.758403,0.9352 0.81132,0.97048 0.335139,0.15875 0.635138,0.2465 1.023194,0.2465 0.811389,0 1.834238,-0.56431 2.43396,-0.56431 0.07056,0 0.247013,0.10615 0.247013,0.5824 0,0.14111 -0.08785,0.24645 -0.08785,0.38757 0,0.15875 0.12299,0.35278 0.12299,0.52917 0,0.19403 -0.193787,0.38836 -0.193787,0.58239 0,0.10583 0.01757,0.21145 0.01757,0.31729 0,0.44097 -0.105936,0.89959 -0.105936,1.32292 0,0.21167 0.229443,0.40607 0.229443,0.56482 -0.176389,0.35278 -0.211873,0.51109 -0.211873,1.04025 0,0.19403 0.05323,0.3885 0.05323,0.54725 0,0.24694 -0.0708,0.47602 -0.0708,0.72296 0.05121,0.6145 -0.04608,1.42697 0.315226,1.87843 -0.0046,0.009 -0.01499,0.0124 -0.01499,0.0264 l 0.01757,0.0181 c 0,0 0.01125,-0.0118 0.0186,-0.0191 6.32e-4,7.3e-4 0.0014,0.001 0.0021,0.002 -0.02507,0.0337 -0.03824,0.0752 -0.03824,0.10491 0,0.28222 0.158439,0.72339 0.211356,1.00562 -0.01764,0.0529 -0.03514,0.10573 -0.03514,0.15865 0,0.26458 0.300068,0.47628 0.476457,0.65267 0.423334,-0.10584 0.8816,-0.15891 0.8816,-0.61753 0,-0.24694 -0.229443,-0.59956 -0.229443,-0.70539 0,-0.15875 -0.10542,-0.28218 -0.10542,-0.40566 0,-0.0705 0.05271,-0.14125 0.05271,-0.22944 0,-0.12347 -0.105937,-0.22903 -0.105937,-0.33486 0,-0.0353 0.01802,-0.0532 0.03566,-0.0532 h -0.01809 c 0.01764,-0.0353 0.01802,-0.0882 0.03566,-0.12351 l -0.01757,0.0176 c 0.01764,-0.0353 0.05271,-0.10572 0.05271,-0.15864 0,-0.0706 -0.0708,-0.15882 -0.0708,-0.24702 0,-0.35277 0.211666,-0.84649 0.264583,-1.23455 0.07055,-0.49389 1.77e-4,-1.00518 0.08837,-1.5167 0,-0.3175 -0.03514,-0.65298 -0.03514,-0.97048 0,-0.51153 0.07028,-1.02282 0.07028,-1.51671 0,-0.10583 -0.03514,-0.21191 -0.03514,-0.33538 0,-0.68792 0.105903,-2.5044 0.511597,-2.5926 0.440972,-0.0882 1.023056,-0.24715 1.322916,-0.47646 0.08819,0.0176 0.17639,0.0884 0.264584,0.0884 0.105834,0 0.158542,-0.15917 0.317293,-0.15917 0.670277,-0.14111 2.38125,-0.0704 2.38125,-0.84646 0,-0.56444 -1.093543,-0.5643 -1.340487,-0.5643 z m 54.274724,0.14107 c -0.5468,0 -1.16427,0.0705 -1.16427,0.68782 0,0.67028 -0.5641,2.01114 -0.61702,2.69906 0,0.51152 -0.28267,0.95222 -0.28267,1.39319 0,0.10583 0.0181,0.24718 0.0181,0.33538 0,0.42333 -0.15896,0.12302 -0.74104,0.51108 -0.29987,0.21166 -0.86413,0.2999 -1.23455,0.38809 -0.42333,0.10584 -0.74122,0.42362 -1.35857,0.45889 -0.0882,0 -0.15882,-0.0532 -0.24702,-0.0532 -0.15875,0 -0.1234,0.19431 -0.28215,0.19431 -0.0529,0 -0.0703,-0.0705 -0.0703,-0.12351 0,-0.37041 0.4408,-0.38819 0.4408,-0.75861 0,-0.0529 -0.0351,-0.1233 -0.0351,-0.17622 0,-0.10583 0.0879,-0.21153 0.0879,-0.29972 0,-0.12347 -0.0879,-0.26454 -0.0879,-0.40566 0,-0.2293 0.26458,-0.42357 0.26458,-0.59996 0,-0.0529 -0.0356,-0.12323 -0.0356,-0.19379 0,-0.10583 0.10593,-0.21197 0.10593,-0.31781 0,-0.12347 -0.10593,-0.21138 -0.10593,-0.33486 0,-0.44097 0.38809,-0.93514 0.38809,-1.25264 0,-0.17639 -0.33487,-1.4e-4 -0.33487,-0.22944 0.0706,-0.33514 0.0879,-0.63455 0.0879,-1.04025 0,-0.37042 -0.0525,-0.74104 -0.35243,-0.74104 -0.37042,0 -0.97003,0.12354 -1.21698,0.24701 -0.0529,0.38806 -0.0176,0.75821 -0.14108,1.12862 0,0.0176 -0.0181,0.0355 -0.0181,0.0708 0,0.15875 0.0357,0.29962 0.0357,0.45837 0,0.2293 -0.0532,0.44145 -0.0532,0.67076 0,0.2293 0.24701,0.29969 0.24701,0.4408 0,0.0353 -0.0174,0.0883 -0.0351,0.10594 -0.2293,0.3175 -0.26458,0.776 -0.26458,1.21698 0,0.21166 0.0176,0.40542 0.0176,0.59945 0,0.22931 -0.0178,0.44128 -0.0708,0.58239 -0.15875,0.4057 -0.10539,1.1641 -0.2465,1.34049 -0.14111,0.15875 -0.1943,0.3352 -0.1943,0.51159 0,0.40569 0.0708,0.89952 0.0708,1.34049 0,0.24695 -0.0532,0.47607 -0.0532,0.70538 0,0.15875 0.0357,0.31771 0.0357,0.47646 0,0.12347 -0.0176,0.22903 -0.0176,0.33486 0,0.45861 0.0701,0.93511 0.0879,1.39372 -0.0353,0.0882 -0.0351,0.15888 -0.0351,0.22944 0,0.33514 0.17621,0.61712 0.17621,0.98754 0,0.40569 0.24702,0.7235 0.24702,1.11156 0,0.0353 -0.0176,0.0702 -0.0176,0.10542 0,0.28222 0.47635,0.6351 0.6351,0.6351 0.3175,0 0.65267,-0.79372 0.65267,-1.19941 0,-0.26459 -0.15864,-0.51146 -0.15864,-0.81132 0,-0.44098 -0.14146,-0.86438 -0.17674,-1.30535 -0.10583,0.12347 -0.10576,0.29973 -0.28215,0.29973 -0.14111,0 -0.0708,-0.42323 -0.0884,-0.42323 0,-0.37042 -0.24649,-0.17619 -0.24649,-1.11105 0,-0.15875 0.19378,-0.28219 0.19378,-0.40566 0,-0.15875 -0.2293,-0.15906 -0.26458,-0.31781 0,-0.26458 -0.0174,-0.52917 -0.0351,-0.79375 0.10478,-0.14967 0.19614,-0.28559 0.28629,-0.42064 0.0743,0.10369 0.0654,0.24443 0.15451,0.24443 0.0176,0 0.0351,-0.0351 0.0351,-0.0703 0,-0.0353 -0.0176,-0.0882 -0.0176,-0.12351 0,-0.12347 0.0353,-0.24701 0.12351,-0.24701 0.0529,0 0.10579,0.17621 0.14107,0.17621 0.12347,0 0.42344,-0.65267 0.89969,-0.65267 0.54681,0 1.86993,-0.74052 2.32854,-0.74052 0.21167,0 0.26462,0.7933 0.38809,1.04024 0.0176,0.0529 0.0351,0.10618 0.0351,0.17674 0,0.24694 -0.15865,0.47632 -0.15865,0.77618 0,0.29986 0.61702,0.84642 0.61702,0.98753 0,0.12347 -0.17639,0.17647 -0.26458,0.24702 -0.0529,-0.0706 -0.0881,-0.14119 -0.15865,-0.24702 -0.0706,0.2293 -0.21136,0.4232 -0.21136,0.56431 0,0.86431 0.21167,1.57004 0.26459,2.46962 0.0176,0.19403 0.19361,0.42323 0.37,0.42323 0.44098,0 0.95291,-1.37553 0.95291,-1.53428 0,-0.3175 -0.24701,-0.72323 -0.24701,-0.91725 0,-0.19403 0.22944,-0.38806 0.22944,-0.52917 0,-0.15875 -0.14146,-0.15902 -0.17673,-0.1943 0,-0.26458 0.17673,-0.33501 0.17673,-0.56431 0,-0.0353 -0.0176,-0.0882 -0.0176,-0.12351 0,-0.0529 0.0174,-0.0883 0.0351,-0.10593 0.15875,-0.22931 0.19379,-0.51153 0.19379,-0.79375 0,-0.26458 -0.0351,-0.5113 -0.0351,-0.72296 0,-0.26459 0.0527,-0.44131 0.31729,-0.44131 0.0353,0 0.0706,0.0884 0.14108,0.21187 0.12347,-0.58208 0.1591,-1.14642 0.7059,-1.48156 0.35278,-0.21167 0.72295,-0.77612 0.72295,-1.05834 0,-0.0706 -0.0526,-0.33538 -0.19378,-0.33538 -0.12347,0 -0.17625,0.30024 -0.56431,0.30024 -0.14111,0 -0.21187,-0.071 -0.21187,-0.30024 0,-0.4057 0.0351,-0.66996 0.31729,-1.0051 l 0.0181,0.0176 c -0.005,-0.008 -0.009,-0.0162 -0.014,-0.0243 -0.001,0.002 -0.003,0.004 -0.004,0.006 -0.0529,-0.10583 -0.14108,-0.19382 -0.14108,-0.31729 0,-0.0353 0.0176,-0.0705 0.0176,-0.12351 0,-0.0529 -0.0527,-0.15888 -0.0527,-0.22944 0,-0.14111 0.28195,-0.0349 0.33487,-0.22893 0.15875,-1.16417 0.42374,-1.81708 0.42374,-2.04639 0,-0.70555 -0.28249,-0.82889 -0.98805,-0.82889 z m 0.40979,3.76825 c 0.0464,-0.0929 0.13746,-0.2421 0.13746,-0.31109 0,-0.0176 -3.5e-4,-0.0351 -0.0357,-0.0351 -0.10583,0 -0.14108,0.14079 -0.14108,0.21135 0,0.0449 0.0139,0.09 0.0393,0.13488 z m -32.95354,-3.22151 c -0.458612,0 -0.617223,0.26455 -0.82889,0.67024 0.01764,0.15875 0.03514,0.31771 0.03514,0.47646 0,0.65264 -0.05299,1.81653 -0.511597,1.92236 -0.687916,0.10583 -1.199203,0.59997 -1.25212,0.59997 -0.194028,0 -0.58198,0.31753 -0.952396,0.38809 -0.211666,0.0353 -0.7059,0.0349 -0.7059,0.22892 0,0.52916 0.970242,0.68833 1.16427,0.68833 0.899583,0 1.005623,-0.51159 1.53479,-0.51159 0.05292,-0.0353 0.05275,-0.10594 0.176216,-0.10594 0.123473,0 0.211874,0.088 0.211874,0.19379 0,0.0705 -0.01757,0.14131 -0.01757,0.21187 0,0.10583 0.10542,0.19388 0.10542,0.29972 0,0.0529 -0.0175,0.1058 -0.03514,0.14108 -0.176389,0.33514 -0.229444,0.67048 -0.229444,1.00562 0,0.10583 0.01809,0.2291 0.01809,0.3173 0,0.14111 -0.05323,0.28219 -0.05323,0.40566 0,0.17639 0.05323,0.35277 0.05323,0.52916 0,0.0529 -0.01809,0.1058 -0.01809,0.14108 0,0.0705 0.176734,0.17684 0.176734,0.28267 0,0.14111 -0.247014,0.17632 -0.247014,0.28215 0,0.13801 0.286064,0.0406 0.29869,0.28371 -0.05224,0.0697 -0.08753,0.12223 -0.140043,0.19223 l 0.01757,0.0176 c 0.05216,-0.0695 0.104093,-0.12181 0.122473,-0.20774 2.17e-4,0.005 0.001,0.009 0.001,0.014 v -0.0176 c 0.14111,-0.0706 0.158646,-0.21177 0.158646,-0.37052 0,-0.12347 -0.01757,-0.24705 -0.01757,-0.37052 0,-0.3175 0.264584,-0.52889 0.264584,-0.59945 0,-0.15875 -0.247014,-0.38806 -0.247014,-0.52917 0,-0.12994 0.09231,-0.21737 0.230477,-0.35398 0.0044,0.22498 0.108162,0.84749 0.26355,0.84749 0.07056,0 0.123369,-0.0176 0.158647,-0.0176 0.08819,0 0.08829,0.053 0.105936,0.22945 0.07055,-0.37042 0.105937,-0.49393 0.105937,-0.91726 0,-0.26459 0.229443,-0.45837 0.229443,-0.72295 0.05292,-0.44097 0.08816,-0.86438 0.141077,-1.30535 -0.01764,-0.0176 -0.01757,-0.0532 -0.01757,-0.0708 0,-0.12348 0.08785,-0.24653 0.08785,-0.37 0,-0.0353 7e-5,-0.0882 -0.01757,-0.12351 0.123472,-0.28223 1.305416,-0.86454 1.287777,-0.86454 0.582083,-0.12347 0.987915,-0.12316 1.55236,-0.47594 0.05292,-0.0353 0.12323,-0.0532 0.193786,-0.0532 0.05292,0 0.1233,0.0176 0.176217,0.0176 0.105833,0 0.229684,-0.12351 0.30024,-0.12351 0.08819,0 0.282015,0.10594 0.317293,0.10594 0.07056,0 0.40566,-0.31733 0.40566,-0.4408 0,-0.0529 -0.01743,-0.10617 -0.05271,-0.17673 -0.01764,0.0353 -0.05316,0.0532 -0.0708,0.0532 -0.194027,0 0.08809,-0.68781 -0.635104,-0.68781 -0.246944,0 -0.211253,0.31729 -0.370003,0.31729 -0.105833,0 -0.194407,-0.22944 -0.30024,-0.22944 -0.211667,0 -0.546805,0.44132 -0.79375,0.44132 -0.529167,0 -1.199342,0.33497 -1.481563,0.4408 -0.162729,-0.065 -0.145676,-0.26507 -0.266651,-0.37879 0.0014,-0.005 0.0021,-0.009 0.0021,-0.009 -0.0038,0 -0.0076,8.5e-4 -0.01137,0.001 -0.004,-0.003 -0.0081,-0.007 -0.0124,-0.01 0.08305,-0.0935 0.112138,-0.31549 0.112138,-0.53795 0,-0.75847 -0.141388,-1.16427 -0.72347,-1.16427 z m -0.158647,7.28483 -0.01757,-0.0176 c 0.0035,0.007 0.006,0.0134 0.0093,0.0202 0.0031,-9.4e-4 0.0051,-0.002 0.0083,-0.003 z m -0.0083,0.003 c -0.222787,0.0672 -0.327812,0.0555 -0.397392,0.43822 -0.05292,-0.0353 -0.123368,-0.0705 -0.158646,-0.14108 -0.08819,0.17639 -0.0708,0.40586 -0.0708,0.61753 0,0.0353 0.05302,0.0884 0.105937,0.0884 0.04843,0 0.112286,-0.059 0.176733,-0.10955 0.0043,-0.2439 0.42323,-0.31561 0.42323,-0.63149 0,-0.0824 -0.0719,-0.15454 -0.07906,-0.262 z m -0.344165,0.89349 c -2.2e-5,0.001 -5.17e-4,0.002 -5.17e-4,0.004 h 5.17e-4 c 0.0055,0.006 0.01055,0.009 0.01602,0.0129 4.07e-4,-0.0102 0.0015,-0.0203 0.0015,-0.0305 -0.006,0.004 -0.01159,0.009 -0.01757,0.014 z m 0.01602,0.0165 c 0.0025,0.14867 -0.05168,0.29689 -0.05168,0.44545 0,0.0706 0.03514,0.14132 0.03514,0.21188 0,0.22931 -0.211356,0.49374 -0.211356,0.5643 0,0.12347 0.176216,0.2825 0.176216,0.45889 0,0.15875 -0.123506,0.29955 -0.123506,0.47594 0,0.0353 0.01757,0.0882 0.01757,0.12351 0,0.0706 -0.05251,0.22944 -0.10542,0.22944 -0.194028,0 -0.229444,-0.44115 -0.229444,-0.88212 0,-0.17639 0.01757,-0.33483 0.01757,-0.47594 0,-0.24694 -0.01737,-0.42323 -0.07028,-0.42323 -0.08819,0.0353 -0.08837,0.12324 -0.08837,0.19379 0,0.0706 0.01757,0.12375 0.01757,0.1943 0,0.14111 -0.05295,0.28174 -0.123507,0.38758 h 0.01757 0.01757 c -0.003,0.003 -0.004,0.003 -0.0062,0.005 0.114269,0.0499 0.165364,0.086 0.165364,0.154 0,0.15875 -0.158888,0.28215 -0.229443,0.28215 -0.123472,0 -0.176457,-0.1235 -0.247013,-0.1235 -0.176389,0 -0.176252,0.59958 -0.299724,0.82889 0,0.0353 0.08822,0.10593 0.123507,0.10593 0.141111,0 0.228892,-0.54673 0.370003,-0.54673 0.07056,0 0.08822,0.0706 0.123507,0.1235 0,0.19402 -0.228927,0.38816 -0.228927,0.63511 0,0.0705 0.01757,0.1408 0.01757,0.21135 0,0.33514 -0.38809,0.89942 -0.38809,0.96997 0,0.21167 0.211357,0.70563 0.211357,0.77618 0,0.0529 -0.01757,0.12382 -0.01757,0.17673 0,0.29986 0.40566,0.72306 0.40566,1.09348 -0.01764,0.0529 -0.01757,0.0882 -0.01757,0.1235 0,0.21166 0.423505,0.63511 0.882117,0.63511 0.123472,0 0.599618,-0.0708 0.687813,-0.33538 0,-0.0353 0.10573,-0.0703 0.158647,-0.0703 0.03528,0 0.07065,0.0176 0.105936,0.0176 0.03528,0 0.546668,-0.47671 0.564307,-0.54726 0.05292,-0.19403 0.264583,-0.1584 0.264583,-0.35243 0.05292,-0.24695 0.07072,-0.26458 0.35295,-0.26458 0.01764,0 0.08823,0.0527 0.123507,0.0527 0.08819,0 0.05265,-0.31726 0.07028,-0.45837 0.05292,-0.29986 0.458887,-0.26489 0.458887,-0.84698 0,-0.35278 -0.105937,-0.7757 -0.105937,-1.16375 0,-0.21167 0.01795,-0.42345 0.05323,-0.63511 0.176389,-0.19403 0.246496,-0.26462 0.246496,-0.38809 0,-0.0706 -0.035,-0.14104 -0.07028,-0.28215 -0.493888,0.70555 -0.988018,1.34017 -1.393713,2.08101 -0.282222,0.51153 -0.863961,1.51722 -1.146183,1.51722 -0.546805,0 -0.08847,-0.79396 -0.458887,-1.00562 -0.07056,-0.0353 -0.08785,-0.1941 -0.08785,-0.24702 0,-0.19403 0.211357,-0.24652 0.211357,-0.37 0,-0.17639 -0.193787,-0.2825 -0.193787,-0.45889 0,-0.77611 0.158647,-1.49951 0.158647,-2.32854 0,-0.0882 -0.03514,-0.19395 -0.03514,-0.28215 0,-0.21166 0.12323,-0.37014 0.193786,-0.59945 -0.08819,0 -0.158818,0.0351 -0.247013,0.0351 -0.01487,0 -0.04246,-0.001 -0.07183,-0.0222 z m -0.710551,1.50895 c -0.0042,-0.002 -0.007,-0.003 -0.01137,-0.005 l -0.01757,0.0176 c 0.0146,0 0.0185,-0.002 0.02894,-0.0124 z m -0.01137,-1.0635 c 0,0.0394 -0.140871,3.3e-4 -0.193787,0.0532 0.03528,0.0176 0.07021,0.0703 0.08785,0.0703 0.07056,0 0.105937,-0.0529 0.105937,-0.12351 z m 49.618163,-8.64288 c -0.45861,0 -0.61722,0.26455 -0.82889,0.67024 0.0176,0.15875 0.0351,0.31771 0.0351,0.47646 0,0.65264 -0.053,1.81653 -0.5116,1.92236 -0.68792,0.10583 -1.1992,0.59997 -1.25212,0.59997 -0.19403,0 -0.58249,0.31753 -0.95291,0.38809 -0.21167,0.0353 -0.70538,0.0349 -0.70538,0.22892 0,0.52916 0.97024,0.68833 1.16427,0.68833 0.89957,0 1.00562,-0.51159 1.53479,-0.51159 0.0529,-0.0353 0.0527,-0.10594 0.17621,-0.10594 0.12348,0 0.21136,0.088 0.21136,0.19379 0,0.0705 -0.0176,0.14131 -0.0176,0.21187 0,0.10583 0.10594,0.19388 0.10594,0.29972 0,0.0529 -0.0174,0.1058 -0.0351,0.14108 -0.17639,0.33514 -0.22945,0.67048 -0.22945,1.00562 0,0.10583 0.0176,0.2291 0.0176,0.3173 0,0.14111 -0.0527,0.28219 -0.0527,0.40566 0,0.17639 0.0527,0.35277 0.0527,0.52916 0,0.0529 -0.0176,0.1058 -0.0176,0.14108 0,0.0705 0.17622,0.17684 0.17622,0.28267 0,0.14111 -0.2465,0.17632 -0.2465,0.28215 0,0.13801 0.28608,0.0406 0.29869,0.28371 -0.0522,0.0697 -0.0875,0.12223 -0.14004,0.19223 l 0.0176,0.0176 c 0.052,-0.0693 0.104,-0.12159 0.12247,-0.20722 2e-4,0.005 0.001,0.009 0.001,0.0134 v -0.0176 c 0.14111,-0.0706 0.15864,-0.21177 0.15864,-0.37052 0,-0.12347 -0.0176,-0.24705 -0.0176,-0.37052 0,-0.3175 0.26459,-0.52889 0.26459,-0.59945 0,-0.15875 -0.24702,-0.38806 -0.24702,-0.52917 0,-0.12994 0.0923,-0.21737 0.23048,-0.35398 0.004,0.22498 0.10816,0.84749 0.26355,0.84749 0.0705,0 0.12337,-0.0176 0.15865,-0.0176 0.0882,0 0.0883,0.053 0.10593,0.22945 0.0706,-0.37042 0.10594,-0.49393 0.10594,-0.91726 0,-0.26459 0.22893,-0.45837 0.22893,-0.72295 0.0529,-0.44097 0.0882,-0.86438 0.14107,-1.30535 -0.0176,-0.0176 -0.0176,-0.0532 -0.0176,-0.0708 0,-0.12348 0.0884,-0.24653 0.0884,-0.37 0,-0.0353 3e-5,-0.0882 -0.0176,-0.12351 0.12347,-0.28223 1.30542,-0.86454 1.28778,-0.86454 0.58208,-0.12347 0.9874,-0.12316 1.55184,-0.47594 0.0529,-0.0353 0.12374,-0.0532 0.1943,-0.0532 0.0529,0 0.1233,0.0176 0.17622,0.0176 0.10583,0 0.22916,-0.12351 0.29972,-0.12351 0.0882,0 0.28253,0.10594 0.31781,0.10594 0.0705,0 0.40566,-0.31733 0.40566,-0.4408 0,-0.0529 -0.0174,-0.10617 -0.0527,-0.17673 -0.0176,0.0353 -0.0531,0.0532 -0.0708,0.0532 -0.19403,0 0.0881,-0.68781 -0.63511,-0.68781 -0.24694,0 -0.21177,0.31729 -0.37052,0.31729 -0.10583,0 -0.19388,-0.22944 -0.29972,-0.22944 -0.21166,0 -0.5468,0.44132 -0.79375,0.44132 -0.52916,0 -1.19933,0.33497 -1.48156,0.4408 -0.16272,-0.065 -0.14568,-0.26507 -0.26665,-0.37879 0.001,-0.005 0.002,-0.009 0.002,-0.009 -0.004,0 -0.008,8.5e-4 -0.0114,0.001 -0.004,-0.003 -0.008,-0.007 -0.0124,-0.01 0.083,-0.0935 0.11162,-0.31558 0.11162,-0.53795 0,-0.75847 -0.14087,-1.16427 -0.72295,-1.16427 z m -0.15865,7.28483 -0.0176,-0.0176 c 0.003,0.007 0.006,0.0133 0.009,0.0202 0.003,-9.4e-4 0.005,-0.002 0.008,-0.003 z m -0.008,0.003 c -0.22279,0.0672 -0.32781,0.0555 -0.39739,0.43822 -0.0529,-0.0353 -0.12337,-0.0705 -0.15864,-0.14108 -0.0882,0.17639 -0.0708,0.40586 -0.0708,0.61753 0,0.0353 0.053,0.0884 0.10594,0.0884 0.0485,0 0.1121,-0.0594 0.17673,-0.11007 0.005,-0.24347 0.42271,-0.31532 0.42271,-0.63097 0,-0.0824 -0.0314,-0.16523 -0.0785,-0.262 z m -0.34416,0.89297 c -3e-5,0.001 -5.2e-4,0.003 -5.2e-4,0.004 0.005,0.005 0.0111,0.008 0.0165,0.0124 3.9e-4,-0.01 0.001,-0.02 0.001,-0.03 -0.006,0.004 -0.0113,0.009 -0.0171,0.0134 z m 0.016,0.0165 c -0.006,0.14874 -0.0517,0.29722 -0.0517,0.44596 0,0.0706 0.0351,0.14132 0.0351,0.21188 0,0.22931 -0.21135,0.49374 -0.21135,0.5643 0,0.12347 0.17621,0.2825 0.17621,0.45889 0,0.15875 -0.1235,0.29955 -0.1235,0.47594 0,0.0353 0.0176,0.0882 0.0176,0.12351 0,0.0706 -0.053,0.22944 -0.10594,0.22944 -0.19403,0 -0.22944,-0.44115 -0.22944,-0.88212 0,-0.17639 0.0181,-0.33483 0.0181,-0.47594 0,-0.24694 -0.0179,-0.42323 -0.0708,-0.42323 -0.0882,0.0353 -0.0884,0.12324 -0.0884,0.19379 0,0.0706 0.0181,0.12375 0.0181,0.1943 0,0.14111 -0.0529,0.28174 -0.12351,0.38758 h 0.0176 0.0176 c -0.003,0.003 -0.004,0.003 -0.006,0.005 0.11427,0.0499 0.16485,0.086 0.16485,0.154 0,0.15875 -0.15889,0.28215 -0.22945,0.28215 -0.12347,0 -0.17646,-0.1235 -0.24701,-0.1235 -0.17639,0 -0.17624,0.59958 -0.29972,0.82889 0,0.0353 0.0882,0.10593 0.1235,0.10593 0.14111,0 0.22941,-0.54673 0.37052,-0.54673 0.0706,0 0.0882,0.0706 0.12351,0.1235 0,0.19402 -0.22944,0.38816 -0.22944,0.63511 0,0.0705 0.0176,0.1408 0.0176,0.21135 0,0.33514 -0.38809,0.89942 -0.38809,0.96997 0,0.21167 0.21187,0.70563 0.21187,0.77618 0,0.0529 -0.0176,0.12382 -0.0176,0.17673 0,0.29986 0.40566,0.72306 0.40566,1.09348 -0.0176,0.0529 -0.0176,0.0882 -0.0176,0.1235 0,0.21166 0.42299,0.63511 0.8816,0.63511 0.12347,0 0.60013,-0.0708 0.68833,-0.33538 0,-0.0353 0.10573,-0.0703 0.15865,-0.0703 0.0353,0 0.0706,0.0176 0.10593,0.0176 0.0353,0 0.54667,-0.47671 0.56431,-0.54726 0.0529,-0.19403 0.26458,-0.1584 0.26458,-0.35243 0.0529,-0.24695 0.0708,-0.26458 0.35295,-0.26458 0.0176,0 0.0877,0.0527 0.12299,0.0527 0.0882,0 0.0531,-0.31726 0.0708,-0.45837 0.0529,-0.29986 0.45889,-0.26489 0.45889,-0.84698 0,-0.35278 -0.10594,-0.7757 -0.10594,-1.16375 0,-0.21167 0.0174,-0.42345 0.0527,-0.63511 0.17639,-0.19403 0.24701,-0.26462 0.24701,-0.38809 0,-0.0706 -0.0355,-0.14104 -0.0708,-0.28215 -0.49389,0.70555 -0.98751,1.34017 -1.3932,2.08101 -0.28223,0.51153 -0.86448,1.51722 -1.1467,1.51722 -0.54681,0 -0.088,-0.79396 -0.45837,-1.00562 -0.0706,-0.0353 -0.0884,-0.1941 -0.0884,-0.24702 0,-0.19403 0.21188,-0.24652 0.21188,-0.37 0,-0.17639 -0.19431,-0.2825 -0.19431,-0.45889 0,-0.77611 0.15865,-1.49951 0.15865,-2.32854 0,-0.0882 -0.0351,-0.19395 -0.0351,-0.28215 0,-0.21166 0.12324,-0.37014 0.19379,-0.59945 -0.0882,0 -0.15831,0.0351 -0.2465,0.0351 -0.0149,0 -0.0424,-10e-4 -0.0718,-0.0227 z m -0.71055,1.50946 c -0.004,-0.002 -0.007,-0.003 -0.0114,-0.005 l -0.0176,0.0176 c 0.0146,0 0.0185,-0.002 0.0289,-0.0124 z m -0.0114,-1.0635 c -0.0384,0.01 -0.14138,3.3e-4 -0.1943,0.0532 0.0353,0.0176 0.0707,0.0703 0.0884,0.0703 0.0706,0 0.10594,-0.0529 0.10594,-0.12351 z m -61.947643,-7.81399 c -0.299861,0 -0.33538,0.35278 -0.33538,0.52917 0,0.3175 0.123404,0.86454 0.546737,0.86454 0.458611,0 0.670243,-0.47642 0.670243,-0.88211 0,-0.44097 -0.475905,-0.4234 -0.8816,-0.5116 z m 84.331293,0 c -0.29986,0 -0.33538,0.35278 -0.33538,0.52917 0,0.3175 0.1234,0.86454 0.54673,0.86454 0.45861,0 0.67076,-0.47642 0.67076,-0.88211 0,-0.44097 -0.47641,-0.4234 -0.88211,-0.5116 z m -77.64643,0.77618 c -0.3175,0.3175 -0.617017,0.47635 -0.8816,0.89969 -0.194027,0.3175 -0.688054,0.441 -0.75861,0.65267 -0.15875,0.47625 -0.705418,0.29993 -0.82889,0.77618 0,0.0176 -0.582221,0.63493 -0.75861,0.81132 -0.246944,0.2293 -0.476387,0.51163 -0.494026,0.89969 0,0.19403 -0.141077,0.37034 -0.141077,0.54673 0,0.12347 0.05323,0.22897 0.05323,0.35244 0,0.0529 -0.03566,0.10625 -0.03566,0.15916 0,0.33317 0.180274,0.57608 0.46147,0.76378 -0.129001,0.0963 -0.226887,0.2518 -0.267167,0.4532 -0.246943,1.14653 -0.899825,1.92247 -1.658296,2.82205 -0.03528,0.0353 -0.07066,0.0357 -0.105937,0.0357 -0.458611,0 -0.47594,-1.94069 -0.47594,-2.27583 0,-0.0353 -7e-5,-0.0702 0.01757,-0.0879 0.123472,-0.3175 0.01761,-0.65299 0.141077,-0.97049 0.03528,-0.42334 0.08837,-0.84629 0.08837,-1.28726 0,-0.635 -0.3175,-1.94041 -0.79375,-2.08152 -0.264582,-0.0706 -0.600033,-0.19431 -0.846976,-0.19431 -0.546806,0 -1.058334,3.84559 -1.058334,4.28656 0,0.38806 0.0708,0.77615 0.0708,1.18184 0,0.51153 0.458267,1.14636 0.617017,1.49914 0.264582,0.59972 1.023503,1.25263 1.605586,1.25263 0.405695,0 1.093232,-0.24719 1.28726,-0.59996 0.08819,-0.26459 0.441317,-0.51135 0.441317,-0.70538 0.03528,-0.22931 0.334828,-0.47632 0.47594,-0.77618 0.08819,-0.15875 0.03556,-0.37063 0.194303,-0.47646 0.194028,-0.15875 0.370313,-0.68785 0.42323,-0.81132 0.06421,-0.26971 0.352154,-0.56721 0.504362,-0.81132 0.0315,0.0667 0.06255,0.12351 0.113172,0.12351 0.723194,0 1.28726,-0.49403 1.28726,-0.49403 0.07056,0 0.15868,0.0706 0.282153,0.12351 0.370416,-0.24694 0.458921,-0.33541 0.846977,-0.45889 0.546805,-0.15875 0.899308,-0.47594 1.128613,-0.47594 0.123473,0 0.229546,0.0879 0.33538,0.0879 0.07055,0 0.158819,-0.0351 0.247013,-0.0351 0.264584,0 0.42323,0.26472 0.42323,0.49403 -0.141111,0.89958 -0.07063,1.62246 -0.77618,1.79885 -0.45861,0.10583 -0.564341,0.72347 -0.952396,0.72347 -0.352778,0 -0.370693,0.37032 -0.72347,0.42323 -0.176389,0 -0.405661,0.6175 -0.934827,0.75861 -0.405695,0.10583 -0.440663,0.47629 -0.740523,0.65268 -0.881944,0.52916 -1.199341,1.97555 -1.21698,2.11666 -0.08819,0.26459 -0.30024,0.63491 -0.30024,0.68782 0,0.3175 0.529511,1.23455 0.970483,1.23455 0.211667,0 0.228961,-0.3173 0.617017,-0.3173 0.423332,0 0.670657,-0.0178 1.09399,-0.35295 0.105834,-0.0882 0.21139,-0.1585 0.334863,-0.19378 0.176389,-0.0529 0.211494,-0.38809 0.4408,-0.38809 0.45861,0 0.194028,-0.51156 0.529167,-0.65268 0.229305,-0.0882 0.141283,-0.47632 0.35295,-0.51159 0.317499,-0.10584 0.299723,-0.47604 0.299723,-0.84646 -0.0042,-0.001 -0.0082,-0.002 -0.0124,-0.003 0.438209,-0.24624 0.753442,-0.52714 0.753442,-0.80822 0,-0.0706 -0.07058,-0.10594 -0.123507,-0.10594 -0.105833,0 -0.158956,0.0176 -0.211873,0.0176 -0.123472,0 -0.01757,-0.44132 -0.282153,-0.44132 -0.05292,0 -0.370313,0.56483 -0.42323,0.56483 v -0.0176 c 0,0.33514 -0.476285,0.91719 -0.652674,1.19941 -0.194028,0.51153 -0.299861,1.0408 -0.79375,1.16427 -0.440971,0.12347 -0.334966,0.68788 -0.705383,0.67024 -0.07055,0 -0.123747,-0.0176 -0.194303,-0.0176 -0.123472,0 -0.26455,0.0527 -0.40566,0.0527 -0.123473,0 -0.370004,-0.053 -0.370004,-0.22944 0.03528,-0.24694 -3.4e-5,-0.52931 0.141077,-0.75861 0.282222,-0.44097 0.564273,-1.16372 0.969967,-1.30483 0.370416,-0.21167 0.687745,-0.72355 1.23455,-0.97049 0.582083,-0.26458 0.688227,-0.93482 1.376143,-0.93482 0.01764,0.26458 0.105489,0.74104 0.352433,0.74104 0.493889,0 0.77618,-0.30007 0.77618,-0.74104 0,-0.14111 -0.05282,-0.24668 -0.158646,-0.33487 0,0.0882 0.01757,0.15883 0.01757,0.24702 -0.01805,0.15343 -0.02227,0.26957 -0.0646,0.34675 -0.04601,-0.10429 -0.05891,-0.21043 -0.05891,-0.32918 0,-0.21166 0.123403,-0.33538 0.282153,-0.33538 0.05292,0 0.123749,0.0176 0.194304,0.0176 0.07056,0 0.105936,-0.0172 0.105936,-0.0878 0,-0.0529 -0.01809,-0.10574 -0.01809,-0.15865 0,-0.29986 0.511941,-0.72347 0.68833,-0.72347 0.05292,0 0.123299,0.0176 0.176216,0.0176 0.08819,0 0.158509,-0.0354 0.193787,-0.10594 0.211667,-0.52917 1.393817,-0.75809 1.764233,-0.75809 0.08819,0 0.176321,0.0351 0.282154,0.0351 0.211666,0 0.564306,-0.24708 0.564306,-0.49403 0,-0.3175 -0.599516,-0.31754 -0.84646,-0.38809 -0.317499,0.12347 -0.652983,0.018 -0.970483,0.17674 -0.105833,0.0529 -0.211391,0.0703 -0.334863,0.0703 -0.493889,0 -0.264445,-0.35274 -0.564307,-0.40566 -0.03528,-0.17639 -0.03562,-0.61754 -0.176733,-0.61754 -0.05292,0 -0.158372,0.0882 -0.228927,0.14108 -0.194028,-0.19403 -0.08853,-0.4585 -0.176733,-0.68781 -0.370417,-0.37042 -0.65264,-0.54674 -1.322917,-0.54674 -1.358194,0 -2.575277,0.42337 -3.439583,0.65267 -0.03528,0.0176 -0.07065,0.0176 -0.105937,0.0176 -0.105833,0 -0.158647,-0.0529 -0.158647,-0.1235 0,-0.14111 0.247255,-0.42313 0.31781,-0.58188 0.123472,-0.42334 0.599689,-0.56483 0.670244,-0.82941 0.229305,-0.84667 0.84677,-0.91684 1.16427,-1.28726 0.246943,-0.37042 0.687434,-0.81155 1.181323,-0.88211 0.07056,-0.0176 0.123507,-0.14126 0.123507,-0.22945 -0.07055,-0.61736 -1.093577,-0.63482 -1.463994,-0.70538 z m 92.56903,0 c -0.3175,0.3175 -0.61753,0.47635 -0.88212,0.89969 -0.19402,0.3175 -0.68805,0.441 -0.75861,0.65267 -0.15875,0.47625 -0.70541,0.29993 -0.82889,0.77618 0,0.0176 -0.58222,0.63493 -0.75861,0.81132 -0.24694,0.2293 -0.47638,0.51163 -0.49402,0.89969 0,0.19403 -0.14108,0.37034 -0.14108,0.54673 0,0.12347 0.0532,0.22897 0.0532,0.35244 0,0.0529 -0.0357,0.10625 -0.0357,0.15916 0,0.51153 0.4236,0.81101 0.98805,1.02268 0.12347,0.0706 0.14119,0.31781 0.24702,0.31781 0.72319,0 1.28777,-0.49403 1.28777,-0.49403 0.0706,0 0.15869,0.0706 0.28216,0.12351 0.37042,-0.24694 0.45841,-0.33541 0.84646,-0.45889 0.54681,-0.15875 0.89983,-0.47594 1.12913,-0.47594 0.12347,0 0.22903,0.0879 0.33486,0.0879 0.0706,0 0.15882,-0.0351 0.24701,-0.0351 0.26459,0 0.42323,0.26472 0.42323,0.49403 -0.14111,0.89958 -0.0707,1.62246 -0.77618,1.79885 -0.45861,0.10583 -0.56434,0.72347 -0.95239,0.72347 -0.35278,0 -0.37018,0.37032 -0.72296,0.42323 -0.17639,0 -0.40565,0.6175 -0.93482,0.75861 -0.4057,0.10583 -0.44118,0.47629 -0.74104,0.65268 -0.88195,0.52916 -1.19934,1.97555 -1.21698,2.11666 -0.0882,0.26459 -0.29973,0.63491 -0.29973,0.68782 0,0.3175 0.529,1.23455 0.96997,1.23455 0.21167,0 0.22948,-0.3173 0.61753,-0.3173 0.42333,0 0.67015,-0.0178 1.09348,-0.35295 0.10584,-0.0882 0.21139,-0.1585 0.33486,-0.19378 0.17639,-0.0529 0.21202,-0.38809 0.44132,-0.38809 0.45862,0 0.19402,-0.51156 0.52916,-0.65268 0.22931,-0.0882 0.14077,-0.47632 0.35244,-0.51159 0.3175,-0.10584 0.30024,-0.47604 0.30024,-0.84646 -0.004,-0.001 -0.008,-0.002 -0.0124,-0.003 0.43801,-0.24619 0.75293,-0.52722 0.75293,-0.80822 0,-0.0706 -0.0706,-0.10594 -0.12351,-0.10594 -0.10583,0 -0.15844,0.0176 -0.21135,0.0176 -0.12348,0 -0.018,-0.44132 -0.28267,-0.44132 -0.0529,0 -0.37031,0.56483 -0.42323,0.56483 v -0.0176 c 0,0.33514 -0.47629,0.91719 -0.65268,1.19941 -0.19403,0.51153 -0.29986,1.0408 -0.79375,1.16427 -0.44097,0.12347 -0.33496,0.68788 -0.70538,0.67024 -0.0705,0 -0.12375,-0.0176 -0.1943,-0.0176 -0.12348,0 -0.26455,0.0527 -0.40566,0.0527 -0.12347,0 -0.37001,-0.053 -0.37001,-0.22944 0.0353,-0.24694 -4e-5,-0.52931 0.14108,-0.75861 0.28222,-0.44097 0.56427,-1.16372 0.96997,-1.30483 0.37041,-0.21167 0.68774,-0.72355 1.23455,-0.97049 0.58207,-0.26458 0.68823,-0.93482 1.37614,-0.93482 0.0176,0.26458 0.10549,0.74104 0.35243,0.74104 0.49389,0 0.77618,-0.30007 0.77618,-0.74104 0,-0.14111 -0.0528,-0.24668 -0.15864,-0.33487 0,0.0882 0.0176,0.15883 0.0176,0.24702 -0.018,0.1532 -0.0225,0.26905 -0.0646,0.34623 -0.0458,-0.1041 -0.0589,-0.21012 -0.0589,-0.32866 0,-0.21166 0.12392,-0.33538 0.28267,-0.33538 0.0529,0 0.12323,0.0176 0.19379,0.0176 0.0705,0 0.10593,-0.0172 0.10593,-0.0878 0,-0.0529 -0.0176,-0.10574 -0.0176,-0.15865 0,-0.29986 0.51143,-0.72347 0.68782,-0.72347 0.0529,0 0.12329,0.0176 0.17621,0.0176 0.0882,0 0.15903,-0.0354 0.19431,-0.10594 0.21166,-0.52917 1.39329,-0.75809 1.76371,-0.75809 0.0882,0 0.17633,0.0351 0.28216,0.0351 0.009,0 0.0178,-0.001 0.0269,-0.002 -0.0165,0.0673 -0.0269,0.12329 -0.0269,0.16072 0,0.33514 -0.14108,0.65284 -0.14108,1.00562 0,1.81681 1.25264,2.75177 1.25264,2.75177 0.35278,0.24694 0.77576,0.3174 1.14618,0.42323 0.2293,-0.14111 0.86458,-0.5116 0.98805,-0.5116 0.0176,0 0.0176,0.0176 0.0176,0.0176 1.25237,-1.25236 1.32298,-1.67566 1.56993,-1.99316 0.26458,-0.33514 -0.0356,-0.88181 0.35244,-1.09347 0.0706,-0.0706 0.35295,-1.48167 0.35295,-1.5875 0.0706,-0.51153 0.19426,-0.61726 0.86454,-0.9524 0.51153,-0.24694 1.07563,-0.52947 1.67535,-0.58239 0.39415,-0.0369 0.59848,-0.12564 0.68627,-0.22376 -0.0299,0.18438 -0.0512,0.36617 -0.0512,0.54157 0,0.10583 0.0176,0.19396 0.0176,0.28215 0,0.12348 -0.0884,0.21147 -0.0884,0.3173 0,0.14111 0.0708,0.28212 0.0708,0.42323 0,0.42333 -0.0351,0.75874 -0.0351,1.25263 0,0.77611 0.0702,1.74615 0.75809,1.74615 1.02306,0 1.464,-0.77611 1.99316,-1.5875 0.24695,-0.37042 0.77657,-1.1817 0.81184,-1.48156 0.0529,-0.44097 1.05823,-1.39372 1.21698,-1.39372 0.0353,0 0.0527,0.1058 0.0527,0.14108 0,0.15875 -0.0708,0.35285 -0.0708,0.5116 0,0.28222 0.0708,0.56474 0.0708,0.84697 0,0.14111 -0.0177,0.56428 -0.22945,0.70539 -0.0353,0.0353 -0.0703,0.0707 -0.0703,0.10593 0,0.0882 0.10594,0.14119 0.10594,0.24702 -0.0353,0.21167 -0.14159,0.44055 -0.14159,0.63458 0,0.14111 0.17673,0.21198 0.17673,0.31781 0,0.0529 -0.0357,0.1233 -0.0357,0.17622 0,0.0706 0.0181,0.12374 0.0181,0.1943 0,0.0705 -0.31781,0.56424 -0.31781,0.84646 0,0.22931 0.0708,0.44088 0.0708,0.68782 0,0.15875 -0.0176,0.3352 -0.0176,0.51159 0.0353,0.93486 0.3524,2.24018 1.28726,2.24018 0.14111,-0.0882 0.21205,-0.12351 0.30024,-0.12351 0.0529,0 0.1411,0.0174 0.26458,0.0351 0.26458,-0.22931 0.47626,-0.81118 0.52917,-0.84646 0.17639,-0.0882 0.17621,-0.21163 0.17621,-0.40566 0,-0.2293 0.35295,-0.44097 0.35295,-0.79375 0,-0.10583 -0.0351,-0.22954 -0.0351,-0.33538 0,0.0176 0.22938,-0.91719 0.24702,-0.93483 0.21166,-0.2293 0.15858,-0.58181 0.4408,-0.86403 0.15875,-0.12348 0.0353,-0.38798 0.14107,-0.54673 0.22931,-0.14111 0.81132,-1.00542 0.81132,-1.32292 0,-0.12347 -0.0879,-0.1943 -0.21135,-0.1943 -0.68791,0 -0.79399,0.82906 -1.12913,1.18184 -0.17638,0.19403 -0.21181,0.33493 -0.22945,0.58187 0,0.12348 -0.22924,0.10584 -0.28215,0.26459 -0.28223,0.58208 -0.93497,2.2226 -1.16427,2.2226 -0.17639,0 -0.14108,-1.0232 -0.14108,-1.55236 0,-0.56445 0.0175,-1.09355 0.15865,-1.34049 v -0.0176 c 0,-0.0353 -0.0703,-0.17632 -0.0703,-0.28215 0.0882,-0.0706 0.28215,-0.1236 0.28215,-0.22944 0,-0.0882 -0.19378,-0.22896 -0.19378,-0.35244 0,-0.0705 0.0527,-0.17645 0.0527,-0.24701 0,-0.0706 -0.0351,-0.14138 -0.0351,-0.1943 0,-0.29986 0.37,-0.42289 0.37,-0.77567 0,-1.7286 0.0709,-2.34611 -0.74052,-2.34611 -0.29986,0 -0.67052,0.0526 -0.86455,0.33487 -0.0882,0.14111 -0.75854,0.42347 -1.04076,0.75861 -0.21167,0.24694 -0.38785,0.58208 -0.58188,0.79375 -0.70555,0.49389 -1.28761,1.85208 -1.72858,1.85208 -0.0353,-0.0529 -0.0708,-0.0882 -0.0708,-0.14108 0,-0.35278 0.28246,-0.74076 0.33538,-1.0759 0.0353,-0.77611 0.0703,-1.55242 0.0703,-2.32854 0,-0.40569 -0.0175,-0.84646 -0.54674,-0.84646 -0.3175,0 -0.86403,0.21142 -0.86403,0.45837 0,0.36934 -0.0882,0.75765 -0.15916,1.13843 -0.0553,-0.12846 -0.2263,-0.23874 -0.29973,-0.23874 -0.0176,0 -0.0351,0.0174 -0.0351,0.0351 -0.93486,0.0529 -1.78146,0.4236 -2.6634,0.72347 -0.0529,0.0176 -0.10574,0.0351 -0.15865,0.0351 -0.29987,0 -0.35267,-0.37045 -0.42323,-0.65268 -0.19403,-0.65264 -0.8466,-1.37597 -1.34048,-1.55236 -0.42334,-0.14111 -0.81153,-0.51108 -1.28778,-0.51108 h -0.84698 c -1.16417,0 -1.86965,0.15872 -1.86965,1.99316 0,0.51153 0.49403,1.23465 0.49403,1.60507 0,0.14912 -0.0504,0.36272 -0.11369,0.58446 -0.18566,-0.0535 -0.4101,-0.0717 -0.53899,-0.10852 -0.3175,0.12347 -0.65246,0.018 -0.96996,0.17674 -0.10584,0.0529 -0.21191,0.0703 -0.33538,0.0703 -0.49389,0 -0.26444,-0.35274 -0.56431,-0.40566 -0.0353,-0.17639 -0.0351,-0.61754 -0.17622,-0.61754 -0.0529,0 -0.15889,0.0882 -0.22944,0.14108 -0.19403,-0.19403 -0.088,-0.4585 -0.17622,-0.68781 -0.37042,-0.37042 -0.65264,-0.54674 -1.32291,-0.54674 -1.35819,0 -2.57529,0.42337 -3.43959,0.65267 -0.0353,0.0176 -0.0707,0.0176 -0.10593,0.0176 -0.10583,0 -0.15865,-0.0529 -0.15865,-0.1235 0,-0.14111 0.24674,-0.42313 0.31729,-0.58188 0.12348,-0.42334 0.5997,-0.56483 0.67025,-0.82941 0.22931,-0.84667 0.84677,-0.91684 1.16427,-1.28726 0.24694,-0.37042 0.68795,-0.81155 1.18184,-0.88211 0.0705,-0.0176 0.1235,-0.14126 0.1235,-0.22945 -0.0706,-0.61736 -1.09357,-0.63482 -1.46399,-0.70538 z m -35.48517,0.1049 c 5.9e-4,0.001 0.001,0.003 0.002,0.004 -0.004,10e-4 -0.007,0.002 -0.0109,0.004 0.003,-0.003 0.006,-0.005 0.009,-0.008 z m -48.400669,5.2e-4 c 5.17e-4,0.001 9.9e-4,0.002 0.0016,0.004 -0.0034,0.001 -0.0069,0.002 -0.01033,0.004 0.0029,-0.003 0.006,-0.005 0.0088,-0.008 z m -18.419548,0.84749 c -0.599722,0 -1.375867,0.72289 -1.446423,1.00511 -0.05292,0.22931 -0.547116,0.67021 -0.846977,1.0759 0.01764,-0.15875 0.05323,-0.2466 0.05323,-0.35243 -0.105833,-0.38806 -0.159095,-1.02319 -0.7059,-1.02319 -0.194027,0 -0.370279,0.0703 -0.564307,0.0703 -0.03528,0 -0.08822,-0.0176 -0.123507,-0.0176 -0.141111,0 -0.599618,0.88232 -0.687813,1.09399 -0.282222,0.61736 -0.740903,1.30486 -0.77618,1.9575 0,0.19402 -0.193787,0.52955 -0.193787,0.82941 0,0.0882 -7e-5,0.15829 0.01757,0.24649 -0.141112,0.14111 -0.24722,0.77656 -0.458886,0.81184 l 0.141076,0.10542 c -0.03528,0.14111 -0.10542,0.37042 -0.10542,0.52917 0,0.0882 0.08785,0.19441 0.08785,0.30024 0,0.0353 -0.01757,0.0526 -0.01757,0.0703 -0.229305,0.28222 -0.299723,0.88184 -0.299723,1.21698 0,0.29986 0.07028,0.54681 0.07028,0.79375 0,0.17639 -0.03514,0.3177 -0.03514,0.47645 0,0.58208 0.158991,1.18184 0.599963,1.18184 0.670278,0 0.987606,-1.53441 0.969967,-1.49913 0.3175,-0.56444 0.299792,-1.21721 0.546737,-1.81694 0.511527,-1.21708 0.387952,-1.60542 0.687813,-2.04639 0.176389,-0.26458 0.264618,-0.56423 0.38809,-0.84646 0.335139,-0.82902 1.234895,-2.20493 1.94045,-2.62826 0.01764,0 0.0175,-0.0176 0.03514,-0.0176 0.264583,0 0.05292,2.13423 0.79375,2.13423 0.264584,0 0.176526,-0.5293 0.494027,-0.75861 0.511527,-0.37041 0.652673,-0.63455 0.652673,-1.30483 0,-0.635 -0.26448,-1.5875 -1.21698,-1.5875 z m 44.537857,0.35244 c 0.0705,0 0.0884,0.0882 0.0884,0.1235 0,0.0882 -0.0529,0.12345 -0.1235,0.14108 -0.0706,0 -0.10594,-0.0178 -0.10594,-0.0884 0,-0.0882 0.14108,-0.17621 0.14108,-0.17621 z m -14.55209,0.45888 c -0.440969,0 -0.617397,0.29975 -0.917256,0.42323 -0.546807,0.21166 -0.846736,0.77581 -1.305347,1.00511 -0.405695,-0.52916 -0.811251,-0.89917 -1.62264,-0.89917 -1.217083,0 -1.428475,0.88194 -1.922363,1.5875 -0.617361,0.88195 -0.741247,1.46392 -0.952914,2.01073 -0.211666,0.5468 -0.4408,1.12892 -0.4408,1.71101 -0.01764,0.15875 -0.123471,0.2293 -0.264583,0.26458 v 0.52917 c 0.33514,0.0353 0.211666,0.21139 0.264583,0.33486 0,0.74083 0.652467,1.12913 1.23455,1.12913 0.829027,0 0.793923,-0.018 1.675867,-1.62316 0.352778,-0.74083 0.970001,-2.09895 1.093473,-2.13423 0.440973,-0.12347 0.370623,-0.40548 0.476457,-0.84646 0.03528,-0.15875 0.670105,-0.72347 0.705383,-0.72347 0.229306,-0.12347 0.282187,-0.28209 0.40566,-0.56431 0.440972,0 0.229374,-0.44112 0.511597,-0.49403 0.141112,-0.0176 0.26448,-0.0525 0.42323,-0.0879 0.0176,0.19403 0.105937,0.37021 0.105937,0.58188 -0.17638,0.33513 -0.264584,0.10577 -0.264584,1.34049 0,0.0882 -3e-5,0.19396 0.01757,0.28215 0,0.19403 -0.264514,0.51177 -0.282153,0.86455 -0.08819,1.49931 -0.247013,3.24559 -0.247013,4.62142 0,0.24695 0.264583,0.33524 0.264583,0.6351 0,0.17639 -0.01757,0.35278 -0.01757,0.52917 0.01764,0.29986 -0.01757,0.61715 0.247013,0.84646 0.0882,0.0529 0.01787,0.26448 0.194304,0.42323 0.299857,0.28222 0.51143,0.56482 0.952396,0.56482 0.264577,0 0.687783,-3e-4 0.82889,-0.31781 0.12347,-0.28222 0.37032,-0.49361 0.42323,-0.86403 0,-0.37042 -3e-5,-0.97048 0.141077,-1.23506 0.17639,-0.22931 0.07087,-0.51143 0.194303,-0.68782 0.229307,-0.44097 0.31733,-1.09361 0.4408,-1.5875 0.114326,-0.47361 0.364329,-0.91679 0.45682,-1.39991 0.09374,0.40592 0.285373,0.7121 0.671797,0.7121 1.02304,0 1.464,-0.77611 1.99316,-1.5875 0.24695,-0.37042 0.776043,-1.1817 0.811323,-1.48156 0.0529,-0.44097 1.05874,-1.39372 1.21749,-1.39372 0.0353,0 0.0527,0.1058 0.0527,0.14108 0,0.15875 -0.0703,0.35285 -0.0703,0.5116 0,0.28222 0.0703,0.56474 0.0703,0.84697 0,0.14111 -0.0177,0.56428 -0.22944,0.70539 -0.0353,0.0353 -0.0703,0.0707 -0.0703,0.10593 0,0.0882 0.10542,0.14119 0.10542,0.24702 -0.0353,0.21167 -0.14108,0.44055 -0.14108,0.63458 0,0.14111 0.17674,0.21198 0.17674,0.31781 0,0.0529 -0.0357,0.1233 -0.0357,0.17622 0,0.0706 0.0176,0.12374 0.0176,0.1943 0,0.0705 -0.31729,0.56424 -0.31729,0.84646 0,0.22931 0.0708,0.44088 0.0708,0.68782 0,0.15875 -0.0176,0.3352 -0.0176,0.51159 0.0353,0.93486 0.3524,2.24018 1.28726,2.24018 0.14111,-0.0882 0.21205,-0.12351 0.30024,-0.12351 0.0529,0 0.14111,0.0174 0.26459,0.0351 0.26458,-0.22931 0.47625,-0.81118 0.52916,-0.84646 0.17639,-0.0882 0.17622,-0.21163 0.17622,-0.40566 0,-0.2293 0.35295,-0.44097 0.35295,-0.79375 0,-0.10583 -0.0351,-0.22954 -0.0351,-0.33538 0,0.0176 0.22937,-0.91719 0.24701,-0.93483 0.21166,-0.2293 0.15858,-0.58181 0.4408,-0.86403 0.15875,-0.12348 0.0353,-0.38798 0.14108,-0.54673 0.22931,-0.14111 0.81132,-1.00542 0.81132,-1.32292 0,-0.12347 -0.0879,-0.1943 -0.21136,-0.1943 -0.68791,0 -0.79399,0.82906 -1.12913,1.18184 -0.17639,0.19403 -0.2118,0.33493 -0.22944,0.58187 0,0.12348 -0.22924,0.10584 -0.28215,0.26459 -0.28223,0.58208 -0.93497,2.2226 -1.16427,2.2226 -0.17639,0 -0.14108,-1.0232 -0.14108,-1.55236 0,-0.56445 0.018,-1.09355 0.15916,-1.34049 v -0.0176 c 0,-0.0353 -0.0708,-0.17632 -0.0708,-0.28215 0.0882,-0.0706 0.28215,-0.1236 0.28215,-0.22944 0,-0.0882 -0.19379,-0.22896 -0.19379,-0.35244 0,-0.0705 0.0527,-0.17645 0.0527,-0.24701 0,-0.0706 -0.0351,-0.14138 -0.0351,-0.1943 0,-0.29986 0.37001,-0.42289 0.37001,-0.77567 0,-1.7286 0.0709,-2.34611 -0.74053,-2.34611 -0.29986,0 -0.67051,0.0526 -0.86454,0.33487 -0.0882,0.14111 -0.75855,0.42347 -1.04077,0.75861 -0.21167,0.24694 -0.38784,0.58208 -0.581873,0.79375 -0.70555,0.49389 -1.28761,1.85208 -1.72858,1.85208 -0.0353,-0.0529 -0.0708,-0.0882 -0.0708,-0.14108 0,-0.35278 0.28247,-0.74076 0.33538,-1.0759 0.0353,-0.77611 0.0703,-1.55242 0.0703,-2.32854 0,-0.40569 -0.0175,-0.84646 -0.54673,-0.84646 -0.3175,0 -0.864033,0.21142 -0.864033,0.45837 0,0.61736 -0.247014,1.28802 -0.247014,1.88774 0,0.10583 0.01757,0.19396 0.01757,0.28215 0,0.12348 -0.08837,0.21147 -0.08837,0.3173 0,0.14111 0.0708,0.28212 0.0708,0.42323 0,0.1909 -0.0071,0.3644 -0.01499,0.54208 -0.09862,0.14625 -0.175764,0.30226 -0.214457,0.44597 -0.0176,0.0705 -0.05294,0.17601 -0.123507,0.22893 -0.493886,0.45861 -0.405487,0.89966 -0.581876,1.56993 -0.0529,0.22931 -0.229374,0.24735 -0.247014,0.42374 -0.2293,0.635 -0.40542,1.26959 -0.599446,1.95751 0,0.38805 -0.405657,1.711 -0.670244,1.711 -0.0529,0 -0.247013,-0.61725 -0.247013,-0.68781 0,-0.0705 0.01744,-0.15889 0.03514,-0.22944 -0.105837,-0.10584 -0.141077,-0.22897 -0.141077,-0.35244 0,-0.10584 0.01757,-0.24705 0.01757,-0.37052 0,-0.26458 -0.01757,-0.5291 -0.01757,-0.81132 0,-0.81139 0.176217,-1.71093 0.176217,-2.52232 0,-0.37042 0.282153,-0.74105 0.282153,-1.00563 0,-1.32292 0.511597,-2.66357 0.511597,-3.8101 0,-0.82903 -0.54677,-1.02268 -0.934827,-1.02268 z m 20.24941,0.19379 c 0.0529,0 0.0532,0.0531 0.0532,0.0708 -0.0176,0.0176 -0.018,0.0351 -0.0357,0.0351 -0.0176,0 -0.0351,-0.0176 -0.0351,-0.0176 0,-0.0353 0.0176,-0.0707 0.0176,-0.0884 z m 3.29851,0 c -0.24695,0 -0.38789,2.43434 -0.4408,2.99878 -0.0353,0.37042 -0.0884,0.75821 -0.0884,1.12862 0,0.47625 0.24702,0.86416 0.24702,1.35805 0,1.02305 0.88215,1.55236 1.53479,1.55236 1.23471,0 1.51695,-1.00511 1.85208,-2.06344 0.0706,-0.21167 0.10569,-0.44135 0.29972,-0.56482 0.0176,-0.21167 0.26445,-0.28185 0.29973,-0.49351 0.0353,-0.21167 1.04086,-1.90531 1.67586,-1.90531 0.0176,0.0706 0.0176,0.15889 0.0176,0.22944 0,0.26458 -0.0708,0.52917 -0.0708,0.79375 0,0.0706 0.0176,0.15889 0.0176,0.22945 0,0.635 -0.17622,1.32295 -0.17622,1.97559 0,0.26459 0.0527,0.52917 0.0527,0.79375 0,0.22931 -0.0176,0.49364 -0.0176,0.72295 0,0.14111 0.0532,0.26461 0.0532,0.38809 0,0.14111 -0.0356,0.26462 -0.0532,0.38809 0,0.91722 0.35281,1.14635 0.38809,1.49913 0.0353,0.24694 0.52928,0.56483 0.89969,0.56483 1.05833,0 1.23475,-1.71132 1.711,-2.2934 0.15875,-0.19403 0.0707,-0.51122 0.22945,-0.74053 0.28223,-0.40569 0.44094,-0.8468 0.67024,-1.28777 0.3175,-0.45861 0.79365,-0.97032 0.9524,-1.41129 0,-0.17639 -0.17626,-0.17621 -0.29973,-0.17621 -0.49389,0 -0.77645,0.63506 -0.97048,1.04076 -0.38805,0.51152 -0.68775,1.07577 -0.96997,1.64021 -0.2293,0.45861 -0.89975,1.90531 -1.1467,1.90531 -0.17639,0 -0.21135,-0.4766 -0.21135,-0.7059 0,-0.15875 0.0354,-0.31719 0.10593,-0.47594 0.15875,-0.37042 0.17615,-0.75857 0.19379,-1.16427 0,-0.0705 -0.0176,-0.15889 -0.0176,-0.22944 0,-0.44098 0.26458,-0.79379 0.26458,-1.18184 0,-0.21167 -0.0176,-0.40588 -0.0176,-0.61754 0,-0.65264 0.28216,-0.9877 0.28216,-1.86965 0,-1.21708 -0.26452,-1.37563 -1.34049,-1.37563 -0.38806,0 -0.61747,0.31757 -0.89969,0.5116 -1.14653,0.81139 -2.0814,1.90496 -2.91041,3.05149 -0.17639,0.24694 -0.35243,0.6175 -0.61702,0.75861 -0.19402,0 -0.22944,-0.52962 -0.22944,-1.07642 0,-1.41111 0.14107,-1.93982 0.14107,-3.15691 0,-0.72319 -0.91739,-0.74104 -1.41128,-0.74104 z m -9.11934,0.40566 c 0.0176,0.0176 0.0181,0.0351 0.0181,0.0527 0,0.0176 -4.9e-4,0.0356 -0.0181,0.0532 0,-0.0176 -0.0176,-0.0356 -0.0176,-0.0532 0,-0.0176 0.0176,-0.0351 0.0176,-0.0527 z m 65.66938,0 c 1.21708,0 1.95836,1.16417 2.39933,2.11667 0.0529,0.10584 0.0527,0.21146 0.0527,0.31729 0,0.4057 -1.02295,0.59976 -1.48156,0.65267 -0.0882,0 -0.22944,-0.0175 -0.22944,-0.15864 0,-0.15875 0.24701,-0.47636 0.24701,-0.63511 0,-0.40569 -1.076,-0.67011 -1.18184,-0.70538 -0.12347,-0.0529 -0.21166,-0.0708 -0.26458,-0.0708 -0.12347,0 -0.17629,0.106 -0.42323,0.35295 0,0.0176 -0.018,0.0176 -0.0357,0.0176 -0.22931,0 -0.22893,-0.37041 -0.22893,-0.52916 0,-0.51153 0.31722,-1.23479 0.86403,-1.30535 0.10583,-0.0176 0.22524,-0.007 0.28216,-0.0527 z M 28.183339,206.9715 c 0.03528,0.0353 0.03514,0.0706 0.03514,0.10594 0,0.0529 -0.01757,0.0706 -0.01757,0.12351 0,-0.0529 -0.01757,-0.1589 -0.01757,-0.22945 z m 85.424761,0.0708 h 0.0176 l -0.0176,0.0351 z m -5.29166,0.0176 c 0.0176,0.0353 0.0532,0.0707 0.0532,0.10594 0,0.0353 -0.0356,0.0701 -0.0532,0.10542 -0.0176,-0.0353 -0.0527,-0.0702 -0.0527,-0.10542 0,-0.0353 0.0351,-0.0707 0.0527,-0.10594 z m -60.007198,0.10594 c 0.352778,0 0.42323,0.49389 0.42323,0.79375 0,1.12889 -1.516806,1.60466 -2.151806,1.71049 -0.282222,-0.0353 -0.37052,-0.0352 -0.37052,-0.15865 0,-0.47625 0.934929,-2.34559 2.099096,-2.34559 z m 60.289348,0.14107 c 0.0176,0.0705 0.0357,0.14081 0.0357,0.21136 0,0.0529 -0.018,0.10574 -0.0357,0.15865 -0.0353,-0.0705 -0.0351,-0.10573 -0.0351,-0.15865 0,-0.0529 -1.6e-4,-0.10553 0.0351,-0.21136 z m -81.614661,0.22893 c 0.05292,0.0706 0.08837,0.12382 0.08837,0.17673 0,0.15875 -0.299999,0.70542 -0.494027,0.82889 -0.3175,0.635 -0.723195,1.21715 -1.058333,1.83452 -0.370417,0.68791 -1.199686,2.50475 -1.393714,2.50475 -0.211666,0 -0.228926,-0.61757 -0.228926,-0.74104 0,-0.37042 0.229237,-1.34048 0.546736,-1.86965 0.07056,-0.12347 0.123369,-0.24705 0.158647,-0.37052 0.47625,-1.23473 1.464028,-2.11673 2.38125,-2.36368 z m 54.504167,0.17673 c 0.05292,0 0.05271,0.0351 0.05271,0.0527 -0.01764,0.0176 -0.03514,0.0351 -0.03514,0.0351 -0.01764,0 -0.03566,-0.0174 -0.03566,-0.0527 0,-0.0176 0.01809,-0.0351 0.01809,-0.0351 z m 48.400664,0 c 0.0529,0 0.0532,0.0351 0.0532,0.0527 l -0.0357,0.0351 c -0.0176,0 -0.0351,-0.0174 -0.0351,-0.0527 0,-0.0176 0.0176,-0.0351 0.0176,-0.0351 z m -95.549208,0.0703 c 0.123472,0 0.317328,0.053 0.4408,0.10594 0,0.0529 0.01757,0.0882 0.01757,0.12351 0,0.17639 -0.264583,0.52916 -0.264583,0.52916 -0.388056,0.29986 -0.59955,0.75848 -0.969967,1.05834 -0.194027,0.15875 -0.335414,0.37027 -0.458886,0.5643 -0.246945,0.40569 -1.163995,1.64073 -1.23455,1.64073 -0.08819,0 -0.105937,-0.0529 -0.105937,-0.12351 0.264584,-1.34056 1.093783,-3.05169 2.205033,-3.79253 0.123472,-0.0705 0.229409,-0.10594 0.37052,-0.10594 z m 56.743824,0 c -0.123472,0 0.317329,0.053 0.4408,0.10594 0,0.0529 0.01809,0.0882 0.01809,0.12351 0,0.17639 -0.264584,0.52916 -0.264584,0.52916 -0.388055,0.29986 -0.600066,0.75848 -0.970483,1.05834 -0.194028,0.15875 -0.334898,0.37027 -0.45837,0.5643 -0.246945,0.40569 -1.164512,1.64073 -1.235067,1.64073 -0.08819,0 -0.10542,-0.0529 -0.10542,-0.12351 0.264584,-1.34056 1.093267,-3.05169 2.204517,-3.79253 0.123472,-0.0705 0.511631,-0.10594 0.37052,-0.10594 z m -61.047954,0.19431 c 0.07055,0 0.05271,0.10572 0.05271,0.15864 0,0.0176 -0.03507,0.0174 -0.05271,0.0351 -0.03528,0 -0.05271,-0.0707 -0.05271,-0.0884 0,-0.0529 0.01743,-0.0878 0.05271,-0.10542 z m 58.084827,0.10542 c -0.03528,0 -0.08837,0.0355 -0.08837,0.0884 0,0.0176 0.03559,0.0531 0.05323,0.0884 0.01764,0 0.0175,0.0176 0.03514,0.0176 0.03528,0 0.07028,-0.0707 0.07028,-0.10594 0,-0.0353 -0.035,-0.0884 -0.07028,-0.0884 z m -58.34941,0.0357 c 0.08819,0.0529 0.08837,0.0354 0.08837,0.10594 0,0.0882 -0.03552,0.10566 -0.0708,0.17622 -0.01764,-0.0353 -0.05271,-0.0707 -0.05271,-0.10594 0,-0.0529 0.0175,-0.10567 0.03514,-0.17622 z m 78.439661,0.10594 c 0.14111,0 0.14108,0.22896 0.14108,0.35243 0,0.10583 -3e-5,0.35295 -0.12351,0.35295 -0.1333,-0.12519 -0.2465,-0.32462 -0.2465,-0.47645 0,-0.10584 0.10545,-0.19365 0.22893,-0.22893 z m -26.828341,0.19379 c 0.01764,0 0.03514,-3e-5 0.03514,0.0176 0,0.0176 -0.01757,0.0356 -0.01757,0.0532 -0.01764,-0.0176 -0.03514,-0.0181 -0.03514,-0.0181 0,-0.0176 -7e-5,-0.0527 0.01757,-0.0527 z m 48.400671,0 c 0.0176,0 0.0357,-3e-5 0.0357,0.0176 0,0.0176 -0.0176,0.0356 -0.0176,0.0532 -0.0176,-0.0176 -0.0357,-0.0181 -0.0357,-0.0181 0,-0.0176 -3e-5,-0.0527 0.0176,-0.0527 z m -41.997961,0.0527 c -0.05292,0 -0.08822,0.0531 -0.123506,0.0884 0.05292,0 0.123816,0.0527 0.176733,0.0527 0.03528,0 0.07028,-0.035 0.07028,-0.0703 -0.03528,-0.0529 -0.07058,-0.0708 -0.123507,-0.0708 z m -0.123506,0.0884 -0.01757,-0.0351 c -0.0034,0.0137 -0.007,0.0325 -0.01085,0.0512 0.0096,-0.005 0.01966,-0.0116 0.02842,-0.016 z m -0.02842,0.016 c -0.06757,0.0379 -0.147795,0.0963 -0.147795,0.14263 0,0.0176 0.01743,0.0357 0.05271,0.0357 0.05681,0 0.08534,-0.10035 0.09508,-0.17829 z m -42.722974,0.2341 c 0.01575,0.0636 0.03049,0.12706 0.03049,0.19068 0,0.0706 -0.03559,0.0531 -0.05323,0.0708 -0.01764,-0.0176 -0.03514,-0.0531 -0.03514,-0.0884 0,-0.062 0.02729,-0.12305 0.05788,-0.17311 z m 63.331531,0.14159 c 0.004,0.0105 0.005,0.021 0.005,0.0315 0,0.0176 -4.9e-4,0.0356 -0.0181,0.0532 -0.0176,0 -0.0351,-0.0176 -0.0527,-0.0176 0.0165,-0.033 0.0477,-0.0506 0.0661,-0.0672 z m -21.267949,0.3669 c -0.123473,0 -0.193786,0.15889 -0.193786,0.22945 0,0.0705 -2.7e-4,0.10565 0.07028,0.17621 0.07056,0 0.247013,-0.21159 0.247013,-0.28215 0,-0.0529 -0.05296,-0.12351 -0.123507,-0.12351 z m 48.401179,0 c -0.12347,0 -0.1943,0.15889 -0.1943,0.22945 0,0.0705 2e-4,0.10565 0.0708,0.17621 0.0705,0 0.24701,-0.21159 0.24701,-0.28215 0,-0.0529 -0.0529,-0.12351 -0.12351,-0.12351 z m -74.559789,0.24702 0.01809,0.0527 h -0.05323 z m 52.387499,0.49351 c 0.0176,0 0.0532,0.0179 0.0532,0.0532 -0.0176,0.0529 -0.0355,0.12351 -0.0884,0.12351 -0.0353,0 -0.0708,-0.0178 -0.0708,-0.0708 0,-0.0529 0.053,-0.10593 0.10593,-0.10593 z m -26.863992,0.0357 c -0.03528,0 -0.05265,0.0174 -0.07028,0.0527 0,0.0353 0.0175,0.0707 0.03514,0.10594 0.03528,-0.0176 0.07066,-0.0351 0.105937,-0.0527 v -5.2e-4 c 0.01764,-0.0176 0.01757,-0.0351 0.01757,-0.0527 0,-0.0176 -0.03546,-0.0527 -0.08837,-0.0527 z m 48.401182,0 c -0.0316,-0.0158 -0.0531,0.0174 -0.0708,0.0527 0,0.0353 0.018,0.0707 0.0357,0.10594 0.0353,-0.0176 0.0702,-0.0351 0.10542,-0.0527 l 5.2e-4,-5.2e-4 c 0.0176,-0.0176 0.0176,-0.0351 0.0176,-0.0527 0,-0.0176 -0.0411,-0.029 -0.0884,-0.0527 z m -27.30479,0.0878 c 0.14112,0.0706 0.12343,0.21205 0.14107,0.30024 l -0.0884,0.0879 c -0.12347,0 -0.10594,-0.29952 -0.10594,-0.35243 0,0 0.0358,-0.0332 0.0532,-0.0357 z m 69.1441,0.0357 c 0.26458,0 0.19416,0.22906 0.22944,0.45837 -0.0529,0.3175 -0.0178,0.81136 -0.21187,0.93483 -0.3175,0.21167 -1.00535,2.32854 -1.86966,2.32854 -0.45861,0 -0.68781,-0.72313 -0.68781,-1.07591 0,-0.21167 0.12351,-0.49417 0.12351,-0.72347 0,-0.0882 -0.0176,-0.17638 -0.0176,-0.26458 0,-0.5468 0.12316,-1.07608 0.47594,-1.16427 0.68791,0 1.28289,-0.49351 1.95802,-0.49351 z m -146.896466,0.0879 c -0.123473,0 -0.05271,0.45889 -0.317293,0.45889 -0.03528,0 -0.07065,-0.0176 -0.105937,-0.0176 -0.03528,0 -0.688054,1.05799 -0.75861,1.14618 -0.08819,0.19403 -0.140938,0.42351 -0.176216,0.61753 0,0.0529 0.07059,0.10594 0.123506,0.10594 0.123472,0 0.26448,-0.74104 0.42323,-0.74104 0.01764,0 0.03514,0.0356 0.03514,0.0532 0,0.22493 -0.135765,0.73752 -0.390674,0.99012 -0.103137,0.0701 -0.138492,0.15721 -0.138492,0.24443 0,0.0529 0.01809,0.10573 0.01809,0.15864 0,0.24695 -0.28267,0.26466 -0.28267,0.5116 0,0.0706 0.01809,0.12323 0.01809,0.19379 0,0.21167 -0.176733,0.42357 -0.176733,0.59996 0,0.14111 0.123506,0.22914 0.123506,0.4408 0,0.33514 -0.07059,0.74121 -0.123506,1.09399 0.05292,0.0882 0.105936,0.15831 0.105936,0.2465 0,0.10583 -0.123506,0.24742 -0.123506,0.40617 0,0.26458 0.282085,1.00511 0.564306,1.00511 0.546806,0 0.670244,-0.9522 0.670244,-1.00511 0,-0.28223 0.01805,-0.54718 0.159163,-0.8294 0,-0.11218 -0.174133,-0.15209 -0.29869,-0.23771 0.06483,-0.0963 0.192753,-0.12039 0.192753,-0.29146 -0.01764,-0.0353 -0.01757,-0.10573 -0.01757,-0.15865 0,-0.26458 -0.03566,-0.77624 0.228927,-1.02319 0.05292,-0.0176 0.105937,-0.0882 0.105937,-0.14108 0,-0.0882 -0.141077,-0.12316 -0.141077,-0.21135 0,-0.0706 0.158647,-0.17683 0.158647,-0.28267 0,-0.10583 -0.123507,-0.19396 -0.123507,-0.28216 0,-0.12347 0.194303,-0.26457 0.194303,-0.52916 0,-0.21166 0.03514,-0.42292 0.03514,-0.63459 0,-0.15875 -0.07028,-0.30014 -0.07028,-0.45889 0,-0.52917 0.370004,-0.63517 0.370004,-0.88211 0,-0.10584 -0.105765,-0.54674 -0.282154,-0.54674 z m 78.104796,0.12351 c 0.10208,0 0.16751,0.0273 0.21239,0.0661 -0.0699,0.025 -0.13737,0.05 -0.21239,0.0749 0,0 -0.0351,-0.0525 -0.0351,-0.0879 0,-0.0176 0.0174,-0.0532 0.0351,-0.0532 z m -21.783685,0.0532 c 0,-0.35278 -0.370452,0.51143 -0.652674,0.68782 0.08819,0.0529 0.193891,0.15864 0.299724,0.15864 0.246944,0 0.42323,-0.51153 0.42323,-0.79375 0,-0.0353 -0.07028,-0.0174 -0.07028,-0.0527 z m 48.400665,0 c 0,-0.35263 -0.37028,0.51122 -0.65216,0.68782 0.0882,0.0529 0.1939,0.15864 0.29973,0.15864 0.24695,0 0.42323,-0.51153 0.42323,-0.79375 0,-0.0353 -0.0708,-0.0174 -0.0708,-0.0527 z m -21.21938,0.22893 c 0,0 0.018,-3e-5 0.0357,0.0176 0,0 -0.0181,0.018 -0.0181,0.0357 -0.0176,0 -0.0351,0.0176 -0.0527,0.0176 l -0.0176,-0.0357 c 0,0 0.0174,-0.0351 0.0527,-0.0351 z m -0.88211,0.1943 c 0.0176,0.0353 0.0357,0.0707 0.0357,0.10594 0,0.0353 -0.0355,0.0525 -0.0708,0.0878 0,-0.0353 -0.0351,-0.0706 -0.0351,-0.10594 0,-0.0353 0.0351,-0.0525 0.0703,-0.0879 z m 0.86454,0.10594 c 0.0353,0.0353 0.0703,0.0701 0.0703,0.10542 0,0.0481 -0.028,0.10996 -0.0465,0.16071 -0.0346,-0.0476 -0.0804,-0.095 -0.11213,-0.14262 0,-0.0176 0.0355,-0.12351 0.0884,-0.12351 z m -83.802119,0.15865 c 0.03528,0 0.05271,0.0351 0.05271,0.0703 0,0.0176 -0.123369,0.38833 -0.158647,0.72347 -0.05292,-0.12347 -0.07028,-0.22955 -0.07028,-0.33538 0,-0.10584 -3.5e-5,-0.21161 0.141077,-0.28216 0,-0.0176 -0.01778,-0.14094 0.03514,-0.17621 z m 78.739899,0.0703 c -0.0353,0 -0.12351,0.0179 -0.12351,0.0532 0,0.0529 0.0176,0.10566 0.0176,0.17622 0.12347,-0.0706 0.1058,-0.0708 0.14108,-0.21187 0,0 -0.0174,-0.0176 -0.0351,-0.0176 z m -6.29729,0.0357 c 0.0176,0.0176 0.0351,0.0351 0.0351,0.0527 -0.0176,0.0353 -0.0351,0.0531 -0.0351,0.0884 -0.0353,-0.0353 -0.0351,-0.053 -0.0351,-0.10594 0.0176,-0.0176 0.0351,-0.0174 0.0351,-0.0351 z m 57.69674,0 c 0.0176,0.0176 0.0351,0.0351 0.0351,0.0527 -0.0176,0.0353 -0.0351,0.0531 -0.0351,0.0884 -0.0353,-0.0353 -0.0351,-0.053 -0.0351,-0.10594 0.0176,-0.0176 0.0351,-0.0174 0.0351,-0.0351 z m 26.33482,0 c 0.0176,0.0176 0.0351,0.0351 0.0351,0.0527 -0.0176,0.0353 -0.0351,0.0531 -0.0351,0.0884 -0.0353,-0.0353 -0.0351,-0.053 -0.0351,-0.10594 0.0176,-0.0176 0.0351,-0.0174 0.0351,-0.0351 z m -72.64311,0.0403 c 0.0424,0.075 0.12971,0.12593 0.12971,0.20619 0,0.0706 -0.0354,0.0882 -0.10594,0.12351 -0.0176,0 -0.0703,-0.0525 -0.0703,-0.0878 0,-0.0802 0.009,-0.17992 0.0465,-0.24185 z m -71.519149,0.13591 0.03514,0.0176 -0.01757,0.0351 z m 38.752674,0.29972 c 0,0.21167 -0.01785,0.31781 0.05271,0.31781 0.03528,-0.0176 0.05271,-0.0707 0.05271,-0.0884 0,-0.0882 -0.05251,-0.12362 -0.10542,-0.22945 z m 48.400665,0 c 0,0.21167 -0.0173,0.31781 0.0532,0.31781 0.0353,-0.0176 0.0527,-0.0707 0.0527,-0.0884 0,-0.0882 -0.053,-0.12362 -0.10594,-0.22945 z m -87.999799,0.24702 c 0.08819,0 0.228927,0.0885 0.228927,0.1943 0,0.15875 -0.19389,0.17601 -0.299724,0.22893 -0.03528,-0.0706 -0.05271,-0.14087 -0.05271,-0.19379 0,-0.14111 0.03531,-0.22944 0.123507,-0.22944 z m 44.13219,0.17621 c -0.07056,0 -0.123506,0.0531 -0.123506,0.0884 0,0.0353 0.05289,0.0708 0.141076,0.0708 0.07056,0 0.123507,-0.0355 0.123507,-0.0884 0,-0.0529 -0.05289,-0.0708 -0.141077,-0.0708 z m 48.401179,0 c -0.0705,0 -0.1235,0.0531 -0.1235,0.0884 0,0.0353 0.0529,0.0708 0.14107,0.0708 0.0706,0 0.12351,-0.0355 0.12351,-0.0884 0,-0.0529 -0.0529,-0.0708 -0.14108,-0.0708 z m -20.26698,0.0357 c 0.0176,0.0353 0.0351,0.0702 0.0351,0.10542 0,0.0176 -0.0174,0.0357 -0.0351,0.0357 -0.0176,0 -0.0357,-0.018 -0.0357,-0.0357 0,-0.0353 0.0179,-0.0702 0.0357,-0.10542 z m -5.60947,0.0878 c 0.0353,0 0.0527,0.0179 0.0527,0.0532 0,0.0529 -0.0351,0.1058 -0.0351,0.14107 0,0.15875 0.19378,0.37021 0.19378,0.58188 0,0.15875 -0.14107,0.35299 -0.14107,0.47646 -0.24529,-0.24029 -0.22893,-0.46626 -0.22893,-0.77618 0,-0.17639 0.0175,-0.38827 0.15865,-0.47646 z m -78.228306,0.15916 v 0.0527 h -0.03514 z m 83.766986,0.28216 c 0.10583,0 0.0882,0.17604 0.1235,0.35243 -0.0176,0.0705 -0.0175,0.26482 -0.15864,0.33538 -0.17639,0 -0.17674,-0.15867 -0.17674,-0.28215 0,-0.12347 0.0707,-0.40566 0.21188,-0.40566 z m -28.186915,0.0879 c 0,0.0176 -0.03514,0.0179 -0.03514,0.0357 0,0.0176 0.01757,0.0351 0.01757,0.0527 0.01764,-0.0176 0.03514,-0.0174 0.03514,-0.0351 0,-0.0176 7e-5,-0.0356 -0.01757,-0.0532 z m 48.401185,0 c 0,0.0176 -0.0357,0.0179 -0.0357,0.0357 0,0.0176 0.0181,0.0351 0.0181,0.0527 0.0176,-0.0176 0.0351,-0.0174 0.0351,-0.0351 0,-0.0176 3e-5,-0.0356 -0.0176,-0.0532 z m -25.20622,0.0708 c -0.0176,0.0353 -0.0351,0.0706 -0.0527,0.10594 0,0.0353 0.0174,0.0703 0.0527,0.0703 0.0176,0 0.0356,-0.035 0.0532,-0.0703 0,-0.0529 -0.0179,-0.0706 -0.0532,-0.10594 z m -79.509875,0.0362 c 0.03637,0.002 0.08217,0.009 0.08217,0.0522 0,0.0176 -0.0175,0.0351 -0.03514,0.0351 -0.04472,0 -0.03921,-0.0504 -0.04703,-0.0873 z m 78.998285,0.0522 c -0.0176,0.0176 -0.0351,0.0351 -0.0351,0.0527 l 0.0351,0.0351 c 0,-0.0176 0.0181,-0.0174 0.0181,-0.0351 0,-0.0176 -0.0181,-0.0351 -0.0181,-0.0527 z m -52.193202,0.10542 c -0.0048,0.005 -0.0087,0.0106 -0.01292,0.016 l -10e-4,-0.002 c 0.0059,-0.006 0.0069,-0.007 0.01395,-0.0145 z m -11.024134,0.0357 c 0.03528,0 0.05271,0.0174 0.05271,0.0527 0,0.0353 -0.035,0.0531 -0.07028,0.0884 -0.03528,0 -0.0708,-0.0179 -0.0708,-0.0532 0.01764,-0.0529 0.03546,-0.0879 0.08837,-0.0879 z m -2.610693,0.0176 c 0.03528,0.0353 0.03514,0.035 0.03514,0.0879 -0.01764,0.0176 -0.03507,0.0532 -0.05271,0.0708 -0.01764,-0.0176 -0.01757,-0.0356 -0.01757,-0.0532 0,-0.0353 0.0175,-0.0702 0.03514,-0.10542 z m -13.12323,0.22892 c 0.05292,0.0353 0.07028,0.0355 0.07028,0.0708 0,0.0353 -0.0175,0.0707 -0.03514,0.0884 -0.01764,-0.0353 -0.07028,-0.0531 -0.07028,-0.0708 0,-0.0353 0.03514,-0.0707 0.03514,-0.0884 z m 14.957743,0.10594 0.05271,0.0176 v 0.26458 c 0,0.15875 1.4e-4,0.28267 -0.03514,0.28267 -0.01764,-0.0176 -0.03514,-0.0357 -0.03514,-0.0357 0,-0.17639 -7e-5,-0.35278 0.01757,-0.52917 z m 32.385104,0 c 0,0.0379 0.07555,0.0272 0.119889,0.0491 -0.04468,0.049 -0.117249,0.0744 -0.243396,0.0744 0.03528,-0.0706 0.123507,-0.2117 0.123507,-0.12351 z m 92.568512,0 c 0,0.0379 0.0761,0.0272 0.12041,0.0491 -0.0447,0.0491 -0.11761,0.0744 -0.24392,0.0744 0.0353,-0.0706 0.12351,-0.21172 0.12351,-0.12351 z m -55.87979,0.12351 c 0.0353,0 0.0351,0.053 0.0351,0.10593 0,0.12347 -1.7e-4,0.26459 -0.0884,0.26459 -0.10584,0 -0.15865,-0.14087 -0.15865,-0.19379 0,-0.0882 0.0708,-0.17673 0.21188,-0.17673 z m -31.379485,0.1235 c 0,-0.0706 0.10542,0.26475 0.10542,0.35295 0,0.14111 -0.07048,0.4408 -0.282154,0.4408 -0.01764,0 -0.03514,-0.0351 -0.03514,-0.0527 0.01764,-0.10583 0.03507,-0.21198 0.05271,-0.31781 0.01764,-0.15875 0.159164,-0.21009 0.159164,-0.42323 z m 48.400665,0 c 0.0705,0 0.10594,0.26475 0.10594,0.35295 0,0.14111 -0.0704,0.4408 -0.28216,0.4408 -0.0176,0 -0.0351,-0.0351 -0.0351,-0.0527 0.0176,-0.10583 0.0351,-0.21198 0.0527,-0.31781 0.0176,-0.15875 -0.0354,-0.33504 0.15865,-0.42323 z m -27.14615,0.29973 0.0176,0.0532 h -0.0351 z m 57.69674,0 0.0176,0.0532 h -0.0351 z m 26.33483,0 0.0176,0.0532 h -0.0351 z m -78.86341,0.0181 c 0.20111,0 0.0884,0.40542 0.0884,0.59945 0,0.10583 -0.0357,0.21153 -0.0357,0.29972 -0.0529,-0.0176 -0.22892,-0.58215 -0.22892,-0.77618 0,-0.0353 0.0478,-0.12299 0.17621,-0.12299 z m -23.459549,0.10542 c 0,-0.0176 0.03514,0.0706 0.03514,0.12351 -0.01764,0 -0.0175,0.0176 -0.03514,0.0176 -0.03528,0 -0.05271,-0.0525 -0.05271,-0.0879 0,-0.0176 0.05271,-0.0179 0.05271,-0.0532 z m 48.401179,0 c 0,-0.0176 0.0351,0.0706 0.0351,0.12351 -0.0176,0 -0.0174,0.0176 -0.0351,0.0176 -0.0353,0 -0.0532,-0.0525 -0.0532,-0.0879 0,-0.0176 0.0532,-0.0179 0.0532,-0.0532 z m -48.806839,0.35295 c 0,0.0176 0.03514,0.0351 0.03514,0.0527 -0.01764,0.0353 -0.03507,0.0531 -0.05271,0.0884 0,-0.0176 -0.0175,-0.0174 -0.03514,-0.0351 0.01764,-0.0353 0.03507,-0.0706 0.05271,-0.10594 z m 48.401179,0 c 0,0.0176 0.0351,0.0351 0.0351,0.0527 -0.0176,0.0353 -0.0351,0.0531 -0.0527,0.0884 0,-0.0176 -0.0179,-0.0174 -0.0357,-0.0351 0.0176,-0.0353 0.0356,-0.0706 0.0532,-0.10594 z m -24.27138,0.21188 0.0356,0.0176 c 0,0.0176 -0.0176,0.0351 -0.0176,0.0527 -0.0176,-0.0176 -0.0357,-0.0176 -0.0357,-0.0176 0,-0.0176 -3e-5,-0.0351 0.0176,-0.0527 z m -33.284279,0.40514 c 0.0092,0.002 0.01666,0.004 0.02532,0.006 l 0.0098,0.0295 z m 92.568509,0 c 0.009,0.002 0.0167,0.004 0.0253,0.006 l 0.01,0.0295 z m -83.537535,0.0532 c -0.05292,0 0.10573,0.0882 0.158646,0.1235 -0.05292,0.0882 -0.08816,0.10594 -0.141076,0.10594 -0.05292,-0.0353 -0.105937,-0.0706 -0.105937,-0.10594 0,-0.0882 0.14128,-0.1235 0.08837,-0.1235 z m 48.401185,0 c 0.0529,0 0.10572,0.0882 0.15864,0.1235 -0.0529,0.0882 -0.0882,0.10594 -0.14107,0.10594 -0.0529,-0.0353 -0.10594,-0.0706 -0.10594,-0.10594 0,-0.0882 0.0355,-0.1235 0.0884,-0.1235 z m -103.716672,0.0884 c 0.01764,0.0353 0.0708,0.0707 0.0708,0.10594 0,0.0176 -0.05316,0.0526 -0.0708,0.0879 -0.01764,-0.0353 -0.07028,-0.0702 -0.07028,-0.0879 0,-0.0353 0.05265,-0.0707 0.07028,-0.10594 z m 55.280347,0.49351 c 0.08819,0 0.158646,0.0534 0.158646,0.1416 0,0.14111 -3.3e-5,0.12299 -0.123506,0.12299 -0.07056,-0.0353 -0.176217,3e-5 -0.176217,-0.14108 0.03528,-0.0705 0.05289,-0.12351 0.141077,-0.12351 z m 48.400665,0 c 0.0882,0 0.15916,0.0534 0.15916,0.1416 0,0.14111 -3e-5,0.12299 -0.1235,0.12299 -0.0706,-0.0353 -0.17674,3e-5 -0.17674,-0.14108 0.0353,-0.0705 0.0529,-0.12351 0.14108,-0.12351 z m -89.781602,0.0357 c 0.01764,0.0176 0.05323,0.0701 0.05323,0.0879 -0.01764,0.0706 -0.05317,0.10618 -0.0708,0.17673 -0.03528,-0.0353 -0.05271,-0.0705 -0.05271,-0.1235 0,-0.0529 -2.8e-4,-0.14108 0.07028,-0.14108 z m 41.010417,0.54674 c 0.01764,0.0176 0.03514,0.0351 0.03514,0.0527 0,0.0529 2.1e-4,0.0884 -0.05271,0.0884 -0.03528,0 -0.03514,-0.0707 -0.03514,-0.10593 0.01764,-0.0176 0.03507,-0.0351 0.05271,-0.0351 z m 48.401185,0 c 0.0176,0.0176 0.0351,0.0351 0.0351,0.0527 0,0.0529 1.9e-4,0.0884 -0.0527,0.0884 -0.0353,0 -0.0357,-0.0707 -0.0357,-0.10593 0.0176,-0.0176 0.0356,-0.0351 0.0532,-0.0351 z" 
             />
         </clipPath>
      </g>
  </g>
</svg>
