<?xml version="1.0" encoding="UTF-8" standalone="no"?>
<svg
   width="22.776844mm"
   height="17.622532mm"
   viewBox="0 0 22.776844 17.622532"
   version="1.1"
   id="svg5"
   xmlns="http://www.w3.org/2000/svg"
   xmlns:svg="http://www.w3.org/2000/svg">
  <defs
     id="defs2" />
  <g
     id="layer1"
     transform="translate(-68.324564,-241.67907)">
    <g
       aria-label="d"
       id="text5004"
       style="font-size:16.9333px;font-family:'Lemon Tuesday';-inkscape-font-specification:'Lemon Tuesday, Normal';fill:none;stroke:#ee0000;stroke-width:0.1;stroke-linecap:square;stroke-linejoin:round;stroke-dashoffset:28.5999">
      <clipPath id='ale-clip-path'>
      <path
         id="path7131"
         style="font-size:16.9333px;font-family:'Lemon Tuesday';-inkscape-font-specification:'Lemon Tuesday, Normal';display:inline;fill:none;stroke:#ee0000;stroke-width:0.1;stroke-linecap:square;stroke-linejoin:round;stroke-dasharray:5.4;stroke-dashoffset:5.4"
         d="m 79.670119,242.46081 c -0.3048,0 -0.778764,0.0171 -0.778764,0.38964 0,0.18627 0.101286,0.35566 0.101286,0.59273 0,0.254 -0.01705,0.50783 -0.01705,0.77876 0,0.11853 0.01705,0.25417 0.01705,0.38964 0,0.33866 -0.118339,0.82947 -0.118339,1.202 0,0.13547 0.03359,0.25405 0.03359,0.37258 0,0.1524 -0.101285,0.28789 -0.101285,0.44029 0,0.16933 0.05064,0.32199 0.05064,0.47439 0,0.0677 -0.01665,0.11858 -0.03359,0.15244 -0.1016,0.57573 -0.237195,1.08332 -0.237195,1.69292 0,0.37254 0.186035,0.71136 0.186035,1.11776 0,0.2534 -0.0098,0.50677 -0.0217,0.76016 -0.340625,0.0918 -0.751771,0.58615 -0.858862,0.98392 -0.01693,0.0677 -0.05061,0.16934 -0.118339,0.22014 -0.474132,0.44027 -0.38929,0.86342 -0.558623,1.50689 -0.0508,0.22013 -0.220261,0.23735 -0.237194,0.40669 -0.220133,0.60959 -0.38941,1.21908 -0.575676,1.87947 0,0.37253 -0.389372,1.6428 -0.643371,1.6428 -0.0508,0 -0.237195,-0.59269 -0.237195,-0.66043 0,-0.0677 0.01665,-0.15241 0.03359,-0.22014 -0.101599,-0.1016 -0.135392,-0.22046 -0.135392,-0.339 0,-0.10159 0.01705,-0.237 0.01705,-0.35553 0,-0.254 -0.01705,-0.50782 -0.01705,-0.77876 0,-0.77893 0.169499,-1.64263 0.169499,-2.42156 0,-0.3556 0.270784,-0.71132 0.270784,-0.96532 0,-1.26999 0.490927,-2.55699 0.490927,-3.65765 0,-0.79586 -0.524571,-0.98186 -0.897103,-0.98186 -0.423332,0 -0.5927,0.28765 -0.880567,0.40618 -0.524931,0.2032 -0.812888,0.74518 -1.253153,0.96532 -0.389466,-0.508 -0.779114,-0.86352 -1.558045,-0.86352 -1.168396,0 -1.371234,0.8466 -1.845365,1.52394 -0.592665,0.84666 -0.711474,1.4057 -0.914673,1.93063 -0.2032,0.52493 -0.42323,1.08348 -0.42323,1.64228 -0.01693,0.1524 -0.118782,0.22038 -0.254248,0.25425 v 0.50798 c 0.321732,0.0339 0.203448,0.20289 0.254248,0.32142 0,0.7112 0.626659,1.08366 1.185457,1.08366 0.795865,0 0.762024,-0.0166 1.608688,-1.55753 0.338665,-0.7112 1.024033,-1.96911 1.142566,-2.00298 0.423332,-0.11853 0.35522,-0.38901 0.456819,-0.81235 0.03387,-0.1524 0.643612,-0.69453 0.677478,-0.69453 0.220133,-0.11854 0.17809,-0.31715 0.296623,-0.58808 0.423333,0 0.22051,-0.42359 0.491443,-0.47439 0.135466,-0.0169 0.253778,-0.0503 0.406177,-0.0842 0.01693,0.18627 0.101802,0.35542 0.101802,0.55862 -0.169332,0.32173 -0.254248,0.10141 -0.254248,1.28674 0,0.0847 1.24e-4,0.18663 0.01705,0.2713 0,0.18626 -0.253852,0.49074 -0.270785,0.82941 -0.08467,1.43933 -0.237195,3.11562 -0.237195,4.43642 0,0.23707 0.253731,0.32192 0.253731,0.60979 0,0.16932 -0.01654,0.33864 -0.01654,0.50797 0.01693,0.28787 -0.01732,0.59274 0.236678,0.81287 0.08467,0.0508 0.01721,0.25378 0.186552,0.40618 0.287866,0.27093 0.490824,0.54209 0.914156,0.54209 0.253999,0 0.66035,-9e-5 0.795817,-0.30489 0.118533,-0.27093 0.355894,-0.47433 0.406694,-0.82993 0,-0.3556 -7.4e-5,-0.93094 0.135392,-1.18494 0.169333,-0.22013 0.0675,-0.49108 0.186035,-0.66042 0.220133,-0.42333 0.305214,-1.04981 0.423747,-1.52394 0.118533,-0.49107 0.389087,-0.94824 0.456819,-1.45624 0,-0.20239 0.134159,-0.48803 0.304891,-0.77308 v 0.0109 c 0,0.38947 -0.101285,0.77893 -0.101285,1.1684 0,0.27093 0.101285,0.50795 0.101285,0.79582 0,0.22013 -0.01705,0.54206 -0.01705,0.82992 0,0.99906 0.271301,0.77873 0.271301,1.57459 0,0.1524 0.0169,0.27114 0.0677,0.32194 0.372532,0.3556 0.37218,1.74417 1.117244,1.82883 0.118533,0 0.254054,-0.0847 0.372587,-0.0847 0.1016,0 0.169582,0.11834 0.254248,0.11834 0.01693,0 0.338841,-0.27083 0.38964,-0.42323 0.08467,-0.23707 0.490853,-0.23722 0.626319,-0.67748 0.1524,-0.52494 0.42335,-0.96486 0.440283,-1.55753 0,-0.0677 -0.01705,-0.13575 -0.01705,-0.18655 0,-0.0847 0.01705,-0.16907 0.01705,-0.25373 0,-0.1016 -0.05064,-0.18663 -0.05064,-0.2713 0,-0.0339 0.01665,-0.0674 0.03359,-0.10129 0.08467,0 0.169462,0.0171 0.237195,0.0171 0.07273,-0.3364 0.08183,-0.67763 0.08268,-1.01855 0.08206,0.20182 0.235004,0.49406 0.425297,0.5948 0.06773,0.0339 0.118579,0.11894 0.152445,0.2036 0.3556,0.52494 0.812898,0.50794 1.473296,0.57568 0.101599,-0.0677 0.202894,-0.13588 0.321427,-0.20361 0.0508,0.0339 0.118699,0.0512 0.169499,0.0512 0.287865,0 1.40545,-1.37169 1.676383,-1.47329 0.287866,-0.1016 0.541826,-0.86364 1.015959,-1.10071 0.186266,0 0.270784,-0.27072 0.270784,-0.40618 0,-0.16934 0.914673,-0.93172 0.914673,-0.93172 0.169333,-0.11853 0.676961,-0.32144 0.676961,-0.54157 0,-0.13547 -0.169184,-0.18655 -0.270784,-0.18655 -0.524932,0 -1.23587,0.81304 -1.422136,0.98237 -0.880531,0.77894 -1.778461,1.48993 -2.692858,2.235 -0.186266,0.1524 -0.490659,0.35554 -0.744658,0.35554 -0.609598,0 -0.660425,-1.42237 -0.660425,-2.18437 0,-0.27093 0.01675,-0.74465 0.338481,-0.74465 0.237066,0 0.474002,0.0677 0.711068,0.0677 0.948264,0 1.913864,-0.88102 2.10013,-1.23662 0.08467,-0.16933 0.202894,-0.27058 0.321427,-0.38912 0.135466,-0.1524 0.203255,-0.42331 0.372587,-0.50798 0.169333,-0.11853 0.237195,-0.28824 0.237195,-0.49144 0,-0.1016 -0.01705,-0.2029 -0.01705,-0.32143 0,-0.0508 0.01705,-0.1187 0.01705,-0.1695 0,-0.91439 -1.439224,-1.55752 -2.319755,-1.55752 -0.270932,0 -0.389649,0.25381 -0.609782,0.33848 -0.372532,0.1524 -0.592461,0.49117 -0.84646,0.74517 -0.118533,0.37253 -0.694578,0.52477 -0.846976,0.99891 -0.08467,0.27093 -0.253898,0.49133 -0.42323,0.69453 0.0015,0.006 0.0031,0.012 0.0047,0.0181 -0.239299,0.35566 -0.177739,0.88383 -0.410828,1.16686 -0.220133,0.27093 -0.203605,1.04988 -0.203605,1.38854 0,0.12996 0.108942,0.26017 0.117822,0.37517 -5.3e-5,0.0102 8.3e-5,0.0201 0,0.0305 -4e-6,5.3e-4 4e-6,0.001 0,0.002 -0.01003,0.0809 -0.08372,0.17432 -0.08372,0.25322 0,0.0847 0.03401,0.16099 0.05374,0.23461 -0.01746,0.10867 -0.04486,0.19679 -0.08785,0.23978 -0.118533,0 -0.08432,-0.64337 -0.168982,-0.64337 -0.118533,0 -1.66e-4,0.38912 -0.169499,0.38912 -0.03387,0 -0.06754,3.6e-4 -0.118339,-0.0165 -0.423333,0.8128 -0.982101,3.21686 -1.2361,3.21686 -0.1016,-0.0169 -0.08487,-0.37232 -0.101803,-0.62632 -0.01693,0.0169 -0.03371,0.0171 -0.05064,0.0171 -0.406398,0 -0.474389,-0.32164 -0.474389,-0.64338 0,-0.22013 0.01705,-0.35594 0.01705,-0.55913 0,-0.49106 0.270784,-0.59268 0.270784,-1.16841 0,-0.27094 -0.0169,-0.67748 -0.0677,-0.67748 -0.0508,0 -0.08436,0.0512 -0.101286,0.0512 -0.0508,0 -0.0677,-0.13536 -0.0677,-0.20309 0,-0.28787 0.236678,-0.32184 0.236678,-0.74517 0,-0.25045 -0.01665,-0.40205 -0.130741,-0.51986 0.04918,-0.30042 0.09862,-0.44181 0.147795,-0.85163 0,-0.16933 -0.152446,-0.25418 -0.152446,-0.38964 0,-0.13547 0.152446,-0.27072 0.152446,-0.40618 0,-0.1016 -0.0677,-0.20329 -0.0677,-0.30489 0,-0.254 0.135392,-0.55871 0.135392,-0.86351 0,-0.13547 -0.0677,-0.27123 -0.0677,-0.4067 0,-0.13547 0.0677,-0.3384 0.0677,-0.47387 0,-0.0847 -0.05064,-0.15252 -0.05064,-0.23719 0,-0.0508 0.05064,-0.11831 0.05064,-0.18604 0,-0.1016 -0.0677,-0.1697 -0.0677,-0.2713 0.03387,-0.23706 -0.01673,-0.47389 0.101802,-0.69402 0,0 0.01654,-0.0171 0.01654,-0.0341 0,-0.1016 -0.0677,-0.18612 -0.0677,-0.27079 0,-0.72813 0.203605,-1.93067 0.203605,-2.81119 0,-0.4572 -0.05098,-0.57568 -0.609782,-0.57568 z m 6.248197,5.63893 c 0.338666,0 0.406694,0.47436 0.406694,0.76223 0,1.08373 -1.456427,1.54068 -2.066024,1.64228 -0.270933,-0.0339 -0.355534,-0.034 -0.355534,-0.15245 0,-0.4572 0.897267,-2.25206 2.014864,-2.25206 z m -13.411067,0.59273 c 0.118532,0 0.304697,0.051 0.423229,0.1018 0,0.0508 0.01705,0.0845 0.01705,0.11834 0,0.16933 -0.161231,0.55449 -0.161231,0.55449 -0.372531,0.28787 -0.57561,0.7281 -0.931209,1.01596 -0.186267,0.1524 -0.32175,0.3553 -0.440283,0.54157 -0.237066,0.38946 -1.210226,1.52859 -1.277958,1.52859 -0.08467,0 -0.101803,-0.0506 -0.101803,-0.11834 0.254,-1.28693 1.04987,-2.92941 2.116667,-3.64061 0.118533,-0.0677 0.220067,-0.1018 0.355534,-0.1018 z m 10.147701,0.98547 c 0.0151,0.061 0.02945,0.12192 0.02945,0.18294 0,0.0677 -0.03423,0.0508 -0.05116,0.0677 -0.01693,-0.0169 -0.03359,-0.0508 -0.03359,-0.0848 0,-0.0593 0.02608,-0.11792 0.05529,-0.16588 z m -3.10317,2.5368 0.03359,0.0165 -0.01705,0.0341 z m -0.812871,0.52451 c 0.08467,0 0.220142,0.085 0.220142,0.18655 0,0.1524 -0.186238,0.16935 -0.287838,0.22015 -0.03387,-0.0677 -0.05116,-0.13576 -0.05116,-0.18656 0,-0.13546 0.03419,-0.22014 0.118856,-0.22014 z m 3.335714,1.08417 c 0.03387,0 0.05064,0.0168 0.05064,0.0506 0,0.0339 -0.03384,0.0508 -0.0677,0.0848 -0.03387,0 -0.0677,-0.0173 -0.0677,-0.0512 0.01693,-0.0508 0.03395,-0.0842 0.08475,-0.0842 z m -2.506307,0.0165 c 0.03387,0.0339 0.03411,0.034 0.03411,0.0848 -0.01693,0.0169 -0.03371,0.0508 -0.05064,0.0677 -0.01693,-0.0169 -0.01705,-0.0337 -0.01705,-0.0507 0,-0.0339 0.01665,-0.0679 0.03359,-0.1018 z m 1.761133,0.32194 0.05116,0.0171 v 0.25373 c 0,0.1524 -2.37e-4,0.2713 -0.03411,0.2713 -0.01693,-0.0169 -0.03411,-0.0341 -0.03411,-0.0341 0,-0.16934 1.23e-4,-0.33865 0.01705,-0.50798 z m -1.2361,2.21847 c 0.01693,0.0169 0.05064,0.0672 0.05064,0.0842 -0.01693,0.0677 -0.05077,0.10177 -0.0677,0.1695 -0.03387,-0.0339 -0.05064,-0.0675 -0.05064,-0.11834 0,-0.0508 -3.4e-5,-0.1354 0.0677,-0.1354 z" 
      />
      </clipPath>
      <path
         style="display:inline;fill:none;stroke:#ee0000;stroke-width:1.76495;stroke-linecap:square;stroke-linejoin:round;stroke-dasharray:95.3073;stroke-dashoffset:95.3073;stroke-opacity:1"
         d="m 72.36315,247.9914 c 0,0 -0.377686,-0.57503 -0.919014,0.0799 -1.79646,2.17359 -2.172851,3.36844 -2.217918,4.42474 -0.04184,0.98066 -0.05581,1.85429 0.793823,1.4769 0.512844,-0.0459 1.038662,-1.21563 1.691371,-2.13342 0.65271,-0.91778 1.048218,-2.75461 2.47253,-3.39622 1.748539,-0.78766 1.810556,-0.73439 1.810556,-0.73439 0,0 -1.970974,7.93258 -1.233501,9.22443 1.212174,1.33079 0.82379,2.22751 1.4765,0.639 0.707658,-1.72223 2.097595,-5.12201 2.097595,-5.12201 0,0 0.326754,-1.07306 0.653109,-1.66962 0.326355,-0.59656 0.512843,0.78012 0.559465,-3.57937 0.04662,-4.35948 -0.139865,-5.27727 0.04662,-4.26771 0.186489,1.00957 -0.372977,7.66352 -0.372977,10.3251 0,2.66158 0.688634,4.39485 1.201475,4.62429 0.512844,0.22946 2.621537,-6.18452 2.854647,-6.78109 0.233112,-0.59656 3.091273,-0.18174 1.059775,-0.40593 2.64969,-0.67441 2.713512,-2.35989 2.713512,-2.35989 0,0 -0.626521,-0.81954 -1.325853,-0.9572 -0.699332,-0.13767 -2.121078,1.79568 -2.447434,2.5299 -0.326355,0.73423 -0.584774,3.82476 0.02131,4.5131 0.606087,0.68835 1.04381,0.46763 1.696519,0.1464 0.65271,-0.32123 3.130868,-3.00748 4.016688,-3.51226 l 0.885817,-0.50479"
         id="p-2" clip-path='url(#ale-clip-path)'/>
       </g>
  </g>
</svg>
