<?xml version="1.0" encoding="UTF-8" standalone="no"?>
<svg
   width="10.322052mm"
   height="20.816994mm"
   viewBox="0 0 10.322052 20.816994"
   version="1.1"
   id="svg5"
   xmlns="http://www.w3.org/2000/svg"
>
  <defs
     id="defs2" />
  <g
     id="layer1"
     transform="translate(-49.751253,-240.29395)">
    <g
       aria-label="d"
       id="text5004"
       style="font-size:16.9333px;font-family:'Lemon Tuesday';fill:none;stroke:#ee0000;stroke-width:0.1;stroke-linecap:square;stroke-linejoin:round;stroke-dashoffset:28.5999">
      <clipPath id='d-clip-path'>
         <path
         style='fill:white;'
            d="m 56.229671,247.04145 c -0.03387,0 -0.08467,-0.0508 -0.08467,-0.0847 0,-0.11853 0.186267,-0.16933 0.270933,-0.16933 0.220133,0 0.355599,0.0169 0.355599,0.3556 0,0.508 -0.253999,0.98213 -0.253999,1.49013 0,0.0508 0.01693,0.0677 0.0508,0.0677 0.01693,0 0.08467,-0.0339 0.118533,-0.0339 0.06773,0 0.06773,0.1524 0.06773,0.2032 0,0.254 -0.355599,0.8128 -0.406399,0.8636 -0.06773,0.1016 -0.08467,0.1524 -0.08467,0.28786 0,0.1016 0.0508,0.22013 0.0508,0.32173 0,0.254 -0.169333,0.57574 -0.169333,0.79587 0,0.1016 0.08467,0.2032 0.08467,0.32173 0,0.23707 -0.220133,0.54187 -0.220133,0.84667 0,0.0508 0.01693,0.0847 0.06773,0.0847 0,-0.47413 0.372533,-0.3556 0.507999,-0.72813 v -0.508 c -0.0508,-0.0508 -0.186266,-0.0847 -0.186266,-0.18626 0,-0.0677 0.304799,-0.37254 0.338666,-0.37254 0,0.254 -0.03387,0.77894 0.186266,0.77894 0.406399,0 0.1524,-0.8636 0.321733,-0.99907 0.321733,-0.254 0.321733,-1.81186 0.321733,-1.81186 0.186266,-0.18627 0.321732,-0.1016 0.321732,-0.28787 0,-0.0847 -0.08467,-0.23706 -0.08467,-0.33866 0,-0.0677 0.08467,-0.13547 0.08467,-0.2032 0,-0.2032 -0.237066,-0.0847 -0.237066,-0.23707 0,-0.16933 0.524932,-0.18627 0.524932,-0.62653 0,-0.4572 0.03387,-1.1176 0.338666,-1.59173 0.118533,-0.18627 0.186267,-0.42333 0.270933,-0.64347 0.0508,-0.762 0.558799,-1.47319 0.558799,-2.31986 0,-0.28787 -0.389466,-0.5588 -0.694265,-0.5588 -0.626532,0 -1.168398,0.508 -1.219198,0.98213 -0.0508,0.3556 -0.321733,0.52493 -0.304799,0.88053 -0.1016,0.54187 -0.761999,0.99907 -0.761999,1.5748 0,0.27093 -0.491065,0.4064 -0.491065,0.89747 0,0.22013 -0.08467,0.42333 -0.135467,0.62653 0,0.0169 -0.287866,0.62653 -0.389466,0.6604 -0.355599,0.1016 -0.423332,0.91439 -0.931331,0.91439 -0.254,0 -0.592666,-0.16933 -0.846665,-0.16933 -0.1524,0 -0.677332,0.13547 -0.677332,0.16933 -0.118533,0.44027 -0.728132,0.54187 -0.761999,0.7112 -0.1016,0.42334 -0.440266,0.98213 -0.711198,1.27 -0.3048,0.32173 -0.609599,0.99907 -0.711199,1.23613 -0.118533,0.28787 -0.270933,0.4572 -0.304799,0.74507 0,0.28786 -0.270933,0.44026 -0.270933,0.69426 0,0.18627 -0.0508,0.37254 -0.0508,0.54187 0,0.32173 0,0.93133 0.270933,1.25306 0.220133,0.254 -0.08467,0.4572 0.982131,0.82973 0.06773,0.0169 0.1524,0.0339 0.237066,0.0339 0.1524,0 0.321733,-0.0677 0.491066,-0.0677 0.1016,0 0.728132,-0.6096 0.812798,-0.8128 0.287867,-0.77893 0.745066,-1.3716 1.015998,-2.25213 0.03387,-0.11853 0.389466,-0.94826 0.389466,-1.0668 0,-0.0169 0,-0.0169 0,-0.0169 0.3556,-0.0847 0.3048,-0.762 0.3556,-1.13453 0.08467,-0.0339 0.237066,-0.3048 0.372532,-0.3048 0.220133,0 0,-0.7112 0.254,-0.79587 0.118533,0 0.1016,0.3556 0.152399,0.3556 0.220133,0 0.270933,-1.016 0.270933,-1.10066 0,0 0,0 0,0.0169 0,-0.0169 0.06773,-0.0339 0.1016,-0.0508 0,0.0339 0.03387,0.13547 0.0508,0.13547 0.118533,0 0.118533,-0.22014 0.118533,-0.32173 0,-0.13547 -0.03387,-0.27094 -0.03387,-0.4064 0,-0.27094 0.338666,-0.44027 0.338666,-0.6096 0,-0.0339 -0.01693,-0.0847 -0.03387,-0.13547 z m -1.964263,1.99813 c 0.0508,0.0677 0.08467,0.11853 0.08467,0.16933 0,0.1524 -0.287867,0.67734 -0.474133,0.79587 -0.304799,0.6096 -0.694265,1.1684 -1.015998,1.76106 -0.355599,0.6604 -1.151464,2.40453 -1.337731,2.40453 -0.203199,0 -0.220132,-0.59267 -0.220132,-0.7112 0,-0.3556 0.220132,-1.28693 0.524932,-1.79493 0.06773,-0.11853 0.118533,-0.23706 0.1524,-0.3556 0.457199,-1.18533 1.405463,-2.03199 2.285995,-2.26906 z m 1.168398,-0.32173 c 0,-0.0508 -0.01693,-0.1524 -0.01693,-0.22014 0.03387,0.0339 0.03387,0.0677 0.03387,0.1016 0,0.0508 -0.01693,0.0677 -0.01693,0.11854 z m 1.507063,0.88053 c 0.08467,0.0508 0.08467,0.0339 0.08467,0.1016 0,0.0847 -0.03387,0.1016 -0.06773,0.16933 -0.01693,-0.0339 -0.0508,-0.0677 -0.0508,-0.1016 0,-0.0508 0.01693,-0.1016 0.03387,-0.16933 z m 0.254,0.0508 c -0.03387,0 -0.0508,-0.0677 -0.0508,-0.0847 0,-0.0508 0.01693,-0.0847 0.0508,-0.1016 0.06773,0 0.0508,0.1016 0.0508,0.1524 0,0.0169 -0.03387,0.0169 -0.0508,0.0339 z m -0.999065,7.24745 c 0,0.0508 0,0.1016 0,0.1524 0,-0.22013 0.220133,-0.18627 0.220133,-0.4064 -0.01693,-0.0339 -0.01693,-0.1016 -0.01693,-0.1524 0,-0.254 -0.03387,-0.74506 0.220133,-0.98213 0.0508,-0.0169 0.1016,-0.0847 0.1016,-0.13547 0,-0.0847 -0.135467,-0.11853 -0.135467,-0.2032 0,-0.0677 0.1524,-0.16933 0.1524,-0.27093 0,-0.1016 -0.118533,-0.18626 -0.118533,-0.27093 0,-0.11853 0.186266,-0.254 0.186266,-0.508 0,-0.2032 0.03387,-0.4064 0.03387,-0.6096 0,-0.1524 -0.06773,-0.28786 -0.06773,-0.44026 0,-0.508 0.3556,-0.6096 0.3556,-0.84667 0,-0.1016 -0.1016,-0.52493 -0.270933,-0.52493 -0.118533,0 -0.0508,0.44026 -0.304799,0.44026 -0.03387,0 -0.06773,-0.0169 -0.1016,-0.0169 -0.03387,0 -0.660399,1.016 -0.728132,1.10067 -0.08467,0.18626 -0.135467,0.40639 -0.169333,0.59266 0,0.0508 0.06773,0.1016 0.118533,0.1016 0.118533,0 0.253999,-0.7112 0.406399,-0.7112 0.01693,0 0.03387,0.0339 0.03387,0.0508 0,0.22013 -0.135467,0.72813 -0.389466,0.9652 0.03387,0 0.1016,0 0.1016,0.0508 0,0.0169 -0.01693,0.0339 -0.03387,0.0339 -0.0508,0 -0.03387,-0.0677 -0.0508,-0.1016 -0.1016,0.0677 -0.135466,0.1524 -0.135466,0.23706 0,0.0508 0.01693,0.1016 0.01693,0.1524 0,0.23707 -0.270933,0.254 -0.270933,0.49107 0,0.0677 0.01693,0.11853 0.01693,0.18626 0,0.2032 -0.169333,0.4064 -0.169333,0.57574 0,0.13546 0.118533,0.22013 0.118533,0.42333 0,0.32173 -0.06773,0.7112 -0.118533,1.04986 0.0508,0.0847 0.101599,0.1524 0.101599,0.23707 0,0.1016 -0.118533,0.23707 -0.118533,0.38947 0,0.254 0.270933,0.96519 0.541866,0.96519 0.524932,0 0.643465,-0.91439 0.643465,-0.96519 0,-0.27094 0.01693,-0.52494 0.1524,-0.79587 0,-0.11853 -0.2032,-0.1524 -0.321733,-0.254 z m 0.321733,-4.19946 c 0,-0.0169 -0.01693,-0.13546 0.03387,-0.16933 0.03387,0 0.0508,0.0339 0.0508,0.0677 0,0.0169 -0.118533,0.37254 -0.152399,0.69427 -0.0508,-0.11853 -0.06773,-0.22013 -0.06773,-0.32173 0,-0.1016 0,-0.2032 0.135466,-0.27094 z m -0.948265,3.94546 c -0.01693,-0.0339 -0.06773,-0.0677 -0.06773,-0.0847 0,-0.0339 0.0508,-0.0677 0.06773,-0.1016 0.01693,0.0339 0.06773,0.0677 0.06773,0.1016 0,0.0169 -0.0508,0.0508 -0.06773,0.0847 z m 0.880532,-2.87866 v 0.0508 h -0.03387 z m -0.626532,1.03293 c -0.01693,-0.0339 -0.06773,-0.0508 -0.06773,-0.0677 0,-0.0339 0.03387,-0.0677 0.03387,-0.0847 0.0508,0.0339 0.06773,0.0339 0.06773,0.0677 0,0.0339 -0.01693,0.0677 -0.03387,0.0847 z m 0.406399,-7.73852 c 0,0 0,-0.0169 0,-0.0169 0.01693,0.0169 0.03387,0.0169 0.06773,0.0169 0.01693,0 0.03387,0 0.03387,-0.0508 -0.03387,0.0169 -0.06773,0.0339 -0.1016,0.0508 z"
            />
      </clipPath>
      <path
         style="display:inline;fill:none;fill-opacity:1;stroke:#ee0000;stroke-width:1.8;stroke-linecap:square;stroke-linejoin:round;stroke-dasharray:46.8;stroke-dashoffset:46.8;stroke-opacity:1"
         d="m 53.813482,248.03664 c -3.363914,3.05811 -3.16004,4.79103 -3.16004,4.79103 0,0 0.407747,1.83486 1.121304,1.9368 l 0.713558,0.10194 c 0,0 0,-1.32518 1.936798,-4.9949 1.936799,-3.66973 3.873597,-10.19368 4.587155,-8.35882 0.713557,1.83486 -1.121305,3.0581 -2.038736,7.74719 -0.917431,4.6891 -1.019368,6.82977 -0.917431,8.8685 l 0.101937,2.03874"
         id="p-1" clip-path="url(#d-clip-path)"
      />

    </g>
  </g>
</svg>
