<!--?xml version="1.0" encoding="UTF-8" standalone="no"?-->
<!-- Created with Inkscape (http://www.inkscape.org/) -->

<svg width="169.84448mm" height="18.467926mm" viewBox="0 0 169.84448 18.467926" version="1.1" id="svg5" xmlns="http://www.w3.org/2000/svg" xmlns:svg="http://www.w3.org/2000/svg" class="" style="">
  <defs id="defs2"></defs>
  <g id="layer1" transform="translate(-22.627089,-199.95126)">
    <g aria-label="dale Tristan Hutchinson" id="text766" style="font-size:42.3333px;font-family:HakusyuGyosyoNenga;-inkscape-font-specification:'HakusyuGyosyoNenga, Normal';fill:#ee0000;stroke:#ffffff;stroke-width:0;stroke-linecap:square;stroke-linejoin:round">
      <path d="m 29.030011,205.45459 c -0.03528,0 -0.08819,-0.0529 -0.08819,-0.0882 0,-0.12347 0.194028,-0.17639 0.282222,-0.17639 0.229306,0 0.370417,0.0176 0.370417,0.37042 0,0.52916 -0.264583,1.02305 -0.264583,1.55222 0,0.0529 0.01764,0.0706 0.05292,0.0706 0.01764,0 0.0882,-0.0353 0.123473,-0.0353 0.07056,0 0.07056,0.15875 0.07056,0.21166 0,0.26459 -0.370417,0.84667 -0.423333,0.89959 -0.07056,0.10583 -0.0882,0.15875 -0.0882,0.29986 0,0.10583 0.05292,0.22931 0.05292,0.33514 0,0.26458 -0.176389,0.59972 -0.176389,0.82903 0,0.10583 0.08819,0.21166 0.08819,0.33514 0,0.24694 -0.229305,0.56444 -0.229305,0.88194 0,0.0529 0.01764,0.0882 0.07055,0.0882 0,-0.49389 0.388056,-0.37042 0.529167,-0.75848 v -0.52916 c -0.05292,-0.0529 -0.194028,-0.0882 -0.194028,-0.19403 0,-0.0706 0.3175,-0.38806 0.352778,-0.38806 0,0.26459 -0.03528,0.81139 0.194028,0.81139 0.423334,0 0.15875,-0.89958 0.335139,-1.04069 0.335139,-0.26459 0.335139,-1.88737 0.335139,-1.88737 0.194028,-0.19402 0.33514,-0.10583 0.33514,-0.29986 0,-0.0882 -0.08819,-0.24694 -0.08819,-0.35278 0,-0.0705 0.08819,-0.14111 0.08819,-0.21166 0,-0.21167 -0.246945,-0.0882 -0.246945,-0.24695 0,-0.17639 0.546806,-0.19402 0.546806,-0.65264 0,-0.47625 0.03528,-1.16416 0.352778,-1.65805 0.123472,-0.19403 0.194028,-0.44098 0.282222,-0.67028 0.05292,-0.79375 0.582084,-1.53459 0.582084,-2.41653 0,-0.29986 -0.405695,-0.58208 -0.723195,-0.58208 -0.652639,0 -1.217084,0.52916 -1.270001,1.02305 -0.05292,0.37042 -0.335139,0.54681 -0.3175,0.91723 -0.105833,0.56444 -0.793751,1.04069 -0.793751,1.64041 0,0.28223 -0.511528,0.42334 -0.511528,0.93486 0,0.22931 -0.08819,0.44098 -0.141111,0.65264 0,0.0176 -0.299861,0.65264 -0.405695,0.68792 -0.370416,0.10583 -0.440972,0.9525 -0.970139,0.9525 -0.264584,0 -0.617362,-0.17639 -0.881945,-0.17639 -0.15875,0 -0.705556,0.14111 -0.705556,0.17639 -0.123472,0.45861 -0.758473,0.56445 -0.793751,0.74084 -0.105833,0.44097 -0.458611,1.02305 -0.740834,1.32291 -0.3175,0.33514 -0.635,1.0407 -0.740833,1.28764 -0.123473,0.29986 -0.282223,0.47625 -0.317501,0.77611 0,0.29987 -0.282222,0.45862 -0.282222,0.7232 0,0.19403 -0.05292,0.38806 -0.05292,0.56444 0,0.33514 0,0.97014 0.282223,1.30528 0.229305,0.26459 -0.08819,0.47625 1.023056,0.86431 0.07056,0.0176 0.15875,0.0353 0.246945,0.0353 0.15875,0 0.335139,-0.0706 0.511528,-0.0706 0.105833,0 0.758472,-0.635 0.846667,-0.84667 0.299861,-0.81139 0.776112,-1.42875 1.058334,-2.34597 0.03528,-0.12347 0.405695,-0.98778 0.405695,-1.11125 0,-0.0176 0,-0.0176 0,-0.0176 0.370417,-0.0882 0.3175,-0.79375 0.370417,-1.18181 0.08819,-0.0353 0.246944,-0.3175 0.388055,-0.3175 0.229306,0 0,-0.74083 0.264584,-0.82902 0.123472,0 0.105833,0.37041 0.15875,0.37041 0.229306,0 0.282222,-1.05833 0.282222,-1.14653 0,0 0,0 0,0.0176 0,-0.0176 0.07056,-0.0353 0.105834,-0.0529 0,0.0353 0.03528,0.14111 0.05292,0.14111 0.123472,0 0.123472,-0.22931 0.123472,-0.33514 0,-0.14111 -0.03528,-0.28222 -0.03528,-0.42334 0,-0.28222 0.352778,-0.45861 0.352778,-0.635 0,-0.0353 -0.01764,-0.0882 -0.03528,-0.14111 z m -2.046112,2.08139 c 0.05292,0.0706 0.08819,0.12348 0.08819,0.17639 0,0.15875 -0.299861,0.70556 -0.493889,0.82903 -0.3175,0.635 -0.723195,1.21708 -1.058334,1.83445 -0.370417,0.68791 -1.199445,2.50472 -1.393473,2.50472 -0.211667,0 -0.229306,-0.61736 -0.229306,-0.74083 0,-0.37042 0.229306,-1.34056 0.546806,-1.86973 0.07056,-0.12347 0.123472,-0.24694 0.15875,-0.37041 0.47625,-1.23473 1.464029,-2.11667 2.381252,-2.36362 z m 1.217084,-0.33514 c 0,-0.0529 -0.01764,-0.15875 -0.01764,-0.2293 0.03528,0.0353 0.03528,0.0705 0.03528,0.10583 0,0.0529 -0.01764,0.0706 -0.01764,0.12347 z m 1.569862,0.91723 c 0.08819,0.0529 0.08819,0.0353 0.08819,0.10583 0,0.0882 -0.03528,0.10583 -0.07056,0.17639 -0.01764,-0.0353 -0.05292,-0.0706 -0.05292,-0.10583 0,-0.0529 0.01764,-0.10584 0.03528,-0.17639 z m 0.264584,0.0529 c -0.03528,0 -0.05292,-0.0705 -0.05292,-0.0882 0,-0.0529 0.01764,-0.0882 0.05292,-0.10583 0.07055,0 0.05292,0.10583 0.05292,0.15875 0,0.0176 -0.03528,0.0176 -0.05292,0.0353 z m -1.040696,7.54945 c 0,0.0529 0,0.10584 0,0.15875 0,-0.2293 0.229306,-0.19402 0.229306,-0.42333 -0.01764,-0.0353 -0.01764,-0.10583 -0.01764,-0.15875 0,-0.26458 -0.03528,-0.77611 0.229306,-1.02306 0.05292,-0.0176 0.105833,-0.0882 0.105833,-0.14111 0,-0.0882 -0.141111,-0.12347 -0.141111,-0.21166 0,-0.0706 0.15875,-0.17639 0.15875,-0.28223 0,-0.10583 -0.123472,-0.19402 -0.123472,-0.28222 0,-0.12347 0.194028,-0.26458 0.194028,-0.52917 0,-0.21166 0.03528,-0.42333 0.03528,-0.635 0,-0.15875 -0.07056,-0.29986 -0.07056,-0.45861 0,-0.52917 0.370417,-0.635 0.370417,-0.88194 0,-0.10584 -0.105833,-0.54681 -0.282222,-0.54681 -0.123473,0 -0.05292,0.45861 -0.317501,0.45861 -0.03528,0 -0.07055,-0.0176 -0.105833,-0.0176 -0.03528,0 -0.687917,1.05834 -0.758473,1.14653 -0.08819,0.19403 -0.141111,0.42334 -0.176389,0.61736 0,0.0529 0.07056,0.10584 0.123473,0.10584 0.123472,0 0.264583,-0.74084 0.423333,-0.74084 0.01764,0 0.03528,0.0353 0.03528,0.0529 0,0.22931 -0.141111,0.75847 -0.405695,1.00542 0.03528,0 0.105834,0 0.105834,0.0529 0,0.0176 -0.01764,0.0353 -0.03528,0.0353 -0.05292,0 -0.03528,-0.0705 -0.05292,-0.10583 -0.105833,0.0705 -0.141111,0.15875 -0.141111,0.24694 0,0.0529 0.01764,0.10584 0.01764,0.15875 0,0.24695 -0.282223,0.26459 -0.282223,0.51153 0,0.0706 0.01764,0.12347 0.01764,0.19403 0,0.21167 -0.176389,0.42333 -0.176389,0.59972 0,0.14111 0.123473,0.22931 0.123473,0.44097 0,0.33514 -0.07056,0.74084 -0.123473,1.09362 0.05292,0.0882 0.105834,0.15875 0.105834,0.24694 0,0.10583 -0.123473,0.24695 -0.123473,0.4057 0,0.26458 0.282223,1.00541 0.564445,1.00541 0.546806,0 0.670278,-0.9525 0.670278,-1.00541 0,-0.28223 0.01764,-0.54681 0.158751,-0.82903 0,-0.12348 -0.211667,-0.15875 -0.33514,-0.26459 z m 0.33514,-4.37444 c 0,-0.0176 -0.01764,-0.14112 0.03528,-0.17639 0.03528,0 0.05292,0.0353 0.05292,0.0705 0,0.0176 -0.123472,0.38806 -0.15875,0.7232 -0.05292,-0.12347 -0.07056,-0.22931 -0.07056,-0.33514 0,-0.10584 0,-0.21167 0.141112,-0.28222 z m -0.987779,4.10986 c -0.01764,-0.0353 -0.07055,-0.0706 -0.07055,-0.0882 0,-0.0353 0.05292,-0.0706 0.07055,-0.10584 0.01764,0.0353 0.07056,0.0706 0.07056,0.10584 0,0.0176 -0.05292,0.0529 -0.07056,0.0882 z m 0.917223,-2.99861 v 0.0529 h -0.03528 z m -0.652639,1.07597 c -0.01764,-0.0353 -0.07056,-0.0529 -0.07056,-0.0706 0,-0.0353 0.03528,-0.0705 0.03528,-0.0882 0.05292,0.0353 0.07055,0.0353 0.07055,0.0706 0,0.0353 -0.01764,0.0705 -0.03528,0.0882 z m 0.423333,-8.06098 c 0,0 0,-0.0176 0,-0.0176 0.01764,0.0176 0.03528,0.0176 0.07056,0.0176 0.01764,0 0.03528,0 0.03528,-0.0529 -0.03528,0.0176 -0.07056,0.0353 -0.105834,0.0529 z" style="font-size:17.6389px;font-family:'Lemon Tuesday';-inkscape-font-specification:'Lemon Tuesday, Normal'" id="path2401" class="gvQttemW_0"></path>
      <path d="m 29.98249,212.73946 c 0.335139,0.0353 0.211667,0.21167 0.264584,0.33514 0,0.74083 0.652639,1.12889 1.234723,1.12889 0.829028,0 0.79375,-0.0176 1.675695,-1.62278 0.352778,-0.74083 0.97014,-2.09903 1.093612,-2.13431 0.440973,-0.12347 0.370417,-0.40569 0.47625,-0.84667 0.03528,-0.15875 0.670279,-0.72319 0.705556,-0.72319 0.229306,-0.12347 0.282223,-0.28222 0.405695,-0.56444 0.440973,0 0.229306,-0.44098 0.511528,-0.49389 0.141111,-0.0176 0.264584,-0.0529 0.423334,-0.0882 0.01764,0.19403 0.105833,0.37042 0.105833,0.58209 -0.176389,0.33513 -0.264583,0.10583 -0.264583,1.34055 0,0.0882 0,0.19403 0.01764,0.28222 0,0.19403 -0.264584,0.51153 -0.282223,0.86431 -0.08819,1.49931 -0.246944,3.24556 -0.246944,4.62139 0,0.24695 0.264583,0.33514 0.264583,0.635 0,0.17639 -0.01764,0.35278 -0.01764,0.52917 0.01764,0.29986 -0.01764,0.61736 0.246945,0.84667 0.08819,0.0529 0.01764,0.26458 0.194028,0.42333 0.299861,0.28222 0.511528,0.56445 0.9525,0.56445 0.264584,0 0.687918,0 0.829029,-0.31751 0.123472,-0.28222 0.370417,-0.49388 0.423333,-0.8643 0,-0.37042 0,-0.97014 0.141112,-1.23472 0.176389,-0.22931 0.07056,-0.51153 0.194028,-0.68792 0.229305,-0.44097 0.3175,-1.09361 0.440972,-1.5875 0.123472,-0.51153 0.405695,-0.98778 0.47625,-1.51695 0,-0.5468 0.934862,-1.67569 1.058334,-1.86972 0.01764,-0.0176 0.03528,-0.0529 0.03528,-0.0882 0,-0.17638 -0.264583,-0.26458 -0.388056,-0.26458 -0.370417,0 -0.881945,0.58208 -1.005417,1.0407 -0.01764,0.0705 -0.05292,0.17638 -0.123472,0.2293 -0.493889,0.45861 -0.405695,0.89959 -0.582084,1.56986 -0.05292,0.22931 -0.229306,0.24695 -0.246945,0.42334 -0.229305,0.635 -0.405694,1.27 -0.599722,1.95792 0,0.38805 -0.405695,1.71097 -0.670278,1.71097 -0.05292,0 -0.246945,-0.61736 -0.246945,-0.68792 0,-0.0705 0.01764,-0.15875 0.03528,-0.2293 -0.105834,-0.10584 -0.141111,-0.22931 -0.141111,-0.35278 0,-0.10584 0.01764,-0.24695 0.01764,-0.37042 0,-0.26458 -0.01764,-0.52917 -0.01764,-0.81139 0,-0.81139 0.176389,-1.71097 0.176389,-2.52236 0,-0.37042 0.282222,-0.74084 0.282222,-1.00542 0,-1.32292 0.511528,-2.66347 0.511528,-3.81 0,-0.82903 -0.546806,-1.02306 -0.934862,-1.02306 -0.440972,0 -0.617361,0.29986 -0.917223,0.42334 -0.546805,0.21166 -0.846667,0.77611 -1.305278,1.00541 -0.405695,-0.52916 -0.81139,-0.89958 -1.622779,-0.89958 -1.217084,0 -1.428751,0.88194 -1.92264,1.5875 -0.617362,0.88195 -0.740834,1.46403 -0.952501,2.01084 -0.211667,0.5468 -0.440972,1.12888 -0.440972,1.71097 -0.01764,0.15875 -0.123473,0.2293 -0.264584,0.26458 z m 4.797781,-4.8507 c 0,0.0529 0.01764,0.0882 0.01764,0.12347 0,0.17639 -0.264583,0.52917 -0.264583,0.52917 -0.388056,0.29986 -0.599723,0.75847 -0.97014,1.05833 -0.194028,0.15875 -0.335139,0.37042 -0.458611,0.56445 -0.246945,0.40569 -1.164168,1.64042 -1.234723,1.64042 -0.08819,0 -0.105834,-0.0529 -0.105834,-0.12347 0.264584,-1.34056 1.093612,-3.05153 2.204863,-3.79237 0.123472,-0.0705 0.229305,-0.10583 0.370417,-0.10583 0.123472,0 0.3175,0.0529 0.440972,0.10583 z" style="font-size:17.6389px;font-family:'Lemon Tuesday';-inkscape-font-specification:'Lemon Tuesday, Normal'" id="path2403" class="gvQttemW_1"></path>
      <path d="m 42.012201,210.42876 c 0,0.0176 0,0.0353 0,0.0353 0.05292,-0.33514 0.105833,-0.47625 0.15875,-0.91722 0,-0.17639 -0.15875,-0.26459 -0.15875,-0.4057 0,-0.14111 0.15875,-0.28222 0.15875,-0.42333 0,-0.10583 -0.07055,-0.21167 -0.07055,-0.3175 0,-0.26458 0.141111,-0.58208 0.141111,-0.89958 0,-0.14112 -0.07056,-0.28223 -0.07056,-0.42334 0,-0.14111 0.07056,-0.35278 0.07056,-0.49389 0,-0.0882 -0.05292,-0.15875 -0.05292,-0.24694 0,-0.0529 0.05292,-0.12347 0.05292,-0.19403 0,-0.10583 -0.07056,-0.17639 -0.07056,-0.28222 0.03528,-0.24695 -0.01764,-0.49389 0.105834,-0.7232 0,0 0.01764,-0.0176 0.01764,-0.0353 0,-0.10584 -0.07055,-0.19403 -0.07055,-0.28223 0,-0.75847 0.211667,-2.01083 0.211667,-2.92805 0,-0.47626 -0.05292,-0.59973 -0.635001,-0.59973 -0.3175,0 -0.811389,0.0176 -0.811389,0.4057 0,0.19403 0.105833,0.37041 0.105833,0.61736 0,0.26458 -0.01764,0.52917 -0.01764,0.81139 0,0.12347 0.01764,0.26458 0.01764,0.40569 0,0.35278 -0.123472,0.86431 -0.123472,1.25236 0,0.14112 0.03528,0.26459 0.03528,0.38806 0,0.15875 -0.105834,0.29986 -0.105834,0.45861 0,0.17639 0.05292,0.33514 0.05292,0.49389 0,0.0706 -0.01764,0.12347 -0.03528,0.15875 -0.105833,0.59972 -0.246944,1.12889 -0.246944,1.76389 0,0.38806 0.194028,0.74084 0.194028,1.16417 0,0.35278 -0.01764,0.70556 -0.03528,1.05833 0,0.10584 0.01764,0.21167 0.01764,0.3175 0,0.21167 -0.299862,-0.0176 -0.299862,0.3175 0.01764,0.17639 0.01764,0.33514 0.01764,0.51153 0,0.4057 -0.105833,0.81139 -0.105833,1.21709 0,0.28222 0.105833,0.52916 0.105833,0.82902 0,0.22931 -0.01764,0.56445 -0.01764,0.86431 0,1.0407 0.282223,0.81139 0.282223,1.64042 0,0.15875 0.01764,0.28222 0.07055,0.33514 0.388056,0.37041 0.388056,1.8168 1.164168,1.905 0.123472,0 0.264583,-0.0882 0.388056,-0.0882 0.105833,0 0.176389,0.12348 0.264583,0.12348 0.01764,0 0.352778,-0.28223 0.405695,-0.44098 0.08819,-0.24694 0.511528,-0.24694 0.652639,-0.70555 0.15875,-0.54681 0.440973,-1.00542 0.458612,-1.62278 0,-0.0706 -0.01764,-0.14111 -0.01764,-0.19403 0,-0.0882 0.01764,-0.17639 0.01764,-0.26458 0,-0.10584 -0.05292,-0.19403 -0.05292,-0.28223 0,-0.0353 0.01764,-0.0705 0.03528,-0.10583 0.08819,0 0.176389,0.0176 0.246944,0.0176 0.141111,-0.65264 0.05292,-1.32292 0.105834,-1.97556 0.08819,-0.0529 0.15875,-0.0882 0.229305,-0.14111 0.05292,-0.65264 0.01764,-2.25778 0.176389,-2.25778 0.08819,0 0.105834,0.12348 0.176389,0.12348 0.176389,0 0.458612,-1.16417 0.864307,-1.46403 0.282222,-0.28223 0.705556,-0.70556 0.705556,-1.11125 0,-0.0882 -0.176389,-0.14112 -0.282223,-0.14112 -0.282222,0 -0.881945,0.49389 -0.917223,0.65264 -0.08819,0.29987 -0.3175,0.52917 -0.370417,0.82903 -0.05292,0.22931 -0.08819,0.7232 -0.229305,0.79375 -0.423334,0.22931 -0.564445,0.88195 -0.564445,1.34056 0,0.14111 0.03528,0.29986 0.03528,0.44097 0,0.3175 0,0.79375 -0.123473,0.91722 -0.123472,0 -0.08819,-0.67027 -0.176389,-0.67027 -0.123472,0 0,0.40569 -0.176389,0.40569 -0.03528,0 -0.07056,0 -0.123472,-0.0176 -0.440972,0.84667 -1.023056,3.35139 -1.28764,3.35139 -0.105833,-0.0176 -0.08819,-0.38805 -0.105833,-0.65264 -0.01764,0.0176 -0.03528,0.0176 -0.05292,0.0176 -0.423333,0 -0.493889,-0.33514 -0.493889,-0.67028 0,-0.2293 0.01764,-0.37041 0.01764,-0.58208 0,-0.51153 0.282222,-0.61736 0.282222,-1.21708 0,-0.28223 -0.01764,-0.70556 -0.07055,-0.70556 -0.05292,0 -0.08819,0.0529 -0.105834,0.0529 -0.05292,0 -0.07055,-0.14111 -0.07055,-0.21167 0,-0.29986 0.246944,-0.33514 0.246944,-0.77611 0,-0.26458 -0.01764,-0.42333 -0.141111,-0.54681 z m -1.252362,1.9932 c -0.03528,-0.0706 -0.05292,-0.14111 -0.05292,-0.19403 0,-0.14111 0.03528,-0.2293 0.123473,-0.2293 0.08819,0 0.229305,0.0882 0.229305,0.19402 0,0.15875 -0.194027,0.17639 -0.299861,0.22931 z m 2.822224,1.07597 c 0,0.0706 0,0.17639 0,0.26459 0,0.15875 0,0.28222 -0.03528,0.28222 -0.01764,-0.0176 -0.03528,-0.0353 -0.03528,-0.0353 0,-0.17639 0,-0.35278 0.01764,-0.52917 z m 1.040695,-1.67569 c 0,0.17639 0.01764,0.2293 0.01764,0.29986 0,0.0176 -0.01764,0.0353 -0.01764,0.0529 -0.01764,-0.0176 -0.03528,-0.0529 -0.03528,-0.0882 0,-0.0529 0.01764,-0.10583 0.03528,-0.26458 z m -2.381251,3.96875 c 0.01764,0.0176 0.05292,0.0705 0.05292,0.0882 -0.01764,0.0706 -0.05292,0.10584 -0.07055,0.17639 -0.03528,-0.0353 -0.05292,-0.0705 -0.05292,-0.12347 0,-0.0529 0,-0.14111 0.07056,-0.14111 z m 2.046112,-2.52236 c -0.03528,0 -0.07055,-0.0176 -0.07055,-0.0529 0.01764,-0.0529 0.03528,-0.0882 0.08819,-0.0882 0.03528,0 0.05292,0.0176 0.05292,0.0529 0,0.0353 -0.03528,0.0529 -0.07056,0.0882 z m -2.55764,-0.0353 c -0.01764,0.0176 -0.03528,0.0529 -0.05292,0.0705 -0.01764,-0.0176 -0.01764,-0.0353 -0.01764,-0.0529 0,-0.0353 0.01764,-0.0706 0.03528,-0.10584 0.03528,0.0353 0.03528,0.0353 0.03528,0.0882 z m 3.580697,-3.73945 c -0.01764,0.0176 -0.03528,0.0176 -0.05292,0.0176 0,-0.0176 -0.01764,-0.0353 -0.01764,-0.0529 0,-0.0176 0.01764,-0.0353 0.03528,-0.0353 0.01764,0 0.03528,0.0529 0.03528,0.0705 z m -3.633614,1.95792 0.03528,0.0176 -0.01764,0.0353 z" style="font-size:17.6389px;font-family:'Lemon Tuesday';-inkscape-font-specification:'Lemon Tuesday, Normal'" id="path2405" class="gvQttemW_2"></path>
      <path d="m 44.90493,208.78835 c 0.01764,0.0705 0.03528,0.14111 0.03528,0.21166 0,0.0706 -0.03528,0.0529 -0.05292,0.0706 -0.01764,-0.0176 -0.03528,-0.0529 -0.03528,-0.0882 0,-0.0705 0.03528,-0.14111 0.07056,-0.19402 -0.264584,0.37041 -0.194028,0.93486 -0.440973,1.23472 -0.229305,0.28222 -0.211667,1.09361 -0.211667,1.44639 0,0.14111 0.123473,0.28222 0.123473,0.40569 0,0.0882 -0.08819,0.19403 -0.08819,0.28223 0,0.12347 0.07056,0.2293 0.07056,0.33513 0,0.0706 -0.05292,0.14112 -0.05292,0.19403 0,0.14111 0.194028,0.28222 0.194028,0.44097 0,0.0882 -0.03528,0.17639 -0.03528,0.24695 0,0.0529 0.211667,0.67028 0.511528,0.82903 0.07056,0.0353 0.123473,0.12347 0.158751,0.21166 0.370416,0.54681 0.846667,0.52917 1.534584,0.59973 0.105833,-0.0706 0.211667,-0.14111 0.335139,-0.21167 0.05292,0.0353 0.123472,0.0529 0.176389,0.0529 0.299861,0 1.464029,-1.42875 1.746251,-1.53459 0.299861,-0.10583 0.564445,-0.89958 1.058334,-1.14653 0.194028,0 0.282223,-0.28222 0.282223,-0.42333 0,-0.17639 0.9525,-0.97014 0.9525,-0.97014 0.176389,-0.12347 0.705556,-0.33514 0.705556,-0.56444 0,-0.14111 -0.176389,-0.19403 -0.282222,-0.19403 -0.546806,0 -1.28764,0.84667 -1.481668,1.02305 -0.917223,0.81139 -1.852084,1.55223 -2.804585,2.32834 -0.194028,0.15875 -0.511528,0.37042 -0.776112,0.37042 -0.635,0 -0.687917,-1.48167 -0.687917,-2.27542 0,-0.28222 0.01764,-0.77611 0.352778,-0.77611 0.246945,0 0.493889,0.0705 0.740834,0.0705 0.987779,0 1.993196,-0.91722 2.187224,-1.28764 0.08819,-0.17639 0.211667,-0.28222 0.335139,-0.40569 0.141111,-0.15875 0.211667,-0.44097 0.388056,-0.52917 0.176389,-0.12347 0.246944,-0.29986 0.246944,-0.51153 0,-0.10583 -0.01764,-0.21166 -0.01764,-0.33514 0,-0.0529 0.01764,-0.12347 0.01764,-0.17639 0,-0.9525 -1.499306,-1.62277 -2.416529,-1.62277 -0.282222,0 -0.405695,0.26458 -0.635001,0.35277 -0.388055,0.15875 -0.617361,0.51153 -0.881945,0.77612 -0.123472,0.38805 -0.723194,0.5468 -0.881945,1.04069 -0.08819,0.28222 -0.264583,0.51153 -0.440972,0.7232 z m 1.675695,0.88194 c -0.282222,-0.0353 -0.370416,-0.0353 -0.370416,-0.15875 0,-0.47625 0.934861,-2.34597 2.099029,-2.34597 0.352778,0 0.423333,0.49389 0.423333,0.79375 0,1.12889 -1.516945,1.60514 -2.151946,1.71097 z" style="font-size:17.6389px;font-family:'Lemon Tuesday';-inkscape-font-specification:'Lemon Tuesday, Normal'" id="path2407" class="gvQttemW_3"></path>
      <path d="m 56.476017,212.56307 c 0,0 -0.01764,0.0176 -0.01764,0.0176 0.01764,-0.0353 0.05292,-0.10583 0.05292,-0.15875 0,-0.0706 -0.07056,-0.15875 -0.07056,-0.24695 0,-0.35277 0.211667,-0.84666 0.264584,-1.23472 0.07055,-0.49389 0,-1.00542 0.08819,-1.51694 0,-0.3175 -0.03528,-0.65264 -0.03528,-0.97014 0,-0.51153 0.07056,-1.02306 0.07056,-1.51695 0,-0.10583 -0.03528,-0.21167 -0.03528,-0.33514 0,-0.68792 0.105834,-2.50472 0.511528,-2.59292 0.440973,-0.0882 1.023057,-0.24694 1.322918,-0.47625 0.08819,0.0176 0.176389,0.0882 0.264583,0.0882 0.105834,0 0.15875,-0.15875 0.317501,-0.15875 0.670278,-0.14111 2.381251,-0.0706 2.381251,-0.84667 0,-0.56444 -1.093612,-0.56444 -1.340556,-0.56444 -1.058334,0 -2.028474,0.33513 -3.069169,0.44097 -0.194028,0.0176 -0.388056,0.10583 -0.599723,0.10583 -0.299861,0 -0.564444,-0.21167 -0.864306,-0.21167 -0.194028,0 -0.617361,0.0882 -0.617361,0.24695 0,0.0882 0.03528,0.14111 0.03528,0.21167 0,0.2293 -2.557641,0.74083 -2.822225,0.79375 -0.229305,0.0529 -0.440972,0.0882 -0.670278,0.0882 -0.176389,0 -0.388056,-0.10583 -0.564445,-0.10583 -0.194028,0 -0.370417,0.17639 -0.370417,0.33514 0,0.56444 0.758473,0.93486 0.81139,0.97014 0.335139,0.15875 0.635,0.24694 1.023056,0.24694 0.81139,0 1.834446,-0.56444 2.434168,-0.56444 0.07056,0 0.246945,0.10583 0.246945,0.58208 0,0.14111 -0.08819,0.24694 -0.08819,0.38806 0,0.15875 0.123472,0.35277 0.123472,0.52916 0,0.19403 -0.194028,0.38806 -0.194028,0.58209 0,0.10583 0.01764,0.21166 0.01764,0.3175 0,0.44097 -0.105834,0.89958 -0.105834,1.32291 0,0.21167 0.229306,0.4057 0.229306,0.56445 -0.176389,0.35278 -0.211667,0.51153 -0.211667,1.04069 0,0.19403 0.05292,0.38806 0.05292,0.54681 0,0.24694 -0.07056,0.47625 -0.07056,0.72319 0.05292,0.63501 -0.05292,1.48167 0.352778,1.92264 l -0.03528,-0.0529 c 0,0.0176 -0.01764,0.0176 -0.01764,0.0353 0,0 0.01764,0.0176 0.01764,0.0176 0,0 0.01764,-0.0176 0.03528,-0.0353 -0.03528,0.0353 -0.05292,0.0882 -0.05292,0.12347 0,0.28222 0.15875,0.72319 0.211667,1.00542 -0.01764,0.0529 -0.03528,0.10583 -0.03528,0.15875 0,0.26458 0.299861,0.47625 0.47625,0.65264 0.423334,-0.10584 0.881945,-0.15875 0.881945,-0.61737 0,-0.24694 -0.229306,-0.59972 -0.229306,-0.70555 0,-0.15875 -0.105833,-0.28222 -0.105833,-0.4057 0,-0.0705 0.05292,-0.14111 0.05292,-0.2293 0,-0.12347 -0.105834,-0.22931 -0.105834,-0.33514 0,-0.0353 0.01764,-0.0529 0.03528,-0.0529 h -0.01764 c 0.01764,-0.0353 0.01764,-0.0882 0.03528,-0.12347 z m -0.03528,0.12347 c 0.01764,0.0529 0.01764,0.10584 0.01764,0.15875 0,-0.0529 0,-0.10583 -0.01764,-0.15875 z m 0.03528,-0.12347 c 0,0 -0.01764,0.0176 -0.01764,0.0176 0,0 0.01764,-0.0176 0.01764,-0.0176 z" style="font-size:17.6389px;font-family:'Lemon Tuesday';-inkscape-font-specification:'Lemon Tuesday, Normal'" id="path2409" class="gvQttemW_4"></path>
      <path d="m 60.691675,211.09904 c -0.03528,0.14111 -0.105833,0.37042 -0.105833,0.52917 0,0.0882 0.08819,0.19403 0.08819,0.29986 0,0.0353 -0.01764,0.0529 -0.01764,0.0706 -0.229306,0.28222 -0.299862,0.88194 -0.299862,1.21708 0,0.29986 0.07056,0.54681 0.07056,0.79375 0,0.17639 -0.03528,0.3175 -0.03528,0.47625 0,0.58208 0.15875,1.18181 0.599723,1.18181 0.670278,0 0.987778,-1.53459 0.970139,-1.49931 0.3175,-0.56444 0.299861,-1.21708 0.546806,-1.81681 0.511528,-1.21708 0.388056,-1.60514 0.687917,-2.04611 0.176389,-0.26458 0.264584,-0.56444 0.388056,-0.84667 0.335139,-0.82902 1.234723,-2.20486 1.940279,-2.62819 0.01764,0 0.01764,-0.0176 0.03528,-0.0176 0.264583,0 0.05292,2.13431 0.79375,2.13431 0.264584,0 0.176389,-0.52917 0.49389,-0.75848 0.511528,-0.37041 0.652639,-0.635 0.652639,-1.30528 0,-0.635 -0.264583,-1.5875 -1.217084,-1.5875 -0.599723,0 -1.375834,0.7232 -1.44639,1.00542 -0.05292,0.22931 -0.546806,0.67028 -0.846667,1.07597 0.01764,-0.15875 0.05292,-0.24694 0.05292,-0.35277 -0.105833,-0.38806 -0.15875,-1.02306 -0.705556,-1.02306 -0.194027,0 -0.370416,0.0705 -0.564444,0.0705 -0.03528,0 -0.08819,-0.0176 -0.123473,-0.0176 -0.141111,0 -0.599722,0.88194 -0.687917,1.09361 -0.282222,0.61736 -0.740834,1.30528 -0.776111,1.95792 0,0.19402 -0.194028,0.52916 -0.194028,0.82902 0,0.0882 0,0.15875 0.01764,0.24695 -0.141112,0.14111 -0.246945,0.77611 -0.458612,0.81139 z m 2.25778,-1.48167 h -0.05292 l 0.03528,-0.0529 z" style="font-size:17.6389px;font-family:'Lemon Tuesday';-inkscape-font-specification:'Lemon Tuesday, Normal'" id="path2411" class="gvQttemW_5"></path>
      <path d="m 68.205838,210.90501 c 0,0.38806 0.07055,0.77612 0.07055,1.18181 0,0.51153 0.458612,1.14653 0.617362,1.49931 0.264583,0.59972 1.023056,1.25236 1.60514,1.25236 0.405695,0 1.093612,-0.24695 1.28764,-0.59972 0.08819,-0.26459 0.440972,-0.51153 0.440972,-0.70556 0.03528,-0.22931 0.335139,-0.47625 0.476251,-0.77611 0.08819,-0.15875 0.03528,-0.37042 0.194027,-0.47625 0.194028,-0.15875 0.370417,-0.68792 0.423334,-0.81139 0.08819,-0.37042 0.599723,-0.79375 0.599723,-1.05834 0,-0.21166 -0.194028,-0.3175 -0.423334,-0.3175 -0.282222,0 -0.529167,0.21167 -0.599723,0.56445 -0.246944,1.14653 -0.899584,1.92264 -1.658056,2.82222 -0.03528,0.0353 -0.07056,0.0353 -0.105834,0.0353 -0.458611,0 -0.47625,-1.94028 -0.47625,-2.27542 0,-0.0353 0,-0.0705 0.01764,-0.0882 0.123472,-0.3175 0.01764,-0.65264 0.141111,-0.97014 0.03528,-0.42334 0.08819,-0.84667 0.08819,-1.28764 0,-0.635 -0.317501,-1.94028 -0.793751,-2.08139 -0.264583,-0.0706 -0.599723,-0.19403 -0.846667,-0.19403 -0.546806,0 -1.058334,3.84528 -1.058334,4.28625 z m 1.322917,-6.80861 c 0,0.3175 0.123473,0.8643 0.546806,0.8643 0.458612,0 0.670279,-0.47625 0.670279,-0.88194 0,-0.44097 -0.476251,-0.42333 -0.881946,-0.51153 -0.299861,0 -0.335139,0.35278 -0.335139,0.52917 z" style="font-size:17.6389px;font-family:'Lemon Tuesday';-inkscape-font-specification:'Lemon Tuesday, Normal'" id="path2413" class="gvQttemW_6"></path>
      <path d="m 78.7539,212.89821 c 0,0.0882 0.01764,0.15875 0.01764,0.24694 -0.03528,0.29987 -0.01764,0.45862 -0.335139,0.45862 0.03528,-0.0706 0.03528,-0.12348 0.123472,-0.12348 0.05292,0 0.105834,0.0529 0.176389,0.0706 -0.07055,-0.12347 -0.08819,-0.24695 -0.08819,-0.38806 0,-0.21166 0.123472,-0.33514 0.282222,-0.33514 0.05292,0 0.123473,0.0176 0.194028,0.0176 0.07056,0 0.105834,-0.0176 0.105834,-0.0882 0,-0.0529 -0.01764,-0.10584 -0.01764,-0.15875 0,-0.29986 0.511528,-0.7232 0.687917,-0.7232 0.05292,0 0.123472,0.0176 0.176389,0.0176 0.08819,0 0.15875,-0.0353 0.194028,-0.10583 0.211667,-0.52917 1.393473,-0.75847 1.76389,-0.75847 0.08819,0 0.176389,0.0353 0.282222,0.0353 0.211667,0 0.564445,-0.24694 0.564445,-0.49389 0,-0.3175 -0.599723,-0.3175 -0.846667,-0.38805 -0.3175,0.12347 -0.65264,0.0176 -0.97014,0.17639 -0.105833,0.0529 -0.211667,0.0705 -0.335139,0.0705 -0.493889,0 -0.264583,-0.35277 -0.564445,-0.40569 -0.03528,-0.17639 -0.03528,-0.61736 -0.176389,-0.61736 -0.05292,0 -0.15875,0.0882 -0.229305,0.14111 -0.194028,-0.19403 -0.08819,-0.45861 -0.176389,-0.68792 -0.370417,-0.37042 -0.65264,-0.5468 -1.322918,-0.5468 -1.358195,0 -2.575279,0.42333 -3.439586,0.65263 -0.03528,0.0176 -0.07055,0.0176 -0.105833,0.0176 -0.105833,0 -0.15875,-0.0529 -0.15875,-0.12347 0,-0.14111 0.246945,-0.42333 0.3175,-0.58208 0.123472,-0.42334 0.599723,-0.56445 0.670278,-0.82903 0.229306,-0.84667 0.846668,-0.91722 1.164168,-1.28764 0.246944,-0.37042 0.687917,-0.81139 1.181806,-0.88195 0.07056,-0.0176 0.123472,-0.14111 0.123472,-0.2293 -0.07055,-0.61736 -1.093611,-0.635 -1.464028,-0.70556 -0.317501,0.3175 -0.617362,0.47625 -0.881945,0.89959 -0.194028,0.3175 -0.687917,0.44097 -0.758473,0.65264 -0.15875,0.47625 -0.705556,0.29986 -0.829028,0.77611 0,0.0176 -0.582084,0.635 -0.758473,0.81139 -0.246945,0.2293 -0.47625,0.51152 -0.493889,0.89958 0,0.19403 -0.141112,0.37042 -0.141112,0.54681 0,0.12347 0.05292,0.2293 0.05292,0.35277 0,0.0529 -0.03528,0.10584 -0.03528,0.15875 0,0.51153 0.423334,0.81139 0.987779,1.02306 0.123472,0.0706 0.141111,0.3175 0.246944,0.3175 0.723195,0 1.28764,-0.49389 1.28764,-0.49389 0.07056,0 0.15875,0.0706 0.282223,0.12347 0.370416,-0.24694 0.458611,-0.33513 0.846667,-0.45861 0.546806,-0.15875 0.899584,-0.47625 1.128889,-0.47625 0.123473,0 0.229306,0.0882 0.33514,0.0882 0.07055,0 0.15875,-0.0353 0.246944,-0.0353 0.264584,0 0.423334,0.26458 0.423334,0.49389 -0.141111,0.89958 -0.07056,1.62278 -0.776112,1.79917 -0.458611,0.10583 -0.564445,0.72319 -0.952501,0.72319 -0.352778,0 -0.370416,0.37042 -0.723194,0.42333 -0.176389,0 -0.405695,0.61737 -0.934862,0.75848 -0.405695,0.10583 -0.440973,0.47625 -0.740834,0.65264 -0.881945,0.52916 -1.199445,1.97555 -1.217084,2.11666 -0.08819,0.26459 -0.299861,0.63501 -0.299861,0.68792 0,0.3175 0.529167,1.23473 0.970139,1.23473 0.211667,0 0.229306,-0.31751 0.617362,-0.31751 0.423333,0 0.670278,-0.0176 1.093611,-0.35277 0.105834,-0.0882 0.211667,-0.15875 0.33514,-0.19403 0.176389,-0.0529 0.211666,-0.38806 0.440972,-0.38806 0.458611,0 0.194028,-0.51152 0.529167,-0.65264 0.229306,-0.0882 0.141111,-0.47625 0.352778,-0.51152 0.3175,-0.10584 0.299861,-0.47625 0.299861,-0.84667 -0.07055,-0.0176 -0.141111,-0.0353 -0.194027,-0.0529 l 0.01764,0.0529 c 0,0 -0.03528,-0.0353 -0.03528,-0.0353 0.07055,0.0176 0.123472,0.0353 0.194028,0.0353 0.440972,-0.24695 0.758472,-0.52917 0.758472,-0.81139 0,-0.0706 -0.07055,-0.10583 -0.123472,-0.10583 -0.105833,0 -0.15875,0.0176 -0.211667,0.0176 -0.123472,0 -0.01764,-0.44097 -0.282222,-0.44097 -0.05292,0 -0.370417,0.56445 -0.423334,0.56445 0,0 0,0 0,-0.0176 0,0.33514 -0.47625,0.91722 -0.652639,1.19944 -0.194028,0.51153 -0.299862,1.0407 -0.793751,1.16417 -0.440972,0.12347 -0.335139,0.68792 -0.705556,0.67028 -0.07055,0 -0.123472,-0.0176 -0.194028,-0.0176 -0.123472,0 -0.264583,0.0529 -0.405694,0.0529 -0.123473,0 -0.370417,-0.0529 -0.370417,-0.22931 0.03528,-0.24694 0,-0.52917 0.141111,-0.75847 0.282222,-0.44097 0.564445,-1.16417 0.970139,-1.30528 0.370417,-0.21167 0.687918,-0.7232 1.234723,-0.97014 0.582084,-0.26458 0.687918,-0.93486 1.375835,-0.93486 0.01764,0.26458 0.105833,0.74083 0.352778,0.74083 0.493889,0 0.776111,-0.29986 0.776111,-0.74083 0,-0.14111 -0.05292,-0.24695 -0.15875,-0.33514 z" style="font-size:17.6389px;font-family:'Lemon Tuesday';-inkscape-font-specification:'Lemon Tuesday, Normal'" id="path2415" class="gvQttemW_7"></path>
      <path d="m 84.468881,210.02307 c 0.07055,-0.37042 0.105833,-0.49389 0.105833,-0.91722 0,-0.26459 0.229306,-0.45862 0.229306,-0.7232 0.05292,-0.44097 0.08819,-0.86431 0.141111,-1.30528 -0.01764,-0.0176 -0.01764,-0.0529 -0.01764,-0.0705 0,-0.12348 0.08819,-0.24695 0.08819,-0.37042 0,-0.0353 0,-0.0882 -0.01764,-0.12347 0.123472,-0.28223 1.305278,-0.86431 1.287639,-0.86431 0.582084,-0.12347 0.987779,-0.12347 1.552224,-0.47625 0.05292,-0.0353 0.123472,-0.0529 0.194028,-0.0529 0.05292,0 0.123472,0.0176 0.176389,0.0176 0.105833,0 0.229305,-0.12347 0.299861,-0.12347 0.08819,0 0.282222,0.10583 0.3175,0.10583 0.07056,0 0.405695,-0.3175 0.405695,-0.44097 0,-0.0529 -0.01764,-0.10583 -0.05292,-0.17639 -0.01764,0.0353 -0.05292,0.0529 -0.07056,0.0529 -0.194027,0 0.08819,-0.68792 -0.635,-0.68792 -0.246945,0 -0.211667,0.3175 -0.370417,0.3175 -0.105833,0 -0.194028,-0.2293 -0.299861,-0.2293 -0.211667,0 -0.546806,0.44097 -0.793751,0.44097 -0.529167,0 -1.199445,0.33514 -1.481667,0.44097 -0.176389,-0.0705 -0.141112,-0.29986 -0.299862,-0.40569 0,0.0176 0.01764,0.0353 0.01764,0.0529 0.01764,-0.0176 0.01764,-0.0353 0.01764,-0.0353 -0.01764,0 -0.03528,0 -0.05292,0.0176 0.105834,-0.0705 0.141112,-0.3175 0.141112,-0.56444 0,-0.75847 -0.141112,-1.16417 -0.723195,-1.16417 -0.458612,0 -0.617362,0.26459 -0.829029,0.67028 0.01764,0.15875 0.03528,0.3175 0.03528,0.47625 0,0.65264 -0.05292,1.81681 -0.511528,1.92264 -0.687917,0.10583 -1.199445,0.59972 -1.252362,0.59972 -0.194028,0 -0.582084,0.3175 -0.952501,0.38806 -0.211666,0.0353 -0.705556,0.0353 -0.705556,0.22931 0,0.52916 0.97014,0.68791 1.164168,0.68791 0.899584,0 1.005417,-0.51153 1.534584,-0.51153 0.05292,-0.0353 0.05292,-0.10583 0.176389,-0.10583 0.123473,0 0.211667,0.0882 0.211667,0.19403 0,0.0705 -0.01764,0.14111 -0.01764,0.21167 0,0.10583 0.105834,0.19402 0.105834,0.29986 0,0.0529 -0.01764,0.10583 -0.03528,0.14111 -0.176389,0.33514 -0.229306,0.67028 -0.229306,1.00542 0,0.10583 0.01764,0.2293 0.01764,0.3175 0,0.14111 -0.05292,0.28222 -0.05292,0.40569 0,0.17639 0.05292,0.35278 0.05292,0.52917 0,0.0529 -0.01764,0.10583 -0.01764,0.14111 0,0.0705 0.176389,0.17639 0.176389,0.28222 0,0.14111 -0.246945,0.17639 -0.246945,0.28222 0,0.14111 0.299862,0.0353 0.299862,0.29986 v -0.0176 c 0.141111,-0.0706 0.15875,-0.21167 0.15875,-0.37042 0,-0.12347 -0.01764,-0.24695 -0.01764,-0.37042 0,-0.3175 0.264583,-0.52916 0.264583,-0.59972 0,-0.15875 -0.246944,-0.38806 -0.246944,-0.52917 0,-0.14111 0.105833,-0.2293 0.264583,-0.38805 -0.01764,0.0176 -0.01764,0.0353 -0.01764,0.0353 0.01764,-0.0176 0.01764,0 0.01764,-0.0353 0,0 -0.01764,0.0176 -0.03528,0.0176 0,0.21166 0.105833,0.8643 0.264583,0.8643 0.07056,0 0.123472,-0.0176 0.15875,-0.0176 0.08819,0 0.08819,0.0529 0.105834,0.22931 z m -0.423334,-1.53459 c -0.01764,-0.0176 -0.03528,-0.0176 -0.03528,-0.0176 0,-0.0176 0,-0.0529 0.01764,-0.0529 0.01764,0 0.03528,0 0.03528,0.0176 0,0.0176 -0.01764,0.0353 -0.01764,0.0529 z m 0.08819,-0.77611 c 0.05292,0 0.05292,0.0353 0.05292,0.0529 -0.01764,0.0176 -0.03528,0.0353 -0.03528,0.0353 -0.01764,0 -0.03528,-0.0176 -0.03528,-0.0529 0,-0.0176 0.01764,-0.0353 0.01764,-0.0353 z m -0.01764,3.21028 c 0,0 0.01764,-0.0176 0.01764,-0.0176 0,0.15875 -0.05292,0.3175 -0.05292,0.47625 0,0.0706 0.03528,0.14111 0.03528,0.21167 0,0.22931 -0.211667,0.49389 -0.211667,0.56445 0,0.12347 0.176389,0.28222 0.176389,0.45861 0,0.15875 -0.123473,0.29986 -0.123473,0.47625 0,0.0353 0.01764,0.0882 0.01764,0.12347 0,0.0706 -0.05292,0.22931 -0.105833,0.22931 -0.194028,0 -0.229306,-0.44098 -0.229306,-0.88195 0,-0.17639 0.01764,-0.33514 0.01764,-0.47625 0,-0.24694 -0.01764,-0.42333 -0.07055,-0.42333 -0.08819,0.0353 -0.08819,0.12347 -0.08819,0.19402 0,0.0706 0.01764,0.12348 0.01764,0.19403 0,0.14111 -0.05292,0.28222 -0.123472,0.38806 h 0.01764 c 0.123472,0.0529 0.176389,0.0882 0.176389,0.15875 0,0.15875 -0.158751,0.28222 -0.229306,0.28222 -0.123472,0 -0.176389,-0.12347 -0.246945,-0.12347 -0.176389,0 -0.176389,0.59972 -0.299861,0.82903 0,0.0353 0.08819,0.10583 0.123472,0.10583 0.141111,0 0.229306,-0.54681 0.370417,-0.54681 0.07056,0 0.08819,0.0706 0.123472,0.12348 0,0.19402 -0.229305,0.38805 -0.229305,0.635 0,0.0705 0.01764,0.14111 0.01764,0.21166 0,0.33514 -0.388056,0.89959 -0.388056,0.97014 0,0.21167 0.211667,0.70556 0.211667,0.77611 0,0.0529 -0.01764,0.12348 -0.01764,0.17639 0,0.29986 0.405694,0.7232 0.405694,1.09362 -0.01764,0.0529 -0.01764,0.0882 -0.01764,0.12347 0,0.21166 0.423333,0.635 0.881945,0.635 0.123472,0 0.599722,-0.0706 0.687917,-0.33514 0,-0.0353 0.105833,-0.0706 0.15875,-0.0706 0.03528,0 0.07055,0.0176 0.105833,0.0176 0.03528,0 0.546806,-0.47625 0.564445,-0.5468 0.05292,-0.19403 0.264584,-0.15875 0.264584,-0.35278 0.05292,-0.24695 0.07055,-0.26459 0.352778,-0.26459 0.01764,0 0.08819,0.0529 0.123472,0.0529 0.08819,0 0.05292,-0.3175 0.07055,-0.45861 0.05292,-0.29986 0.458612,-0.26458 0.458612,-0.84667 0,-0.35278 -0.105834,-0.77611 -0.105834,-1.16416 0,-0.21167 0.01764,-0.42334 0.05292,-0.635 0.176389,-0.19403 0.246945,-0.26459 0.246945,-0.38806 0,-0.0706 -0.03528,-0.14111 -0.07056,-0.28222 -0.493889,0.70555 -0.987778,1.34055 -1.393473,2.08139 -0.282222,0.51153 -0.864306,1.51694 -1.146529,1.51694 -0.546805,0 -0.08819,-0.79375 -0.458611,-1.00541 -0.07056,-0.0353 -0.08819,-0.19403 -0.08819,-0.24695 0,-0.19403 0.211666,-0.24694 0.211666,-0.37042 0,-0.17639 -0.194028,-0.28222 -0.194028,-0.45861 0,-0.77611 0.158751,-1.4993 0.158751,-2.32833 0,-0.0882 -0.03528,-0.19403 -0.03528,-0.28223 0,-0.21166 0.123472,-0.37041 0.194028,-0.59972 -0.08819,0 -0.15875,0.0353 -0.246945,0.0353 -0.01764,0 -0.05292,0 -0.08819,-0.0353 z m -0.405695,3.22792 c 0.01764,-0.15875 -0.03528,-0.33514 0.15875,-0.42333 0.07056,0 0.105833,0.26458 0.105833,0.35278 0,0.14111 -0.07055,0.44097 -0.282222,0.44097 -0.01764,0 -0.03528,-0.0353 -0.03528,-0.0529 0.01764,-0.10583 0.03528,-0.21167 0.05292,-0.3175 z m 2.592918,1.86972 c -0.07056,-0.0353 -0.176389,0 -0.176389,-0.14111 0.03528,-0.0705 0.05292,-0.12347 0.141111,-0.12347 0.08819,0 0.158751,0.0529 0.158751,0.14111 0,0.14111 0,0.12347 -0.123473,0.12347 z m 0.15875,-0.72319 c -0.05292,0.0882 -0.08819,0.10583 -0.141111,0.10583 -0.05292,-0.0353 -0.105833,-0.0705 -0.105833,-0.10583 0,-0.0882 0.03528,-0.12347 0.08819,-0.12347 0.05292,0 0.105834,0.0882 0.15875,0.12347 z m 0.405695,-1.02306 c -0.01764,0 -0.01764,0.0176 -0.03528,0.0176 -0.03528,0 -0.05292,-0.0529 -0.05292,-0.0882 0,-0.0176 0.01764,-0.0529 0.05292,-0.0529 0.01764,0 0.03528,0.0706 0.03528,0.12347 z m -0.934862,2.11667 c 0,0.0529 0,0.0882 -0.05292,0.0882 -0.03528,0 -0.03528,-0.0706 -0.03528,-0.10584 0.01764,-0.0176 0.03528,-0.0353 0.05292,-0.0353 0.01764,0.0176 0.03528,0.0353 0.03528,0.0529 z m 0.440973,-1.78153 c 0.01764,-0.0353 0.03528,-0.0705 0.05292,-0.10583 0,0.0176 0.03528,0.0353 0.03528,0.0529 -0.01764,0.0353 -0.03528,0.0529 -0.05292,0.0882 0,-0.0176 -0.01764,-0.0176 -0.03528,-0.0353 z m -1.92264,-4.60375 c 0,0 0.01764,0.0176 0.01764,0.0176 -0.229306,0.0705 -0.33514,0.0529 -0.405695,0.44097 -0.05292,-0.0353 -0.123472,-0.0705 -0.15875,-0.14111 -0.08819,0.17639 -0.07056,0.40569 -0.07056,0.61736 0,0.0353 0.05292,0.0882 0.105834,0.0882 0.05292,0 0.123472,-0.0706 0.194027,-0.12348 0,0 -0.01764,0.0176 -0.01764,0.0176 0,-0.24694 0.423333,-0.3175 0.423333,-0.635 0,-0.0882 -0.03528,-0.17639 -0.08819,-0.28222 z m 3.545419,1.16417 c 0.08819,0.0529 0.194028,0.15875 0.299861,0.15875 0.246945,0 0.423334,-0.51153 0.423334,-0.79375 0,-0.0353 -0.03528,-0.0529 -0.07056,-0.0529 -0.352778,0 -0.370417,0.51153 -0.652639,0.68792 z m 3.915836,-3.52778 c 0.370417,-0.12348 0.458611,-0.12348 0.458611,-0.51153 0,-0.0353 -0.07055,-0.0706 -0.08819,-0.0706 -0.246945,0.0176 -0.529167,0.17639 -0.529167,0.44098 0,0.10583 0.08819,0.14111 0.15875,0.14111 z m -2.41653,2.08139 c 0.07056,0 0.246945,-0.21167 0.246945,-0.28223 0,-0.0529 -0.05292,-0.12347 -0.123472,-0.12347 -0.123473,0 -0.194028,0.15875 -0.194028,0.22931 0,0.0705 0,0.10583 0.07055,0.17639 z m -6.42056,2.02847 c 0,0.21167 -0.01764,0.3175 0.05292,0.3175 0.03528,-0.0176 0.05292,-0.0705 0.05292,-0.0882 0,-0.0882 -0.05292,-0.12348 -0.105834,-0.22931 z m 5.979588,-1.55222 c 0.01764,-0.0176 0.01764,-0.0353 0.01764,-0.0529 0,-0.0176 -0.03528,-0.0529 -0.08819,-0.0529 -0.03528,0 -0.05292,0.0176 -0.07055,0.0529 0,0.0353 0.01764,0.0706 0.03528,0.10583 0.03528,-0.0176 0.07056,-0.0353 0.105834,-0.0529 z m -1.44639,1.97555 c -0.07056,0 -0.123472,0.0529 -0.123472,0.0882 0,0.0353 0.05292,0.0706 0.141111,0.0706 0.07056,0 0.123472,-0.0353 0.123472,-0.0882 0,-0.0529 -0.05292,-0.0706 -0.141111,-0.0706 z m 3.122085,-3.91583 c 0.01764,0 0.01764,0.0176 0.03528,0.0176 0.03528,0 0.07056,-0.0706 0.07056,-0.10584 0,-0.0353 -0.03528,-0.0882 -0.07056,-0.0882 -0.03528,0 -0.08819,0.0353 -0.08819,0.0882 0,0.0176 0.03528,0.0529 0.05292,0.0882 z m -0.423333,0.29986 c 0.05292,0 0.123472,0.0529 0.176389,0.0529 0.03528,0 0.07055,-0.0353 0.07055,-0.0706 -0.03528,-0.0529 -0.07055,-0.0705 -0.123472,-0.0705 -0.05292,0 -0.08819,0.0529 -0.123472,0.0882 z m -0.01764,-0.0353 c 0,0 0.01764,0.0353 0.01764,0.0353 -0.07056,0.0353 -0.176389,0.10583 -0.176389,0.15875 0,0.0176 0.01764,0.0353 0.05292,0.0353 0.07056,0 0.08819,-0.15875 0.105834,-0.22931 z m -2.786947,4.35681 c 0,-0.0176 0,-0.0353 -0.01764,-0.0529 0,0.0176 -0.03528,0.0176 -0.03528,0.0353 0,0.0176 0.01764,0.0353 0.01764,0.0529 0.01764,-0.0176 0.03528,-0.0176 0.03528,-0.0353 z m -4.092224,-1.49931 c -0.03528,0.0176 -0.141112,0 -0.194028,0.0529 0.03528,0.0176 0.07055,0.0706 0.08819,0.0706 0.07056,0 0.105834,-0.0529 0.105834,-0.12348 z m 0.141111,-0.19402 c -0.05292,0.0705 -0.08819,0.12347 -0.141111,0.19402 0,0 0.01764,0.0176 0.01764,0.0176 0.05292,-0.0705 0.105834,-0.12347 0.123473,-0.21166 z m -0.141111,1.25236 c 0,0 -0.01764,0 -0.01764,0 0.01764,0 0.01764,0 0.03528,0 -0.01764,0.0176 -0.01764,0.0176 -0.03528,0.0176 0,0 0.01764,-0.0176 0.01764,-0.0176 z" style="font-size:17.6389px;font-family:'Lemon Tuesday';-inkscape-font-specification:'Lemon Tuesday, Normal'" id="path2417" class="gvQttemW_8"></path>
      <path d="m 89.372438,212.73946 c 0.33514,0.0353 0.211667,0.21167 0.264584,0.33514 0,0.74083 0.652639,1.12889 1.234723,1.12889 0.829028,0 0.793751,-0.0176 1.675696,-1.62278 0.352778,-0.74083 0.970139,-2.09903 1.093611,-2.13431 0.440973,-0.12347 0.370417,-0.40569 0.476251,-0.84667 0.03528,-0.15875 0.670278,-0.72319 0.705556,-0.72319 0.229306,-0.12347 0.282222,-0.28222 0.405695,-0.56444 0.440972,0 0.229305,-0.44098 0.511528,-0.49389 0.141112,-0.0176 0.264582,-0.0529 0.423332,-0.0882 0.0176,0.19403 0.10583,0.37042 0.10583,0.58209 -0.17638,0.33513 -0.26458,0.10583 -0.26458,1.34055 0,0.0882 0,0.19403 0.0176,0.28222 0,0.19403 -0.264583,0.51153 -0.282222,0.86431 -0.08819,1.49931 -0.246945,3.24556 -0.246945,4.62139 0,0.24695 0.264584,0.33514 0.264584,0.635 0,0.17639 -0.01764,0.35278 -0.01764,0.52917 0.01764,0.29986 -0.01764,0.61736 0.246942,0.84667 0.0882,0.0529 0.0176,0.26458 0.19403,0.42333 0.299858,0.28222 0.511528,0.56445 0.952495,0.56445 0.264577,0 0.687917,0 0.829024,-0.31751 0.12347,-0.28222 0.37042,-0.49388 0.42333,-0.8643 0,-0.37042 0,-0.97014 0.141107,-1.23472 0.17639,-0.22931 0.0706,-0.51153 0.19403,-0.68792 0.229307,-0.44097 0.317497,-1.09361 0.440967,-1.5875 0.12348,-0.51153 0.405697,-0.98778 0.476247,-1.51695 0,-0.5468 0.934867,-1.67569 1.058337,-1.86972 0.0176,-0.0176 0.0353,-0.0529 0.0353,-0.0882 0,-0.17638 -0.26459,-0.26458 -0.38806,-0.26458 -0.370417,0 -0.881934,0.58208 -1.005414,1.0407 -0.0176,0.0705 -0.0529,0.17638 -0.12347,0.2293 -0.493887,0.45861 -0.405687,0.89959 -0.582077,1.56986 -0.0529,0.22931 -0.229307,0.24695 -0.246947,0.42334 -0.2293,0.635 -0.40569,1.27 -0.599717,1.95792 0,0.38805 -0.40569,1.71097 -0.670277,1.71097 -0.0529,0 -0.24694,-0.61736 -0.24694,-0.68792 0,-0.0705 0.0176,-0.15875 0.0353,-0.2293 -0.105837,-0.10584 -0.141117,-0.22931 -0.141117,-0.35278 0,-0.10584 0.0176,-0.24695 0.0176,-0.37042 0,-0.26458 -0.0176,-0.52917 -0.0176,-0.81139 0,-0.81139 0.176387,-1.71097 0.176387,-2.52236 0,-0.37042 0.28223,-0.74084 0.28223,-1.00542 0,-1.32292 0.511517,-2.66347 0.511517,-3.81 0,-0.82903 -0.546797,-1.02306 -0.934854,-1.02306 -0.44097,0 -0.617358,0.29986 -0.917218,0.42334 -0.546807,0.21166 -0.846668,0.77611 -1.30528,1.00541 -0.405695,-0.52916 -0.811389,-0.89958 -1.622779,-0.89958 -1.217084,0 -1.428751,0.88194 -1.92264,1.5875 -0.617361,0.88195 -0.740834,1.46403 -0.952501,2.01084 -0.211666,0.5468 -0.440972,1.12888 -0.440972,1.71097 -0.01764,0.15875 -0.123472,0.2293 -0.264584,0.26458 z m 4.797781,-4.8507 c 0,0.0529 0.01764,0.0882 0.01764,0.12347 0,0.17639 -0.264583,0.52917 -0.264583,0.52917 -0.388056,0.29986 -0.599723,0.75847 -0.97014,1.05833 -0.194028,0.15875 -0.335139,0.37042 -0.458611,0.56445 -0.246945,0.40569 -1.164168,1.64042 -1.234723,1.64042 -0.08819,0 -0.105834,-0.0529 -0.105834,-0.12347 0.264584,-1.34056 1.093612,-3.05153 2.204863,-3.79237 0.123472,-0.0705 0.229306,-0.10583 0.370417,-0.10583 0.123472,0 0.3175,0.0529 0.440971,0.10583 z" style="font-size:17.6389px;font-family:'Lemon Tuesday';-inkscape-font-specification:'Lemon Tuesday, Normal'" id="path2419" class="gvQttemW_9"></path>
      <path d="m 105.77658,216.6553 c 0.26458,-0.22931 0.47625,-0.81139 0.52916,-0.84667 0.17639,-0.0882 0.17639,-0.21167 0.17639,-0.4057 0,-0.2293 0.35278,-0.44097 0.35278,-0.79375 0,-0.10583 -0.0353,-0.2293 -0.0353,-0.33514 0,0.0176 0.22931,-0.91722 0.24695,-0.93486 0.21166,-0.2293 0.15875,-0.58208 0.44097,-0.8643 0.15875,-0.12348 0.0353,-0.38806 0.14111,-0.54681 0.22931,-0.14111 0.81139,-1.00542 0.81139,-1.32292 0,-0.12347 -0.0882,-0.19403 -0.21167,-0.19403 -0.68791,0 -0.79375,0.82903 -1.12889,1.18181 -0.17639,0.19403 -0.21166,0.33514 -0.2293,0.58208 0,0.12348 -0.22931,0.10584 -0.28222,0.26459 -0.28223,0.58208 -0.93487,2.2225 -1.16417,2.2225 -0.17639,0 -0.14111,-1.02306 -0.14111,-1.55222 0,-0.56445 0.0176,-1.09362 0.15875,-1.34056 0,0 0,0 0,-0.0176 0,-0.0353 -0.0706,-0.17639 -0.0706,-0.28222 0.0882,-0.0706 0.28222,-0.12347 0.28222,-0.22931 0,-0.0882 -0.19402,-0.2293 -0.19402,-0.35278 0,-0.0705 0.0529,-0.17638 0.0529,-0.24694 0,-0.0706 -0.0353,-0.14111 -0.0353,-0.19403 0,-0.29986 0.37042,-0.42333 0.37042,-0.77611 0,-1.72861 0.0706,-2.34597 -0.74083,-2.34597 -0.29986,0 -0.67028,0.0529 -0.86431,0.33514 -0.0882,0.14111 -0.75847,0.42333 -1.04069,0.75847 -0.21167,0.24694 -0.38806,0.58208 -0.58209,0.79375 -0.70555,0.49389 -1.28764,1.85208 -1.72861,1.85208 -0.0353,-0.0529 -0.0706,-0.0882 -0.0706,-0.14111 0,-0.35278 0.28223,-0.74083 0.33514,-1.07597 0.0353,-0.77611 0.0706,-1.55222 0.0706,-2.32834 0,-0.40569 -0.0176,-0.84666 -0.54681,-0.84666 -0.3175,0 -0.864297,0.21166 -0.864297,0.45861 0,0.61736 -0.24695,1.28764 -0.24695,1.88736 0,0.10583 0.0176,0.19403 0.0176,0.28222 0,0.12348 -0.0882,0.21167 -0.0882,0.3175 0,0.14111 0.0705,0.28223 0.0705,0.42334 0,0.42333 -0.0353,0.75847 -0.0353,1.25236 0,0.77611 0.0706,1.74625 0.758477,1.74625 1.02305,0 1.46403,-0.77611 1.99319,-1.5875 0.24695,-0.37042 0.77611,-1.18181 0.81139,-1.48167 0.0529,-0.44097 1.05834,-1.39347 1.21709,-1.39347 0.0353,0 0.0529,0.10583 0.0529,0.14111 0,0.15875 -0.0705,0.35278 -0.0705,0.51153 0,0.28222 0.0705,0.56444 0.0705,0.84667 0,0.14111 -0.0176,0.56444 -0.2293,0.70555 -0.0353,0.0353 -0.0706,0.0706 -0.0706,0.10583 0,0.0882 0.10584,0.14112 0.10584,0.24695 -0.0353,0.21167 -0.14112,0.44097 -0.14112,0.635 0,0.14111 0.17639,0.21167 0.17639,0.3175 0,0.0529 -0.0353,0.12347 -0.0353,0.17639 0,0.0706 0.0176,0.12347 0.0176,0.19403 0,0.0705 -0.3175,0.56444 -0.3175,0.84666 0,0.22931 0.0706,0.44098 0.0706,0.68792 0,0.15875 -0.0176,0.33514 -0.0176,0.51153 0.0353,0.93486 0.35278,2.24014 1.28764,2.24014 0.14111,-0.0882 0.21167,-0.12347 0.29986,-0.12347 0.0529,0 0.14111,0.0176 0.26459,0.0353 z m -1.28764,-5.32695 c -0.0176,0.0353 -0.0353,0.0529 -0.0353,0.0882 -0.0353,-0.0353 -0.0353,-0.0529 -0.0353,-0.10583 0.0176,-0.0176 0.0353,-0.0176 0.0353,-0.0353 0.0176,0.0176 0.0353,0.0353 0.0353,0.0529 z m 0.635,2.69875 0.0176,0.0529 h -0.0353 z" style="font-size:17.6389px;font-family:'Lemon Tuesday';-inkscape-font-specification:'Lemon Tuesday, Normal'" id="path2421" class="gvQttemW_10"></path>
      <path d="m 117.57694,205.96612 c -0.0529,-0.10583 -0.14111,-0.19403 -0.14111,-0.3175 0,-0.0353 0.0176,-0.0705 0.0176,-0.12347 0,-0.0529 -0.0529,-0.15875 -0.0529,-0.22931 0,-0.14111 0.28222,-0.0353 0.33514,-0.2293 0.15875,-1.16417 0.42333,-1.81681 0.42333,-2.04612 0,-0.70555 -0.28222,-0.82902 -0.98778,-0.82902 -0.5468,0 -1.16417,0.0706 -1.16417,0.68791 0,0.67028 -0.56444,2.01084 -0.61736,2.69876 0,0.51152 -0.28222,0.9525 -0.28222,1.39347 0,0.10583 0.0176,0.24694 0.0176,0.33514 0,0.42333 -0.15875,0.12347 -0.74083,0.51153 -0.29987,0.21166 -0.86431,0.29986 -1.23473,0.38805 -0.42333,0.10584 -0.74083,0.42334 -1.35819,0.45861 -0.0882,0 -0.15875,-0.0529 -0.24695,-0.0529 -0.15875,0 -0.12347,0.19402 -0.28222,0.19402 -0.0529,0 -0.0706,-0.0705 -0.0706,-0.12347 0,-0.37041 0.44098,-0.38805 0.44098,-0.75847 0,-0.0529 -0.0353,-0.12347 -0.0353,-0.17639 0,-0.10583 0.0882,-0.21167 0.0882,-0.29986 0,-0.12347 -0.0882,-0.26458 -0.0882,-0.4057 0,-0.2293 0.26458,-0.42333 0.26458,-0.59972 0,-0.0529 -0.0353,-0.12347 -0.0353,-0.19403 0,-0.10583 0.10583,-0.21166 0.10583,-0.3175 0,-0.12347 -0.10583,-0.21166 -0.10583,-0.33514 0,-0.44097 0.38805,-0.93486 0.38805,-1.25236 0,-0.17639 -0.33514,0 -0.33514,-0.2293 0.0706,-0.33514 0.0882,-0.635 0.0882,-1.0407 0,-0.37042 -0.0529,-0.74083 -0.35278,-0.74083 -0.37042,0 -0.97014,0.12347 -1.21709,0.24694 -0.0529,0.38806 -0.0176,0.75848 -0.14111,1.12889 0,0.0176 -0.0176,0.0353 -0.0176,0.0706 0,0.15875 0.0353,0.29986 0.0353,0.45861 0,0.2293 -0.0529,0.44097 -0.0529,0.67028 0,0.2293 0.24694,0.29986 0.24694,0.44097 0,0.0353 -0.0176,0.0882 -0.0353,0.10583 -0.2293,0.3175 -0.26458,0.77611 -0.26458,1.21709 0,0.21166 0.0176,0.40569 0.0176,0.59972 0,0.22931 -0.0176,0.44097 -0.0706,0.58208 -0.15875,0.4057 -0.10583,1.16417 -0.24694,1.34056 -0.14111,0.15875 -0.19403,0.33514 -0.19403,0.51153 0,0.40569 0.0706,0.89958 0.0706,1.34055 0,0.24695 -0.0529,0.47625 -0.0529,0.70556 0,0.15875 0.0353,0.3175 0.0353,0.47625 0,0.12347 -0.0176,0.22931 -0.0176,0.33514 0,0.45861 0.0705,0.93486 0.0882,1.39347 -0.0353,0.0882 -0.0353,0.15875 -0.0353,0.22931 0,0.33514 0.17639,0.61736 0.17639,0.98778 0,0.40569 0.24695,0.72319 0.24695,1.11125 0,0.0353 -0.0176,0.0706 -0.0176,0.10583 0,0.28222 0.47625,0.635 0.635,0.635 0.3175,0 0.65264,-0.79375 0.65264,-1.19944 0,-0.26459 -0.15875,-0.51153 -0.15875,-0.81139 0,-0.44098 -0.14111,-0.86431 -0.17639,-1.30528 -0.10583,0.12347 -0.10583,0.29986 -0.28222,0.29986 -0.14111,0 -0.0706,-0.42333 -0.0882,-0.42333 0,-0.37042 -0.24694,-0.17639 -0.24694,-1.11125 0,-0.15875 0.19403,-0.28223 0.19403,-0.4057 0,-0.15875 -0.22931,-0.15875 -0.26459,-0.3175 0,-0.26458 -0.0176,-0.52917 -0.0353,-0.79375 0.12348,-0.17639 0.22931,-0.33514 0.33514,-0.49389 -0.10583,0.0353 -0.19402,0.0706 -0.29986,0.10583 0,0 -0.0353,-0.0529 -0.0353,-0.0882 0,-0.0176 0.0176,-0.0529 0.0353,-0.0529 0.37042,0 0.26459,0.35278 0.4057,0.35278 0.0176,0 0.0353,-0.0353 0.0353,-0.0705 0,-0.0353 -0.0176,-0.0882 -0.0176,-0.12348 0,-0.12347 0.0353,-0.24694 0.12347,-0.24694 0.0529,0 0.10583,0.17639 0.14111,0.17639 0.12347,0 0.42333,-0.65264 0.89958,-0.65264 0.54681,0 1.86973,-0.74084 2.32834,-0.74084 0.21167,0 0.26458,0.79376 0.38805,1.0407 0.0176,0.0529 0.0353,0.10583 0.0353,0.17639 0,0.24694 -0.15875,0.47625 -0.15875,0.77611 0,0.29986 0.61736,0.84667 0.61736,0.98778 0,0.12347 -0.17639,0.17639 -0.26458,0.24694 -0.0529,-0.0706 -0.0882,-0.14111 -0.15875,-0.24694 -0.0706,0.2293 -0.21167,0.42333 -0.21167,0.56444 0,0.86431 0.21167,1.56987 0.26459,2.46945 0.0176,0.19403 0.19402,0.42333 0.37041,0.42333 0.44098,0 0.9525,-1.37583 0.9525,-1.53458 0,-0.3175 -0.24694,-0.7232 -0.24694,-0.91722 0,-0.19403 0.22931,-0.38806 0.22931,-0.52917 0,-0.15875 -0.14112,-0.15875 -0.17639,-0.19403 0,-0.26458 0.17639,-0.33514 0.17639,-0.56444 0,-0.0353 -0.0176,-0.0882 -0.0176,-0.12348 0,-0.0529 0.0176,-0.0882 0.0353,-0.10583 0.15875,-0.22931 0.19403,-0.51153 0.19403,-0.79375 0,-0.26458 -0.0353,-0.51153 -0.0353,-0.72319 0,-0.26459 0.0529,-0.44098 0.3175,-0.44098 0.0353,0 0.0706,0.0882 0.14112,0.21167 0.12347,-0.58208 0.15875,-1.14653 0.70555,-1.48167 0.35278,-0.21167 0.7232,-0.77611 0.7232,-1.05833 0,-0.0706 -0.0529,-0.33514 -0.19403,-0.33514 -0.12347,0 -0.17639,0.29986 -0.56445,0.29986 -0.14111,0 -0.21166,-0.0706 -0.21166,-0.29986 0,-0.4057 0.0353,-0.67028 0.3175,-1.00542 z m -1.32292,1.05834 c 0,0.0176 -0.0176,0.0176 -0.0176,0.0176 0.0176,0 0.0176,0 0.0353,0 l -0.0176,0.0353 c 0,0 0,-0.0529 0,-0.0529 z m -0.4057,4.26861 c -0.0353,-0.0529 -0.0882,-0.10583 -0.12347,-0.15875 0,-0.0176 0.0353,-0.12347 0.0882,-0.12347 0.0353,0.0353 0.0705,0.0705 0.0705,0.10583 0,0.0529 -0.0353,0.12347 -0.0529,0.17639 0.0353,0.0882 0.14111,0.14111 0.14111,0.2293 0,0.0706 -0.0353,0.0882 -0.10584,0.12348 -0.0176,0 -0.0705,-0.0529 -0.0705,-0.0882 0,-0.0882 0.0353,-0.19403 0.0529,-0.26458 z m -4.97417,-2.36361 c 0.0176,0.0176 0.0176,0.0353 0.0176,0.0529 0,0.0176 0,0.0353 -0.0176,0.0529 -0.0176,0 -0.0353,-0.0176 -0.0529,-0.0176 0.0176,-0.0353 0.0529,-0.0529 0.0705,-0.0705 -0.14111,-0.12348 -0.26458,-0.33514 -0.26458,-0.49389 0,-0.10584 0.10583,-0.19403 0.22931,-0.22931 0.14111,0 0.14111,0.22931 0.14111,0.35278 0,0.10583 0,0.35278 -0.12348,0.35278 z m -0.67027,4.62139 c 0,0.0353 0.0176,0.0176 0.0176,0.0176 -0.26459,-0.24695 -0.24695,-0.47625 -0.24695,-0.79375 0,-0.17639 0.0176,-0.38806 0.15875,-0.47625 0.0353,0 0.0529,0.0176 0.0529,0.0529 0,0.0529 -0.0353,0.10584 -0.0353,0.14111 0,0.15875 0.19403,0.37042 0.19403,0.58209 0,0.15875 -0.14111,0.35278 -0.14111,0.47625 z m 5.59153,-0.45861 c -0.0176,0.0705 -0.0176,0.26458 -0.15875,0.33514 -0.17639,0 -0.17639,-0.15875 -0.17639,-0.28223 0,-0.12347 0.0705,-0.40569 0.21167,-0.40569 0.10583,0 0.0882,0.17639 0.12347,0.35278 z m -5.50334,0.9525 c 0.0529,0.19403 0.0882,0.40569 0.0882,0.59972 0,0.10583 -0.0353,0.21167 -0.0353,0.29986 -0.0529,-0.0176 -0.22931,-0.58208 -0.22931,-0.77611 0,-0.0353 0.0529,-0.0882 0.17639,-0.12347 z m -0.0705,-3.56306 c -0.0353,0.0353 -0.0706,0.0706 -0.0882,0.0882 -0.12347,0 -0.10583,-0.29986 -0.10583,-0.35277 0,0 0.0353,-0.0353 0.0529,-0.0353 0.14112,0.0706 0.12348,0.21167 0.14112,0.29986 z m 5.02708,3.12209 c 0.0353,0 0.0353,0.0529 0.0353,0.10583 0,0.12347 0,0.26458 -0.0882,0.26458 -0.10584,0 -0.15875,-0.14111 -0.15875,-0.19403 0,-0.0882 0.0706,-0.17638 0.21166,-0.17638 z m -4.00403,-6.29709 c 0.0176,0.0705 0.0353,0.14111 0.0353,0.21166 0,0.0529 -0.0176,0.10584 -0.0353,0.15875 -0.0353,-0.0705 -0.0353,-0.10583 -0.0353,-0.15875 0,-0.0529 0,-0.10583 0.0353,-0.21166 z m 0.0706,-1.39348 c -0.0706,0 -0.10584,-0.0176 -0.10584,-0.0882 0,-0.0882 0.14112,-0.17639 0.14112,-0.17639 0.0705,0 0.0882,0.0882 0.0882,0.12347 0,0.0882 -0.0529,0.12348 -0.12347,0.14111 z m 3.66889,5.09765 c 0,0.0353 -0.0353,0.0529 -0.0706,0.0882 0,-0.0353 -0.0353,-0.0705 -0.0353,-0.10583 0,-0.0353 0.0353,-0.0529 0.0705,-0.0882 0.0176,0.0353 0.0353,0.0706 0.0353,0.10584 z m 0.91722,-0.89959 c -0.0176,0.0529 -0.0353,0.12348 -0.0882,0.12348 -0.0353,0 -0.0706,-0.0176 -0.0706,-0.0706 0,-0.0529 0.0529,-0.10583 0.10583,-0.10583 0.0176,0 0.0529,0.0176 0.0529,0.0529 z m -0.0529,0.65264 c -0.0176,0 -0.0353,0.0176 -0.0529,0.0176 0,0 -0.0176,-0.0353 -0.0176,-0.0353 0,0 0.0176,-0.0353 0.0529,-0.0353 0,0 0.0176,0 0.0353,0.0176 0,0 -0.0176,0.0176 -0.0176,0.0353 z m 1.25237,-4.39208 c -0.0176,0.0176 -0.0176,0.0353 -0.0353,0.0353 -0.0176,0 -0.0353,-0.0176 -0.0353,-0.0176 0,-0.0353 0.0176,-0.0705 0.0176,-0.0882 0.0529,0 0.0529,0.0529 0.0529,0.0706 z m -5.85612,0.38805 c 0,0.0176 0,0.0353 -0.0176,0.0529 0,-0.0176 -0.0176,-0.0353 -0.0176,-0.0529 0,-0.0176 0.0176,-0.0353 0.0176,-0.0529 0.0176,0.0176 0.0176,0.0353 0.0176,0.0529 z m -0.28222,0.51153 c -0.0176,-0.0353 -0.0529,-0.0706 -0.0529,-0.10583 0,-0.0353 0.0353,-0.0706 0.0529,-0.10584 0.0176,0.0353 0.0529,0.0706 0.0529,0.10584 0,0.0353 -0.0353,0.0705 -0.0529,0.10583 z m -0.4057,7.44362 c 0,0 0.0353,0.0176 0.0353,0.0176 0,0.0176 -0.0176,0.0353 -0.0176,0.0529 -0.0176,-0.0176 -0.0353,-0.0176 -0.0353,-0.0176 0,-0.0176 0,-0.0353 0.0176,-0.0529 z m 5.18584,-2.50473 c 0.0176,0.0353 0.0353,0.0706 0.0353,0.10584 0,0.0176 -0.0176,0.0353 -0.0353,0.0353 -0.0176,0 -0.0353,-0.0176 -0.0353,-0.0353 0,-0.0353 0.0176,-0.0706 0.0353,-0.10584 z m -5.09764,-0.74083 c 0.12347,-0.0706 0.10583,-0.0706 0.14111,-0.21167 0,0 -0.0176,-0.0176 -0.0353,-0.0176 -0.0353,0 -0.12347,0.0176 -0.12347,0.0529 0,0.0529 0.0176,0.10583 0.0176,0.17639 z m 6.94973,-5.4857 c 0,0 -0.0176,-0.0176 -0.0176,-0.0176 0.0529,-0.0882 0.14111,-0.24694 0.14111,-0.3175 0,-0.0176 0,-0.0353 -0.0353,-0.0353 -0.10583,0 -0.14111,0.14111 -0.14111,0.21167 0,0.0529 0.0176,0.10583 0.0529,0.15875 z m -6.86154,7.02028 c 0,-0.0529 -0.0176,-0.0705 -0.0529,-0.10583 -0.0176,0.0353 -0.0353,0.0705 -0.0529,0.10583 0,0.0353 0.0176,0.0706 0.0529,0.0706 0.0176,0 0.0353,-0.0353 0.0529,-0.0706 z m -0.5468,0.0353 c 0,-0.0176 -0.0176,-0.0353 -0.0176,-0.0529 -0.0176,0.0176 -0.0353,0.0353 -0.0353,0.0529 0,0 0.0176,0.0176 0.0353,0.0353 0,-0.0176 0.0176,-0.0176 0.0176,-0.0353 z" style="font-size:17.6389px;font-family:'Lemon Tuesday';-inkscape-font-specification:'Lemon Tuesday, Normal'" id="path2423" class="gvQttemW_11"></path>
      <path d="m 125.72609,208.3121 c 0.0176,0.0706 0.0176,0.15875 0.0176,0.2293 0,0.26458 -0.0705,0.52917 -0.0705,0.79375 0,0.0706 0.0176,0.15875 0.0176,0.22931 0,0.635 -0.17639,1.32291 -0.17639,1.97555 0,0.26459 0.0529,0.52917 0.0529,0.79375 0,0.22931 -0.0176,0.49389 -0.0176,0.7232 0,0.14111 0.0529,0.26458 0.0529,0.38806 0,0.14111 -0.0353,0.26458 -0.0529,0.38805 0,0.91722 0.35278,1.14653 0.38806,1.49931 0.0353,0.24694 0.52917,0.56444 0.89958,0.56444 1.05834,0 1.23473,-1.71097 1.71098,-2.29305 0.15875,-0.19403 0.0705,-0.51153 0.2293,-0.74084 0.28223,-0.40569 0.44098,-0.84667 0.67028,-1.28764 0.3175,-0.45861 0.79375,-0.97014 0.9525,-1.41111 0,-0.17639 -0.17639,-0.17639 -0.29986,-0.17639 -0.49389,0 -0.77611,0.635 -0.97014,1.0407 -0.38805,0.51152 -0.68792,1.07597 -0.97014,1.64041 -0.2293,0.45861 -0.89958,1.905 -1.14653,1.905 -0.17639,0 -0.21166,-0.47625 -0.21166,-0.70555 0,-0.15875 0.0353,-0.3175 0.10583,-0.47625 0.15875,-0.37042 0.17639,-0.75847 0.19403,-1.16417 0,-0.0705 -0.0176,-0.15875 -0.0176,-0.2293 0,-0.44098 0.26458,-0.79376 0.26458,-1.18181 0,-0.21167 -0.0176,-0.4057 -0.0176,-0.61736 0,-0.65264 0.28223,-0.98778 0.28223,-1.86973 0,-1.21708 -0.26459,-1.37583 -1.34056,-1.37583 -0.38806,0 -0.61736,0.3175 -0.89958,0.51153 -1.14653,0.81139 -2.0814,1.905 -2.91042,3.05153 -0.17639,0.24694 -0.35278,0.61736 -0.61737,0.75847 -0.19402,0 -0.2293,-0.52917 -0.2293,-1.07597 0,-1.41111 0.14111,-1.94028 0.14111,-3.15737 0,-0.72319 -0.91722,-0.74083 -1.41111,-0.74083 -0.24695,0 -0.38806,2.43417 -0.44097,2.99861 -0.0353,0.37042 -0.0882,0.75848 -0.0882,1.12889 0,0.47625 0.24695,0.86431 0.24695,1.3582 0,1.02305 0.88194,1.55222 1.53458,1.55222 1.23472,0 1.51695,-1.00542 1.85208,-2.06375 0.0706,-0.21167 0.10584,-0.44097 0.29987,-0.56444 0.0176,-0.21167 0.26458,-0.28223 0.29986,-0.49389 0.0353,-0.21167 1.04069,-1.905 1.67569,-1.905 z" style="font-size:17.6389px;font-family:'Lemon Tuesday';-inkscape-font-specification:'Lemon Tuesday, Normal'" id="path2425" class="gvQttemW_12"></path>
      <path d="m 132.86984,210.02307 c 0.0706,-0.37042 0.10583,-0.49389 0.10583,-0.91722 0,-0.26459 0.22931,-0.45862 0.22931,-0.7232 0.0529,-0.44097 0.0882,-0.86431 0.14111,-1.30528 -0.0176,-0.0176 -0.0176,-0.0529 -0.0176,-0.0705 0,-0.12348 0.0882,-0.24695 0.0882,-0.37042 0,-0.0353 0,-0.0882 -0.0176,-0.12347 0.12347,-0.28223 1.30528,-0.86431 1.28764,-0.86431 0.58208,-0.12347 0.98778,-0.12347 1.55222,-0.47625 0.0529,-0.0353 0.12347,-0.0529 0.19403,-0.0529 0.0529,0 0.12347,0.0176 0.17639,0.0176 0.10583,0 0.2293,-0.12347 0.29986,-0.12347 0.0882,0 0.28222,0.10583 0.3175,0.10583 0.0705,0 0.40569,-0.3175 0.40569,-0.44097 0,-0.0529 -0.0176,-0.10583 -0.0529,-0.17639 -0.0176,0.0353 -0.0529,0.0529 -0.0706,0.0529 -0.19403,0 0.0882,-0.68792 -0.635,-0.68792 -0.24694,0 -0.21167,0.3175 -0.37042,0.3175 -0.10583,0 -0.19402,-0.2293 -0.29986,-0.2293 -0.21166,0 -0.5468,0.44097 -0.79375,0.44097 -0.52916,0 -1.19944,0.33514 -1.48167,0.44097 -0.17638,-0.0705 -0.14111,-0.29986 -0.29986,-0.40569 0,0.0176 0.0176,0.0353 0.0176,0.0529 0.0176,-0.0176 0.0176,-0.0353 0.0176,-0.0353 -0.0176,0 -0.0353,0 -0.0529,0.0176 0.10584,-0.0705 0.14112,-0.3175 0.14112,-0.56444 0,-0.75847 -0.14112,-1.16417 -0.7232,-1.16417 -0.45861,0 -0.61736,0.26459 -0.82903,0.67028 0.0176,0.15875 0.0353,0.3175 0.0353,0.47625 0,0.65264 -0.0529,1.81681 -0.51153,1.92264 -0.68792,0.10583 -1.19944,0.59972 -1.25236,0.59972 -0.19403,0 -0.58208,0.3175 -0.9525,0.38806 -0.21167,0.0353 -0.70556,0.0353 -0.70556,0.22931 0,0.52916 0.97014,0.68791 1.16417,0.68791 0.89958,0 1.00542,-0.51153 1.53459,-0.51153 0.0529,-0.0353 0.0529,-0.10583 0.17638,-0.10583 0.12348,0 0.21167,0.0882 0.21167,0.19403 0,0.0705 -0.0176,0.14111 -0.0176,0.21167 0,0.10583 0.10584,0.19402 0.10584,0.29986 0,0.0529 -0.0176,0.10583 -0.0353,0.14111 -0.17639,0.33514 -0.22931,0.67028 -0.22931,1.00542 0,0.10583 0.0176,0.2293 0.0176,0.3175 0,0.14111 -0.0529,0.28222 -0.0529,0.40569 0,0.17639 0.0529,0.35278 0.0529,0.52917 0,0.0529 -0.0176,0.10583 -0.0176,0.14111 0,0.0705 0.17639,0.17639 0.17639,0.28222 0,0.14111 -0.24694,0.17639 -0.24694,0.28222 0,0.14111 0.29986,0.0353 0.29986,0.29986 v -0.0176 c 0.14111,-0.0706 0.15875,-0.21167 0.15875,-0.37042 0,-0.12347 -0.0176,-0.24695 -0.0176,-0.37042 0,-0.3175 0.26458,-0.52916 0.26458,-0.59972 0,-0.15875 -0.24694,-0.38806 -0.24694,-0.52917 0,-0.14111 0.10583,-0.2293 0.26458,-0.38805 -0.0176,0.0176 -0.0176,0.0353 -0.0176,0.0353 0.0176,-0.0176 0.0176,0 0.0176,-0.0353 0,0 -0.0176,0.0176 -0.0353,0.0176 0,0.21166 0.10584,0.8643 0.26459,0.8643 0.0705,0 0.12347,-0.0176 0.15875,-0.0176 0.0882,0 0.0882,0.0529 0.10583,0.22931 z m -0.42333,-1.53459 c -0.0176,-0.0176 -0.0353,-0.0176 -0.0353,-0.0176 0,-0.0176 0,-0.0529 0.0176,-0.0529 0.0176,0 0.0353,0 0.0353,0.0176 0,0.0176 -0.0176,0.0353 -0.0176,0.0529 z m 0.0882,-0.77611 c 0.0529,0 0.0529,0.0353 0.0529,0.0529 -0.0176,0.0176 -0.0353,0.0353 -0.0353,0.0353 -0.0176,0 -0.0353,-0.0176 -0.0353,-0.0529 0,-0.0176 0.0176,-0.0353 0.0176,-0.0353 z m -0.0176,3.21028 c 0,0 0.0176,-0.0176 0.0176,-0.0176 0,0.15875 -0.0529,0.3175 -0.0529,0.47625 0,0.0706 0.0353,0.14111 0.0353,0.21167 0,0.22931 -0.21166,0.49389 -0.21166,0.56445 0,0.12347 0.17638,0.28222 0.17638,0.45861 0,0.15875 -0.12347,0.29986 -0.12347,0.47625 0,0.0353 0.0176,0.0882 0.0176,0.12347 0,0.0706 -0.0529,0.22931 -0.10583,0.22931 -0.19403,0 -0.22931,-0.44098 -0.22931,-0.88195 0,-0.17639 0.0176,-0.33514 0.0176,-0.47625 0,-0.24694 -0.0176,-0.42333 -0.0705,-0.42333 -0.0882,0.0353 -0.0882,0.12347 -0.0882,0.19402 0,0.0706 0.0176,0.12348 0.0176,0.19403 0,0.14111 -0.0529,0.28222 -0.12347,0.38806 h 0.0176 c 0.12347,0.0529 0.17639,0.0882 0.17639,0.15875 0,0.15875 -0.15875,0.28222 -0.22931,0.28222 -0.12347,0 -0.17639,-0.12347 -0.24694,-0.12347 -0.17639,0 -0.17639,0.59972 -0.29987,0.82903 0,0.0353 0.0882,0.10583 0.12348,0.10583 0.14111,0 0.2293,-0.54681 0.37041,-0.54681 0.0706,0 0.0882,0.0706 0.12348,0.12348 0,0.19402 -0.22931,0.38805 -0.22931,0.635 0,0.0705 0.0176,0.14111 0.0176,0.21166 0,0.33514 -0.38806,0.89959 -0.38806,0.97014 0,0.21167 0.21167,0.70556 0.21167,0.77611 0,0.0529 -0.0176,0.12348 -0.0176,0.17639 0,0.29986 0.4057,0.7232 0.4057,1.09362 -0.0176,0.0529 -0.0176,0.0882 -0.0176,0.12347 0,0.21166 0.42333,0.635 0.88194,0.635 0.12347,0 0.59972,-0.0706 0.68792,-0.33514 0,-0.0353 0.10583,-0.0706 0.15875,-0.0706 0.0353,0 0.0705,0.0176 0.10583,0.0176 0.0353,0 0.54681,-0.47625 0.56445,-0.5468 0.0529,-0.19403 0.26458,-0.15875 0.26458,-0.35278 0.0529,-0.24695 0.0706,-0.26459 0.35278,-0.26459 0.0176,0 0.0882,0.0529 0.12347,0.0529 0.0882,0 0.0529,-0.3175 0.0706,-0.45861 0.0529,-0.29986 0.45861,-0.26458 0.45861,-0.84667 0,-0.35278 -0.10584,-0.77611 -0.10584,-1.16416 0,-0.21167 0.0176,-0.42334 0.0529,-0.635 0.17639,-0.19403 0.24695,-0.26459 0.24695,-0.38806 0,-0.0706 -0.0353,-0.14111 -0.0706,-0.28222 -0.49389,0.70555 -0.98778,1.34055 -1.39347,2.08139 -0.28223,0.51153 -0.86431,1.51694 -1.14653,1.51694 -0.54681,0 -0.0882,-0.79375 -0.45861,-1.00541 -0.0706,-0.0353 -0.0882,-0.19403 -0.0882,-0.24695 0,-0.19403 0.21167,-0.24694 0.21167,-0.37042 0,-0.17639 -0.19403,-0.28222 -0.19403,-0.45861 0,-0.77611 0.15875,-1.4993 0.15875,-2.32833 0,-0.0882 -0.0353,-0.19403 -0.0353,-0.28223 0,-0.21166 0.12348,-0.37041 0.19403,-0.59972 -0.0882,0 -0.15875,0.0353 -0.24694,0.0353 -0.0176,0 -0.0529,0 -0.0882,-0.0353 z m -0.40569,3.22792 c 0.0176,-0.15875 -0.0353,-0.33514 0.15875,-0.42333 0.0705,0 0.10583,0.26458 0.10583,0.35278 0,0.14111 -0.0705,0.44097 -0.28222,0.44097 -0.0176,0 -0.0353,-0.0353 -0.0353,-0.0529 0.0176,-0.10583 0.0353,-0.21167 0.0529,-0.3175 z m 2.59292,1.86972 c -0.0706,-0.0353 -0.17639,0 -0.17639,-0.14111 0.0353,-0.0705 0.0529,-0.12347 0.14111,-0.12347 0.0882,0 0.15875,0.0529 0.15875,0.14111 0,0.14111 0,0.12347 -0.12347,0.12347 z m 0.15875,-0.72319 c -0.0529,0.0882 -0.0882,0.10583 -0.14111,0.10583 -0.0529,-0.0353 -0.10584,-0.0705 -0.10584,-0.10583 0,-0.0882 0.0353,-0.12347 0.0882,-0.12347 0.0529,0 0.10583,0.0882 0.15875,0.12347 z m 0.40569,-1.02306 c -0.0176,0 -0.0176,0.0176 -0.0353,0.0176 -0.0353,0 -0.0529,-0.0529 -0.0529,-0.0882 0,-0.0176 0.0176,-0.0529 0.0529,-0.0529 0.0176,0 0.0353,0.0706 0.0353,0.12347 z m -0.93486,2.11667 c 0,0.0529 0,0.0882 -0.0529,0.0882 -0.0353,0 -0.0353,-0.0706 -0.0353,-0.10584 0.0176,-0.0176 0.0353,-0.0353 0.0529,-0.0353 0.0176,0.0176 0.0353,0.0353 0.0353,0.0529 z m 0.44097,-1.78153 c 0.0176,-0.0353 0.0353,-0.0705 0.0529,-0.10583 0,0.0176 0.0353,0.0353 0.0353,0.0529 -0.0176,0.0353 -0.0353,0.0529 -0.0529,0.0882 0,-0.0176 -0.0176,-0.0176 -0.0353,-0.0353 z m -1.92264,-4.60375 c 0,0 0.0176,0.0176 0.0176,0.0176 -0.22931,0.0705 -0.33514,0.0529 -0.40569,0.44097 -0.0529,-0.0353 -0.12348,-0.0705 -0.15875,-0.14111 -0.0882,0.17639 -0.0706,0.40569 -0.0706,0.61736 0,0.0353 0.0529,0.0882 0.10583,0.0882 0.0529,0 0.12348,-0.0706 0.19403,-0.12348 0,0 -0.0176,0.0176 -0.0176,0.0176 0,-0.24694 0.42334,-0.3175 0.42334,-0.635 0,-0.0882 -0.0353,-0.17639 -0.0882,-0.28222 z m 3.54542,1.16417 c 0.0882,0.0529 0.19403,0.15875 0.29986,0.15875 0.24695,0 0.42334,-0.51153 0.42334,-0.79375 0,-0.0353 -0.0353,-0.0529 -0.0706,-0.0529 -0.35278,0 -0.37042,0.51153 -0.65264,0.68792 z m 3.91584,-3.52778 c 0.37041,-0.12348 0.45861,-0.12348 0.45861,-0.51153 0,-0.0353 -0.0706,-0.0706 -0.0882,-0.0706 -0.24694,0.0176 -0.52916,0.17639 -0.52916,0.44098 0,0.10583 0.0882,0.14111 0.15875,0.14111 z m -2.41653,2.08139 c 0.0705,0 0.24694,-0.21167 0.24694,-0.28223 0,-0.0529 -0.0529,-0.12347 -0.12347,-0.12347 -0.12347,0 -0.19403,0.15875 -0.19403,0.22931 0,0.0705 0,0.10583 0.0706,0.17639 z m -6.42056,2.02847 c 0,0.21167 -0.0176,0.3175 0.0529,0.3175 0.0353,-0.0176 0.0529,-0.0705 0.0529,-0.0882 0,-0.0882 -0.0529,-0.12348 -0.10583,-0.22931 z m 5.97958,-1.55222 c 0.0176,-0.0176 0.0176,-0.0353 0.0176,-0.0529 0,-0.0176 -0.0353,-0.0529 -0.0882,-0.0529 -0.0353,0 -0.0529,0.0176 -0.0706,0.0529 0,0.0353 0.0176,0.0706 0.0353,0.10583 0.0353,-0.0176 0.0706,-0.0353 0.10583,-0.0529 z m -1.44639,1.97555 c -0.0705,0 -0.12347,0.0529 -0.12347,0.0882 0,0.0353 0.0529,0.0706 0.14111,0.0706 0.0706,0 0.12348,-0.0353 0.12348,-0.0882 0,-0.0529 -0.0529,-0.0706 -0.14112,-0.0706 z m 3.12209,-3.91583 c 0.0176,0 0.0176,0.0176 0.0353,0.0176 0.0353,0 0.0705,-0.0706 0.0705,-0.10584 0,-0.0353 -0.0353,-0.0882 -0.0705,-0.0882 -0.0353,0 -0.0882,0.0353 -0.0882,0.0882 0,0.0176 0.0353,0.0529 0.0529,0.0882 z m -0.42333,0.29986 c 0.0529,0 0.12347,0.0529 0.17639,0.0529 0.0353,0 0.0705,-0.0353 0.0705,-0.0706 -0.0353,-0.0529 -0.0705,-0.0705 -0.12347,-0.0705 -0.0529,0 -0.0882,0.0529 -0.12347,0.0882 z m -0.0176,-0.0353 c 0,0 0.0176,0.0353 0.0176,0.0353 -0.0706,0.0353 -0.17639,0.10583 -0.17639,0.15875 0,0.0176 0.0176,0.0353 0.0529,0.0353 0.0706,0 0.0882,-0.15875 0.10584,-0.22931 z m -2.78695,4.35681 c 0,-0.0176 0,-0.0353 -0.0176,-0.0529 0,0.0176 -0.0353,0.0176 -0.0353,0.0353 0,0.0176 0.0176,0.0353 0.0176,0.0529 0.0176,-0.0176 0.0353,-0.0176 0.0353,-0.0353 z m -4.09222,-1.49931 c -0.0353,0.0176 -0.14111,0 -0.19403,0.0529 0.0353,0.0176 0.0705,0.0706 0.0882,0.0706 0.0706,0 0.10584,-0.0529 0.10584,-0.12348 z m 0.14111,-0.19402 c -0.0529,0.0705 -0.0882,0.12347 -0.14111,0.19402 0,0 0.0176,0.0176 0.0176,0.0176 0.0529,-0.0705 0.10583,-0.12347 0.12347,-0.21166 z m -0.14111,1.25236 c 0,0 -0.0176,0 -0.0176,0 0.0176,0 0.0176,0 0.0353,0 -0.0176,0.0176 -0.0176,0.0176 -0.0353,0.0176 0,0 0.0176,-0.0176 0.0176,-0.0176 z" style="font-size:17.6389px;font-family:'Lemon Tuesday';-inkscape-font-specification:'Lemon Tuesday, Normal'" id="path2427" class="gvQttemW_13"></path>
      <path d="m 137.9498,212.24557 c 0.0176,0.28222 -0.0176,0.65264 0.10583,0.89958 0.37042,0.77612 0.42333,1.92264 1.85208,1.92264 0.82903,0 2.32834,-1.4993 2.6282,-1.8168 0.26458,-0.26459 1.67569,-1.74625 1.76389,-1.76389 0.19403,-0.42334 1.02306,-0.77611 1.02306,-1.12889 0,-0.15875 -0.14112,-0.19403 -0.29987,-0.19403 -0.67027,0 -2.06375,1.25236 -2.69875,1.94028 -0.40569,0.44097 -2.06375,1.60514 -2.27542,1.60514 -0.45861,0 -0.635,-1.41111 -0.635,-2.06375 0,-0.79375 0.35278,-1.48167 0.51153,-2.20487 0.47625,-0.8643 1.37584,-2.08139 2.08139,-2.08139 0.0706,0 0.12347,0.0353 0.12347,0.12348 -0.0176,0.19402 -0.0529,0.38805 -0.0529,0.59972 0,0.26458 0.19403,0.61736 0.45861,0.61736 0.51153,0 0.74083,-1.34056 0.74083,-1.81681 0,-0.70555 -1.88736,-0.97014 -1.88736,-0.97014 -0.19403,0 -0.81139,0.3175 -0.93486,0.65264 -0.0882,0.21167 -0.49389,0.0706 -0.54681,0.3175 -0.0529,0.24695 -0.29986,0.28223 -0.37041,0.51153 -0.10584,0.3175 -0.4057,0.54681 -0.58209,0.86431 -0.33514,0.61736 -0.74083,1.56986 -0.74083,1.95792 0,0.67027 -0.26458,1.32291 -0.26458,2.02847 z" style="font-size:17.6389px;font-family:'Lemon Tuesday';-inkscape-font-specification:'Lemon Tuesday, Normal'" id="path2429" class="gvQttemW_14"></path>
      <path d="m 153.91299,209.54682 c 0.0176,-0.0706 0.0353,-0.12347 0.0353,-0.17639 0,-0.17639 -0.12347,-0.26458 -0.28222,-0.26458 -0.51153,0 -0.89959,0.9525 -1.39348,1.39347 -0.15875,0.45861 -0.15875,0.89958 -0.44097,1.30528 -0.38805,0.56444 -0.67028,1.09361 -0.77611,1.72861 -0.0529,0.24694 -0.29986,0.21167 -0.29986,0.47625 0,0.10583 -0.68792,1.05833 -0.82903,1.05833 -0.0882,0 -0.37042,-0.89958 -0.37042,-0.88194 0,-0.28222 0.15875,-0.7232 0.17639,-1.0407 0.0706,-1.16416 0.22931,-2.38125 0.22931,-3.52778 0,-0.88194 -0.0529,-1.14652 -1.02306,-1.4993 -0.0705,-0.0176 -0.14111,-0.0353 -0.19403,-0.0353 -0.21166,0 -0.40569,0.24694 -0.65264,0.29986 -0.3175,0.0706 -0.58208,0.21167 -0.68791,0.54681 0,0.24694 -0.44098,0.24694 -0.51153,0.3175 -0.26458,0.2293 -0.93486,1.21708 -1.19945,1.21708 -0.15875,0 -0.14111,-0.17639 -0.14111,-0.2293 0,-0.89959 0.65264,-1.51695 0.65264,-2.43417 0,-0.47625 0.4057,-1.30528 0.42334,-1.30528 0,-0.19403 0.0882,-0.38806 0.0882,-0.58209 0,-0.0529 -0.0176,-0.10583 -0.0176,-0.15875 0,-0.17638 0.22931,-0.37041 0.22931,-0.65263 0,-0.52917 0.45861,-1.72862 0.42333,-1.69334 0.37042,-0.49389 0.61736,-1.51694 0.61736,-1.74625 0,-0.45861 -0.42333,-0.4057 -0.88194,-0.59972 -0.0706,-0.0353 -0.12348,-0.0529 -0.15875,-0.0529 -0.12348,0 -0.56445,2.02847 -0.54681,2.09903 0,0 0.0176,-0.0176 0.0176,-0.0176 -0.22931,0.37042 -0.21167,0.67028 -0.28222,1.07597 -0.15875,0.4057 -0.4057,0.88195 -0.4057,1.27 0,0.0706 0.0176,0.12348 0.0176,0.17639 0,0.14111 -0.12347,0.26459 -0.12347,0.38806 0,0.0705 0.10583,0.17639 0.10583,0.26458 0,0.0882 -0.2293,0.24695 -0.28222,0.45861 -0.0882,0.3175 -0.24694,0.65264 -0.24694,0.93487 0,0.0705 0.0176,0.17638 0.0176,0.24694 0,0.33514 -0.26458,0.59972 -0.26458,0.97014 0,0.37042 -0.26458,0.74083 -0.26458,1.00542 0,0.0705 0.0529,0.17639 0.0529,0.24694 0,0.22931 -0.19402,0.4057 -0.19402,0.635 0,0.0706 0.0176,0.12347 0.0176,0.19403 0,0.17639 -0.12348,0.29986 -0.12348,0.45861 0,0.75847 -0.51153,1.37584 -0.51153,2.09903 0,0.33514 0.97014,0.77611 1.23473,0.77611 0.0882,0 0.70555,-1.60514 0.82903,-2.01083 0.17639,-0.61736 1.09361,-1.71098 1.07597,-1.6757 0.0176,-0.17639 1.11125,-1.1818 1.48167,-1.1818 0.12347,0 0.15875,0.74083 0.15875,0.98777 0,0.15875 -0.0882,0.33514 -0.0882,0.51153 0,0.29986 0.19403,0.61736 0.19403,0.93486 0,0.4057 -0.0176,0.79375 -0.0176,1.16417 0,0.19403 -0.10583,0.35278 -0.10583,0.51153 0,0.21167 0.15875,0.37042 0.21166,0.635 0.15875,1.49931 0.82903,1.905 1.51695,1.905 0.37042,0 0.56444,-1.09361 0.67028,-1.19944 0.19403,-0.19403 0.10583,-0.52917 0.2293,-0.74084 0.17639,-0.3175 0.17639,-0.68791 0.38806,-0.98778 0.17639,-0.26458 0.37042,-0.67027 0.37042,-1.02305 0,-0.0882 0.42333,-0.59973 0.56444,-0.86431 0.35278,-0.67028 0.77611,-1.14653 1.28764,-1.71097 z" style="font-size:17.6389px;font-family:'Lemon Tuesday';-inkscape-font-specification:'Lemon Tuesday, Normal'" id="path2431" class="gvQttemW_15"></path>
      <path d="m 152.53716,210.90501 c 0,0.38806 0.0705,0.77612 0.0705,1.18181 0,0.51153 0.45861,1.14653 0.61736,1.49931 0.26459,0.59972 1.02306,1.25236 1.60514,1.25236 0.4057,0 1.09362,-0.24695 1.28764,-0.59972 0.0882,-0.26459 0.44098,-0.51153 0.44098,-0.70556 0.0353,-0.22931 0.33514,-0.47625 0.47625,-0.77611 0.0882,-0.15875 0.0353,-0.37042 0.19402,-0.47625 0.19403,-0.15875 0.37042,-0.68792 0.42334,-0.81139 0.0882,-0.37042 0.59972,-0.79375 0.59972,-1.05834 0,-0.21166 -0.19403,-0.3175 -0.42333,-0.3175 -0.28223,0 -0.52917,0.21167 -0.59973,0.56445 -0.24694,1.14653 -0.89958,1.92264 -1.65805,2.82222 -0.0353,0.0353 -0.0706,0.0353 -0.10584,0.0353 -0.45861,0 -0.47625,-1.94028 -0.47625,-2.27542 0,-0.0353 0,-0.0705 0.0176,-0.0882 0.12348,-0.3175 0.0176,-0.65264 0.14111,-0.97014 0.0353,-0.42334 0.0882,-0.84667 0.0882,-1.28764 0,-0.635 -0.3175,-1.94028 -0.79375,-2.08139 -0.26459,-0.0706 -0.59972,-0.19403 -0.84667,-0.19403 -0.54681,0 -1.05833,3.84528 -1.05833,4.28625 z m 1.32291,-6.80861 c 0,0.3175 0.12348,0.8643 0.54681,0.8643 0.45861,0 0.67028,-0.47625 0.67028,-0.88194 0,-0.44097 -0.47625,-0.42333 -0.88195,-0.51153 -0.29986,0 -0.33514,0.35278 -0.33514,0.52917 z" style="font-size:17.6389px;font-family:'Lemon Tuesday';-inkscape-font-specification:'Lemon Tuesday, Normal'" id="path2433" class="gvQttemW_16"></path>
      <path d="m 163.47327,216.6553 c 0.26458,-0.22931 0.47625,-0.81139 0.52916,-0.84667 0.17639,-0.0882 0.17639,-0.21167 0.17639,-0.4057 0,-0.2293 0.35278,-0.44097 0.35278,-0.79375 0,-0.10583 -0.0353,-0.2293 -0.0353,-0.33514 0,0.0176 0.22931,-0.91722 0.24695,-0.93486 0.21167,-0.2293 0.15875,-0.58208 0.44097,-0.8643 0.15875,-0.12348 0.0353,-0.38806 0.14111,-0.54681 0.22931,-0.14111 0.81139,-1.00542 0.81139,-1.32292 0,-0.12347 -0.0882,-0.19403 -0.21167,-0.19403 -0.68791,0 -0.79375,0.82903 -1.12889,1.18181 -0.17638,0.19403 -0.21166,0.33514 -0.2293,0.58208 0,0.12348 -0.22931,0.10584 -0.28222,0.26459 -0.28223,0.58208 -0.93486,2.2225 -1.16417,2.2225 -0.17639,0 -0.14111,-1.02306 -0.14111,-1.55222 0,-0.56445 0.0176,-1.09362 0.15875,-1.34056 0,0 0,0 0,-0.0176 0,-0.0353 -0.0706,-0.17639 -0.0706,-0.28222 0.0882,-0.0706 0.28223,-0.12347 0.28223,-0.22931 0,-0.0882 -0.19403,-0.2293 -0.19403,-0.35278 0,-0.0705 0.0529,-0.17638 0.0529,-0.24694 0,-0.0706 -0.0353,-0.14111 -0.0353,-0.19403 0,-0.29986 0.37041,-0.42333 0.37041,-0.77611 0,-1.72861 0.0706,-2.34597 -0.74083,-2.34597 -0.29986,0 -0.67028,0.0529 -0.86431,0.33514 -0.0882,0.14111 -0.75847,0.42333 -1.04069,0.75847 -0.21167,0.24694 -0.38806,0.58208 -0.58209,0.79375 -0.70555,0.49389 -1.28764,1.85208 -1.72861,1.85208 -0.0353,-0.0529 -0.0705,-0.0882 -0.0705,-0.14111 0,-0.35278 0.28222,-0.74083 0.33514,-1.07597 0.0353,-0.77611 0.0706,-1.55222 0.0706,-2.32834 0,-0.40569 -0.0176,-0.84666 -0.5468,-0.84666 -0.31751,0 -0.86431,0.21166 -0.86431,0.45861 0,0.61736 -0.24695,1.28764 -0.24695,1.88736 0,0.10583 0.0176,0.19403 0.0176,0.28222 0,0.12348 -0.0882,0.21167 -0.0882,0.3175 0,0.14111 0.0705,0.28223 0.0705,0.42334 0,0.42333 -0.0353,0.75847 -0.0353,1.25236 0,0.77611 0.0705,1.74625 0.75847,1.74625 1.02306,0 1.46403,-0.77611 1.9932,-1.5875 0.24694,-0.37042 0.77611,-1.18181 0.81138,-1.48167 0.0529,-0.44097 1.05834,-1.39347 1.21709,-1.39347 0.0353,0 0.0529,0.10583 0.0529,0.14111 0,0.15875 -0.0706,0.35278 -0.0706,0.51153 0,0.28222 0.0706,0.56444 0.0706,0.84667 0,0.14111 -0.0176,0.56444 -0.22931,0.70555 -0.0353,0.0353 -0.0706,0.0706 -0.0706,0.10583 0,0.0882 0.10584,0.14112 0.10584,0.24695 -0.0353,0.21167 -0.14111,0.44097 -0.14111,0.635 0,0.14111 0.17639,0.21167 0.17639,0.3175 0,0.0529 -0.0353,0.12347 -0.0353,0.17639 0,0.0706 0.0176,0.12347 0.0176,0.19403 0,0.0705 -0.3175,0.56444 -0.3175,0.84666 0,0.22931 0.0705,0.44098 0.0705,0.68792 0,0.15875 -0.0176,0.33514 -0.0176,0.51153 0.0353,0.93486 0.35278,2.24014 1.28764,2.24014 0.14111,-0.0882 0.21167,-0.12347 0.29986,-0.12347 0.0529,0 0.14112,0.0176 0.26459,0.0353 z m -1.28764,-5.32695 c -0.0176,0.0353 -0.0353,0.0529 -0.0353,0.0882 -0.0353,-0.0353 -0.0353,-0.0529 -0.0353,-0.10583 0.0176,-0.0176 0.0353,-0.0176 0.0353,-0.0353 0.0176,0.0176 0.0353,0.0353 0.0353,0.0529 z m 0.635,2.69875 0.0176,0.0529 h -0.0353 z" style="font-size:17.6389px;font-family:'Lemon Tuesday';-inkscape-font-specification:'Lemon Tuesday, Normal'" id="path2435" class="gvQttemW_17"></path>
      <path d="m 171.32256,212.89821 c 0,0.0882 0.0176,0.15875 0.0176,0.24694 -0.0353,0.29987 -0.0176,0.45862 -0.33514,0.45862 0.0353,-0.0706 0.0353,-0.12348 0.12347,-0.12348 0.0529,0 0.10584,0.0529 0.17639,0.0706 -0.0705,-0.12347 -0.0882,-0.24695 -0.0882,-0.38806 0,-0.21166 0.12347,-0.33514 0.28222,-0.33514 0.0529,0 0.12347,0.0176 0.19403,0.0176 0.0705,0 0.10583,-0.0176 0.10583,-0.0882 0,-0.0529 -0.0176,-0.10584 -0.0176,-0.15875 0,-0.29986 0.51153,-0.7232 0.68792,-0.7232 0.0529,0 0.12347,0.0176 0.17639,0.0176 0.0882,0 0.15875,-0.0353 0.19403,-0.10583 0.21166,-0.52917 1.39347,-0.75847 1.76389,-0.75847 0.0882,0 0.17639,0.0353 0.28222,0.0353 0.21167,0 0.56444,-0.24694 0.56444,-0.49389 0,-0.3175 -0.59972,-0.3175 -0.84666,-0.38805 -0.3175,0.12347 -0.65264,0.0176 -0.97014,0.17639 -0.10584,0.0529 -0.21167,0.0705 -0.33514,0.0705 -0.49389,0 -0.26458,-0.35277 -0.56445,-0.40569 -0.0353,-0.17639 -0.0353,-0.61736 -0.17638,-0.61736 -0.0529,0 -0.15876,0.0882 -0.22931,0.14111 -0.19403,-0.19403 -0.0882,-0.45861 -0.17639,-0.68792 -0.37042,-0.37042 -0.65264,-0.5468 -1.32292,-0.5468 -1.35819,0 -2.57528,0.42333 -3.43958,0.65263 -0.0353,0.0176 -0.0706,0.0176 -0.10584,0.0176 -0.10583,0 -0.15875,-0.0529 -0.15875,-0.12347 0,-0.14111 0.24695,-0.42333 0.3175,-0.58208 0.12348,-0.42334 0.59973,-0.56445 0.67028,-0.82903 0.22931,-0.84667 0.84667,-0.91722 1.16417,-1.28764 0.24694,-0.37042 0.68792,-0.81139 1.18181,-0.88195 0.0705,-0.0176 0.12347,-0.14111 0.12347,-0.2293 -0.0706,-0.61736 -1.09361,-0.635 -1.46403,-0.70556 -0.3175,0.3175 -0.61736,0.47625 -0.88195,0.89959 -0.19402,0.3175 -0.68791,0.44097 -0.75847,0.65264 -0.15875,0.47625 -0.70555,0.29986 -0.82903,0.77611 0,0.0176 -0.58208,0.635 -0.75847,0.81139 -0.24694,0.2293 -0.47625,0.51152 -0.49389,0.89958 0,0.19403 -0.14111,0.37042 -0.14111,0.54681 0,0.12347 0.0529,0.2293 0.0529,0.35277 0,0.0529 -0.0353,0.10584 -0.0353,0.15875 0,0.51153 0.42333,0.81139 0.98778,1.02306 0.12347,0.0706 0.14111,0.3175 0.24694,0.3175 0.7232,0 1.28764,-0.49389 1.28764,-0.49389 0.0706,0 0.15875,0.0706 0.28222,0.12347 0.37042,-0.24694 0.45862,-0.33513 0.84667,-0.45861 0.54681,-0.15875 0.89959,-0.47625 1.12889,-0.47625 0.12347,0 0.22931,0.0882 0.33514,0.0882 0.0706,0 0.15875,-0.0353 0.24694,-0.0353 0.26459,0 0.42334,0.26458 0.42334,0.49389 -0.14111,0.89958 -0.0706,1.62278 -0.77611,1.79917 -0.45861,0.10583 -0.56445,0.72319 -0.9525,0.72319 -0.35278,0 -0.37042,0.37042 -0.7232,0.42333 -0.17639,0 -0.40569,0.61737 -0.93486,0.75848 -0.4057,0.10583 -0.44097,0.47625 -0.74083,0.65264 -0.88195,0.52916 -1.19945,1.97555 -1.21709,2.11666 -0.0882,0.26459 -0.29986,0.63501 -0.29986,0.68792 0,0.3175 0.52917,1.23473 0.97014,1.23473 0.21167,0 0.22931,-0.31751 0.61736,-0.31751 0.42333,0 0.67028,-0.0176 1.09361,-0.35277 0.10584,-0.0882 0.21167,-0.15875 0.33514,-0.19403 0.17639,-0.0529 0.21167,-0.38806 0.44097,-0.38806 0.45862,0 0.19403,-0.51152 0.52917,-0.65264 0.22931,-0.0882 0.14111,-0.47625 0.35278,-0.51152 0.3175,-0.10584 0.29986,-0.47625 0.29986,-0.84667 -0.0705,-0.0176 -0.14111,-0.0353 -0.19403,-0.0529 l 0.0176,0.0529 c 0,0 -0.0353,-0.0353 -0.0353,-0.0353 0.0706,0.0176 0.12348,0.0353 0.19403,0.0353 0.44097,-0.24695 0.75848,-0.52917 0.75848,-0.81139 0,-0.0706 -0.0706,-0.10583 -0.12348,-0.10583 -0.10583,0 -0.15875,0.0176 -0.21166,0.0176 -0.12348,0 -0.0176,-0.44097 -0.28223,-0.44097 -0.0529,0 -0.37041,0.56445 -0.42333,0.56445 0,0 0,0 0,-0.0176 0,0.33514 -0.47625,0.91722 -0.65264,1.19944 -0.19403,0.51153 -0.29986,1.0407 -0.79375,1.16417 -0.44097,0.12347 -0.33514,0.68792 -0.70556,0.67028 -0.0705,0 -0.12347,-0.0176 -0.19402,-0.0176 -0.12348,0 -0.26459,0.0529 -0.4057,0.0529 -0.12347,0 -0.37042,-0.0529 -0.37042,-0.22931 0.0353,-0.24694 0,-0.52917 0.14112,-0.75847 0.28222,-0.44097 0.56444,-1.16417 0.97014,-1.30528 0.37041,-0.21167 0.68791,-0.7232 1.23472,-0.97014 0.58208,-0.26458 0.68792,-0.93486 1.37583,-0.93486 0.0176,0.26458 0.10584,0.74083 0.35278,0.74083 0.49389,0 0.77611,-0.29986 0.77611,-0.74083 0,-0.14111 -0.0529,-0.24695 -0.15875,-0.33514 z" style="font-size:17.6389px;font-family:'Lemon Tuesday';-inkscape-font-specification:'Lemon Tuesday, Normal'" id="path2437" class="gvQttemW_18"></path>
      <path d="m 183.35229,208.06515 c -0.93486,0.0529 -1.78153,0.42333 -2.66347,0.7232 -0.0529,0.0176 -0.10584,0.0353 -0.15875,0.0353 -0.29987,0 -0.35278,-0.37041 -0.42334,-0.65264 -0.19403,-0.65264 -0.84667,-1.37583 -1.34055,-1.55222 -0.42334,-0.14111 -0.81139,-0.51153 -1.28764,-0.51153 -0.29987,0 -0.58209,0 -0.84667,0 -1.16417,0 -1.86973,0.15875 -1.86973,1.9932 0,0.51153 0.49389,1.23472 0.49389,1.60514 0,0.40569 -0.37041,1.28764 -0.37041,1.51694 0,0.33514 -0.14111,0.65264 -0.14111,1.00542 0,1.81681 1.25236,2.75167 1.25236,2.75167 0.35278,0.24694 0.77611,0.3175 1.14653,0.42333 0.2293,-0.14111 0.8643,-0.51152 0.98777,-0.51152 0.0176,0 0.0176,0.0176 0.0176,0.0176 1.25237,-1.25236 1.32292,-1.67569 1.56987,-1.99319 0.26458,-0.33514 -0.0353,-0.88195 0.35277,-1.09361 0.0706,-0.0706 0.35278,-1.48167 0.35278,-1.5875 0.0706,-0.51153 0.19403,-0.61737 0.86431,-0.95251 0.51153,-0.24694 1.07597,-0.52916 1.67569,-0.58208 0.56445,-0.0529 0.74084,-0.21167 0.74084,-0.35278 0,-0.15875 -0.22931,-0.3175 -0.3175,-0.3175 -0.0176,0 -0.0353,0.0176 -0.0353,0.0353 z m -3.8982,2.61056 c -0.0529,0.3175 -0.0176,0.81139 -0.21166,0.93486 -0.3175,0.21167 -1.00542,2.32833 -1.86973,2.32833 -0.45861,0 -0.68792,-0.72319 -0.68792,-1.07597 0,-0.21167 0.12348,-0.49389 0.12348,-0.72319 0,-0.0882 -0.0176,-0.17639 -0.0176,-0.26459 0,-0.5468 0.12347,-1.07597 0.47625,-1.16416 0.68792,0 1.32292,-0.26459 1.95792,-0.49389 0.26458,0 0.19402,0.2293 0.2293,0.45861 z m -2.55764,-3.96875 c 1.21709,0 1.95792,1.16416 2.39889,2.11666 0.0529,0.10584 0.0529,0.21167 0.0529,0.3175 0,0.4057 -1.02306,0.59973 -1.48167,0.65264 -0.0882,0 -0.2293,-0.0176 -0.2293,-0.15875 0,-0.15875 0.24694,-0.47625 0.24694,-0.635 0,-0.40569 -1.07597,-0.67028 -1.18181,-0.70555 -0.12347,-0.0529 -0.21166,-0.0706 -0.26458,-0.0706 -0.12347,0 -0.17639,0.10583 -0.42333,0.35278 0,0.0176 -0.0176,0.0176 -0.0353,0.0176 -0.22931,0 -0.22931,-0.37042 -0.22931,-0.52917 0,-0.51153 0.3175,-1.23472 0.86431,-1.30528 0.10583,-0.0176 0.21167,-0.0353 0.28222,-0.0529 z" style="font-size:17.6389px;font-family:'Lemon Tuesday';-inkscape-font-specification:'Lemon Tuesday, Normal'" id="path2439" class="gvQttemW_19"></path>
      <path d="m 189.80813,216.6553 c 0.26458,-0.22931 0.47625,-0.81139 0.52916,-0.84667 0.17639,-0.0882 0.17639,-0.21167 0.17639,-0.4057 0,-0.2293 0.35278,-0.44097 0.35278,-0.79375 0,-0.10583 -0.0353,-0.2293 -0.0353,-0.33514 0,0.0176 0.22931,-0.91722 0.24695,-0.93486 0.21166,-0.2293 0.15875,-0.58208 0.44097,-0.8643 0.15875,-0.12348 0.0353,-0.38806 0.14111,-0.54681 0.22931,-0.14111 0.81139,-1.00542 0.81139,-1.32292 0,-0.12347 -0.0882,-0.19403 -0.21167,-0.19403 -0.68791,0 -0.79375,0.82903 -1.12889,1.18181 -0.17638,0.19403 -0.21166,0.33514 -0.2293,0.58208 0,0.12348 -0.22931,0.10584 -0.28222,0.26459 -0.28223,0.58208 -0.93487,2.2225 -1.16417,2.2225 -0.17639,0 -0.14111,-1.02306 -0.14111,-1.55222 0,-0.56445 0.0176,-1.09362 0.15875,-1.34056 0,0 0,0 0,-0.0176 0,-0.0353 -0.0706,-0.17639 -0.0706,-0.28222 0.0882,-0.0706 0.28222,-0.12347 0.28222,-0.22931 0,-0.0882 -0.19402,-0.2293 -0.19402,-0.35278 0,-0.0705 0.0529,-0.17638 0.0529,-0.24694 0,-0.0706 -0.0353,-0.14111 -0.0353,-0.19403 0,-0.29986 0.37041,-0.42333 0.37041,-0.77611 0,-1.72861 0.0706,-2.34597 -0.74083,-2.34597 -0.29986,0 -0.67028,0.0529 -0.86431,0.33514 -0.0882,0.14111 -0.75847,0.42333 -1.04069,0.75847 -0.21167,0.24694 -0.38806,0.58208 -0.58209,0.79375 -0.70555,0.49389 -1.28764,1.85208 -1.72861,1.85208 -0.0353,-0.0529 -0.0705,-0.0882 -0.0705,-0.14111 0,-0.35278 0.28222,-0.74083 0.33514,-1.07597 0.0353,-0.77611 0.0705,-1.55222 0.0705,-2.32834 0,-0.40569 -0.0176,-0.84666 -0.54681,-0.84666 -0.3175,0 -0.8643,0.21166 -0.8643,0.45861 0,0.61736 -0.24695,1.28764 -0.24695,1.88736 0,0.10583 0.0176,0.19403 0.0176,0.28222 0,0.12348 -0.0882,0.21167 -0.0882,0.3175 0,0.14111 0.0706,0.28223 0.0706,0.42334 0,0.42333 -0.0353,0.75847 -0.0353,1.25236 0,0.77611 0.0706,1.74625 0.75847,1.74625 1.02306,0 1.46403,-0.77611 1.99319,-1.5875 0.24695,-0.37042 0.77612,-1.18181 0.81139,-1.48167 0.0529,-0.44097 1.05834,-1.39347 1.21709,-1.39347 0.0353,0 0.0529,0.10583 0.0529,0.14111 0,0.15875 -0.0706,0.35278 -0.0706,0.51153 0,0.28222 0.0706,0.56444 0.0706,0.84667 0,0.14111 -0.0176,0.56444 -0.22931,0.70555 -0.0353,0.0353 -0.0706,0.0706 -0.0706,0.10583 0,0.0882 0.10584,0.14112 0.10584,0.24695 -0.0353,0.21167 -0.14111,0.44097 -0.14111,0.635 0,0.14111 0.17638,0.21167 0.17638,0.3175 0,0.0529 -0.0353,0.12347 -0.0353,0.17639 0,0.0706 0.0176,0.12347 0.0176,0.19403 0,0.0705 -0.3175,0.56444 -0.3175,0.84666 0,0.22931 0.0705,0.44098 0.0705,0.68792 0,0.15875 -0.0176,0.33514 -0.0176,0.51153 0.0353,0.93486 0.35278,2.24014 1.28764,2.24014 0.14111,-0.0882 0.21167,-0.12347 0.29986,-0.12347 0.0529,0 0.14111,0.0176 0.26459,0.0353 z m -1.28764,-5.32695 c -0.0176,0.0353 -0.0353,0.0529 -0.0353,0.0882 -0.0353,-0.0353 -0.0353,-0.0529 -0.0353,-0.10583 0.0176,-0.0176 0.0353,-0.0176 0.0353,-0.0353 0.0176,0.0176 0.0353,0.0353 0.0353,0.0529 z m 0.635,2.69875 0.0176,0.0529 h -0.0353 z" style="font-size:17.6389px;font-family:'Lemon Tuesday';-inkscape-font-specification:'Lemon Tuesday, Normal'" id="path2441" class="gvQttemW_20"></path>
    </g>
  </g>
<style data-made-with="vivus-instant">.gvQttemW_0{stroke-dasharray:91 93;stroke-dashoffset:92;animation:gvQttemW_draw 2000ms linear 0ms forwards;}.gvQttemW_1{stroke-dasharray:75 77;stroke-dashoffset:76;animation:gvQttemW_draw 2000ms linear 50ms forwards;}.gvQttemW_2{stroke-dasharray:64 66;stroke-dashoffset:65;animation:gvQttemW_draw 2000ms linear 100ms forwards;}.gvQttemW_3{stroke-dasharray:47 49;stroke-dashoffset:48;animation:gvQttemW_draw 2000ms linear 150ms forwards;}.gvQttemW_4{stroke-dasharray:45 47;stroke-dashoffset:46;animation:gvQttemW_draw 2000ms linear 200ms forwards;}.gvQttemW_5{stroke-dasharray:34 36;stroke-dashoffset:35;animation:gvQttemW_draw 2000ms linear 250ms forwards;}.gvQttemW_6{stroke-dasharray:33 35;stroke-dashoffset:34;animation:gvQttemW_draw 2000ms linear 300ms forwards;}.gvQttemW_7{stroke-dasharray:72 74;stroke-dashoffset:73;animation:gvQttemW_draw 2000ms linear 350ms forwards;}.gvQttemW_8{stroke-dasharray:85 87;stroke-dashoffset:86;animation:gvQttemW_draw 2000ms linear 400ms forwards;}.gvQttemW_9{stroke-dasharray:75 77;stroke-dashoffset:76;animation:gvQttemW_draw 2000ms linear 450ms forwards;}.gvQttemW_10{stroke-dasharray:55 57;stroke-dashoffset:56;animation:gvQttemW_draw 2000ms linear 500ms forwards;}.gvQttemW_11{stroke-dasharray:91 93;stroke-dashoffset:92;animation:gvQttemW_draw 2000ms linear 550ms forwards;}.gvQttemW_12{stroke-dasharray:58 60;stroke-dashoffset:59;animation:gvQttemW_draw 2000ms linear 600ms forwards;}.gvQttemW_13{stroke-dasharray:85 87;stroke-dashoffset:86;animation:gvQttemW_draw 2000ms linear 650ms forwards;}.gvQttemW_14{stroke-dasharray:39 41;stroke-dashoffset:40;animation:gvQttemW_draw 2000ms linear 700ms forwards;}.gvQttemW_15{stroke-dasharray:67 69;stroke-dashoffset:68;animation:gvQttemW_draw 2000ms linear 750ms forwards;}.gvQttemW_16{stroke-dasharray:33 35;stroke-dashoffset:34;animation:gvQttemW_draw 2000ms linear 800ms forwards;}.gvQttemW_17{stroke-dasharray:55 57;stroke-dashoffset:56;animation:gvQttemW_draw 2000ms linear 850ms forwards;}.gvQttemW_18{stroke-dasharray:72 74;stroke-dashoffset:73;animation:gvQttemW_draw 2000ms linear 900ms forwards;}.gvQttemW_19{stroke-dasharray:53 55;stroke-dashoffset:54;animation:gvQttemW_draw 2000ms linear 950ms forwards;}.gvQttemW_20{stroke-dasharray:55 57;stroke-dashoffset:56;animation:gvQttemW_draw 2000ms linear 1000ms forwards;}@keyframes gvQttemW_draw{100%{stroke-dashoffset:0;}}@keyframes gvQttemW_fade{0%{stroke-opacity:1;}94.44444444444444%{stroke-opacity:1;}100%{stroke-opacity:0;}}</style></svg>
