<svg version="1.1" width="100%" height="100%" viewBox="0 0 169.84448 18.467926" xmlns="http://www.w3.org/2000/svg">
  <defs>
    <filter id='invert'>
      <feColorMatrix 
      in='BackgroundImage' 
      type='matrix' 
      values=' -1  0  0  0 1
              0 -1  0  0 1
              0  0 -1  0 1
              0  0  0  1 0' 
        result='inversion' />
      <feComposite in='StrokePaint' in2='inversion' operation='arithmetic' k1='0' k2='0' k3='1' k4='0' />
    </filter>
  </defs>
  <g aria-label="dale Tristan Hutchinson" transform="translate(-22.627 -199.951)" id='path-group'>
    <defs>


      <path
              d="M31.552 199.951c-.653 0-1.217.53-1.27 1.023-.052.37-.335.547-.317.918-.106.564-.794 1.04-.794 1.64 0 .282-.511.423-.511.935 0 .23-.088.44-.141.652 0 .018-.3.653-.406.688-.37.106-.441.953-.97.953-.265 0-.618-.177-.883-.177-.158 0-.705.141-.705.177-.123.458-.758.564-.794.74-.106.442-.458 1.024-.74 1.324-.318.335-.635 1.04-.741 1.287-.124.3-.282.477-.318.777 0 .3-.282.458-.282.723 0 .194-.053.387-.053.564 0 .335 0 .97.282 1.305.23.265-.088.477 1.023.865.071.017.16.035.247.035.16 0 .336-.07.512-.07.106 0 .758-.636.847-.847.3-.812.776-1.43 1.058-2.347.035-.123.405-.987.405-1.11v-.018c.37-.088.318-.794.371-1.182.088-.035.247-.317.388-.317.23 0 0-.742.265-.83.123 0 .105.37.158.37.23 0 .282-1.058.282-1.146v.018c0-.017.071-.035.106-.053 0 .035.035.141.053.141.124 0 .124-.229.124-.335 0-.14-.035-.282-.035-.424 0-.282.352-.458.352-.634a.482.482 0 00-.03-.126c-.002 0-.004.002-.005.003v-.018c-.036 0-.088-.053-.088-.088 0-.124.194-.176.282-.176.23 0 .37.017.37.37 0 .529-.264 1.023-.264 1.552 0 .053.017.07.053.07.017 0 .088-.035.123-.035.07 0 .071.159.071.212 0 .264-.37.847-.424.9a.433.433 0 00-.088.3c0 .105.053.229.053.335 0 .264-.176.6-.176.829 0 .105.088.21.088.334 0 .247-.23.565-.23.883 0 .052.018.088.071.088 0-.494.388-.37.53-.759v-.529c-.054-.053-.195-.088-.195-.194 0-.07.318-.388.353-.388 0 .265-.035.812.194.812.424 0 .159-.9.335-1.041.335-.265.335-1.887.335-1.887.194-.194.335-.107.335-.3 0-.089-.088-.247-.088-.353 0-.07.088-.141.088-.212 0-.212-.246-.088-.246-.247 0-.176.547-.194.547-.653 0-.476.035-1.164.352-1.657.123-.194.194-.441.283-.67.053-.794.582-1.536.582-2.418 0-.3-.406-.581-.724-.581zm-2.522 5.504l.004.015.01-.005-.014-.01zm.015.01c.014.007.03.007.056.007.017 0 .035 0 .035-.053l-.091.046zm115.237-4.455c-.123 0-.564 2.028-.547 2.099l.018-.018c-.23.37-.212.67-.282 1.076-.159.406-.406.882-.406 1.27 0 .07.018.123.018.176 0 .141-.124.265-.124.388 0 .071.106.177.106.265 0 .088-.229.247-.282.458-.088.318-.247.653-.247.935 0 .07.018.177.018.247 0 .335-.265.6-.265.97 0 .371-.264.741-.264 1.006 0 .07.052.176.052.247a.463.463 0 01-.012.102c-.726.266-1.838 1.28-2.387 1.873-.405.441-2.063 1.606-2.275 1.606-.458 0-.635-1.412-.635-2.064 0-.794.353-1.482.512-2.205.476-.864 1.376-2.081 2.081-2.081.07 0 .124.035.124.123-.018.194-.054.388-.054.6 0 .264.195.617.46.617.51 0 .74-1.34.74-1.817 0-.705-1.887-.97-1.887-.97-.194 0-.812.318-.935.653-.088.211-.494.07-.547.317-.053.247-.3.282-.37.512-.106.317-.406.547-.582.864a8.5 8.5 0 00-.111.213l-.013-.001c-.053 0-.088.053-.123.088.024 0 .052.011.08.023-.29.589-.574 1.31-.574 1.635 0 .67-.265 1.323-.265 2.029.018.282-.017.652.106.9.37.775.423 1.922 1.852 1.922.83 0 2.328-1.5 2.628-1.817.265-.264 1.676-1.746 1.764-1.764a.853.853 0 01.155-.219.419.419 0 00-.031.149c0 .758-.512 1.376-.512 2.099 0 .335.97.776 1.235.776.088 0 .705-1.606.829-2.011.176-.618 1.093-1.71 1.076-1.676.017-.176 1.111-1.181 1.481-1.181.124 0 .159.74.159.987 0 .159-.088.335-.088.512 0 .3.194.617.194.935 0 .405-.018.793-.018 1.164 0 .194-.106.353-.106.511 0 .212.16.37.212.636.159 1.499.83 1.904 1.517 1.904.37 0 .564-1.093.67-1.2.194-.193.106-.528.23-.74.176-.318.176-.688.388-.988.176-.264.37-.67.37-1.023 0-.077.325-.48.5-.756.02.236.047.476.047.721 0 .512.458 1.146.617 1.5.265.599 1.024 1.252 1.606 1.252.405 0 1.093-.247 1.287-.6.088-.265.441-.512.441-.706.035-.229.335-.476.476-.776.088-.159.036-.37.194-.476a.465.465 0 00.064-.066c.084.46.273.824.695.824 1.023 0 1.464-.776 1.993-1.587.247-.37.776-1.182.811-1.482.053-.44 1.059-1.393 1.218-1.393.035 0 .052.105.052.14 0 .16-.07.353-.07.512 0 .282.07.565.07.847 0 .141-.017.564-.23.706-.034.035-.07.07-.07.106 0 .088.106.14.106.247-.035.211-.141.44-.141.634 0 .141.177.212.177.318 0 .053-.036.123-.036.176 0 .07.018.124.018.194 0 .071-.318.565-.318.847 0 .23.071.44.071.688 0 .158-.018.335-.018.511.035.935.353 2.24 1.288 2.24.14-.088.211-.123.3-.123.052 0 .14.017.264.035.265-.23.477-.811.53-.846.176-.089.176-.212.176-.406 0-.23.353-.441.353-.794 0-.106-.035-.23-.035-.335 0 .017.23-.917.247-.935.211-.23.158-.582.44-.864.16-.123.036-.388.142-.547.229-.14.811-1.005.811-1.323 0-.123-.088-.194-.212-.194-.688 0-.793.83-1.128 1.182-.177.194-.212.335-.23.582 0 .123-.23.106-.282.264-.282.582-.935 2.223-1.164 2.223-.177 0-.141-1.023-.141-1.552 0-.565.017-1.094.158-1.34v-.019c0-.035-.07-.176-.07-.282.088-.07.282-.123.282-.23 0-.087-.194-.228-.194-.352 0-.07.053-.176.053-.247 0-.07-.035-.14-.035-.194 0-.3.37-.423.37-.776 0-1.728.07-2.346-.74-2.346-.3 0-.671.053-.865.335-.088.141-.759.424-1.041.759-.212.247-.388.582-.582.794-.705.493-1.287 1.852-1.728 1.852-.036-.053-.071-.089-.071-.141 0-.353.282-.741.335-1.076.035-.776.071-1.553.071-2.329 0-.406-.018-.846-.547-.846-.318 0-.864.211-.864.458 0 .617-.247 1.288-.247 1.888 0 .106.017.194.017.282 0 .123-.088.211-.088.317 0 .141.07.282.07.423 0 .19-.006.361-.014.537a.873.873 0 00-.02.081c-.247 1.147-.9 1.922-1.659 2.822-.035.035-.07.036-.106.036-.458 0-.476-1.941-.476-2.276 0-.035 0-.07.018-.088.123-.317.018-.653.141-.97.035-.424.088-.847.088-1.288 0-.635-.317-1.94-.793-2.081-.265-.07-.6-.195-.847-.195-.417 0-.813 2.23-.978 3.489a2.762 2.762 0 01-.345.392c-.159.459-.159.9-.441 1.306-.388.564-.67 1.093-.776 1.728-.053.247-.3.212-.3.476 0 .106-.688 1.059-.829 1.059-.088 0-.37-.9-.37-.882 0-.282.158-.723.176-1.04.07-1.165.23-2.382.23-3.529 0-.882-.054-1.146-1.024-1.499-.07-.018-.14-.036-.194-.036-.211 0-.405.248-.652.3-.318.071-.582.212-.688.547 0 .247-.441.247-.512.318-.264.229-.935 1.217-1.2 1.217-.158 0-.14-.176-.14-.23 0-.899.652-1.517.652-2.434 0-.476.406-1.305.424-1.305 0-.194.088-.388.088-.582 0-.053-.018-.106-.018-.159 0-.176.23-.37.23-.652 0-.53.458-1.729.423-1.694.37-.494.617-1.517.617-1.746 0-.459-.423-.406-.882-.6a.404.404 0 00-.159-.053zm-8.22 7.549l-.017-.035a5.649 5.649 0 00-.01.051l.027-.016zm-.028.016c-.067.038-.148.096-.148.143 0 .017.018.035.053.035.057 0 .114-.102.095-.178zm-94.233-7.283c-.318 0-.812.017-.812.405 0 .194.106.37.106.618 0 .264-.018.529-.018.811 0 .124.018.265.018.406 0 .353-.123.864-.123 1.252 0 .142.035.265.035.388 0 .159-.106.3-.106.459 0 .176.053.335.053.494 0 .07-.018.123-.035.159-.106.6-.248 1.128-.248 1.763 0 .388.195.741.195 1.165 0 .264-.01.527-.023.791-.355.096-.783.611-.894 1.026-.018.07-.053.176-.124.228-.494.46-.405.9-.582 1.57-.053.23-.23.248-.247.424-.23.635-.406 1.27-.6 1.958 0 .388-.405 1.71-.67 1.71-.053 0-.247-.617-.247-.687 0-.07.018-.159.036-.23a.478.478 0 01-.142-.352c0-.106.018-.247.018-.37 0-.265-.018-.53-.018-.812 0-.811.177-1.71.177-2.522 0-.37.282-.741.282-1.006 0-1.323.511-2.663.511-3.81 0-.829-.546-1.023-.934-1.023-.441 0-.618.3-.918.424-.546.211-.846.775-1.305 1.005-.406-.53-.811-.9-1.623-.9-1.217 0-1.429.883-1.922 1.588-.618.882-.741 1.464-.953 2.01-.212.548-.44 1.13-.44 1.712-.018.159-.124.23-.265.264v.53c.335.035.211.211.264.334 0 .741.653 1.13 1.235 1.13.829 0 .794-.018 1.676-1.624.353-.74.97-2.099 1.093-2.134.441-.123.37-.405.476-.846.035-.159.67-.724.706-.724.23-.123.282-.282.406-.564.44 0 .23-.441.511-.494.141-.018.265-.053.424-.088.017.194.105.37.105.582-.176.335-.264.106-.264 1.34 0 .089 0 .194.017.283 0 .194-.264.511-.282.864-.088 1.5-.247 3.246-.247 4.621 0 .247.265.336.265.636 0 .176-.018.352-.018.529.018.3-.017.617.247.846.089.053.018.265.194.423.3.283.512.565.953.565.264 0 .688 0 .829-.318.123-.282.37-.493.423-.864 0-.37 0-.97.141-1.235.177-.229.07-.511.194-.687.23-.441.318-1.094.441-1.588.124-.511.406-.987.476-1.517 0-.21.14-.509.318-.806v.013c0 .405-.106.81-.106 1.217 0 .282.106.529.106.828 0 .23-.018.565-.018.865 0 1.04.283.811.283 1.64 0 .159.017.283.07.336.388.37.388 1.816 1.164 1.904.124 0 .265-.088.388-.088.106 0 .177.124.265.124.018 0 .353-.283.406-.441.088-.247.511-.247.652-.706.159-.546.44-1.005.459-1.623 0-.07-.018-.14-.018-.194 0-.088.018-.176.018-.264 0-.106-.053-.194-.053-.282 0-.036.017-.071.035-.106.088 0 .176.017.247.017.076-.35.085-.706.086-1.061.085.21.245.515.443.62.07.036.124.124.159.212.37.547.847.53 1.535.6.105-.07.211-.141.334-.212a.342.342 0 00.177.053c.3 0 1.464-1.429 1.746-1.535.3-.105.565-.9 1.059-1.146.194 0 .282-.282.282-.424 0-.176.952-.97.952-.97.177-.123.706-.335.706-.564 0-.14-.177-.194-.283-.194-.546 0-1.287.847-1.481 1.023-.917.811-1.852 1.552-2.805 2.329-.194.158-.511.37-.776.37-.635 0-.688-1.482-.688-2.276 0-.282.018-.776.353-.776.247 0 .494.07.74.07.989 0 1.994-.916 2.188-1.287.089-.176.212-.282.335-.406.141-.158.212-.44.388-.529.177-.123.247-.3.247-.511 0-.106-.017-.212-.017-.336 0-.053.017-.123.017-.176 0-.952-1.499-1.623-2.416-1.623-.282 0-.406.265-.635.353-.388.16-.618.511-.882.776-.124.388-.723.547-.882 1.04-.088.283-.265.513-.441.724l.005.02c-.25.37-.186.92-.428 1.215-.23.282-.212 1.093-.212 1.446 0 .135.113.27.123.39v.031c-.01.085-.088.184-.088.267 0 .088.036.167.056.244-.018.113-.046.205-.09.25-.124 0-.09-.67-.177-.67-.124 0 0 .405-.177.405-.035 0-.07 0-.123-.017-.441.847-1.023 3.351-1.288 3.351-.106-.017-.088-.388-.106-.653-.018.018-.035.018-.053.018-.423 0-.494-.335-.494-.67 0-.23.018-.37.018-.582 0-.512.283-.617.283-1.217 0-.282-.018-.706-.071-.706-.053 0-.088.053-.106.053-.053 0-.07-.141-.07-.212 0-.3.247-.335.247-.776 0-.26-.018-.419-.137-.541.051-.313.103-.46.154-.887 0-.177-.159-.265-.159-.406 0-.14.16-.282.16-.424 0-.105-.072-.211-.072-.317 0-.264.141-.582.141-.9 0-.14-.07-.282-.07-.423 0-.14.07-.353.07-.494 0-.088-.052-.159-.052-.247 0-.053.052-.123.052-.194 0-.105-.07-.176-.07-.282.035-.247-.018-.494.106-.723 0 0 .018-.018.018-.035 0-.106-.071-.194-.071-.282 0-.759.212-2.011.212-2.928 0-.477-.053-.6-.635-.6zm18.45.758c-1.059 0-2.029.335-3.07.441-.193.018-.388.106-.6.106-.3 0-.564-.212-.863-.212-.194 0-.618.088-.618.247 0 .088.036.141.036.212 0 .23-2.558.74-2.823.794-.23.053-.44.088-.67.088-.176 0-.388-.106-.564-.106-.194 0-.37.176-.37.335 0 .565.758.935.81.97.336.16.636.247 1.024.247.811 0 1.834-.564 2.434-.564.07 0 .247.106.247.582 0 .141-.088.247-.088.388 0 .159.123.353.123.529 0 .194-.194.388-.194.582 0 .106.018.212.018.318 0 .44-.106.9-.106 1.323 0 .211.229.406.229.564-.176.353-.212.511-.212 1.04 0 .195.053.39.053.548 0 .247-.07.476-.07.723.05.614-.047 1.427.315 1.878-.005.01-.015.013-.015.027l.017.018.019-.02.002.003a.19.19 0 00-.038.105c0 .282.158.723.211 1.005a.514.514 0 00-.035.159c0 .264.3.476.477.653.423-.106.881-.16.881-.618 0-.247-.23-.6-.23-.705 0-.16-.105-.283-.105-.406 0-.07.053-.141.053-.23 0-.123-.106-.229-.106-.334 0-.036.018-.054.036-.054h-.018c.017-.035.018-.088.035-.123l-.017.018a.42.42 0 00.052-.16c0-.07-.07-.158-.07-.246 0-.353.211-.847.264-1.235.07-.494 0-1.005.089-1.516 0-.318-.036-.653-.036-.97 0-.512.07-1.024.07-1.518 0-.105-.034-.211-.034-.335 0-.688.105-2.504.511-2.593.441-.088 1.023-.247 1.323-.476.088.018.176.088.265.088.105 0 .158-.159.317-.159.67-.14 2.381-.07 2.381-.846 0-.565-1.093-.565-1.34-.565zm54.274.141c-.546 0-1.164.07-1.164.688 0 .67-.564 2.011-.617 2.7 0 .51-.283.951-.283 1.392 0 .106.019.248.019.336 0 .423-.16.123-.742.51-.3.213-.864.3-1.234.389-.423.106-.741.424-1.359.459-.088 0-.158-.053-.247-.053-.158 0-.123.194-.282.194-.053 0-.07-.07-.07-.124 0-.37.44-.388.44-.758 0-.053-.034-.123-.034-.176 0-.106.087-.212.087-.3 0-.124-.087-.265-.087-.406 0-.229.264-.423.264-.6 0-.053-.035-.123-.035-.193 0-.106.106-.212.106-.318 0-.124-.106-.212-.106-.335 0-.441.388-.935.388-1.253 0-.176-.335 0-.335-.23.07-.334.088-.634.088-1.04 0-.37-.053-.74-.353-.74-.37 0-.97.123-1.217.246-.053.389-.017.759-.14 1.13 0 .017-.019.035-.019.07 0 .159.036.3.036.458 0 .23-.053.442-.053.671 0 .23.247.3.247.44a.189.189 0 01-.035.107c-.23.317-.265.776-.265 1.217 0 .211.018.405.018.6 0 .229-.018.44-.071.582-.159.405-.106 1.164-.247 1.34a.747.747 0 00-.194.512c0 .405.07.9.07 1.34 0 .247-.052.476-.052.706 0 .158.035.317.035.476 0 .123-.017.229-.017.335 0 .458.07.935.088 1.394-.036.088-.036.158-.036.229 0 .335.177.617.177.988 0 .405.247.723.247 1.111 0 .035-.018.07-.018.106 0 .282.476.635.635.635.318 0 .653-.794.653-1.2 0-.264-.159-.511-.159-.811 0-.441-.141-.864-.177-1.305-.105.123-.105.3-.282.3-.14 0-.07-.424-.088-.424 0-.37-.247-.176-.247-1.111 0-.159.194-.282.194-.406 0-.158-.23-.159-.264-.317 0-.265-.018-.53-.035-.794.104-.15.196-.286.286-.42.074.103.065.244.154.244.018 0 .035-.036.035-.07 0-.036-.017-.089-.017-.124 0-.124.035-.247.123-.247.053 0 .106.176.141.176.124 0 .424-.653.9-.653.547 0 1.87-.74 2.329-.74.211 0 .264.793.388 1.04a.525.525 0 01.035.177c0 .247-.159.476-.159.776 0 .3.617.846.617.987 0 .124-.176.177-.264.247-.053-.07-.088-.14-.159-.247-.07.23-.211.424-.211.565 0 .864.211 1.57.264 2.47.018.193.194.423.37.423.441 0 .953-1.376.953-1.535 0-.317-.247-.723-.247-.917 0-.194.23-.388.23-.53 0-.158-.142-.158-.177-.193 0-.265.177-.335.177-.565 0-.035-.018-.088-.018-.123 0-.053.017-.088.035-.106.159-.23.194-.512.194-.794 0-.264-.035-.511-.035-.723 0-.264.052-.441.317-.441.035 0 .07.088.141.212.124-.582.16-1.147.706-1.482.353-.211.723-.776.723-1.058 0-.07-.053-.336-.194-.336-.123 0-.176.3-.564.3-.141 0-.212-.07-.212-.3 0-.405.035-.67.317-1.005l.018.018-.014-.024c0 .002-.003.004-.004.006-.053-.106-.14-.194-.14-.318 0-.035.017-.07.017-.123 0-.053-.053-.159-.053-.23 0-.14.282-.034.335-.229.159-1.164.424-1.817.424-2.046 0-.705-.283-.829-.988-.829zm.41 3.769c.047-.093.138-.242.138-.311 0-.018 0-.036-.036-.036-.106 0-.141.141-.141.212 0 .045.014.09.04.135zm-32.953-3.222c-.459 0-.618.265-.83.67.018.16.036.318.036.477 0 .652-.053 1.816-.512 1.922-.688.106-1.199.6-1.252.6-.194 0-.582.318-.952.388-.212.036-.706.035-.706.23 0 .528.97.687 1.164.687.9 0 1.006-.511 1.535-.511.053-.035.053-.106.176-.106.124 0 .212.088.212.194 0 .07-.018.141-.018.212 0 .105.106.193.106.3a.332.332 0 01-.035.14c-.177.336-.23.67-.23 1.006 0 .106.018.23.018.317 0 .141-.053.283-.053.406 0 .176.053.353.053.53 0 .052-.018.105-.018.14 0 .07.177.177.177.283 0 .141-.247.176-.247.282 0 .138.286.04.299.284-.053.07-.088.122-.14.192l.017.018c.052-.07.104-.122.123-.208v.014-.018c.142-.07.16-.212.16-.37 0-.124-.018-.247-.018-.37 0-.318.264-.53.264-.6 0-.159-.247-.388-.247-.53 0-.13.093-.217.23-.353.005.225.109.847.264.847.07 0 .124-.017.159-.017.088 0 .088.053.106.229.07-.37.106-.494.106-.917 0-.265.23-.459.23-.723.052-.441.087-.865.14-1.306-.017-.017-.017-.053-.017-.07 0-.124.088-.247.088-.37 0-.036 0-.089-.018-.124.124-.282 1.306-.864 1.288-.864.582-.124.988-.124 1.552-.476a.355.355 0 01.194-.054c.053 0 .123.018.176.018.106 0 .23-.124.3-.124.089 0 .283.106.318.106.07 0 .405-.317.405-.44a.395.395 0 00-.052-.177c-.018.035-.053.053-.071.053-.194 0 .088-.688-.635-.688-.247 0-.211.318-.37.318-.106 0-.195-.23-.3-.23-.212 0-.547.441-.794.441-.53 0-1.2.335-1.482.441-.162-.065-.145-.265-.266-.379l.002-.009-.012.001-.012-.01c.083-.093.112-.315.112-.537 0-.759-.141-1.165-.723-1.165zm-.159 7.285l-.018-.018.01.02.008-.002zm-.008.003c-.223.067-.328.055-.398.438-.053-.035-.123-.07-.158-.14-.089.175-.071.405-.071.617 0 .035.053.088.106.088.048 0 .112-.059.177-.11.004-.243.423-.315.423-.631 0-.082-.072-.155-.08-.262zm-.344.893l-.001.004c.006.006.011.01.017.013l.001-.03-.018.014zm.016.017c.002.149-.052.297-.052.445 0 .071.035.142.035.212 0 .23-.211.494-.211.565 0 .123.176.282.176.458 0 .16-.124.3-.124.476 0 .036.018.089.018.124 0 .07-.053.23-.105.23-.195 0-.23-.442-.23-.883 0-.176.018-.335.018-.476 0-.247-.018-.423-.07-.423-.089.035-.089.123-.089.194 0 .07.018.124.018.194a.722.722 0 01-.124.388h.035l-.006.005c.114.05.165.086.165.154 0 .158-.159.282-.23.282-.123 0-.176-.124-.246-.124-.176 0-.176.6-.3.83 0 .035.088.105.124.105.14 0 .229-.547.37-.547.07 0 .088.071.123.124 0 .194-.229.388-.229.635 0 .07.018.14.018.211 0 .336-.388.9-.388.97 0 .212.211.706.211.777 0 .052-.017.123-.017.176 0 .3.405.723.405 1.094-.017.053-.017.088-.017.123 0 .212.423.635.882.635.123 0 .6-.07.688-.335 0-.035.105-.07.158-.07.035 0 .07.017.106.017.035 0 .547-.476.564-.547.053-.194.265-.158.265-.352.053-.247.07-.265.353-.265.018 0 .088.053.123.053.089 0 .053-.318.07-.459.054-.3.46-.265.46-.847 0-.352-.106-.775-.106-1.163 0-.212.018-.424.053-.635.176-.194.246-.265.246-.389 0-.07-.035-.14-.07-.282-.494.706-.988 1.34-1.394 2.081-.282.512-.864 1.518-1.146 1.518-.547 0-.088-.794-.459-1.006-.07-.035-.087-.194-.087-.247 0-.194.21-.247.21-.37 0-.177-.193-.283-.193-.459 0-.776.159-1.5.159-2.329 0-.088-.035-.193-.035-.282 0-.211.123-.37.193-.6-.088 0-.158.036-.247.036a.116.116 0 01-.071-.022zm-.711 1.509l-.011-.005-.018.017c.015 0 .019-.002.029-.012zm-.011-1.064c0 .04-.141 0-.194.054.035.017.07.07.088.07.07 0 .106-.053.106-.124zm49.618-8.642c-.459 0-.617.264-.83.67.019.158.036.317.036.476 0 .653-.053 1.817-.512 1.923-.688.105-1.199.6-1.252.6-.194 0-.582.317-.953.388-.211.035-.705.035-.705.229 0 .529.97.688 1.164.688.9 0 1.006-.512 1.535-.512.053-.035.053-.106.176-.106.124 0 .212.088.212.194 0 .07-.018.141-.018.212 0 .106.106.194.106.3a.331.331 0 01-.035.14c-.177.336-.23.671-.23 1.006 0 .106.018.23.018.318 0 .14-.053.282-.053.405 0 .177.053.353.053.53 0 .052-.018.105-.018.14 0 .071.177.177.177.283 0 .141-.247.177-.247.282 0 .138.286.041.299.284l-.14.192.017.018c.052-.07.104-.122.123-.207v.013-.017c.142-.071.16-.212.16-.371 0-.123-.018-.247-.018-.37 0-.318.264-.53.264-.6 0-.159-.247-.388-.247-.53 0-.129.093-.216.23-.353.005.225.11.847.264.847.071 0 .124-.017.16-.017.087 0 .087.053.105.23.07-.371.106-.495.106-.918 0-.265.229-.458.229-.723.053-.44.088-.864.141-1.305-.018-.018-.018-.053-.018-.071 0-.124.089-.247.089-.37 0-.035 0-.088-.018-.124.124-.282 1.306-.864 1.288-.864.582-.124.987-.123 1.552-.476a.356.356 0 01.194-.053c.053 0 .123.017.176.017.106 0 .23-.123.3-.123.088 0 .283.106.318.106.07 0 .406-.318.406-.441a.395.395 0 00-.053-.177c-.018.036-.053.053-.071.053-.194 0 .088-.687-.635-.687-.247 0-.212.317-.37.317-.106 0-.194-.23-.3-.23-.212 0-.547.442-.794.442-.53 0-1.2.335-1.482.44-.162-.064-.145-.265-.266-.378a.216.216 0 01.002-.01l-.012.002-.012-.01c.083-.094.112-.316.112-.538 0-.759-.141-1.164-.723-1.164zm-.159 7.284l-.017-.017.009.02.008-.003zm-.008.003c-.223.068-.328.056-.397.439-.053-.036-.124-.071-.159-.142-.088.177-.07.406-.07.618 0 .035.052.088.105.088.049 0 .112-.059.177-.11.005-.243.423-.315.423-.63a.613.613 0 00-.079-.263zm-.344.893v.004c.004.005.01.008.016.013l.001-.03-.017.013zm.016.017c-.006.149-.052.297-.052.446 0 .07.035.141.035.212 0 .229-.211.493-.211.564 0 .123.176.282.176.459 0 .159-.123.3-.123.476 0 .035.017.088.017.123 0 .07-.053.23-.106.23-.194 0-.229-.441-.229-.882 0-.177.018-.335.018-.476 0-.247-.018-.424-.07-.424-.089.036-.09.124-.09.194s.019.124.019.195a.722.722 0 01-.124.387h.036l-.006.005c.114.05.164.086.164.154 0 .159-.158.282-.229.282-.123 0-.176-.123-.247-.123-.176 0-.176.6-.3.829 0 .035.089.106.124.106.14 0 .23-.547.37-.547.07 0 .089.07.124.123 0 .194-.23.389-.23.635 0 .071.018.141.018.212 0 .335-.388.9-.388.97 0 .211.212.705.212.776 0 .053-.018.124-.018.177 0 .3.406.723.406 1.093-.018.053-.018.088-.018.124 0 .211.423.635.882.635.123 0 .6-.071.688-.336 0-.035.106-.07.159-.07.035 0 .07.018.106.018.035 0 .546-.477.564-.548.053-.194.265-.158.265-.352.053-.247.07-.265.353-.265.017 0 .087.053.123.053.088 0 .053-.317.07-.458.053-.3.46-.265.46-.847 0-.353-.107-.776-.107-1.164 0-.212.018-.423.053-.635.176-.194.247-.265.247-.388 0-.07-.035-.141-.07-.282-.495.705-.988 1.34-1.394 2.08-.282.512-.864 1.518-1.147 1.518-.546 0-.088-.794-.458-1.006-.07-.035-.088-.194-.088-.247 0-.194.211-.246.211-.37 0-.176-.194-.282-.194-.459 0-.776.159-1.5.159-2.328 0-.088-.035-.194-.035-.282 0-.212.123-.37.193-.6-.088 0-.158.035-.246.035a.114.114 0 01-.072-.022zm-.71 1.51l-.012-.006-.018.018c.015 0 .019-.002.03-.013zm-.012-1.064c-.038.01-.141 0-.194.053.035.018.07.07.088.07.07 0 .106-.053.106-.123zm-61.948-7.814c-.3 0-.335.353-.335.529 0 .317.123.864.547.864.458 0 .67-.476.67-.882 0-.44-.476-.423-.882-.511zm84.332 0c-.3 0-.336.353-.336.529 0 .317.124.864.547.864.459 0 .67-.476.67-.882 0-.44-.476-.423-.881-.511zm-77.647.776c-.317.317-.617.476-.881.9-.194.317-.688.44-.759.652-.159.477-.705.3-.829.776 0 .018-.582.635-.758.812-.247.23-.477.511-.494.9 0 .194-.142.37-.142.546 0 .124.054.23.054.353 0 .053-.036.106-.036.159 0 .333.18.576.461.764a.732.732 0 00-.267.453c-.247 1.146-.9 1.922-1.658 2.822-.035.035-.07.036-.106.036-.459 0-.476-1.941-.476-2.276 0-.036 0-.07.018-.088.123-.318.017-.653.14-.97.036-.424.09-.847.09-1.288 0-.635-.318-1.94-.795-2.081-.264-.071-.6-.195-.847-.195-.546 0-1.058 3.846-1.058 4.287 0 .388.07.776.07 1.182 0 .511.46 1.146.618 1.499.264.6 1.023 1.252 1.605 1.252.406 0 1.094-.247 1.288-.6.088-.264.441-.51.441-.705.035-.23.335-.476.476-.776.088-.159.036-.37.194-.477.194-.158.37-.687.424-.81.064-.27.352-.568.504-.812.031.066.062.123.113.123.723 0 1.287-.494 1.287-.494.07 0 .159.07.282.124.37-.247.46-.336.847-.46.547-.158.9-.475 1.13-.475.123 0 .229.088.334.088.071 0 .16-.035.247-.035.265 0 .424.264.424.494-.141.9-.07 1.622-.776 1.799-.46.105-.565.723-.953.723-.353 0-.37.37-.723.423-.177 0-.406.618-.935.759-.406.106-.44.476-.74.653-.883.529-1.2 1.975-1.218 2.116-.088.265-.3.635-.3.688 0 .318.53 1.235.97 1.235.212 0 .23-.318.618-.318.423 0 .67-.017 1.094-.353a.923.923 0 01.334-.193c.177-.053.212-.388.441-.388.459 0 .194-.512.53-.653.229-.088.14-.476.352-.512.318-.106.3-.476.3-.846l-.012-.003c.438-.246.753-.527.753-.808 0-.071-.07-.106-.123-.106-.106 0-.16.017-.212.017-.124 0-.018-.441-.282-.441-.053 0-.37.565-.424.565v-.018c0 .335-.476.917-.652 1.2-.194.511-.3 1.04-.794 1.164-.441.123-.335.688-.705.67-.071 0-.124-.018-.195-.018-.123 0-.264.053-.405.053-.124 0-.37-.053-.37-.23.035-.246 0-.529.14-.758.283-.44.565-1.164.97-1.305.371-.211.688-.723 1.235-.97.582-.265.688-.935 1.376-.935.018.265.106.741.353.741.494 0 .776-.3.776-.741a.41.41 0 00-.159-.335c0 .088.018.159.018.247-.018.154-.022.27-.065.347a.788.788 0 01-.059-.33c0-.211.124-.335.283-.335.052 0 .123.018.194.018.07 0 .106-.017.106-.088 0-.053-.018-.106-.018-.159 0-.3.512-.723.688-.723.053 0 .123.018.176.018.088 0 .159-.036.194-.106.212-.53 1.394-.758 1.764-.758.088 0 .177.035.282.035.212 0 .565-.247.565-.494 0-.318-.6-.318-.847-.388-.317.123-.653.018-.97.176a.715.715 0 01-.335.07c-.494 0-.265-.352-.564-.405-.036-.176-.036-.618-.177-.618-.053 0-.159.089-.23.141-.193-.194-.088-.458-.176-.687-.37-.37-.652-.547-1.323-.547-1.358 0-2.575.423-3.44.653-.035.017-.07.017-.105.017-.106 0-.159-.053-.159-.123 0-.141.247-.423.318-.582.123-.424.6-.565.67-.83.23-.846.847-.916 1.164-1.287.247-.37.688-.811 1.182-.882.07-.018.123-.141.123-.23-.07-.617-1.093-.634-1.464-.705zm92.57 0c-.318.317-.618.476-.883.9-.194.317-.688.44-.758.652-.16.477-.706.3-.83.776 0 .018-.582.635-.758.812-.247.23-.476.511-.494.9 0 .194-.141.37-.141.546 0 .124.053.23.053.353 0 .053-.036.106-.036.159 0 .511.424.81.988 1.023.124.07.142.317.248.317.723 0 1.287-.494 1.287-.494.07 0 .159.07.282.124.37-.247.459-.336.847-.46.547-.158.9-.475 1.129-.475.124 0 .23.088.335.088.07 0 .159-.035.247-.035.264 0 .423.264.423.494-.141.9-.07 1.622-.776 1.799-.459.105-.564.723-.952.723-.353 0-.37.37-.723.423-.177 0-.406.618-.935.759-.406.106-.441.476-.741.653-.882.529-1.2 1.975-1.217 2.116-.088.265-.3.635-.3.688 0 .318.529 1.235.97 1.235.212 0 .23-.318.618-.318.423 0 .67-.017 1.093-.353a.923.923 0 01.335-.193c.176-.053.212-.388.441-.388.459 0 .194-.512.53-.653.229-.088.14-.476.352-.512.317-.106.3-.476.3-.846l-.012-.003c.438-.246.753-.527.753-.808 0-.071-.071-.106-.124-.106-.106 0-.158.017-.211.017-.124 0-.018-.441-.283-.441-.053 0-.37.565-.423.565v-.018c0 .335-.476.917-.653 1.2-.194.511-.3 1.04-.794 1.164-.44.123-.335.688-.705.67-.07 0-.124-.018-.194-.018-.124 0-.265.053-.406.053-.123 0-.37-.053-.37-.23.035-.246 0-.529.141-.758.282-.44.564-1.164.97-1.305.37-.211.688-.723 1.235-.97.582-.265.688-.935 1.376-.935.017.265.105.741.352.741.494 0 .776-.3.776-.741a.409.409 0 00-.158-.335c0 .088.017.159.017.247-.018.153-.022.27-.064.346a.789.789 0 01-.06-.328c0-.212.125-.336.284-.336.052 0 .123.018.193.018s.106-.017.106-.088c0-.053-.017-.106-.017-.159 0-.3.511-.723.687-.723.053 0 .124.018.177.018.088 0 .159-.036.194-.106.212-.53 1.393-.758 1.764-.758.088 0 .176.035.282.035l.027-.002a.765.765 0 00-.027.16c0 .336-.141.653-.141 1.006 0 1.817 1.252 2.752 1.252 2.752.353.247.776.317 1.147.423.229-.141.864-.512.988-.512.017 0 .017.018.017.018 1.253-1.252 1.323-1.676 1.57-1.993.265-.335-.035-.882.353-1.094.07-.07.353-1.481.353-1.587.07-.512.194-.617.864-.953.512-.246 1.076-.529 1.675-.582.395-.037.599-.126.687-.224-.03.185-.051.367-.051.542 0 .106.017.194.017.282 0 .124-.088.212-.088.317 0 .141.07.282.07.424 0 .423-.035.758-.035 1.252 0 .776.07 1.746.758 1.746 1.024 0 1.464-.776 1.994-1.587.247-.37.776-1.182.811-1.482.053-.44 1.059-1.393 1.217-1.393.036 0 .053.105.053.14 0 .16-.07.354-.07.512 0 .282.07.565.07.847 0 .141-.018.565-.23.706-.035.035-.07.07-.07.106 0 .088.106.14.106.247-.035.211-.141.44-.141.634 0 .141.177.212.177.318 0 .053-.036.123-.036.176 0 .07.018.124.018.194 0 .071-.318.565-.318.847 0 .23.07.44.07.688 0 .159-.017.335-.017.511.036.935.353 2.24 1.288 2.24.14-.088.212-.123.3-.123.053 0 .14.017.264.035.265-.23.477-.811.53-.846.176-.089.176-.212.176-.406 0-.23.353-.441.353-.794 0-.106-.035-.23-.035-.335 0 .017.229-.917.247-.935.211-.23.158-.582.44-.864.16-.123.036-.388.141-.547.23-.14.812-1.005.812-1.323 0-.123-.088-.194-.212-.194-.687 0-.794.83-1.129 1.182-.176.194-.211.335-.23.582 0 .123-.228.106-.281.264-.282.582-.935 2.223-1.165 2.223-.176 0-.14-1.023-.14-1.552 0-.565.017-1.094.158-1.34v-.018c0-.036-.07-.177-.07-.283.088-.07.282-.123.282-.23 0-.087-.194-.228-.194-.352 0-.07.053-.176.053-.247 0-.07-.035-.14-.035-.194 0-.3.37-.423.37-.775 0-1.73.07-2.347-.74-2.347-.3 0-.671.053-.865.335-.089.141-.759.424-1.041.759-.212.247-.388.582-.582.794-.706.494-1.288 1.852-1.729 1.852-.035-.053-.07-.088-.07-.141 0-.353.282-.741.335-1.076.035-.776.07-1.553.07-2.329 0-.405-.017-.846-.546-.846-.318 0-.864.211-.864.458 0 .37-.089.758-.16 1.139-.055-.129-.226-.24-.3-.24a.038.038 0 00-.034.036c-.935.053-1.782.423-2.664.723a.515.515 0 01-.159.035c-.3 0-.352-.37-.423-.652-.194-.653-.846-1.376-1.34-1.553-.424-.14-.812-.51-1.288-.51h-.847c-1.164 0-1.87.158-1.87 1.993 0 .511.494 1.234.494 1.605 0 .149-.05.362-.113.584-.186-.053-.41-.072-.54-.108-.317.123-.652.018-.97.176a.717.717 0 01-.335.07c-.494 0-.264-.352-.564-.405-.035-.176-.035-.618-.176-.618-.053 0-.159.089-.23.141-.194-.194-.088-.458-.176-.687-.37-.37-.652-.547-1.323-.547-1.358 0-2.575.423-3.44.653-.035.017-.07.017-.105.017-.106 0-.159-.053-.159-.123 0-.141.247-.423.317-.582.124-.424.6-.565.67-.83.23-.846.847-.916 1.165-1.287.247-.37.688-.811 1.182-.882.07-.018.123-.141.123-.23-.07-.617-1.093-.634-1.464-.705zm-35.486.105l.002.004a.046.046 0 00-.01.004l.008-.008zm-48.4 0l.001.004-.01.004.009-.008zm-18.42.848c-.6 0-1.376.723-1.447 1.005-.052.23-.547.67-.847 1.076.018-.159.054-.247.054-.353-.106-.388-.16-1.023-.706-1.023-.194 0-.37.07-.564.07-.036 0-.089-.017-.124-.017-.141 0-.6.882-.688 1.094-.282.617-.74 1.305-.776 1.957 0 .194-.194.53-.194.83 0 .088 0 .158.018.246-.141.141-.247.777-.46.812l.142.106c-.035.14-.105.37-.105.529 0 .088.087.194.087.3 0 .035-.017.053-.017.07-.23.283-.3.882-.3 1.217 0 .3.07.547.07.794 0 .176-.035.318-.035.476 0 .583.16 1.182.6 1.182.67 0 .988-1.534.97-1.499.318-.564.3-1.217.547-1.817.511-1.217.388-1.605.688-2.046.176-.265.264-.564.388-.847.335-.829 1.235-2.205 1.94-2.628.018 0 .018-.017.035-.017.265 0 .053 2.134.794 2.134.265 0 .177-.53.494-.759.512-.37.653-.634.653-1.305 0-.635-.265-1.587-1.217-1.587zm44.538.352c.07 0 .088.088.088.124 0 .088-.053.123-.123.14-.071 0-.106-.017-.106-.088 0-.088.14-.176.14-.176zm-14.552.46c-.441 0-.618.299-.918.422-.546.212-.846.776-1.305 1.006-.406-.53-.811-.9-1.623-.9-1.217 0-1.428.882-1.922 1.588-.617.882-.741 1.464-.953 2.01-.212.547-.44 1.13-.44 1.712-.018.158-.124.229-.265.264v.53c.335.035.211.21.264.334 0 .741.653 1.13 1.235 1.13.829 0 .794-.019 1.676-1.624.353-.74.97-2.099 1.093-2.134.441-.124.37-.406.477-.847.035-.158.67-.723.705-.723.23-.123.282-.282.406-.564.44 0 .23-.441.511-.494.141-.018.265-.053.424-.088.017.194.105.37.105.582-.176.335-.264.105-.264 1.34 0 .088 0 .194.017.282 0 .194-.264.512-.282.865-.088 1.5-.247 3.245-.247 4.621 0 .247.265.335.265.635 0 .177-.018.353-.018.53.018.3-.017.617.247.846.089.053.018.264.195.423.3.282.511.565.952.565.265 0 .688 0 .829-.318.123-.282.37-.493.423-.864 0-.37 0-.97.141-1.235.177-.23.071-.511.195-.688.229-.44.317-1.093.44-1.587.115-.474.365-.917.457-1.4.094.406.286.712.672.712 1.023 0 1.464-.776 1.993-1.587.247-.37.776-1.182.811-1.482.053-.441 1.06-1.394 1.218-1.394.035 0 .053.106.053.141 0 .16-.07.353-.07.512 0 .282.07.565.07.847 0 .141-.018.564-.23.705-.035.036-.07.071-.07.106 0 .088.105.141.105.247-.035.212-.14.44-.14.635 0 .14.176.212.176.318 0 .053-.036.123-.036.176 0 .07.018.124.018.194s-.317.564-.317.847c0 .229.07.44.07.687 0 .16-.017.336-.017.512.035.935.352 2.24 1.287 2.24.141-.088.212-.123.3-.123.053 0 .141.017.265.035.264-.23.476-.811.529-.847.176-.088.176-.211.176-.405 0-.23.353-.441.353-.794 0-.106-.035-.23-.035-.335 0 .017.23-.918.247-.935.212-.23.159-.582.44-.864.16-.124.036-.388.142-.547.23-.141.811-1.005.811-1.323 0-.123-.088-.194-.211-.194-.688 0-.794.829-1.13 1.182-.176.194-.211.334-.229.581 0 .124-.229.106-.282.265-.282.582-.935 2.223-1.164 2.223-.176 0-.141-1.024-.141-1.553 0-.564.018-1.093.159-1.34v-.018c0-.035-.07-.176-.07-.282.087-.07.281-.124.281-.23 0-.088-.193-.228-.193-.352 0-.07.052-.176.052-.247 0-.07-.035-.141-.035-.194 0-.3.37-.423.37-.776 0-1.728.071-2.346-.74-2.346-.3 0-.67.053-.865.335-.088.141-.758.423-1.04.759-.212.246-.388.582-.583.793-.705.494-1.287 1.852-1.728 1.852-.035-.053-.07-.088-.07-.14 0-.354.282-.741.334-1.077.036-.776.07-1.552.07-2.328 0-.406-.017-.847-.546-.847-.317 0-.864.212-.864.459 0 .617-.247 1.288-.247 1.887 0 .106.018.194.018.283 0 .123-.089.211-.089.317 0 .141.071.282.071.423 0 .191-.007.365-.015.542a1.55 1.55 0 00-.214.446c-.018.07-.053.176-.124.23-.494.458-.405.899-.582 1.57-.053.228-.23.246-.247.423-.23.635-.405 1.27-.6 1.957 0 .388-.405 1.711-.67 1.711-.052 0-.247-.617-.247-.687 0-.071.018-.16.036-.23a.477.477 0 01-.141-.352c0-.106.017-.247.017-.37 0-.265-.017-.53-.017-.812 0-.812.176-1.711.176-2.523 0-.37.282-.74.282-1.005 0-1.323.512-2.664.512-3.81 0-.83-.547-1.023-.935-1.023zm20.25.193c.052 0 .052.053.052.07-.017.018-.018.036-.035.036-.018 0-.036-.018-.036-.018 0-.035.018-.07.018-.088zm3.298 0c-.247 0-.388 2.434-.441 2.999-.036.37-.089.758-.089 1.128 0 .477.247.865.247 1.358 0 1.023.883 1.553 1.535 1.553 1.235 0 1.517-1.005 1.852-2.064.07-.211.106-.441.3-.564.018-.212.264-.282.3-.494.035-.212 1.04-1.905 1.676-1.905.017.07.017.159.017.23 0 .264-.07.528-.07.793 0 .07.017.159.017.23 0 .634-.176 1.322-.176 1.975 0 .265.052.53.052.794 0 .229-.017.493-.017.723 0 .14.053.264.053.388 0 .14-.036.264-.053.388 0 .917.353 1.146.388 1.499.035.247.53.565.9.565 1.058 0 1.234-1.712 1.71-2.294.16-.194.071-.51.23-.74.282-.406.441-.847.67-1.288.318-.459.794-.97.953-1.411 0-.177-.177-.176-.3-.176-.494 0-.776.635-.97 1.04-.389.512-.688 1.076-.97 1.64-.23.46-.9 1.906-1.147 1.906-.177 0-.211-.477-.211-.706 0-.159.035-.317.105-.476.16-.37.177-.759.194-1.164 0-.07-.017-.16-.017-.23 0-.44.264-.793.264-1.182 0-.211-.017-.405-.017-.617 0-.653.282-.988.282-1.87 0-1.217-.265-1.375-1.34-1.375-.389 0-.618.317-.9.511-1.147.812-2.082 1.905-2.91 3.052-.177.247-.353.617-.618.758-.194 0-.23-.53-.23-1.076 0-1.411.142-1.94.142-3.157 0-.723-.918-.741-1.411-.741zm-9.12.406c.018.017.018.035.018.052 0 .018 0 .036-.018.054 0-.018-.017-.036-.017-.054 0-.017.017-.035.017-.052zm65.67 0c1.217 0 1.958 1.164 2.399 2.116.053.106.053.212.053.318 0 .405-1.023.6-1.482.652-.088 0-.23-.017-.23-.158 0-.16.248-.477.248-.635 0-.406-1.076-.67-1.182-.706a.73.73 0 00-.265-.07c-.123 0-.176.105-.423.352 0 .018-.018.018-.036.018-.229 0-.229-.37-.229-.53 0-.51.318-1.234.864-1.305.106-.017.226-.007.283-.052zm-146.068.263c.036.036.035.071.035.106 0 .053-.017.071-.017.124 0-.053-.018-.159-.018-.23zm85.425.071h.018l-.018.035zm-5.292.018c.018.035.054.07.054.106 0 .035-.036.07-.054.105-.017-.035-.052-.07-.052-.105 0-.035.035-.07.052-.106zm-60.007.106c.353 0 .423.494.423.794 0 1.128-1.516 1.604-2.151 1.71-.283-.035-.37-.035-.37-.159 0-.476.934-2.345 2.098-2.345zm60.29.14c.017.071.035.142.035.212 0 .053-.018.106-.035.159-.036-.07-.036-.106-.036-.159 0-.053 0-.105.036-.211zm-81.615.23c.053.07.088.124.088.177 0 .158-.3.705-.494.828-.317.635-.723 1.218-1.058 1.835-.37.688-1.2 2.505-1.394 2.505-.211 0-.229-.618-.229-.741 0-.37.23-1.34.547-1.87.07-.123.123-.247.159-.37.476-1.235 1.464-2.117 2.38-2.364zm54.504.177c.053 0 .053.035.053.052l-.035.035c-.018 0-.036-.017-.036-.052 0-.018.018-.035.018-.035zm48.4 0c.054 0 .054.035.054.052l-.036.035c-.017 0-.035-.017-.035-.052 0-.018.018-.035.018-.035zm-95.548.07c.123 0 .317.053.44.106 0 .053.018.088.018.123 0 .177-.265.53-.265.53-.388.3-.6.758-.97 1.058-.194.159-.335.37-.459.564-.246.406-1.164 1.64-1.234 1.64-.088 0-.106-.052-.106-.123.265-1.34 1.094-3.051 2.205-3.792a.695.695 0 01.37-.106zm56.743 0c-.123 0 .318.053.441.106 0 .053.018.088.018.123 0 .177-.264.53-.264.53-.388.3-.6.758-.97 1.058-.195.159-.336.37-.46.564-.246.406-1.164 1.64-1.234 1.64-.088 0-.106-.052-.106-.123.265-1.34 1.094-3.051 2.205-3.792.123-.07.511-.106.37-.106zm-61.048.194c.071 0 .053.106.053.159 0 .017-.035.017-.053.035-.035 0-.052-.07-.052-.088 0-.053.017-.088.052-.106zm58.085.106c-.035 0-.088.035-.088.088 0 .018.035.053.053.088.018 0 .018.018.035.018.036 0 .07-.07.07-.106 0-.035-.034-.088-.07-.088zm-58.35.035c.089.053.09.036.09.106 0 .088-.036.106-.072.176-.017-.035-.052-.07-.052-.105 0-.053.017-.106.035-.177zm78.44.106c.142 0 .142.23.142.353 0 .105 0 .353-.124.353-.133-.126-.246-.325-.246-.477 0-.106.105-.193.229-.229zm-26.828.194c.018 0 .035 0 .035.018 0 .017-.017.035-.017.053-.018-.018-.035-.018-.035-.018 0-.018 0-.053.017-.053zm48.4 0c.018 0 .037 0 .037.018 0 .017-.018.035-.018.053-.018-.018-.036-.018-.036-.018 0-.018 0-.053.018-.053zm-41.997.053c-.053 0-.088.053-.124.088.053 0 .124.053.177.053.035 0 .07-.035.07-.07-.035-.053-.07-.071-.123-.071zm-.124.088l-.017-.035-.011.051.028-.016zm-.028.016c-.068.038-.148.096-.148.143 0 .017.018.035.053.035.057 0 .085-.1.095-.178zm-42.723.234c.016.064.03.127.03.19 0 .072-.035.054-.053.072a.135.135 0 01-.035-.089c0-.062.027-.123.058-.173zm63.332.142c.004.01.005.02.005.031 0 .018-.001.036-.019.054-.017 0-.035-.018-.052-.018.016-.033.047-.05.066-.067zm-21.268.367c-.124 0-.194.159-.194.23 0 .07 0 .105.07.175.07 0 .247-.211.247-.282 0-.053-.053-.123-.123-.123zm48.4 0c-.123 0-.194.159-.194.23 0 .07 0 .105.071.175.07 0 .247-.211.247-.282 0-.053-.053-.123-.123-.123zm-74.56.247l.019.052h-.053zm52.388.493c.018 0 .054.018.054.053-.018.053-.036.124-.089.124-.035 0-.07-.018-.07-.07 0-.054.052-.107.105-.107zm-26.864.036c-.035 0-.052.017-.07.053 0 .035.018.07.035.106l.106-.053c.018-.018.018-.036.018-.053 0-.018-.036-.053-.089-.053zm48.402 0c-.032-.016-.053.017-.071.053 0 .035.018.07.036.106l.105-.053c.018-.018.018-.036.018-.053 0-.018-.041-.03-.088-.053zm-27.305.088c.141.07.123.212.14.3l-.087.088c-.124 0-.106-.3-.106-.353 0 0 .035-.033.053-.035zm69.144.035c.265 0 .194.23.23.459-.054.317-.018.811-.212.935-.318.211-1.006 2.328-1.87 2.328-.459 0-.688-.723-.688-1.076 0-.211.124-.494.124-.723 0-.088-.018-.177-.018-.265 0-.547.123-1.076.476-1.164.688 0 1.283-.494 1.958-.494zm-146.897.088c-.123 0-.052.46-.317.46-.035 0-.07-.018-.106-.018-.035 0-.688 1.058-.758 1.146a2.71 2.71 0 00-.177.617c0 .053.071.106.124.106.123 0 .264-.74.423-.74.018 0 .035.035.035.052 0 .225-.135.738-.39.99a.284.284 0 00-.139.245c0 .053.018.106.018.159 0 .247-.282.264-.282.511 0 .07.018.123.018.194 0 .212-.177.424-.177.6 0 .141.123.23.123.44 0 .336-.07.742-.123 1.095.053.088.106.158.106.246 0 .106-.124.248-.124.406 0 .265.282 1.006.565 1.006.546 0 .67-.953.67-1.006 0-.282.018-.547.159-.829 0-.112-.174-.152-.299-.238.065-.096.193-.12.193-.291-.018-.035-.017-.106-.017-.159 0-.264-.036-.776.228-1.023.053-.018.106-.088.106-.141 0-.088-.14-.123-.14-.211 0-.071.158-.177.158-.283 0-.106-.124-.194-.124-.282 0-.124.195-.265.195-.53 0-.211.035-.422.035-.634 0-.159-.07-.3-.07-.459 0-.529.37-.635.37-.882 0-.106-.106-.547-.283-.547zm78.105.124a.31.31 0 01.213.066c-.07.025-.138.05-.213.075 0 0-.035-.053-.035-.088 0-.018.018-.053.035-.053zm-21.783.053c0-.353-.37.511-.653.688.088.053.194.159.3.159.247 0 .423-.512.423-.794 0-.036-.07-.018-.07-.053zm48.4 0c0-.353-.37.511-.652.688.088.053.194.159.3.159.247 0 .423-.512.423-.794 0-.036-.07-.018-.07-.053zm-21.22.229s.019 0 .037.018c0 0-.019.018-.019.035-.017 0-.035.018-.052.018l-.018-.036s.018-.035.053-.035zm-.881.194c.017.036.035.071.035.106 0 .036-.035.053-.07.088 0-.035-.035-.07-.035-.106 0-.035.035-.052.07-.088zm.864.106c.036.036.07.07.07.106 0 .048-.027.11-.046.16-.034-.047-.08-.095-.112-.142 0-.018.035-.124.088-.124zm-83.802.159c.035 0 .053.035.053.07 0 .018-.123.389-.159.724a.818.818 0 01-.07-.336c0-.106 0-.211.141-.282 0-.017-.018-.14.035-.176zm78.74.07c-.035 0-.123.018-.123.053 0 .053.017.106.017.177.124-.071.106-.071.141-.212 0 0-.017-.018-.035-.018zm-6.297.036c.017.017.035.035.035.053-.018.035-.035.053-.035.088-.036-.035-.035-.053-.035-.106.017-.018.035-.017.035-.035zm57.697 0c.017.017.035.035.035.053-.018.035-.035.053-.035.088-.036-.035-.036-.053-.036-.106.018-.018.036-.017.036-.035zm26.334 0c.018.017.035.035.035.053-.017.035-.035.053-.035.088-.035-.035-.035-.053-.035-.106.018-.018.035-.017.035-.035zm-72.643.04c.043.075.13.126.13.206 0 .071-.035.089-.106.124-.018 0-.07-.053-.07-.088 0-.08.009-.18.046-.242zm-71.519.136l.035.018-.017.035zm38.753.3c0 .211-.018.318.052.318.036-.018.053-.071.053-.089 0-.088-.052-.123-.105-.23zm48.4 0c0 .211-.017.318.054.318.035-.018.052-.071.052-.089 0-.088-.053-.123-.106-.23zm-88 .247c.089 0 .23.088.23.194 0 .159-.194.176-.3.23a.458.458 0 01-.053-.195c0-.14.035-.23.124-.23zm44.133.176c-.07 0-.124.053-.124.088 0 .036.053.071.141.071.071 0 .124-.035.124-.088 0-.053-.053-.071-.141-.071zm48.401 0c-.07 0-.123.053-.123.088 0 .036.052.071.14.071.071 0 .124-.035.124-.088 0-.053-.053-.071-.141-.071zm-20.267.036c.018.035.035.07.035.105 0 .018-.017.036-.035.036-.018 0-.036-.018-.036-.036 0-.035.018-.07.036-.105zm-5.61.088c.036 0 .053.017.053.053 0 .053-.035.106-.035.14 0 .16.194.371.194.583 0 .158-.141.353-.141.476-.245-.24-.23-.466-.23-.776 0-.176.018-.388.16-.476zm-78.228.159v.052h-.035zm83.767.282c.106 0 .088.176.124.352-.018.07-.018.265-.159.336-.176 0-.177-.159-.177-.282 0-.124.071-.406.212-.406zm-28.187.088c0 .017-.035.018-.035.035 0 .018.018.036.018.053.017-.017.035-.017.035-.035 0-.018 0-.036-.018-.053zm48.402 0c0 .017-.036.018-.036.035 0 .018.018.036.018.053.018-.017.035-.017.035-.035 0-.018 0-.036-.018-.053zm-25.207.07l-.052.106c0 .036.017.07.052.07.018 0 .036-.034.053-.07 0-.052-.017-.07-.053-.105zm-79.51.037c.037.002.083.009.083.052a.038.038 0 01-.036.035c-.044 0-.039-.05-.047-.087zm78.999.052c-.018.018-.035.035-.035.053l.035.035c0-.018.018-.018.018-.035 0-.018-.018-.035-.018-.053zm-52.194.105l-.012.016-.001-.002.014-.014zm-11.024.036c.036 0 .053.017.053.053 0 .035-.035.053-.07.088-.035 0-.071-.018-.071-.053.018-.053.035-.088.088-.088zm-2.61.018c.035.035.035.035.035.088-.018.017-.035.053-.053.07-.018-.017-.017-.035-.017-.053 0-.035.017-.07.035-.105zm-13.124.229c.053.035.07.035.07.07 0 .036-.017.071-.034.089-.018-.036-.07-.053-.07-.071 0-.035.034-.07.034-.088zm14.958.106l.053.017v.265c0 .158 0 .282-.035.282l-.035-.035c0-.177 0-.353.017-.53zm32.385 0c0 .037.076.027.12.049-.045.049-.117.074-.243.074.035-.07.123-.212.123-.123zm92.569 0c0 .037.076.027.12.049-.044.049-.117.074-.244.074.036-.07.124-.212.124-.123zm-55.88.123c.035 0 .035.053.035.106 0 .123 0 .265-.088.265-.106 0-.159-.141-.159-.194 0-.088.07-.177.212-.177zm-31.38.124c0-.071.106.264.106.352 0 .142-.07.441-.282.441-.018 0-.035-.035-.035-.052l.052-.318c.018-.159.16-.21.16-.423zm48.401 0c.07 0 .106.264.106.352 0 .142-.07.441-.282.441-.018 0-.035-.035-.035-.052l.053-.318c.017-.159-.036-.335.158-.423zm-27.146.3l.018.052h-.035zm57.697 0l.017.052h-.035zm26.335 0l.017.052h-.035zm-78.864.017c.201 0 .089.406.089.6 0 .106-.036.211-.036.3-.053-.018-.229-.583-.229-.777 0-.035.048-.123.176-.123zm-23.46.106c0-.018.036.07.036.123-.018 0-.018.018-.035.018-.036 0-.053-.053-.053-.088 0-.018.053-.018.053-.053zm48.402 0c0-.018.035.07.035.123-.018 0-.017.018-.035.018-.035 0-.053-.053-.053-.088 0-.018.053-.018.053-.053zm-48.807.353c0 .017.035.035.035.052-.018.036-.035.054-.053.089 0-.018-.017-.018-.035-.035l.053-.106zm48.401 0c0 .017.035.035.035.052-.017.036-.035.054-.052.089 0-.018-.018-.018-.036-.035l.053-.106zm-24.271.212l.035.017c0 .018-.017.035-.017.053-.018-.018-.036-.018-.036-.018 0-.017 0-.035.018-.052zm-33.284.405l.025.006.01.03zm92.568 0l.025.006.01.03zm-83.538.053c-.052 0 .106.088.16.123-.054.089-.089.106-.142.106-.053-.035-.106-.07-.106-.106 0-.088.141-.123.088-.123zm48.402 0c.053 0 .105.088.158.123-.053.089-.088.106-.14.106-.054-.035-.107-.07-.107-.106 0-.088.036-.123.089-.123zm-103.717.088c.018.036.07.071.07.106 0 .018-.052.053-.07.088-.018-.035-.07-.07-.07-.088 0-.035.052-.07.07-.106zm55.28.494c.089 0 .159.053.159.141 0 .142 0 .123-.124.123-.07-.035-.176 0-.176-.14.036-.071.053-.124.141-.124zm48.401 0c.088 0 .16.053.16.141 0 .142 0 .123-.124.123-.07-.035-.177 0-.177-.14.035-.071.053-.124.141-.124zm-89.782.036c.018.017.054.07.054.087-.018.071-.054.107-.071.177a.16.16 0 01-.053-.123c0-.053 0-.141.07-.141zm41.01.546c.018.018.036.035.036.053 0 .053 0 .088-.053.088-.035 0-.035-.07-.035-.106.018-.017.035-.035.053-.035zm48.402 0c.018.018.035.035.035.053 0 .053 0 .088-.053.088-.035 0-.035-.07-.035-.106.017-.017.035-.035.053-.035z"
              id='clip-path-path'
              display="inline"
              fill="#fff"
              stroke="none"
              strokeDasharray="none"
              strokeOpacity='1'
            />

    <filter id="shadow">
        <feDropShadow dx="0.5" dy="0.5" stdDeviation="0.5" />
    </filter>
    </defs>

    <path
      d="M25.7 206.951c-3.364 3.058-3.16 4.791-3.16 4.791s.408 1.835 1.121 1.937l.714.102s0-1.325 1.937-4.995c1.936-3.67 3.873-10.194 4.587-8.359.713 1.835-1.122 3.058-2.039 7.748-.917 4.689-1.02 6.83-.917 8.868l.102 2.039"
      display="inline" fill="none" fillOpacity='1' id='p-1' stroke="currentcolor" strokeWidth='1.8'
      strokeLinecap="square" strokeLinejoin="round" strokeDasharray='46.8' strokeDashoffset='46.8' strokeOpacity='1' />
    <path
      d="M34.321 207.177s-.5-.449-1 .225c-1.72 2.312-2.62 3.962-2.431 4.953.188.99.13 1.501.99 1.113.519-.047.56-1.535 1.22-2.478.66-.944.943-2.69 2.736-3.444 1.792-.755 2.16-.422 2.16-.422s-2.152 7.915-1.406 9.243c1.227 1.368.99 2.69 1.651.897.66-1.793 1.651-5.425 1.651-5.425s.802-.944 1.133-1.557c.33-.613.518.802.566-3.68.047-4.48-.142-5.424.047-4.386.188 1.037-.378 7.877-.378 10.613 0 2.737.697 4.518 1.216 4.754.519.236 2.653-6.357 2.888-6.97.236-.614 3.128-.187 1.073-.418 2.68-.693 3.296-2.818 3.296-2.818s-1.02-1.01-1.727-1.152c-.707-.141-2.311 2.406-2.642 3.16-.33.756-.277 3.773.336 4.48.613.708.742.64 1.403.31.66-.33 3.167-3.09 4.064-3.61l.896-.519"
      fill="none" id='p-2' stroke="currentcolor" strokeWidth='1.8' strokeLinecap="square" strokeLinejoin="round"
      strokeDasharray='97.2' strokeDashoffset='97.2' strokeOpacity='1' />
    <path d="M50.992 204.007c1.606.409 1.96.19 4.818-.408 2.858-.599 3.865-.871 4.764-.953l.898-.082" fill="none"
      id='p-3' stroke="currentcolor" strokeWidth='1.8' strokeLinecap="square" strokeLinejoin="round"
      strokeDasharray='10.8' strokeDashoffset='10.8' strokeOpacity='1' />
    <path d="M56.043 202.483c-.082 7.377.23 12.386.23 12.386" fill="none" id='p-4' stroke="currentcolor"
      strokeWidth='2.2' strokeLinecap="square" strokeLinejoin="round" strokeDasharray='12.54' strokeDashoffset='12.54'
      strokeOpacity='1' />
    <path
      d="M60.76 206.787c-1.762 4.187-2.134 8.776-1.84 8.372.294-.404-.735-3.306 2.24-6.318 2.976-3.012 2.498-3.086 2.976-3.012.477.073 0 2.681 0 2.681"
      fill="none" id='p-5' stroke="currentcolor" strokeWidth='2.69999' strokeLinecap="square" strokeLinejoin="round"
      strokeDasharray='23.2199' strokeDashoffset='23.2199' strokeOpacity='1' />
    <path
      d="M67.188 207.04c-.38 5.19-.316 6.457.317 7.027.633.57.886.949 1.519-.127.633-1.076.49-2.697.743-3.456.253-.76.687-1.671.814-2.367.126-.697 4.076-3.418 4.076-3.418s-4.684 3.797-3.987 4.557c.696.76.76.513 1.455.45.697-.064.077-.217 2.026-.513 1.835-.28 1.482-.262 2.17.22 0 0-.064.362-.448.888-.686.94-2.988 3.006-3.937 4.525-.95 1.52-1.393 2.532-1.076 2.912.316.38 1.582-.064 1.582-.064s.633-.126 1.013-.57c.38-.442 1.962-3.354 1.962-3.354s.38-1.266 1.646-2.089 1.772-.95 1.772-.95"
      fill="none" id='p-6' stroke="currentcolor" strokeWidth='2.69999' strokeLinecap="square" strokeLinejoin="round"
      strokeDasharray='70.1997' strokeDashoffset='70.1997' strokeOpacity='1' />
    <path
      d="M81.938 203.104c-.766 13.78-.99 14.23-.135 13.87l.855-.36s.36-1.35 1.802-3.693c1.44-2.342 2.482-5.132 2.482-5.132"
      fill="none" id='p-7' stroke="currentcolor" strokeWidth='1.97' strokeLinecap="square" strokeLinejoin="round"
      strokeDasharray='29.6999' strokeDashoffset='29.6999' strokeOpacity='1' />
    <path d="M78.1 207.082c2.128.339 1.147-.447 5.081-1.661.415-.128.89-.734 3-.992l2.662-.326" fill="none" id='p-8'
      stroke="currentcolor" strokeWidth='1.25' strokeLinecap="square" strokeLinejoin="round" strokeDasharray='9.625'
      strokeDashoffset='9.625' strokeOpacity='1' />
    <path
      d="M90.738 206.875c-.338-.38-.285.186-.837.735-.943.94-.545.774-1.256 1.827-.842 1.245-.786 1.433-1.013 3.167-.164 1.258.57 1.07.57 1.07s.589.174 1.867-2.158c1.277-2.332.99-2.555 2.651-3.897 1.662-1.342 1.757-1.087 1.757-1.087s-.702 3.004-1.022 5.368c-.32 2.364 0 4.76.288 5.303.287.543.639.735.926.607.288-.128.48-1.182 1.214-3.355.735-2.172 1.628-3.757 1.726-4.542.098-.785.196-2.846.196-2.846s-.245 3.68-.098 4.465c.147.785.098.933.638.54s1.815-2.993 2.65-3.533c.834-.54 1.57-.344 1.57-.344s.098-1.717-.196 1.03c-.295 2.749-.736 5.988-.344 6.331.393.344 1.08.098 1.08.098s.732-1.264 1.423-3.288l.687-2.012"
      fill="none" id='p-9' stroke="currentcolor" strokeWidth='2.69999' strokeLinecap="square" strokeLinejoin="round"
      strokeDasharray='68.8497' strokeDashoffset='68.8497' strokeOpacity='1' />
    <path d="M67.49 204.018l-.1.552" fill="none" id='p-10' stroke="currentcolor" strokeWidth='2.69999'
      strokeLinecap="square" strokeLinejoin="round" strokeDasharray='0.809997' strokeDashoffset='0.809997'
      strokeOpacity='1' />
    <path d="M108.6 202.823c-1.014 6.722-1.858 7.837-1.25 10.235.608 2.399 1.047 3.581 1.047 3.581" fill="none"
      id='p-11' stroke="currentcolor" strokeWidth='2.69999' strokeLinecap="square" strokeLinejoin="round"
      strokeDasharray='14.8499' strokeDashoffset='14.8499' strokeOpacity='1' />
    <path d="M114.473 202.506c-.581 2.577-1.837 11.972-1.837 11.972" fill="none" id='p-12' stroke="currentcolor"
      strokeWidth='2.5' strokeLinecap="square" strokeLinejoin="round" strokeDasharray='12.25' strokeDashoffset='12.25'
      strokeOpacity='1' />
    <path d="M107.282 209.95c6.88-1.879 8.409-2.77 8.409-2.77" fill="none" id='p-13' stroke="currentcolor"
      strokeWidth='1.5' strokeLinecap="square" strokeLinejoin="round" strokeDasharray='9.15' strokeDashoffset='9.15'
      strokeOpacity='1' />
    <path d="M151.772 204.039v.473" fill="none" id='p-14' stroke="currentcolor" strokeWidth='2.69999'
      strokeLinecap="square" strokeLinejoin="round" strokeDasharray='2.69999' strokeDashoffset='2.69999'
      strokeOpacity='1' />
    <path
      d="M118.362 206.437c-.5 4.436-.885 5.85-.378 6.019.506.169 2.371-1.593 2.371-1.593s.845-1.487 1.487-2.162c.642-.676 2.06-1.42 2.33-1.318.27.101-1.271 6.968-1.2 7.842.208 2.578 1.39-.077 2.303-.966.195-.19.215-1.37 1.262-2.788 1.048-1.42 1.048-1.385 1.048-1.385"
      fill="none" id='p-15' stroke="currentcolor" strokeWidth='2.69999' strokeLinecap="square" strokeLinejoin="round"
      strokeDasharray='31.3199' strokeDashoffset='31.3199' strokeOpacity='1' />

    <path
      d="M130.422 202.789c-.98 10.168-1.216 11.181-1.047 12.77.169 1.587.676 1.384.946 1.35.27-.033 2.263-3.276 2.263-3.276s-.71-1.081 2.635-4.054c3.344-2.973 4.02-3.176 4.324-3.074.304.101.71.202.608.574-.101.372-.304 2.33-.304 1.317 0-1.013 0-1.52-.338-1.553-.338-.034-2.668 1.655-2.905 2.094-.236.44-.844 2.466-.676 3.277.17.81.44 1.723.811 1.96.372.236.642.404 1.149.1.506-.304 4.29-3.58 4.425-3.817.135-.236 2.23-9.222 2.23-9.222s-3.176 13.816-2.737 12.566c.44-1.25-.405-1.385 2.095-3.479 2.5-2.094 2.33-1.892 2.567-1.453.237.44-.067 3.615 0 4.899.068 1.283.507 1.756.81 1.79.305.034-.303.743 1.453-2.33 1.757-3.075 2.365-2.77 2.602-4.527.236-1.757.067-3.784.202-1.25.135 2.533-.777 2.635-.236 4.729.54 2.094.946 2.128 1.216 2.162.27.034 1.486-1.52 1.925-2.196.44-.675 1.081-2.398 1.183-3.108.101-.71 0-2.195 0-2.195s-.304 3.513-.203 4.459c.101.946.574.844.574.844s.507.102.946-.608c.44-.71.98-2.06 1.453-2.669.473-.608 1.554-1.418 1.892-1.35.337.067-.507 2.431-.507 4.593s.135 3.649.338 3.851c.202.203.675-.202.945-.81.27-.608.068-1.216 1.115-2.872l.473-.675"
      fill="none" id='p-16' stroke="currentcolor" strokeWidth='1.97' strokeLinecap="square" strokeLinejoin="round"
      strokeDasharray='140.939' strokeDashoffset='140.939' strokeOpacity='1' />

    <path d="M126.895 207.108c2.61-.466 6.567-2.49 6.567-2.49l1.323-.075" fill="none" id='p-17' stroke="currentcolor"
      strokeWidth='1.5' strokeLinecap="square" strokeLinejoin="round" strokeDasharray='8.4' strokeDashoffset='8.4'
      strokeOpacity='1' />

    <path
      d="M167.242 204.665c-3.797 4.124-4.506 3.593-3.506 4.591 1.32 1.318 2.328-.336 3.571-.336 1.244 0 1.75 1.25 2.03 2.118-.266 1.57-.975 4.056-1.654 4.575-.74 1.287-.765.805-1.423 1.229-.628.404-1.571 1.309-2.03 1.047-.458-.262-.916.196-.916-.786s.937-1.873 2.279-3.025c1.023-.878 3.056-2.183 4.678-2.955 1.253-.595 2.086-.611 2.086-.611s.18.985.985-.179c.805-1.163 0-1.7.805-1.163.806.537-2.506 2.416-1.521 3.669.984 1.253.984 2.148 2.058 1.88 1.074-.269 1.611-.448 2.238-2.685.626-2.238.268-3.67-.358-4.565-.627-.895-.358-2.148-2.238-.984-1.88 1.163-1.163 3.938-1.163 3.938l2.148-.269s1.432-.447 2.237-.805c.806-.358.574-1.094 1.286-.977l.935.155"
      fill="none" id='p-18' stroke="currentcolor" strokeWidth='2.4' strokeLinecap="square" strokeLinejoin="round"
      strokeDasharray='70.8' strokeDashoffset='70.8' strokeOpacity='1' />
    <path
      d="M182.25 206.815c-.444 6.01-.955 3.58-.537 5.224.288 1.133 1.132-.198 1.66-.97.53-.773.983-2.13 1.837-2.7.854-.57 1.423-.488 1.423-.488s-.61 2.765-.65 4.84c-.041 2.073 0 2.48.406 2.887.407.406.773-.041 1.017-.488.244-.448.935-2.237 1.26-2.928.326-.692 1.058-1.708 1.058-1.708"
      fill="none" id='p-19' stroke="currentcolor" strokeWidth='2.2' strokeLinecap="square" strokeLinejoin="round"
      strokeDasharray='28.6' strokeDashoffset='28.6' strokeOpacity='1' />
    <clipPath id='dth-clip-path'>
      <use href='#clip-path-path' x='0' y='0' width='1470' height='300' />
    </clipPath>
  </g>
</svg>