<?xml version="1.0" encoding="UTF-8" standalone="no"?>
<!-- Created with Inkscape (http://www.inkscape.org/) -->

<svg
   version="1.1"
   id="svg66025"
   width="14.544585"
   height="179.30667"
   viewBox="0 0 14.544586 179.30667"
   xmlns="http://www.w3.org/2000/svg"
   xmlns:svg="http://www.w3.org/2000/svg">
  <defs
     id="defs66029" />
  <g
     id="g66031"
     transform="translate(0.03791722)">
    <g
       id="g67837">
      <path
         style="fill:#fff;stroke-width:0.02;stroke:#fff;"
         d="M 1.1733333,179.09333 0.96,179.30667 V 178.88 178.45333 l 0.2133333,0.21334 0.2133334,0.21333 z M 3.68,179.2 H 3.52 v -0.16 -0.16 h 0.16 0.16 v 0.16 0.16 z m 1.92,0 H 5.44 v -0.16 -0.16 H 5.6 5.76 v 0.16 0.16 z m 0.64,-0.32 H 6.08 v -0.16 -0.16 H 6.24 6.4 v 0.16 0.16 z M 1.76,178.56 H 1.6 v -0.16 -0.16 h 0.16 0.16 v 0.16 0.16 z m 2.24,0 H 3.84 v -0.16 -0.16 H 4 4.16 v 0.16 0.16 z m 3.4297466,-0.26175 -0.310273,0.31028 0.1843677,-0.90427 0.184368,-0.90426 0.1259049,0.59399 0.125905,0.59399 z M 12.64,178.56 h -0.16 v -0.16 -0.16 h 0.16 0.16 v 0.16 0.16 z m -9.5655521,-0.32 h -0.087781 v -0.46592 -0.46593 l 0.2718866,0.16804 0.2718864,0.16803 -0.1841053,0.29789 L 3.1622291,178.24 Z M 4.64,178.24 H 4.48 v -0.16 -0.16 H 4.64 4.8 v 0.16 0.16 z m 5.12,-0.32 H 9.6 v -0.16 -0.16 h 0.16 0.16 v 0.16 0.16 z M 0.8,177.6 H 0.64 v -0.16 -0.16 H 0.8 0.96 v 0.16 0.16 z m 1.6,0 H 2.24 v -0.16 -0.16 H 2.4 2.56 v 0.16 0.16 z m 11.84,0 h -0.16 v -0.16 -0.16 h 0.16 0.16 v 0.16 0.16 z M 0.16,177.28 H 0 v -0.16 -0.16 h 0.16 0.16 v 0.16 0.16 z m 8.96,0 H 8.96 v -0.16 -0.16 h 0.16 0.16 v 0.16 0.16 z m -5.28,-0.64 -0.3101997,0.48 -0.0049,-0.54111 -0.0049,-0.54112 0.32,-0.19777 0.32,-0.19777 -0.0049,0.25888 -0.0049,0.25889 z m 10.08,0.32 h -0.16 v -0.16 -0.16 h 0.16 0.16 v 0.16 0.16 z M 8.8,176.64 H 8.64 v -0.16 -0.16 H 8.8 8.96 v 0.16 0.16 z m -8,-0.32 H 0.64 V 176.16 176 H 0.8 0.96 v 0.16 0.16 z m 5.12,0 H 5.76 V 176.16 176 h 0.16 0.16 v 0.16 0.16 z m 8,0 H 13.76 V 176.16 176 h 0.16 0.16 v 0.16 0.16 z M 10.4,176 h -0.16 v -0.16 -0.16 h 0.16 0.16 v 0.16 0.16 z m 2.56,0 H 12.8 v -0.16 -0.16 h 0.16 0.16 v 0.16 0.16 z M 0.16,175.68 H 0 v -0.16 -0.16 h 0.16 0.16 v 0.16 0.16 z m 6.08,0 H 6.08 v -0.16 -0.16 H 6.24 6.4 v 0.16 0.16 z M 9.4933334,175.57333 9.28,175.78667 V 175.36 174.93333 l 0.2133334,0.21334 0.2133332,0.21333 z M 0.16,175.04 H 0 v -0.16 -0.16 h 0.16 0.16 v 0.16 0.16 z m 3.04,0 H 2.7733333 L 2.9866667,174.82667 3.2,174.61333 3.4133334,174.82667 3.6266666,175.04 Z m 3.0588854,0 H 6.1177709 l -0.2283283,-0.36944 -0.228328,-0.36945 0.3694428,0.22833 L 6.4,174.75777 v 0.14112 0.14111 z m 6.0611146,0 h -0.16 v -0.16 -0.16 h 0.16 0.16 v 0.16 0.16 z M 7.84,174.72 H 7.68 v -0.16 -0.16 H 7.84 8 v 0.16 0.16 z m 1.92,0 H 9.6 v -0.16 -0.16 h 0.16 0.16 v 0.16 0.16 z m -8,-0.32 H 1.6 v -0.16 -0.16 h 0.16 0.16 v 0.16 0.16 z m 9.633333,-0.0867 -0.193333,0.19334 0.02526,-0.61334 0.02526,-0.61333 0.16807,0.42 0.16807,0.42 -0.193333,0.19333 z M 3.84,174.08 H 3.4133334 L 3.6266666,173.86667 3.84,173.65333 4.0533334,173.86667 4.2666666,174.08 Z m 5.28,0 H 8.96 v -0.16 -0.16 h 0.16 0.16 v 0.16 0.16 z m 0.64,0 H 9.6 v -0.16 -0.16 h 0.16 0.16 v 0.16 0.16 z M 10.773333,173.97333 10.56,174.18667 V 173.76 173.33333 l 0.213333,0.21334 0.213334,0.21333 z M 2.08,173.76 H 1.92 v -0.16 -0.16 h 0.16 0.16 v 0.16 0.16 z m 3.52,0 H 5.44 v -0.16 -0.16 H 5.6 5.76 v 0.16 0.16 z m 3.84,-0.64 H 9.28 v -0.16 -0.16 H 9.44 9.6 v 0.16 0.16 z m 3.2,0 h -0.16 v -0.16 -0.16 h 0.16 0.16 v 0.16 0.16 z m 1.6,0 h -0.16 v -0.16 -0.16 h 0.16 0.16 v 0.16 0.16 z M 0.8,172.8 H 0.64 v -0.16 -0.16 H 0.8 0.96 v 0.16 0.16 z m 9.92,0 h -0.16 v -0.16 -0.16 h 0.16 0.16 v 0.16 0.16 z M 8.48,172.48 H 8.32 v -0.16 -0.16 h 0.16 0.16 v 0.16 0.16 z m 3.84,0 h -0.16 v -0.16 -0.16 h 0.16 0.16 v 0.16 0.16 z M 4.96,172.16 H 4.8 V 172 171.84 h 0.16 0.16 v 0.16 0.16 z M 0.48,171.84 H 0.32 v -0.16 -0.16 h 0.16 0.16 v 0.16 0.16 z m 9.28,0 H 9.6 v -0.16 -0.16 h 0.16 0.16 v 0.16 0.16 z m 1.28,0 h -0.16 v -0.16 -0.16 h 0.16 0.16 v 0.16 0.16 z M 6.88,171.52 H 6.72 v -0.16 -0.16 h 0.16 0.16 v 0.16 0.16 z M 0.16,171.2 H 0 v -0.16 -0.16 h 0.16 0.16 v 0.16 0.16 z m 9.6,0 H 9.6 v -0.16 -0.16 h 0.16 0.16 v 0.16 0.16 z M 1.44,170.88 H 1.28 v -0.16 -0.16 H 1.44 1.6 v 0.16 0.16 z m 3.52,0 H 4.8 v -0.16 -0.16 h 0.16 0.16 v 0.16 0.16 z m 8.64,0 h -0.16 v -0.16 -0.16 h 0.16 0.16 v 0.16 0.16 z M 7.52,170.56 H 7.36 v -0.16 -0.16 h 0.16 0.16 v 0.16 0.16 z M 0.48,170.24 H 0.32 v -0.16 -0.16 h 0.16 0.16 v 0.16 0.16 z m 5.44,0 H 5.76 v -0.16 -0.16 h 0.16 0.16 v 0.16 0.16 z m 1.9011146,-0.32 H 7.68 v -0.32 -0.32 H 8.0188854 8.3577709 L 8.16,169.6 7.9622291,169.92 Z m 6.0988854,0 h -0.16 v -0.16 -0.16 h 0.16 0.16 v 0.16 0.16 z M 3.36,169.6 H 3.2 v -0.16 -0.16 h 0.16 0.16 v 0.16 0.16 z m 0.96,-0.32 H 4.16 v -0.16 -0.16 h 0.16 0.16 v 0.16 0.16 z m 9.44,0 h -0.32 v -0.33889 -0.33888 l 0.32,0.19777 0.32,0.19777 v 0.14112 0.14111 z M 0.8,168.96 H 0.64 v -0.16 -0.16 H 0.8 0.96 v 0.16 0.16 z m 4.16,0 H 4.8 v -0.16 -0.16 h 0.16 0.16 v 0.16 0.16 z m 0.64,0 H 5.44 v -0.16 -0.16 H 5.6 5.76 v 0.16 0.16 z M 4,168.64 H 3.84 v -0.16 -0.16 H 4 4.16 v 0.16 0.16 z m 4.8,0 H 8.64 v -0.16 -0.16 H 8.8 8.96 v 0.16 0.16 z M 2.72,168.32 H 2.56 V 168.16 168 h 0.16 0.16 v 0.16 0.16 z m 1.92,0 H 4.48 V 168.16 168 H 4.64 4.8 v 0.16 0.16 z M 0.48,167.68 H 0.32 v -0.16 -0.16 h 0.16 0.16 v 0.16 0.16 z m 5.12,0 H 5.44 v -0.16 -0.16 H 5.6 5.76 v 0.16 0.16 z m 3.84,0 H 9.28 v -0.16 -0.16 H 9.44 9.6 v 0.16 0.16 z m 2.56,0 h -0.16 v -0.16 -0.16 H 12 12.16 v 0.16 0.16 z M 1.44,167.36 H 1.28 v -0.16 -0.16 H 1.44 1.6 v 0.16 0.16 z M 2.4533333,167.25333 2.24,167.46667 V 167.04 166.61333 l 0.2133333,0.21334 0.2133334,0.21333 z M 10.08,167.36 H 9.92 v -0.16 -0.16 h 0.16 0.16 v 0.16 0.16 z m 2.88,0 H 12.8 v -0.16 -0.16 h 0.16 0.16 v 0.16 0.16 z M 4.32,167.04 H 4.16 v -0.16 -0.16 h 0.16 0.16 v 0.16 0.16 z M 3.04,166.72 H 2.88 v -0.16 -0.16 H 3.04 3.2 v 0.16 0.16 z m 6.72,0 H 9.6 v -0.16 -0.16 h 0.16 0.16 v 0.16 0.16 z m 1.6,0 H 11.2 v -0.16 -0.16 h 0.16 0.16 v 0.16 0.16 z M 0.8,166.4 H 0.64 v -0.16 -0.16 H 0.8 0.96 v 0.16 0.16 z m 0.96,0 H 1.6 v -0.16 -0.16 h 0.16 0.16 v 0.16 0.16 z m 2.4,-0.32 H 3.7333334 L 3.9466666,165.86667 4.16,165.65333 4.3733334,165.86667 4.5866666,166.08 Z m 5.28,0 H 9.28 v -0.16 -0.16 H 9.44 9.6 v 0.16 0.16 z M 0.16,165.76 H 0 v -0.16 -0.16 h 0.16 0.16 v 0.16 0.16 z m 2.88,0 H 2.88 v -0.16 -0.16 H 3.04 3.2 v 0.16 0.16 z m 5.12,0 H 8 v -0.16 -0.16 h 0.16 0.16 v 0.16 0.16 z M 5.92,165.44 H 5.76 v -0.16 -0.16 h 0.16 0.16 v 0.16 0.16 z m 3.84,0 H 9.6 v -0.16 -0.16 h 0.16 0.16 v 0.16 0.16 z m 1.92,0 h -0.16 v -0.16 -0.16 h 0.16 0.16 v 0.16 0.16 z M 0.8,164.8 H 0.64 v -0.16 -0.16 H 0.8 0.96 v 0.16 0.16 z m 3.68,-0.32 -0.3101997,0.48 0.01759,-0.32 0.01759,-0.32 0.2750173,-0.64 0.2750173,-0.64 0.01759,0.48 0.01759,0.48 z M 5.3333334,164.69333 5.12,164.90667 V 164.48 164.05333 l 0.2133334,0.21334 0.2133332,0.21333 z M 7.2,164.8 H 7.04 v -0.16 -0.16 H 7.2 7.36 v 0.16 0.16 z M 10.453333,164.69333 10.24,164.90667 V 164.48 164.05333 l 0.213333,0.21334 0.213334,0.21333 z M 13.28,164.48 h -0.16 v -0.16 -0.16 h 0.16 0.16 v 0.16 0.16 z M 3.36,164.16 H 3.2 V 164 163.84 h 0.16 0.16 v 0.16 0.16 z m 10.88,0 H 14.08 V 164 163.84 h 0.16 0.16 v 0.16 0.16 z M 8.8,163.84 H 8.64 v -0.16 -0.16 H 8.8 8.96 v 0.16 0.16 z m 1.938885,0 H 10.597771 L 10.4,163.52 10.202229,163.2 H 10.541115 10.88 v 0.32 0.32 z M 2.4533333,163.41333 2.24,163.62667 V 163.2 162.77333 L 2.4533333,162.98667 2.6666667,163.2 Z M 12.96,163.52 H 12.8 v -0.16 -0.16 h 0.16 0.16 v 0.16 0.16 z m 0.922229,0 h -0.16 L 13.92,163.2 l 0.197771,-0.32 h 0.16 0.16 L 14.24,163.2 14.042229,163.52 Z M 8.16,163.2 H 8 v -0.16 -0.16 h 0.16 0.16 v 0.16 0.16 z m 3.52,0 h -0.16 v -0.16 -0.16 h 0.16 0.16 v 0.16 0.16 z M 0.8,162.88 H 0.64 v -0.16 -0.16 H 0.8 0.96 v 0.16 0.16 z m 3.84,0 H 4.48 v -0.16 -0.16 H 4.64 4.8 v 0.16 0.16 z m 2.88,0 H 7.36 v -0.16 -0.16 h 0.16 0.16 v 0.16 0.16 z M 4.96,162.24 H 4.8 v -0.16 -0.16 h 0.16 0.16 v 0.16 0.16 z m 7.04,0 h -0.16 v -0.16 -0.16 H 12 12.16 v 0.16 0.16 z M 1.44,161.92 H 1.28 v -0.16 -0.16 H 1.44 1.6 v 0.16 0.16 z M 5.92,161.6 H 5.76 v -0.16 -0.16 h 0.16 0.16 v 0.16 0.16 z m 0.64,0 H 6.4 v -0.16 -0.16 h 0.16 0.16 v 0.16 0.16 z M 2.08,161.28 H 1.92 v -0.16 -0.16 h 0.16 0.16 v 0.16 0.16 z m 7.04,0 H 8.96 v -0.16 -0.16 h 0.16 0.16 v 0.16 0.16 z M 1.44,160.96 H 1.28 v -0.16 -0.16 H 1.44 1.6 v 0.16 0.16 z m 2.88,0 H 4.16 v -0.16 -0.16 h 0.16 0.16 v 0.16 0.16 z m 0.96,0 H 5.12 v -0.16 -0.16 h 0.16 0.16 v 0.16 0.16 z m 6.4,0 H 11.2 v -0.12576 -0.12577 l 0.48,-0.18419 0.48,-0.18419 v 0.30995 0.30996 z M 8.16,160.64 H 8 v -0.16 -0.16 h 0.16 0.16 v 0.16 0.16 z m 5.76,0 h -0.16 v -0.16 -0.16 h 0.16 0.16 v 0.16 0.16 z M 2.4,160.32 H 2.24 V 160.16 160 H 2.4 2.56 v 0.16 0.16 z m 3.52,0 H 5.76 V 160.16 160 h 0.16 0.16 v 0.16 0.16 z M 0.48,160 H 0.32 v -0.16 -0.16 h 0.16 0.16 v 0.16 0.16 z m 4.8,0 H 5.12 v -0.16 -0.16 h 0.16 0.16 v 0.16 0.16 z M 3.04,159.68 H 2.88 v -0.16 -0.16 H 3.04 3.2 v 0.16 0.16 z m 5.76,0 H 8.64 v -0.16 -0.16 H 8.8 8.96 v 0.16 0.16 z m 1.92,0 h -0.16 v -0.16 -0.16 h 0.16 0.16 v 0.16 0.16 z M 5.44,159.36 H 5.12 v -0.33889 -0.33888 l 0.32,0.19777 0.32,0.19777 v 0.14112 0.14111 z m 8.16,0 h -0.16 v -0.16 -0.16 h 0.16 0.16 v 0.16 0.16 z M 4.0554486,158.78944 3.8905264,159.2 3.865263,158.50667 3.84,157.81333 l -0.4,-0.1614 -0.4,-0.16141 0.4100432,-0.0252 0.4100432,-0.0253 0.1801421,0.46944 0.1801424,0.46944 -0.1649223,0.41056 z M 7.84,159.04 H 7.68 v -0.16 -0.16 H 7.84 8 v 0.16 0.16 z M 0.16,158.72 H 0 v -0.16 -0.16 h 0.16 0.16 v 0.16 0.16 z m 12.48,-0.64 h -0.16 v -0.16 -0.16 h 0.16 0.16 v 0.16 0.16 z M 7.52,157.44 H 7.36 v -0.16 -0.16 h 0.16 0.16 v 0.16 0.16 z M 13.973333,157.33333 13.76,157.54667 V 157.12 156.69333 l 0.213333,0.21334 0.213334,0.21333 z M 0.8,157.12 H 0.64 v -0.16 -0.16 H 0.8 0.96 v 0.16 0.16 z m 1.44,0 H 1.8133333 L 2.0266667,156.90667 2.24,156.69333 2.4533333,156.90667 2.6666667,157.12 Z M 9.76,156.8 H 9.6 v -0.16 -0.16 h 0.16 0.16 v 0.16 0.16 z m 2.56,0 h -0.16 v -0.16 -0.16 h 0.16 0.16 v 0.16 0.16 z m 0.96,-0.32 h -0.16 v -0.16 -0.16 h 0.16 0.16 v 0.16 0.16 z M 0.48,155.84 H 0.32 v -0.16 -0.16 h 0.16 0.16 v 0.16 0.16 z m 1.92,0 H 2.24 v -0.16 -0.16 H 2.4 2.56 v 0.16 0.16 z m 2.24,0 H 4.48 v -0.16 -0.16 H 4.64 4.8 v 0.16 0.16 z m 1.28,0 H 5.76 v -0.16 -0.16 h 0.16 0.16 v 0.16 0.16 z m 1.6,0 H 7.36 v -0.16 -0.16 h 0.16 0.16 v 0.16 0.16 z m 4.178885,0 h -0.141114 l -0.228328,-0.36944 -0.228328,-0.36945 0.369442,0.22833 0.369443,0.22833 v 0.14112 0.14111 z m 0.96,0 h -0.141114 l -0.228328,-0.36944 -0.228328,-0.36945 0.369442,0.22833 0.369443,0.22833 v 0.14112 0.14111 z M 5.12,155.2 H 4.6933334 L 4.9066666,154.98667 5.12,154.77333 5.3333334,154.98667 5.5466666,155.2 Z m 4.32,0 H 9.28 v -0.16 -0.16 H 9.44 9.6 v 0.16 0.16 z m -6.4,-0.32 H 2.88 v -0.16 -0.16 H 3.04 3.2 v 0.16 0.16 z m 0.6022291,-0.32 h -0.16 L 3.68,154.24 3.8777709,153.92 h 0.16 0.16 L 4,154.24 3.8022291,154.56 Z M 8.8,154.56 H 8.64 v -0.16 -0.16 H 8.8 8.96 v 0.16 0.16 z M 2.08,154.24 H 1.92 v -0.16 -0.16 h 0.16 0.16 v 0.16 0.16 z m 2.56,0 H 4.48 v -0.16 -0.16 H 4.64 4.8 v 0.16 0.16 z m 7.36,0 h -0.16 v -0.16 -0.16 H 12 12.16 v 0.16 0.16 z M 2.72,153.92 H 2.56 v -0.16 -0.16 h 0.16 0.16 v 0.16 0.16 z m 6.08,0 H 8.64 v -0.16 -0.16 H 8.8 8.96 v 0.16 0.16 z M 3.36,153.6 H 3.2 v -0.16 -0.16 h 0.16 0.16 v 0.16 0.16 z m 2.56,0 H 5.76 v -0.16 -0.16 h 0.16 0.16 v 0.16 0.16 z m 7.04,0 H 12.8 v -0.16 -0.16 h 0.16 0.16 v 0.16 0.16 z M 0.16,153.28 H 0 v -0.16 -0.16 h 0.16 0.16 v 0.16 0.16 z m 2.5788854,0 H 2.5977709 L 2.3694427,152.91056 2.1411146,152.54111 2.5105573,152.76944 2.88,152.99777 v 0.14112 0.14111 z M 4.64,153.28 H 4.48 v -0.16 -0.16 H 4.64 4.8 v 0.16 0.16 z m -3.2,-0.32 H 1.28 v -0.16 -0.16 H 1.44 1.6 v 0.16 0.16 z m 2.24,0 H 3.52 v -0.16 -0.16 h 0.16 0.16 v 0.16 0.16 z m 8.64,0 h -0.16 v -0.16 -0.16 h 0.16 0.16 v 0.16 0.16 z m -3.2,-0.32 H 8.96 v -0.16 -0.16 h 0.16 0.16 v 0.16 0.16 z M 3.36,152.32 H 3.2 V 152.16 152 h 0.16 0.16 v 0.16 0.16 z m 4.4988854,0 H 7.7177709 l -0.2283283,-0.36944 -0.228328,-0.36945 0.3694428,0.22833 L 8,152.03777 v 0.14112 0.14111 z m 4.7811146,0 H 12.48 V 152.16 152 h 0.16 0.16 v 0.16 0.16 z M 2.72,152 H 2.56 v -0.16 -0.16 h 0.16 0.16 v 0.16 0.16 z m 1.6,0 H 4.16 v -0.16 -0.16 h 0.16 0.16 v 0.16 0.16 z m 1.6,0 H 5.76 v -0.16 -0.16 h 0.16 0.16 v 0.16 0.16 z m 0.64,0 H 6.4 v -0.16 -0.16 h 0.16 0.16 v 0.16 0.16 z M 2.08,151.68 H 1.92 v -0.16 -0.16 h 0.16 0.16 v 0.16 0.16 z m 0.9788854,-0.32 H 2.9177709 L 2.6894427,150.99056 2.4611146,150.62111 2.8305573,150.84944 3.2,151.07777 v 0.14112 0.14111 z M 7.52,151.36 H 7.36 v -0.16 -0.16 h 0.16 0.16 v 0.16 0.16 z m 2.593333,-0.0867 -0.193333,0.19334 0.025264,-0.61334 0.025264,-0.61333 0.16807,0.42 0.16807,0.42 -0.193333,0.19333 z M 0.21192982,150.8 0.05052632,151.2 0.03016324,150.72 0.00980018,150.24 0.24490009,149.87541 0.48,149.51083 0.89261651,149.95541 1.305233,150.4 H 0.83928317 0.37333334 Z M 9.12,151.04 H 8.96 v -0.16 -0.16 h 0.16 0.16 v 0.16 0.16 z M 2.08,150.72 H 1.92 v -0.16 -0.16 h 0.16 0.16 v 0.16 0.16 z m 6.4,0 H 8.32 v -0.16 -0.16 h 0.16 0.16 v 0.16 0.16 z m 3.25193,-0.56 -0.161404,0.4 v -0.8 -0.8 l 0.161404,0.4 0.161403,0.4 z M 13.28,150.4 h -0.16 v -0.16 -0.16 h 0.16 0.16 v 0.16 0.16 z m 0.64,0 h -0.16 v -0.16 -0.16 h 0.16 0.16 v 0.16 0.16 z M 3.36,150.08 H 3.2 v -0.16 -0.16 h 0.16 0.16 v 0.16 0.16 z m 6.4188854,0 H 9.6377709 l -0.2283283,-0.36944 -0.228328,-0.36945 0.3694428,0.22833 L 9.92,149.79777 v 0.14112 0.14111 z M 2.72,149.76 H 2.56 v -0.16 -0.16 h 0.16 0.16 v 0.16 0.16 z m 5.44,0 H 8 v -0.16 -0.16 h 0.16 0.16 v 0.16 0.16 z M 2.7388854,149.12 H 2.5977709 L 2.4,148.8 2.2022291,148.48 H 2.5411146 2.88 v 0.32 0.32 z m 10.2399996,0 h -0.141114 l -0.228328,-0.36944 -0.228328,-0.36945 0.369442,0.22833 0.369443,0.22833 v 0.14112 0.14111 z M 9.76,148.8 H 9.6 v -0.16 -0.16 h 0.16 0.16 v 0.16 0.16 z m 2.24,0 h -0.16 v -0.16 -0.16 H 12 12.16 v 0.16 0.16 z M 6.72,148.48 H 6.2933334 L 6.5066666,148.26667 6.72,148.05333 6.9333334,148.26667 7.1466666,148.48 Z M 3.04,148.16 H 2.88 V 148 147.84 H 3.04 3.2 v 0.16 0.16 z m 0.96,0 H 3.84 V 148 147.84 H 4 4.16 v 0.16 0.16 z m 4.48,0 H 8.32 V 148 147.84 h 0.16 0.16 v 0.16 0.16 z M 4.96,147.52 H 4.8 v -0.16 -0.16 h 0.16 0.16 v 0.16 0.16 z m 2.5222291,0 h -0.16 L 7.52,147.2 7.7177709,146.88 h 0.16 0.16 L 7.84,147.2 7.6422291,147.52 Z M 3.6988854,147.2 H 3.5577709 L 3.36,146.88 3.1622291,146.56 H 3.5011146 3.84 v 0.32 0.32 z M 6.88,147.2 H 6.72 v -0.16 -0.16 h 0.16 0.16 v 0.16 0.16 z m 1.6,0 H 8.32 v -0.16 -0.16 h 0.16 0.16 v 0.16 0.16 z m 3.84,0 h -0.16 v -0.16 -0.16 h 0.16 0.16 v 0.16 0.16 z M 0.21333333,146.77333 0,146.98667 V 146.56 146.13333 l 0.21333333,0.21334 0.21333333,0.21333 z M 4.96,146.88 H 4.8 v -0.16 -0.16 h 0.16 0.16 v 0.16 0.16 z M 6.2933334,146.77333 6.08,146.98667 V 146.56 146.13333 l 0.2133334,0.21334 0.2133332,0.21333 z M 9.44,146.88 H 9.28 v -0.16 -0.16 H 9.44 9.6 v 0.16 0.16 z M 4.32,146.56 H 4.16 v -0.16 -0.16 h 0.16 0.16 v 0.16 0.16 z M 7.2533334,146.45333 7.04,146.66667 V 146.24 145.81333 l 0.2133334,0.21334 0.2133332,0.21333 z M 10.098885,146.56 H 9.9577709 l -0.2283283,-0.36944 -0.228328,-0.36945 0.3694428,0.22833 0.3694426,0.22833 v 0.14112 0.14111 z M 8.8,146.24 H 8.64 v -0.16 -0.16 H 8.8 8.96 v 0.16 0.16 z m 4.833333,-0.0867 -0.193333,0.19334 0.02526,-0.61334 0.02526,-0.61333 0.16807,0.42 0.16807,0.42 -0.193333,0.19333 z M 6.24,145.92 H 6.08 v -0.16 -0.16 H 6.24 6.4 v 0.16 0.16 z M 4.32,145.6 H 4.16 v -0.16 -0.16 h 0.16 0.16 v 0.16 0.16 z m 5.12,0 H 9.28 v -0.16 -0.16 H 9.44 9.6 v 0.16 0.16 z M 1.4933333,145.17333 1.28,145.38667 V 144.96 144.53333 l 0.2133333,0.21334 0.2133334,0.21333 z M 8.1208176,145.28 H 8 v -0.12082 -0.12082 l 0.56,-0.43918 0.56,-0.43918 -0.4391824,0.56 -0.4391821,0.56 z M 9.44,144.96 H 9.28 v -0.16 -0.16 H 9.44 9.6 v 0.16 0.16 z m 1.28,-0.32 h -0.16 v -0.16 -0.16 h 0.16 0.16 v 0.16 0.16 z m 0.64,0 H 11.2 v -0.16 -0.16 h 0.16 0.16 v 0.16 0.16 z M 3.68,144.32 H 3.52 V 144.16 144 h 0.16 0.16 v 0.16 0.16 z M 5.28,144 H 5.12 v -0.16 -0.16 h 0.16 0.16 v 0.16 0.16 z m -2.5080702,-0.56 -0.1614035,0.4 v -0.8 -0.8 l 0.1614035,0.4 0.1614035,0.4 z M 10.72,143.68 h -0.16 v -0.16 -0.16 h 0.16 0.16 v 0.16 0.16 z m 0.96,-0.32 h -0.16 v -0.16 -0.16 h 0.16 0.16 v 0.16 0.16 z M 0.48,143.04 H 0.32 v -0.16 -0.16 h 0.16 0.16 v 0.16 0.16 z m 5.76,0 H 6.08 v -0.16 -0.16 H 6.24 6.4 v 0.16 0.16 z m 4.488842,0 h -0.131071 l -0.210929,-0.34129 -0.210929,-0.34129 0.152511,-0.15251 0.152511,-0.15251 0.18949,0.4938 0.189489,0.4938 z m 1.751158,0 h -0.32 v -0.32 -0.32 h 0.32 0.32 v 0.32 0.32 z M 4,142.72 H 3.84 v -0.16 -0.16 H 4 4.16 v 0.16 0.16 z m 7.68,-0.32 h -0.16 v -0.16 -0.16 h 0.16 0.16 v 0.16 0.16 z M 0.12222912,142.08 h -0.16 L 0.16,141.76 0.35777088,141.44 h 0.16 0.16 L 0.48,141.76 0.28222912,142.08 Z m 3.89665628,0 H 3.8777709 l -0.2283283,-0.36944 -0.228328,-0.36945 0.3694428,0.22833 L 4.16,141.79777 v 0.14112 0.14111 z m 10.2211146,0 h -0.16 v -0.16 -0.16 h 0.16 0.16 v 0.16 0.16 z M 7.52,141.76 H 7.36 v -0.16 -0.16 h 0.16 0.16 v 0.16 0.16 z m 1.28,0 H 8.64 v -0.16 -0.16 H 8.8 8.96 v 0.16 0.16 z m 1.28,0 H 9.92 v -0.16 -0.16 h 0.16 0.16 v 0.16 0.16 z M 5.6,141.44 H 5.44 v -0.16 -0.16 H 5.6 5.76 v 0.16 0.16 z m 0.9222291,0 h -0.16 L 6.56,141.12 6.7577709,140.8 h 0.16 0.16 L 6.88,141.12 6.6822291,141.44 Z m 6.1177709,0 h -0.16 v -0.16 -0.16 h 0.16 0.16 v 0.16 0.16 z M 4,141.12 H 3.84 v -0.16 -0.16 H 4 4.16 v 0.16 0.16 z M 5.0133334,141.01333 4.8,141.22667 V 140.8 140.37333 L 5.0133334,140.58667 5.2266666,140.8 Z M 2.88,140.8 H 2.4533333 L 2.6666667,140.58667 2.88,140.37333 3.0933333,140.58667 3.3066666,140.8 Z M 6.2933334,140.69333 6.08,140.90667 V 140.48 140.05333 l 0.2133334,0.21334 0.2133332,0.21333 z M 14.24,140.8 h -0.16 v -0.16 -0.16 h 0.16 0.16 v 0.16 0.16 z M 3.04,140.16 H 2.88 V 140 139.84 H 3.04 3.2 v 0.16 0.16 z m 6.7719299,-0.24 -0.1614035,0.4 v -0.8 -0.8 l 0.1614035,0.4 0.1614035,0.4 z M 12.64,140.16 H 12.48 V 140 139.84 h 0.16 0.16 v 0.16 0.16 z m 1.33193,-0.24 -0.161404,0.4 v -0.8 -0.8 l 0.161404,0.4 0.161403,0.4 z M 6.88,139.84 H 6.72 v -0.16 -0.16 h 0.16 0.16 v 0.16 0.16 z M 0.8,139.52 H 0.64 v -0.16 -0.16 H 0.8 0.96 v 0.16 0.16 z M 2.72,139.2 H 2.56 v -0.16 -0.16 h 0.16 0.16 v 0.16 0.16 z m 3.84,0 H 6.4 v -0.16 -0.16 h 0.16 0.16 v 0.16 0.16 z m 6.08,-0.32 h -0.16 v -0.16 -0.16 h 0.16 0.16 v 0.16 0.16 z M 4,138.56 H 3.84 v -0.16 -0.16 H 4 4.16 v 0.16 0.16 z m 4.16,-0.32 H 8 v -0.16 -0.16 h 0.16 0.16 v 0.16 0.16 z M 3.04,137.6 H 2.88 v -0.16 -0.16 H 3.04 3.2 v 0.16 0.16 z m 8.32,0 H 11.2 v -0.16 -0.16 h 0.16 0.16 v 0.16 0.16 z M 2.4,137.28 H 2.24 v -0.16 -0.16 H 2.4 2.56 v 0.16 0.16 z m 2.56,0 H 4.8 v -0.16 -0.16 h 0.16 0.16 v 0.16 0.16 z m 4.48,0 H 9.28 v -0.16 -0.16 H 9.44 9.6 v 0.16 0.16 z m 0.96,0 h -0.16 v -0.16 -0.16 h 0.16 0.16 v 0.16 0.16 z m 3.2,0 h -0.16 v -0.16 -0.16 h 0.16 0.16 v 0.16 0.16 z M 1.12,136.96 H 0.96 v -0.16 -0.16 h 0.16 0.16 v 0.16 0.16 z m 6.08,0 H 7.04 v -0.16 -0.16 H 7.2 7.36 v 0.16 0.16 z m 5.44,0 h -0.16 v -0.16 -0.16 h 0.16 0.16 v 0.16 0.16 z M 2.4,136.64 H 2.24 v -0.16 -0.16 H 2.4 2.56 v 0.16 0.16 z m 10.88,0 h -0.16 v -0.16 -0.16 h 0.16 0.16 v 0.16 0.16 z M 9.92,136.32 H 9.4933334 L 9.7066666,136.10667 9.92,135.89333 l 0.213333,0.21334 0.213334,0.21333 z m 2.4,0 H 12.16 V 136.16 136 h 0.16 0.16 v 0.16 0.16 z M 11.36,136 H 11.2 v -0.16 -0.16 h 0.16 0.16 v 0.16 0.16 z M 1.12,135.68 H 0.96 v -0.16 -0.16 h 0.16 0.16 v 0.16 0.16 z m 0.7811146,0 H 1.6 v -0.12576 -0.12577 l 0.4966201,-0.19057 0.4966201,-0.19057 -0.1955055,0.31633 -0.1955056,0.31634 z m 10.7388854,0 h -0.16 v -0.16 -0.16 h 0.16 0.16 v 0.16 0.16 z M 6.56,135.36 H 6.4 v -0.16 -0.16 h 0.16 0.16 v 0.16 0.16 z m 6.77193,-0.24 -0.161404,0.4 v -0.8 -0.8 l 0.161404,0.4 0.161403,0.4 z M 5.9733334,134.93333 5.76,135.14667 V 134.72 134.29333 l 0.2133334,0.21334 0.2133332,0.21333 z M 12.64,135.04 h -0.16 v -0.16 -0.16 h 0.16 0.16 v 0.16 0.16 z M 4.9788854,134.72 H 4.8377709 L 4.64,134.4 4.4422291,134.08 H 4.7811146 5.12 v 0.32 0.32 z m 6.0611146,0 h -0.16 v -0.16 -0.16 h 0.16 0.16 v 0.16 0.16 z M 8.16,134.4 H 8 v -0.16 -0.16 h 0.16 0.16 v 0.16 0.16 z M 5.28,133.76 H 5.12 v -0.16 -0.16 h 0.16 0.16 v 0.16 0.16 z m 8.64,0 h -0.16 v -0.16 -0.16 h 0.16 0.16 v 0.16 0.16 z M 1.44,133.44 H 1.28 v -0.16 -0.16 H 1.44 1.6 v 0.16 0.16 z M 2.4,133.12 H 2.24 v -0.16 -0.16 H 2.4 2.56 v 0.16 0.16 z M 1.76,132.8 H 1.6 v -0.16 -0.16 h 0.16 0.16 v 0.16 0.16 z m 3.84,0 H 5.44 v -0.16 -0.16 H 5.6 5.76 v 0.16 0.16 z m 3.2,0 H 8.64 v -0.16 -0.16 H 8.8 8.96 v 0.16 0.16 z m 0.96,0 H 9.6 v -0.16 -0.16 h 0.16 0.16 v 0.16 0.16 z M 6.24,132.48 H 6.08 v -0.16 -0.16 H 6.24 6.4 v 0.16 0.16 z M 2.08,132.16 H 1.92 V 132 131.84 h 0.16 0.16 v 0.16 0.16 z m 2.5788854,0 H 4.5177709 l -0.2283283,-0.36944 -0.228328,-0.36945 0.3694428,0.22833 L 4.8,131.87777 v 0.14112 0.14111 z M 3.0933333,131.73333 2.88,131.94667 V 131.52 131.09333 l 0.2133333,0.21334 0.2133333,0.21333 z M 7.84,131.84 H 7.68 v -0.16 -0.16 H 7.84 8 v 0.16 0.16 z m 4.8,0 h -0.16 v -0.16 -0.16 h 0.16 0.16 v 0.16 0.16 z M 10.133333,131.41333 9.92,131.62667 V 131.2 130.77333 l 0.213333,0.21334 0.213334,0.21333 z M 2.72,130.88 H 2.56 v -0.16 -0.16 h 0.16 0.16 v 0.16 0.16 z m 0.64,0 H 3.2 v -0.16 -0.16 h 0.16 0.16 v 0.16 0.16 z M 7.5733334,130.77333 7.36,130.98667 V 130.56 130.13333 l 0.2133334,0.21334 0.2133332,0.21333 z M 10.4,130.56 h -0.16 v -0.16 -0.16 h 0.16 0.16 v 0.16 0.16 z M 2.3769301,130.16853 1.6,130.23283 v -0.11909 -0.1191 l 0.6396813,-0.16728 0.6396813,-0.16728 0.1372488,0.22208 0.1372488,0.22207 z M 4.32,130.24 H 4.16 v -0.16 -0.16 h 0.16 0.16 v 0.16 0.16 z m 3.84,0 H 8 v -0.16 -0.16 h 0.16 0.16 v 0.16 0.16 z M 1.76,129.6 H 1.6 v -0.16 -0.16 h 0.16 0.16 v 0.16 0.16 z M 2.4,129.28 H 2.24 v -0.16 -0.16 H 2.4 2.56 v 0.16 0.16 z m 6.0457635,0 H 8.32 v -0.30111 -0.30112 l 0.3163347,-0.1955 0.3163344,-0.19551 -0.1905709,0.49662 L 8.571527,129.28 Z m 1.2764656,0 h -0.16 L 9.76,128.96 9.9577709,128.64 h 0.1600001 0.16 L 10.08,128.96 9.8822291,129.28 Z m 0.9977709,0 h -0.16 v -0.16 -0.16 h 0.16 0.16 v 0.16 0.16 z m 2.4,0 h -0.426667 l 0.213334,-0.21333 0.213333,-0.21334 0.213333,0.21334 0.213334,0.21333 z m -8.8,-0.32 H 4.16 v -0.16 -0.16 h 0.16 0.16 v 0.16 0.16 z m 1.92,0 H 6.08 v -0.16 -0.16 H 6.24 6.4 v 0.16 0.16 z m 7.68,0 h -0.16 v -0.16 -0.16 h 0.16 0.16 v 0.16 0.16 z M 5.6533334,128.53333 5.44,128.74667 V 128.32 127.89333 l 0.2133334,0.21334 0.2133332,0.21333 z M 4,128 H 3.84 v -0.16 -0.16 H 4 4.16 v 0.16 0.16 z M 8.8533334,127.89333 8.64,128.10667 V 127.68 127.25333 l 0.2133334,0.21334 0.2133332,0.21333 z M 9.44,128 H 9.28 v -0.16 -0.16 H 9.44 9.6 v 0.16 0.16 z M 2.72,127.68 H 2.56 v -0.16 -0.16 h 0.16 0.16 v 0.16 0.16 z m 2.24,0 H 4.8 v -0.16 -0.16 h 0.16 0.16 v 0.16 0.16 z m 5.44,0 h -0.16 v -0.16 -0.16 h 0.16 0.16 v 0.16 0.16 z m 3.52,0 h -0.16 v -0.16 -0.16 h 0.16 0.16 v 0.16 0.16 z M 0.21333333,127.25333 0,127.46667 V 127.04 126.61333 l 0.21333333,0.21334 0.21333333,0.21333 z M 13.28,127.36 h -0.16 v -0.16 -0.16 h 0.16 0.16 v 0.16 0.16 z m -0.606667,-0.72667 -0.193333,0.19334 0.02526,-0.61334 0.02526,-0.61333 0.16807,0.42 0.16807,0.42 -0.193333,0.19333 z M 13.6,126.72 h -0.16 v -0.16 -0.16 h 0.16 0.16 v 0.16 0.16 z M 0.48,126.4 H 0.32 v -0.16 -0.16 h 0.16 0.16 v 0.16 0.16 z m 5.68,-0.0253 -0.56,-0.0252 0.4019939,-0.16207 0.4019936,-0.16207 -0.2114365,-0.34211 -0.2114364,-0.34211 0.3694428,0.22833 0.3694426,0.2283 v 0.30111 0.30112 z m 5.2,0.0253 H 11.2 v -0.16 -0.16 h 0.16 0.16 v 0.16 0.16 z m -3.2,-0.32 H 8 v -0.16 -0.16 h 0.16 0.16 v 0.16 0.16 z m -8,-0.64 H 0 v -0.16 -0.16 h 0.16 0.16 v 0.16 0.16 z m 2.08,0 H 1.8133333 L 2.0266667,125.22667 2.24,125.01333 2.4533333,125.22667 2.6666667,125.44 Z M 4,125.12 H 3.84 v -0.16 -0.16 H 4 4.16 v 0.16 0.16 z M 8.8533334,125.01333 8.64,125.22667 V 124.8 124.37333 L 8.8533334,124.58667 9.0666666,124.8 Z M 14.24,125.12 h -0.16 v -0.16 -0.16 h 0.16 0.16 v 0.16 0.16 z M 1.12,124.8 H 0.96 v -0.16 -0.16 h 0.16 0.16 v 0.16 0.16 z m 0.96,0 H 1.92 v -0.16 -0.16 h 0.16 0.16 v 0.16 0.16 z m 3.2,0 H 5.12 v -0.16 -0.16 h 0.16 0.16 v 0.16 0.16 z m -4.8,-0.64 H 0.32 V 124 123.84 h 0.16 0.16 v 0.16 0.16 z m 4.125552,0 H 4.517771 l -0.1841053,-0.29789 -0.1841053,-0.29789 0.2718864,-0.16803 0.2718867,-0.16804 v 0.46593 0.46592 z m 3.874448,0 H 8.32 V 124 123.84 h 0.16 0.16 v 0.16 0.16 z M 10.453333,124.05333 10.24,124.26667 V 123.84 123.41333 l 0.213333,0.21334 0.213334,0.21333 z m -3.8399996,-0.32 L 6.4,123.94667 V 123.52 123.09333 l 0.2133334,0.21334 0.2133332,0.21333 z M 9.76,123.2 H 9.6 v -0.16 -0.16 h 0.16 0.16 v 0.16 0.16 z m 0.64,0 h -0.16 v -0.16 -0.16 h 0.16 0.16 v 0.16 0.16 z m 0.978885,0 h -0.141114 l -0.228328,-0.36944 -0.228328,-0.36945 0.369442,0.22833 0.369443,0.22833 V 123.05889 123.2 Z M 8.5333334,122.77333 8.32,122.98667 V 122.56 122.13333 l 0.2133334,0.21334 0.2133332,0.21333 z M 3.36,122.56 H 3.2 v -0.16 -0.16 h 0.16 0.16 v 0.16 0.16 z m 3.52,0 H 6.72 v -0.16 -0.16 h 0.16 0.16 v 0.16 0.16 z m 0.96,0 H 7.68 v -0.16 -0.16 H 7.84 8 v 0.16 0.16 z M 4.32,122.24 H 4.16 v -0.16 -0.16 h 0.16 0.16 v 0.16 0.16 z m 7.04,0 H 11.2 v -0.16 -0.16 h 0.16 0.16 v 0.16 0.16 z m -10.1880702,-0.56 -0.1614035,0.4 v -0.8 -0.8 l 0.1614035,0.4 0.1614035,0.4 z M 7.84,121.92 H 7.68 v -0.16 -0.16 H 7.84 8 v 0.16 0.16 z M 9.4933334,121.81333 9.28,122.02667 V 121.6 121.17333 L 9.4933334,121.38667 9.7066666,121.6 Z M 13.6,121.92 h -0.16 v -0.16 -0.16 h 0.16 0.16 v 0.16 0.16 z M 4,121.6 H 3.84 v -0.16 -0.16 H 4 4.16 v 0.16 0.16 z m 0.96,0 H 4.8 v -0.16 -0.16 h 0.16 0.16 v 0.16 0.16 z m 0,-0.64 H 4.8 v -0.16 -0.16 h 0.16 0.16 v 0.16 0.16 z m 3.52,0 H 8.32 v -0.16 -0.16 h 0.16 0.16 v 0.16 0.16 z M 11.733333,120.85333 11.52,121.06667 V 120.64 120.21333 l 0.213333,0.21334 0.213334,0.21333 z m 1.725552,0.10667 h -0.301114 l -0.195506,-0.31634 -0.195505,-0.31633 0.49662,0.19057 0.49662,0.19057 v 0.12577 0.12576 z M 0.48,120.64 H 0.32 v -0.16 -0.16 h 0.16 0.16 v 0.16 0.16 z m 8.738199,-0.79153 -0.1791344,0.17913 -0.2184908,-0.5738 -0.2184909,-0.5738 0.3976253,0.39467 0.3976252,0.39466 z M 10.4,120 h -0.16 v -0.16 -0.16 h 0.16 0.16 v 0.16 0.16 z m 1.28,0 h -0.16 v -0.16 -0.16 h 0.16 0.16 v 0.16 0.16 z M 1.1733333,119.57333 0.96,119.78667 V 119.36 118.93333 l 0.2133333,0.21334 0.2133334,0.21333 z M 5.6,119.68 H 5.44 v -0.16 -0.16 H 5.6 5.76 v 0.16 0.16 z m 7.36,0 H 12.8 v -0.16 -0.16 h 0.16 0.16 v 0.16 0.16 z M 3.6533334,119.33474 3.04,119.30948 3.46,119.1414 3.88,118.97333 4.0733334,119.16667 4.2666666,119.36 3.6533334,119.3347 Z M 6.56,119.36 H 6.4 v -0.16 -0.16 h 0.16 0.16 v 0.16 0.16 z m 5.76,0 h -0.16 v -0.16 -0.16 h 0.16 0.16 v 0.16 0.16 z M 2.08,118.72 H 1.92 v -0.16 -0.16 h 0.16 0.16 v 0.16 0.16 z m 7.68,0 H 9.6 v -0.16 -0.16 h 0.16 0.16 v 0.16 0.16 z M 13.653333,118.61333 13.44,118.82667 V 118.4 117.97333 l 0.213333,0.21334 0.213334,0.21333 z M 4,118.4 H 3.84 v -0.16 -0.16 H 4 4.16 v 0.16 0.16 z m 7.68,0 h -0.16 v -0.16 -0.16 h 0.16 0.16 v 0.16 0.16 z M 3.36,117.76 H 3.2 v -0.16 -0.16 h 0.16 0.16 v 0.16 0.16 z M 4,117.44 H 3.84 v -0.16 -0.16 H 4 4.16 v 0.16 0.16 z m 5.44,0 H 9.28 v -0.16 -0.16 H 9.44 9.6 v 0.16 0.16 z m 1.298885,0 h -0.141114 l -0.228328,-0.36944 -0.228328,-0.36945 0.369442,0.22833 0.369443,0.22833 v 0.14112 0.14111 z m 0.621115,0 H 11.2 v -0.16 -0.16 h 0.16 0.16 v 0.16 0.16 z M 1.1733333,116.69333 0.96,116.90667 V 116.48 116.05333 l 0.2133333,0.21334 0.2133334,0.21333 z M 2.4,116.48 H 2.24 v -0.16 -0.16 H 2.4 2.56 v 0.16 0.16 z m 3.2,0 H 5.44 v -0.16 -0.16 H 5.6 5.76 v 0.16 0.16 z m 2.24,0 H 7.68 v -0.16 -0.16 H 7.84 8 v 0.16 0.16 z m 4.16,0 h -0.16 v -0.16 -0.16 H 12 12.16 v 0.16 0.16 z m 1.28,0 h -0.16 v -0.16 -0.16 h 0.16 0.16 v 0.16 0.16 z M 8.5333334,116.05333 8.32,116.26667 V 115.84 115.41333 l 0.2133334,0.21334 0.2133332,0.21333 z M 2.72,115.84 H 2.56 v -0.16 -0.16 h 0.16 0.16 v 0.16 0.16 z m 0.96,0 H 3.52 v -0.16 -0.16 h 0.16 0.16 v 0.16 0.16 z M 0.96,115.52 H 0.53333334 L 0.74666666,115.30667 0.96,115.09333 1.1733333,115.30667 1.3866667,115.52 Z m 4.96,0 H 5.76 v -0.16 -0.16 h 0.16 0.16 v 0.16 0.16 z m 4.16,0 H 9.92 v -0.16 -0.16 h 0.16 0.16 v 0.16 0.16 z m -8,-0.32 H 1.92 v -0.16 -0.16 h 0.16 0.16 v 0.16 0.16 z m 8.64,0 h -0.16 v -0.16 -0.16 h 0.16 0.16 v 0.16 0.16 z M 0.16,114.88 H 0 v -0.16 -0.16 h 0.16 0.16 v 0.16 0.16 z m 3.84,0 H 3.84 v -0.16 -0.16 H 4 4.16 v 0.16 0.16 z m 6.279708,-0.23467 -0.3976251,0.39467 0.2184911,-0.5738 0.218491,-0.5738 0.179134,0.17913 0.179134,0.17914 z M 2.08,114.56 H 1.92 v -0.16 -0.16 h 0.16 0.16 v 0.16 0.16 z m 8.96,0 h -0.16 v -0.16 -0.16 h 0.16 0.16 v 0.16 0.16 z M 0.16,114.24 H 0 v -0.16 -0.16 h 0.16 0.16 v 0.16 0.16 z m 4.16,0 H 4.16 v -0.16 -0.16 h 0.16 0.16 v 0.16 0.16 z M 13.653333,113.81333 13.44,114.02667 V 113.6 113.17333 l 0.213333,0.21334 0.213334,0.21333 z M 3.36,113.6 H 3.2 v -0.16 -0.16 h 0.16 0.16 v 0.16 0.16 z m 5.12,0 H 8.32 v -0.16 -0.16 h 0.16 0.16 v 0.16 0.16 z m 0.96,-0.32 H 9.28 v -0.16 -0.16 H 9.44 9.6 v 0.16 0.16 z M 3.0733333,112.87333 2.88,113.06667 2.905263,112.45333 2.930526,111.84 l 0.1680702,0.42 0.16807,0.42 z M 8.8,112.96 H 8.64 v -0.16 -0.16 H 8.8 8.96 v 0.16 0.16 z m 1.92,-0.32 h -0.16 v -0.16 -0.16 h 0.16 0.16 v 0.16 0.16 z M 2.1333333,112.21333 1.92,112.42667 V 112 111.57333 L 2.1333333,111.78667 2.3466667,112 Z M 5.92,112 H 5.76 v -0.16 -0.16 h 0.16 0.16 v 0.16 0.16 z M 8.5333334,111.89333 8.32,112.10667 V 111.68 111.25333 l 0.2133334,0.21334 0.2133332,0.21333 z M 9.76,112 H 9.6 v -0.16 -0.16 h 0.16 0.16 v 0.16 0.16 z m 0.96,0 h -0.16 v -0.16 -0.16 h 0.16 0.16 v 0.16 0.16 z m 0.96,0 h -0.16 v -0.16 -0.16 h 0.16 0.16 v 0.16 0.16 z M 4.0533334,111.57333 3.84,111.78667 V 111.36 110.93333 l 0.2133334,0.21334 0.2133332,0.21333 z M 9.4022291,111.36 h -0.16 L 9.44,111.04 9.6377709,110.72 h 0.16 0.16 L 9.76,111.04 9.5622291,111.36 Z M 12,111.36 h -0.16 v -0.16 -0.16 H 12 12.16 v 0.16 0.16 z M 0.16,111.04 H 0 v -0.16 -0.16 h 0.16 0.16 v 0.16 0.16 z m 10.4,0 h -0.426667 l 0.213334,-0.21333 0.213333,-0.21334 0.213333,0.21334 0.213334,0.21333 z m 2.4,0 H 12.8 v -0.16 -0.16 h 0.16 0.16 v 0.16 0.16 z M 5.6,110.72 H 5.44 v -0.16 -0.16 H 5.6 5.76 v 0.16 0.16 z m 3.52,0 H 8.96 v -0.16 -0.16 h 0.16 0.16 v 0.16 0.16 z m 4.48,0 h -0.16 v -0.16 -0.16 h 0.16 0.16 v 0.16 0.16 z M 4.64,110.08 H 4.48 v -0.16 -0.16 H 4.64 4.8 v 0.16 0.16 z M 5.9733334,109.97333 5.76,110.18667 V 109.76 109.33333 l 0.2133334,0.21334 0.2133332,0.21333 z M 2.4,109.76 H 2.24 v -0.16 -0.16 H 2.4 2.56 v 0.16 0.16 z m 7.68,0 H 9.92 v -0.16 -0.16 h 0.16 0.16 v 0.16 0.16 z M 3.36,109.44 H 3.2 v -0.16 -0.16 h 0.16 0.16 v 0.16 0.16 z M 7.8733334,109.35333 7.68,109.54667 7.705264,108.93333 7.730528,108.32 l 0.1680701,0.42 0.1680701,0.42 -0.1933332,0.19333 z M 9.12,109.44 H 8.96 v -0.16 -0.16 h 0.16 0.16 v 0.16 0.16 z m -6.4,-0.32 H 2.56 v -0.16 -0.16 h 0.16 0.16 v 0.16 0.16 z M 4.6933334,109.01333 4.48,109.22667 V 108.8 108.37333 L 4.6933334,108.58667 4.9066666,108.8 Z M 9.92,109.12 H 9.4933334 L 9.7066666,108.90667 9.92,108.69333 l 0.213333,0.21334 0.213334,0.21333 z m 4.32,-0.32 h -0.16 v -0.16 -0.16 h 0.16 0.16 v 0.16 0.16 z M 3.04,108.48 H 2.88 v -0.16 -0.16 H 3.04 3.2 v 0.16 0.16 z m 3.2,0 H 6.08 v -0.16 -0.16 H 6.24 6.4 v 0.16 0.16 z m 2.2588854,0 H 8.3577709 l -0.2283283,-0.36944 -0.228328,-0.36945 0.3694428,0.22833 L 8.64,108.19777 v 0.14112 0.14111 z m 2.8799996,-0.32 h -0.141114 l -0.228328,-0.36944 -0.228328,-0.36945 0.369442,0.22833 0.369443,0.22833 v 0.14112 0.14111 z M 3.04,107.52 H 2.88 v -0.16 -0.16 H 3.04 3.2 v 0.16 0.16 z M 2.4533333,107.09333 2.24,107.30667 V 106.88 106.45333 l 0.2133333,0.21334 0.2133334,0.21333 z M 6.5688422,107.2 H 6.4377709 l -0.210929,-0.34129 -0.2109286,-0.34129 0.152511,-0.15251 0.1525111,-0.15251 0.1894892,0.4938 0.189489,0.4938 z m 4.7533868,0 h -0.16 l 0.197771,-0.32 0.197771,-0.32 h 0.16 0.16 L 11.68,106.88 11.482229,107.2 Z m 1.317771,0 h -0.16 v -0.16 -0.16 h 0.16 0.16 v 0.16 0.16 z m 1.28,-0.32 h -0.16 v -0.16 -0.16 h 0.16 0.16 v 0.16 0.16 z m -5.1577709,-0.32 h -0.16 L 8.8,106.24 8.9977709,105.92 h 0.16 0.16 L 9.12,106.24 8.9222291,106.56 Z M 6.88,106.24 H 6.72 v -0.16 -0.16 h 0.16 0.16 v 0.16 0.16 z M 13.973333,106.13333 13.76,106.34667 V 105.92 105.49333 l 0.213333,0.21334 0.213334,0.21333 z M 7.84,105.92 H 7.68 v -0.16 -0.16 H 7.84 8 v 0.16 0.16 z m 2.978885,-0.005 -0.09888,-0.005 -0.48,-0.3102 -0.48,-0.3102 0.381115,-0.005 0.381114,-0.005 0.197771,0.32 0.197771,0.32 z M 2.08,105.6 H 1.92 v -0.16 -0.16 h 0.16 0.16 v 0.16 0.16 z m 2.88,0 H 4.8 v -0.16 -0.16 h 0.16 0.16 v 0.16 0.16 z m 6.72,0 h -0.16 v -0.16 -0.16 h 0.16 0.16 v 0.16 0.16 z M 5.92,105.28 H 5.76 v -0.16 -0.16 h 0.16 0.16 v 0.16 0.16 z m 1.6,0 H 7.36 v -0.16 -0.16 h 0.16 0.16 v 0.16 0.16 z m 6.4,0 h -0.16 v -0.16 -0.16 h 0.16 0.16 v 0.16 0.16 z M 2.08,104.96 H 1.92 v -0.16 -0.16 h 0.16 0.16 v 0.16 0.16 z m 6.08,0 H 8 v -0.16 -0.16 h 0.16 0.16 v 0.16 0.16 z m 1.6,0 H 9.6 v -0.16 -0.16 h 0.16 0.16 v 0.16 0.16 z M 7.2,104.64 H 7.04 v -0.16 -0.16 H 7.2 7.36 v 0.16 0.16 z m 4.16,0 H 11.2 v -0.16 -0.16 h 0.16 0.16 v 0.16 0.16 z m 0.64,0 h -0.16 v -0.16 -0.16 H 12 12.16 v 0.16 0.16 z M 1.1011146,104.32 H 0.96 V 104 103.68 H 1.2988854 1.6377709 L 1.44,104 1.2422291,104.32 Z M 4.96,104 H 4.8 v -0.16 -0.16 h 0.16 0.16 v 0.16 0.16 z m 0.64,0 H 5.44 v -0.16 -0.16 H 5.6 5.76 v 0.16 0.16 z M 2.4,103.68 H 2.24 v -0.16 -0.16 H 2.4 2.56 v 0.16 0.16 z m 1.28,0 H 3.52 v -0.16 -0.16 h 0.16 0.16 v 0.16 0.16 z m 2.88,0 H 6.4 v -0.16 -0.16 h 0.16 0.16 v 0.16 0.16 z m 7.68,0 h -0.16 v -0.16 -0.16 h 0.16 0.16 v 0.16 0.16 z M 8.48,103.04 H 8.32 v -0.16 -0.16 h 0.16 0.16 v 0.16 0.16 z m 2.4,-0.32 h -0.426667 l 0.213334,-0.21333 0.213333,-0.21334 0.213333,0.21334 0.213334,0.21333 z M 5.92,102.4 H 5.76 v -0.16 -0.16 h 0.16 0.16 v 0.16 0.16 z m 8,0 h -0.16 v -0.16 -0.16 h 0.16 0.16 v 0.16 0.16 z M 1.44,102.08 H 1.28 v -0.16 -0.16 H 1.44 1.6 v 0.16 0.16 z m 3.52,0 H 4.8 v -0.16 -0.16 h 0.16 0.16 v 0.16 0.16 z m 8.32,0 h -0.16 v -0.16 -0.16 h 0.16 0.16 v 0.16 0.16 z M 2.08,101.76 H 1.92 v -0.16 -0.16 h 0.16 0.16 v 0.16 0.16 z m 4.48,0 H 6.4 v -0.16 -0.16 h 0.16 0.16 v 0.16 0.16 z M 5.6,101.44 H 5.44 v -0.16 -0.16 H 5.6 5.76 v 0.16 0.16 z m 5.44,0 h -0.16 v -0.16 -0.16 h 0.16 0.16 v 0.16 0.16 z m 0.64,0 h -0.16 v -0.16 -0.16 h 0.16 0.16 v 0.16 0.16 z m 1.562229,-0.32 h -0.16 L 13.28,100.8 l 0.197771,-0.32 h 0.16 0.16 L 13.6,100.8 13.402229,101.12 Z M 1.44,100.8 H 1.28 v -0.16 -0.16 H 1.44 1.6 v 0.16 0.16 z m 0.96,0 H 2.24 v -0.16 -0.16 H 2.4 2.56 v 0.16 0.16 z m 8.64,0 h -0.16 v -0.16 -0.16 h 0.16 0.16 v 0.16 0.16 z M 9.76,100.48 H 9.6 v -0.16 -0.16 h 0.16 0.16 v 0.16 0.16 z M 2.72,100.16 H 2.56 V 100 99.84 h 0.16 0.16 v 0.16 0.16 z m 3.2,-0.32 H 5.76 v -0.16 -0.16 h 0.16 0.16 v 0.16 0.16 z m 1.28,0 H 7.04 V 99.68 99.52 H 7.2 7.36 v 0.16 0.16 z m 0.96,0 H 8 v -0.16 -0.16 h 0.16 0.16 v 0.16 0.16 z m 0.9788854,0 H 8.9977709 L 8.7694426,99.470557 8.5411146,99.101114 8.9105574,99.329443 9.28,99.55777 V 99.698886 99.84 Z M 10.08,99.52 H 9.92 V 99.36 99.2 h 0.16 0.16 v 0.16 0.16 z M 3.68,99.2 H 3.52 v -0.16 -0.16 h 0.16 0.16 v 0.16 0.16 z m 5.76,0 H 9.28 V 99.04 98.88 H 9.44 9.6 v 0.16 0.16 z m 1.92,0 H 11.2 v -0.16 -0.16 h 0.16 0.16 v 0.16 0.16 z M 12.8,98.88 H 12.373333 L 12.586667,98.666666 12.8,98.453334 13.013333,98.666666 13.226667,98.88 Z M 4.2822291,98.56 h -0.16 L 4.32,98.24 4.5177709,97.92 h 0.16 0.16 L 4.64,98.24 4.4422291,98.56 Z M 7.36,98.56 H 6.9333334 L 7.1466666,98.346666 7.36,98.133334 7.5733334,98.346666 7.7866666,98.56 Z M 0.48,98.24 H 0.32 v -0.16 -0.16 h 0.16 0.16 v 0.16 0.16 z M 1.76,97.92 H 1.6 V 97.76 97.6 h 0.16 0.16 v 0.16 0.16 z M 3.0246415,97.516813 2.593833,97.913629 2.4187544,97.630346 2.2436759,97.347062 2.7676389,97.146 l 0.523963,-0.201066 0.081924,0.08753 0.081924,0.08753 z M 3.68,97.92 H 3.52 V 97.76 97.6 h 0.16 0.16 v 0.16 0.16 z m 6.72,0 H 10.24 V 97.76 97.6 h 0.16 0.16 v 0.16 0.16 z M 0.76222912,97.6 h -0.16 L 0.8,97.28 0.99777088,96.96 h 0.16000002 0.16 L 1.12,97.28 0.92222912,97.6 Z M 9.12,97.6 H 8.96 v -0.16 -0.16 h 0.16 0.16 v 0.16 0.16 z m 4.629957,0 H 13.44 v -0.48 -0.48 h 0.125764 0.125763 l 0.184193,0.48 0.184194,0.48 z M 6.56,97.28 H 6.4 v -0.16 -0.16 h 0.16 0.16 v 0.16 0.16 z m 5.76,-0.32 H 12.16 V 96.8 96.64 h 0.16 0.16 v 0.16 0.16 z M 0.48,96.64 H 0.32 v -0.16 -0.16 h 0.16 0.16 v 0.16 0.16 z m 11.482229,-0.32 h -0.16 L 12,96 12.197771,95.68 h 0.16 0.16 L 12.32,96 12.122229,96.32 Z M 4.32,96 H 4.16 V 95.84 95.68 H 4.32 4.48 V 95.84 96 Z m 3.3257635,0 H 7.36 V 95.714237 95.428474 L 7.823703,95.250534 8.2874064,95.072595 8.1094669,95.536298 7.931527,96 Z M 13.6,96 h -0.16 v -0.16 -0.16 h 0.16 0.16 V 95.84 96 Z M 0.48,95.04 H 0.32 v -0.16 -0.16 h 0.16 0.16 v 0.16 0.16 z m 10.4,0 H 10.453333 L 10.666667,94.826666 10.88,94.613334 11.093333,94.826666 11.306667,95.04 Z m 1.76,0 h -0.16 v -0.16 -0.16 h 0.16 0.16 v 0.16 0.16 z M 2.4533333,94.613334 2.24,94.826666 V 94.4 93.973334 L 2.4533333,94.186666 2.6666667,94.4 Z m 3.8200001,0.02 L 6.08,94.826666 6.105264,94.213334 6.130528,93.6 6.2985981,94.02 6.4666682,94.44 6.273335,94.633334 Z M 14.24,94.72 H 14.08 V 94.56 94.4 h 0.16 0.16 v 0.16 0.16 z m -2.917771,-0.64 h -0.16 L 11.36,93.76 11.557771,93.44 h 0.16 0.16 L 11.68,93.76 11.482229,94.08 Z M 8.48,93.76 H 8.32 V 93.6 93.44 h 0.16 0.16 v 0.16 0.16 z m -8,-0.32 H 0.32 v -0.16 -0.16 h 0.16 0.16 v 0.16 0.16 z M 12.373333,93.333334 12.16,93.546666 V 93.12 92.693334 L 12.373333,92.906666 12.586667,93.12 Z M 2.08,93.12 H 1.92 V 92.96 92.8 h 0.16 0.16 v 0.16 0.16 z m 0.96,0 H 2.88 V 92.96 92.8 H 3.04 3.2 v 0.16 0.16 z m 3.84,0 H 6.72 V 92.96 92.8 h 0.16 0.16 v 0.16 0.16 z m 3.2,0 H 9.92 V 92.96 92.8 h 0.16 0.16 v 0.16 0.16 z M 9.44,92.8 H 9.28 V 92.64 92.48 H 9.44 9.6 v 0.16 0.16 z M 2.08,92.48 H 1.92 v -0.16 -0.16 h 0.16 0.16 v 0.16 0.16 z M 2.7733333,92.373334 2.56,92.586666 V 92.16 91.733334 L 2.7733333,91.946666 2.9866667,92.16 Z M 13.6,92.48 h -0.16 v -0.16 -0.16 h 0.16 0.16 v 0.16 0.16 z M 4.2822291,92.16 h -0.16 L 4.32,91.84 4.5177709,91.52 h 0.16 0.16 L 4.64,91.84 4.4422291,92.16 Z M 6.88,92.16 H 6.72 V 92 91.84 H 6.88 7.04 V 92 92.16 Z M 1.76,91.52 H 1.6 V 91.36 91.2 h 0.16 0.16 v 0.16 0.16 z m 8,0 H 9.6 V 91.36 91.2 h 0.16 0.16 v 0.16 0.16 z m 0.64,0 H 10.24 V 91.36 91.2 h 0.16 0.16 v 0.16 0.16 z m 1.28,0 H 11.52 V 91.36 91.2 h 0.16 0.16 v 0.16 0.16 z m 2.56,0 H 14.08 V 91.36 91.2 h 0.16 0.16 v 0.16 0.16 z M 0.16,91.2 H 0 v -0.16 -0.16 h 0.16 0.16 v 0.16 0.16 z m 5.44,0 H 5.44 V 91.04 90.88 H 5.6 5.76 v 0.16 0.16 z m 5.44,0 h -0.16 v -0.16 -0.16 h 0.16 0.16 v 0.16 0.16 z M 8.48,90.88 H 8.32 v -0.16 -0.16 h 0.16 0.16 v 0.16 0.16 z m 3.52,0 H 11.84 V 90.72 90.56 H 12 12.16 v 0.16 0.16 z m 2.24,0 h -0.16 v -0.16 -0.16 h 0.16 0.16 v 0.16 0.16 z M 6.56,90.56 H 6.4 V 90.4 90.24 h 0.16 0.16 v 0.16 0.16 z m 1.28,0 H 7.68 V 90.4 90.24 H 7.84 8 v 0.16 0.16 z m 5.76,0 H 13.44 V 90.4 90.24 h 0.16 0.16 v 0.16 0.16 z M 2.08,90.24 H 1.92 v -0.16 -0.16 h 0.16 0.16 v 0.16 0.16 z m 3.8022291,0 h -0.16 L 5.92,89.92 6.1177709,89.6 h 0.16 0.16 L 6.24,89.92 6.0422291,90.24 Z m 4.8377709,0 h -0.16 v -0.16 -0.16 h 0.16 0.16 v 0.16 0.16 z M 10.119182,89.92 H 9.9983645 L 9.5591824,89.36 9.12,88.8 l 0.56,0.439181 0.56,0.439184 V 89.799181 89.92 Z M 12,89.6 H 11.84 V 89.44 89.28 H 12 12.16 v 0.16 0.16 z m 1.28,-0.32 h -0.16 v -0.16 -0.16 h 0.16 0.16 v 0.16 0.16 z M 6.24,88.96 H 6.08 V 88.8 88.64 H 6.24 6.4 v 0.16 0.16 z m 7.36,-0.32 h -0.16 v -0.16 -0.16 h 0.16 0.16 v 0.16 0.16 z m -3.2,-0.96 h -0.16 v -0.16 -0.16 h 0.16 0.16 v 0.16 0.16 z m 2.88,0 h -0.16 v -0.16 -0.16 h 0.16 0.16 v 0.16 0.16 z m 0.69193,-0.24 -0.161404,0.4 v -0.8 -0.8 l 0.161404,0.4 0.161403,0.4 z M 3.36,87.36 H 3.2 V 87.2 87.04 h 0.16 0.16 v 0.16 0.16 z M 4.48,87.04 H 4.0533334 L 4.2666666,86.826666 4.48,86.613334 4.6933334,86.826666 4.9066666,87.04 Z m 5.629139,-0.32 H 9.9983645 L 9.6,86.24 9.2016355,85.76 H 9.5265811 9.851527 l 0.184193,0.48 0.184194,0.48 z M 12.373333,86.613334 12.16,86.826666 V 86.4 85.973334 L 12.373333,86.186666 12.586667,86.4 Z M 14.098885,85.76 H 13.797771 L 13.602265,85.443664 13.40676,85.127331 13.90338,85.317901 14.4,85.508474 V 85.634237 85.76 Z M 4.9222291,85.44 h -0.16 L 4.96,85.12 5.1577709,84.8 h 0.16 0.16 L 5.28,85.12 5.0822291,85.44 Z M 6.24,85.44 H 6.08 V 85.28 85.12 H 6.24 6.4 v 0.16 0.16 z M 3.68,85.12 H 3.52 V 84.96 84.8 h 0.16 0.16 v 0.16 0.16 z M 6.88,84.8 H 6.72 v -0.16 -0.16 h 0.16 0.16 v 0.16 0.16 z m 7.36,0 h -0.16 v -0.16 -0.16 h 0.16 0.16 v 0.16 0.16 z M 1.76,84.48 H 1.6 v -0.16 -0.16 h 0.16 0.16 v 0.16 0.16 z m 10.24,0 H 11.84 V 84.32 84.16 H 12 12.16 v 0.16 0.16 z M 0.12222912,84.16 h -0.16 L 0.16,83.84 0.35777088,83.52 h 0.16 0.16 L 0.48,83.84 0.28222912,84.16 Z M 6.08,84.16 H 5.6533334 L 5.8666666,83.946666 6.08,83.733334 6.2933334,83.946666 6.5066666,84.16 Z m 8.16,0 H 14.08 V 84 83.84 h 0.16 0.16 V 84 84.16 Z M 2.08,83.52 H 1.92 V 83.36 83.2 h 0.16 0.16 v 0.16 0.16 z M 6.978199,83.368467 6.7990646,83.547603 6.5805738,82.973802 6.3620829,82.4 6.7597082,82.794666 7.1573334,83.189334 Z M 1.12,82.88 H 0.96 v -0.16 -0.16 h 0.16 0.16 v 0.16 0.16 z m 11.84,0 H 12.8 v -0.16 -0.16 h 0.16 0.16 v 0.16 0.16 z M 0.8,82.24 H 0.64 V 82.08 81.92 H 0.8 0.96 v 0.16 0.16 z m 4.16,0 H 4.8 v -0.16 -0.16 h 0.16 0.16 v 0.16 0.16 z m 4.8,0 H 9.6 v -0.16 -0.16 h 0.16 0.16 v 0.16 0.16 z m 0.96,-0.32 H 10.56 V 81.76 81.6 h 0.16 0.16 v 0.16 0.16 z M 8.16,81.28 H 8 v -0.16 -0.16 h 0.16 0.16 v 0.16 0.16 z m 5.44,0 h -0.16 v -0.16 -0.16 h 0.16 0.16 v 0.16 0.16 z M 2.4,80.64 H 2.24 V 80.48 80.32 H 2.4 2.56 v 0.16 0.16 z m 5.0822291,-0.32 h -0.16 L 7.52,80 7.7177709,79.68 h 0.16 0.16 L 7.84,80 7.6422291,80.32 Z M 10.72,80.32 H 10.56 V 80.16 80 h 0.16 0.16 v 0.16 0.16 z M 9.44,80 H 9.28 V 79.84 79.68 H 9.44 9.6 V 79.84 80 Z M 3.68,79.36 H 3.52 V 79.2 79.04 h 0.16 0.16 v 0.16 0.16 z m 3.2,0 H 6.72 V 79.2 79.04 h 0.16 0.16 v 0.16 0.16 z m 6.08,0 H 12.8 V 79.2 79.04 h 0.16 0.16 v 0.16 0.16 z m 1.28,0 H 14.08 V 79.2 79.04 h 0.16 0.16 v 0.16 0.16 z M 1.76,78.72 H 1.6 V 78.56 78.4 h 0.16 0.16 v 0.16 0.16 z m 7.68,0 H 9.28 V 78.56 78.4 H 9.44 9.6 v 0.16 0.16 z m 3.2,-0.32 h -0.16 v -0.16 -0.16 h 0.16 0.16 v 0.16 0.16 z M 0.48,78.08 H 0.32 v -0.16 -0.16 h 0.16 0.16 v 0.16 0.16 z m 1.28,0 H 1.6 v -0.16 -0.16 h 0.16 0.16 v 0.16 0.16 z m 11.2,-0.64 H 12.8 v -0.16 -0.16 h 0.16 0.16 v 0.16 0.16 z M 2.4533333,77.013334 2.24,77.226666 V 76.8 76.373334 L 2.4533333,76.586666 2.6666667,76.8 Z M 3.36,77.12 H 3.2 V 76.96 76.8 h 0.16 0.16 v 0.16 0.16 z M 5.92,76.8 H 5.76 v -0.16 -0.16 h 0.16 0.16 v 0.16 0.16 z M 7.84,76.48 H 7.68 V 76.32 76.16 H 7.84 8 v 0.16 0.16 z m 3.2,0 h -0.16 v -0.16 -0.16 h 0.16 0.16 v 0.16 0.16 z M 3.8211146,76.16 H 3.4822291 L 3.68,75.84 3.8777709,75.52 H 4.0188854 4.16 v 0.32 0.32 z m 9.7977704,0 H 13.477771 L 13.249443,75.790557 13.021115,75.421114 13.390557,75.649443 13.76,75.87777 V 76.018886 76.16 Z M 0.8,75.52 H 0.64 V 75.36 75.2 H 0.8 0.96 v 0.16 0.16 z m 5.44,0 H 6.08 V 75.36 75.2 H 6.24 6.4 v 0.16 0.16 z m 5.76,0 H 11.84 V 75.36 75.2 H 12 12.16 v 0.16 0.16 z M 6.88,75.2 H 6.72 v -0.16 -0.16 h 0.16 0.16 v 0.16 0.16 z m 1.92,0 H 8.64 V 75.04 74.88 H 8.8 8.96 v 0.16 0.16 z m 5.44,-0.32 h -0.16 v -0.16 -0.16 h 0.16 0.16 v 0.16 0.16 z M 0.21333333,74.453334 0,74.666666 V 74.24 73.813334 L 0.21333333,74.026666 0.42666666,74.24 Z M 5.92,74.56 H 5.76 V 74.4 74.24 h 0.16 0.16 v 0.16 0.16 z M 8.8533334,74.453334 8.64,74.666666 V 74.24 73.813334 L 8.8533334,74.026666 9.0666666,74.24 Z M 11.68,74.56 H 11.52 V 74.4 74.24 h 0.16 0.16 v 0.16 0.16 z M 2.72,74.24 H 2.56 v -0.16 -0.16 h 0.16 0.16 v 0.16 0.16 z M 5.3333334,74.133334 5.12,74.346666 V 73.92 73.493334 L 5.3333334,73.706666 5.5466666,73.92 Z M 12.8,74.24 H 12.373333 L 12.586667,74.026666 12.8,73.813334 13.013333,74.026666 13.226667,74.24 Z M 2.08,73.92 H 1.92 V 73.76 73.6 h 0.16 0.16 v 0.16 0.16 z m 7.36,0 H 9.28 V 73.76 73.6 H 9.44 9.6 v 0.16 0.16 z M 2.08,72.96 H 1.92 V 72.8 72.64 h 0.16 0.16 v 0.16 0.16 z m 7.52,0 H 9.1733334 L 9.3866666,72.746666 9.6,72.533334 9.8133334,72.746666 10.026667,72.96 Z m 1.44,0 H 10.88 V 72.8 72.64 h 0.16 0.16 v 0.16 0.16 z M 10.4,72.64 h -0.16 v -0.16 -0.16 h 0.16 0.16 v 0.16 0.16 z m 2.202229,0 h -0.16 L 12.64,72.32 12.837771,72 h 0.16 0.16 L 12.96,72.32 12.762229,72.64 Z M 3.36,72.32 H 3.2 V 72.16 72 h 0.16 0.16 v 0.16 0.16 z m 2.24,0 H 5.44 V 72.16 72 H 5.6 5.76 v 0.16 0.16 z m 1.28,0 H 6.72 V 72.16 72 h 0.16 0.16 v 0.16 0.16 z M 2.4533333,71.893334 2.24,72.106666 V 71.68 71.253334 L 2.4533333,71.466666 2.6666667,71.68 Z M 0.8,71.68 H 0.64 V 71.52 71.36 H 0.8 0.96 v 0.16 0.16 z m 11.2,0 H 11.84 V 71.52 71.36 H 12 12.16 v 0.16 0.16 z m 1.882229,0 h -0.16 L 13.92,71.36 14.117771,71.04 h 0.16 0.16 L 14.24,71.36 14.042229,71.68 Z M 8.48,71.36 H 8.32 V 71.2 71.04 h 0.16 0.16 v 0.16 0.16 z M 5.28,71.04 H 5.12 v -0.16 -0.16 h 0.16 0.16 v 0.16 0.16 z m 6.72,0 H 11.84 V 70.88 70.72 H 12 12.16 v 0.16 0.16 z m 0.64,0 h -0.16 v -0.16 -0.16 h 0.16 0.16 v 0.16 0.16 z M 7.52,70.72 H 7.36 V 70.56 70.4 h 0.16 0.16 v 0.16 0.16 z m 1.76,0 H 8.8533334 L 9.0666666,70.506666 9.28,70.293334 9.4933334,70.506666 9.7066666,70.72 Z m 1.44,0 H 10.56 V 70.56 70.4 h 0.16 0.16 v 0.16 0.16 z m -8,-0.32 H 2.56 v -0.16 -0.16 h 0.16 0.16 v 0.16 0.16 z m 5.44,0 H 8 v -0.16 -0.16 h 0.16 0.16 v 0.16 0.16 z m -8,-0.32 H 0 v -0.16 -0.16 h 0.16 0.16 v 0.16 0.16 z m 10.24,0 h -0.16 v -0.16 -0.16 h 0.16 0.16 v 0.16 0.16 z M 1.12,69.76 H 0.96 V 69.6 69.44 h 0.16 0.16 v 0.16 0.16 z m 3.84,0 H 4.8 V 69.6 69.44 h 0.16 0.16 v 0.16 0.16 z m 6.08,0 H 10.88 V 69.6 69.44 h 0.16 0.16 v 0.16 0.16 z M 2.3708608,69.44 H 1.9400863 L 2.1487697,68.896179 2.3574531,68.352358 2.4898452,68.749536 2.6222374,69.146714 3.1511187,68.733357 3.68,68.32 3.2408176,68.88 2.8016354,69.44 Z M 12.96,69.44 H 12.8 v -0.16 -0.16 h 0.16 0.16 v 0.16 0.16 z m -8,-0.32 H 4.8 V 68.96 68.8 h 0.16 0.16 v 0.16 0.16 z M 12.373333,69.013334 12.16,69.226666 V 68.8 68.373334 L 12.373333,68.586666 12.586667,68.8 Z M 1.76,68.8 H 1.6 v -0.16 -0.16 h 0.16 0.16 v 0.16 0.16 z m 6.72,0 H 8.32 v -0.16 -0.16 h 0.16 0.16 v 0.16 0.16 z m 0.64,0 H 8.96 v -0.16 -0.16 h 0.16 0.16 v 0.16 0.16 z M 4.32,68.48 H 4.16 v -0.16 -0.16 h 0.16 0.16 v 0.16 0.16 z m 0.64,0 H 4.8 v -0.16 -0.16 h 0.16 0.16 v 0.16 0.16 z m 8.64,0 h -0.16 v -0.16 -0.16 h 0.16 0.16 v 0.16 0.16 z M 0.76576358,68.16 H 0.64 V 67.858886 67.55777 L 0.95633459,67.362266 1.2726692,67.166758 1.0820982,67.663379 0.89152717,68.16 Z M 5.6,68.16 H 5.44 V 68 67.84 H 5.6 5.76 V 68 68.16 Z m 2.56,0 H 8 V 68 67.84 H 8.16 8.32 V 68 68.16 Z M 3.04,67.635722 2.56,67.819914 V 67.709139 67.598365 L 3.04,67.2 3.52,66.801635 v 0.324947 0.324944 z m 9.333333,0.09761 L 12.16,67.946666 V 67.52 67.093334 l 0.213333,0.213332 0.213334,0.213334 z m -4.4799996,-0.32 L 7.68,67.626666 V 67.2 66.773334 L 7.8933334,66.986666 8.1066666,67.2 Z M 0.16,67.2 H 0 v -0.16 -0.16 h 0.16 0.16 v 0.16 0.16 z m 1.92,0 H 1.92 v -0.16 -0.16 h 0.16 0.16 v 0.16 0.16 z m 7.04,0 H 8.96 v -0.16 -0.16 h 0.16 0.16 v 0.16 0.16 z M 1.1533333,66.793334 0.96,66.986666 0.98526304,66.373334 1.0105261,65.76 1.1785963,66.18 1.3466664,66.6 Z m 1.28,-0.32 L 2.24,66.666666 2.265263,66.053334 2.2905261,65.44 2.4585963,65.86 2.6266664,66.28 Z M 3.36,66.24 H 3.2 v -0.16 -0.16 h 0.16 0.16 v 0.16 0.16 z m 10.24,0 h -0.16 v -0.16 -0.16 h 0.16 0.16 v 0.16 0.16 z M 8.32,65.92 H 7.8933334 L 8.1066666,65.706666 8.32,65.493334 8.5333334,65.706666 8.7466666,65.92 Z m 3.2,0 H 11.2 V 65.581114 65.24223 l 0.32,0.19777 0.32,0.19777 V 65.778886 65.92 Z M 10.08,65.28 H 9.92 v -0.16 -0.16 h 0.16 0.16 v 0.16 0.16 z m 2.56,0 h -0.16 v -0.16 -0.16 h 0.16 0.16 v 0.16 0.16 z M 1.6,64.96 H 1.1733333 L 1.3866667,64.746666 1.6,64.533334 1.8133333,64.746666 2.0266667,64.96 Z m 1.4588854,0 H 2.9177709 L 2.6894427,64.590557 2.4611146,64.221114 2.8305573,64.449443 3.2,64.67777 V 64.818886 64.96 Z M 7.52,64.96 H 7.36 V 64.8 64.64 h 0.16 0.16 v 0.16 0.16 z m 3.84,-0.32 H 11.2 v -0.16 -0.16 h 0.16 0.16 v 0.16 0.16 z m 0.96,0 h -0.16 v -0.16 -0.16 h 0.16 0.16 v 0.16 0.16 z M 7.52,64.32 H 7.36 V 64.16 64 h 0.16 0.16 v 0.16 0.16 z M 1.12,64 H 0.96 V 63.84 63.68 H 1.12 1.28 V 63.84 64 Z m 10.56,0 h -0.16 v -0.16 -0.16 h 0.16 0.16 V 63.84 64 Z M 7.52,63.68 H 7.36 v -0.16 -0.16 h 0.16 0.16 v 0.16 0.16 z m 0.96,0 H 8.32 v -0.16 -0.16 h 0.16 0.16 v 0.16 0.16 z m 4.48,0 H 12.8 v -0.16 -0.16 h 0.16 0.16 v 0.16 0.16 z M 10.4,63.36 H 10.24 V 63.2 63.04 h 0.16 0.16 v 0.16 0.16 z M 4.96,63.04 H 4.8 v -0.16 -0.16 h 0.16 0.16 v 0.16 0.16 z m 2.56,0 H 7.36 v -0.16 -0.16 h 0.16 0.16 v 0.16 0.16 z m 0.96,0 H 8.32 v -0.16 -0.16 h 0.16 0.16 v 0.16 0.16 z m 4.8,0 h -0.16 v -0.16 -0.16 h 0.16 0.16 v 0.16 0.16 z M 6.2933334,62.613334 6.08,62.826666 V 62.4 61.973334 L 6.2933334,62.186666 6.5066666,62.4 Z M 11.36,62.72 H 11.2 V 62.56 62.4 h 0.16 0.16 v 0.16 0.16 z M 0.16,62.4 H 0 v -0.16 -0.16 h 0.16 0.16 v 0.16 0.16 z m 1.6,0 H 1.6 v -0.16 -0.16 h 0.16 0.16 v 0.16 0.16 z m 0.64,0 H 2.24 V 62.24 62.08 H 2.4 2.56 v 0.16 0.16 z m 2.24,0 H 4.48 V 62.24 62.08 H 4.64 4.8 v 0.16 0.16 z m 6.08,0 h -0.16 v -0.16 -0.16 h 0.16 0.16 v 0.16 0.16 z M 9.44,62.08 H 9.28 V 61.92 61.76 H 9.44 9.6 v 0.16 0.16 z M 1.76,61.76 H 1.6 V 61.6 61.44 h 0.16 0.16 v 0.16 0.16 z m 1.4588854,0 H 2.9177709 L 2.7222653,61.443664 2.5267598,61.127331 3.0233799,61.317901 3.52,61.508474 V 61.634237 61.76 Z M 0.76222912,61.12 h -0.16 L 0.8,60.8 0.99777088,60.48 h 0.16000002 0.16 L 1.12,60.8 0.92222912,61.12 Z M 11.073333,61.033334 10.88,61.226666 10.905264,60.613334 10.930528,60 l 0.16807,0.42 0.16807,0.42 -0.193333,0.193334 z M 1.76,60.8 H 1.6 v -0.16 -0.16 h 0.16 0.16 v 0.16 0.16 z m 7.36,0 H 8.96 v -0.16 -0.16 h 0.16 0.16 v 0.16 0.16 z M 7.2,60.48 H 7.04 V 60.32 60.16 H 7.2 7.36 v 0.16 0.16 z m 5.12,0 h -0.16 v -0.16 -0.16 h 0.16 0.16 v 0.16 0.16 z M 6.018199,60.008467 5.8390646,60.187603 5.6205738,59.613802 5.4020829,59.04 5.7997082,59.434666 6.1973334,59.829334 Z M 13.28,60.16 H 13.12 V 60 59.84 h 0.16 0.16 V 60 60.16 Z M 3.5456509,59.606013 2.7878077,59.804192 3.1259039,59.466096 3.464,59.128 3.8837472,59.267917 4.3034941,59.40783 Z M 9.76,59.52 H 9.6 V 59.36 59.2 h 0.16 0.16 v 0.16 0.16 z m 0.96,0 H 10.56 V 59.36 59.2 h 0.16 0.16 v 0.16 0.16 z M 3.68,58.88 H 3.52 v -0.16 -0.16 h 0.16 0.16 v 0.16 0.16 z m 10.56,0 h -0.16 v -0.16 -0.16 h 0.16 0.16 v 0.16 0.16 z M 4.32,58.56 H 4.16 V 58.4 58.24 h 0.16 0.16 v 0.16 0.16 z m 3.52,0 H 7.68 V 58.4 58.24 H 7.84 8 v 0.16 0.16 z M 10.133333,58.453334 9.92,58.666666 V 58.24 57.813334 L 10.133333,58.026666 10.346667,58.24 Z M 1.76,57.92 H 1.6 V 57.76 57.6 h 0.16 0.16 v 0.16 0.16 z m 0.96,0 H 2.56 V 57.76 57.6 h 0.16 0.16 v 0.16 0.16 z M 4,57.6 H 3.84 V 57.44 57.28 H 4 4.16 v 0.16 0.16 z m 1.92,0 H 5.76 v -0.16 -0.16 h 0.16 0.16 v 0.16 0.16 z m 3.52,0 H 9.28 V 57.44 57.28 H 9.44 9.6 v 0.16 0.16 z M 2.0988854,57.28 H 1.9577709 L 1.76,56.96 1.5622291,56.64 H 1.9011146 2.24 v 0.32 0.32 z M 3.04,57.28 H 2.88 V 57.12 56.96 H 3.04 3.2 v 0.16 0.16 z m 4.8,0 H 7.68 V 57.12 56.96 H 7.84 8 v 0.16 0.16 z M 5.92,56.96 H 5.76 V 56.8 56.64 h 0.16 0.16 v 0.16 0.16 z m 8.32,0 H 14.08 V 56.8 56.64 h 0.16 0.16 v 0.16 0.16 z M 0.48,56.64 H 0.32 v -0.16 -0.16 h 0.16 0.16 v 0.16 0.16 z m 3.52,0 H 3.84 V 56.48 56.32 H 4 4.16 v 0.16 0.16 z m 7.68,0 h -0.16 v -0.16 -0.16 h 0.16 0.16 v 0.16 0.16 z M 5.92,56.32 H 5.76 V 56.16 56 h 0.16 0.16 v 0.16 0.16 z m 2.56,0 H 8.32 V 56.16 56 h 0.16 0.16 v 0.16 0.16 z M 0.48,56 H 0.32 V 55.84 55.68 H 0.48 0.64 V 55.84 56 Z m 3.84,0 H 4.16 V 55.84 55.68 H 4.32 4.48 V 55.84 56 Z M 2.7733333,55.573334 2.56,55.786666 V 55.36 54.933334 L 2.7733333,55.146666 2.9866667,55.36 Z M 4.96,55.68 H 4.8 v -0.16 -0.16 h 0.16 0.16 v 0.16 0.16 z M 7.52,55.36 H 7.36 V 55.2 55.04 h 0.16 0.16 v 0.16 0.16 z m 2.24,0 H 9.6 V 55.2 55.04 h 0.16 0.16 v 0.16 0.16 z M 5.9733334,54.933334 5.76,55.146666 V 54.72 54.293334 L 5.9733334,54.506666 6.1866666,54.72 Z M 11.84,55.04 H 11.413333 L 11.626667,54.826666 11.84,54.613334 12.053333,54.826666 12.266667,55.04 Z M 3.04,54.72 H 2.88 V 54.56 54.4 H 3.04 3.2 v 0.16 0.16 z m 4.48,0 H 7.36 V 54.56 54.4 h 0.16 0.16 v 0.16 0.16 z m 3.482229,-0.32 h -0.16 L 11.04,54.08 11.237771,53.76 h 0.16 0.16 L 11.36,54.08 11.162229,54.4 Z M 1.12,54.08 H 0.96 v -0.16 -0.16 h 0.16 0.16 v 0.16 0.16 z m 7.04,0 H 8 v -0.16 -0.16 h 0.16 0.16 v 0.16 0.16 z M 12,53.76 H 11.84 V 53.6 53.44 H 12 12.16 v 0.16 0.16 z M 6.24,53.12 H 6.08 V 52.96 52.8 H 6.24 6.4 v 0.16 0.16 z m 3.2,0 H 9.28 V 52.96 52.8 H 9.44 9.6 v 0.16 0.16 z m 1.28,0 H 10.56 V 52.96 52.8 h 0.16 0.16 v 0.16 0.16 z M 4.64,52.8 H 4.48 V 52.64 52.48 H 4.64 4.8 v 0.16 0.16 z m 2.24,0 H 6.72 v -0.16 -0.16 h 0.16 0.16 v 0.16 0.16 z M 7.52,52.48 H 7.36 v -0.16 -0.16 h 0.16 0.16 v 0.16 0.16 z M 4,52.16 H 3.84 V 52 51.84 H 4 4.16 V 52 52.16 Z M 5.0133334,52.053334 4.8,52.266666 V 51.84 51.413334 L 5.0133334,51.626666 5.2266666,51.84 Z M 9.76,52.16 H 9.6 V 52 51.84 H 9.76 9.92 V 52 52.16 Z M 8.8,51.52 H 8.64 V 51.36 51.2 H 8.8 8.96 v 0.16 0.16 z m 2.56,0 H 11.2 V 51.36 51.2 h 0.16 0.16 v 0.16 0.16 z m 1.261115,0 H 12.48 V 51.2 50.88 h 0.338885 0.338886 L 12.96,51.2 12.762229,51.52 Z M 3.5897466,50.938253 3.2794736,51.248528 3.4638413,50.344262 3.6482093,49.44 l 0.1259049,0.59399 0.125905,0.593991 z M 2.24,50.88 H 1.92 V 50.541114 50.20223 L 2.24,50.4 2.56,50.59777 V 50.738886 50.88 Z M 0.96,50.56 H 0.53333334 L 0.74666666,50.346666 0.96,50.133334 1.1733333,50.346666 1.3866667,50.56 Z m 9.12,0 H 9.92 V 50.4 50.24 h 0.16 0.16 v 0.16 0.16 z M 8.48,50.24 H 8.32 v -0.16 -0.16 h 0.16 0.16 v 0.16 0.16 z m 2.88,-0.32 H 11.2 V 49.76 49.6 h 0.16 0.16 v 0.16 0.16 z M 6.9788854,49.595101 6.88,49.590198 6.4,49.28 5.92,48.969802 6.3011146,48.964899 6.6822291,48.96 6.88,49.28 7.0777709,49.6 6.9788854,49.595104 Z M 9.44,49.6 H 9.28 V 49.44 49.28 H 9.44 9.6 v 0.16 0.16 z M 2.08,49.28 H 1.92 v -0.16 -0.16 h 0.16 0.16 v 0.16 0.16 z m 8.018885,-0.32 H 9.9577709 L 9.7294426,48.590557 9.5011146,48.221114 9.8705574,48.449443 10.24,48.67777 V 48.818886 48.96 Z m 1.24223,0 H 11.2 v -0.32 -0.32 h 0.338885 0.338886 L 11.68,48.64 11.482229,48.96 Z m 1.030815,-0.24 -0.161404,0.4 v -0.8 -0.8 l 0.161404,0.4 0.161403,0.4 z M 0.16,48.64 H 0 v -0.16 -0.16 h 0.16 0.16 v 0.16 0.16 z m 8.32,0 H 8.32 v -0.16 -0.16 h 0.16 0.16 v 0.16 0.16 z M 2.4,48.32 H 2.24 V 48.16 48 H 2.4 2.56 v 0.16 0.16 z M 3.0933333,48.213334 2.88,48.426666 V 48 47.573334 L 3.0933333,47.786666 3.3066666,48 Z m 2.5600001,0 L 5.44,48.426666 V 48 47.573334 L 5.6533334,47.786666 5.8666666,48 Z m -1.28,-0.32 L 4.16,48.106666 V 47.68 47.253334 L 4.3733334,47.466666 4.5866666,47.68 Z M 6.88,47.68 H 6.72 v -0.16 -0.16 h 0.16 0.16 v 0.16 0.16 z m 7.04,0 h -0.16 v -0.16 -0.16 h 0.16 0.16 v 0.16 0.16 z M 2.4,47.36 H 2.24 V 47.2 47.04 H 2.4 2.56 v 0.16 0.16 z m 7.04,0 H 9.28 V 47.2 47.04 H 9.44 9.6 v 0.16 0.16 z m 1.92,0 H 11.2 V 47.2 47.04 h 0.16 0.16 v 0.16 0.16 z M 6.56,47.04 H 6.4 v -0.16 -0.16 h 0.16 0.16 v 0.16 0.16 z m 6.4,0 H 12.8 v -0.16 -0.16 h 0.16 0.16 v 0.16 0.16 z M 11.68,46.72 H 11.52 V 46.56 46.4 h 0.16 0.16 v 0.16 0.16 z M 7.52,46.4 H 7.36 v -0.16 -0.16 h 0.16 0.16 v 0.16 0.16 z m 2.0900432,0 H 9.3000864 L 9.4842797,45.92 9.668473,45.44 H 9.7942365 9.92 v 0.48 0.48 z M 13.28,46.4 h -0.16 v -0.16 -0.16 h 0.16 0.16 v 0.16 0.16 z M 6.88,46.08 H 6.72 v -0.16 -0.16 h 0.16 0.16 v 0.16 0.16 z M 9.12,45.76 H 8.96 V 45.6 45.44 h 0.16 0.16 v 0.16 0.16 z M 0.8,44.8 H 0.64 V 44.64 44.48 H 0.8 0.96 v 0.16 0.16 z M 2.4,44.48 H 2.24 V 44.32 44.16 H 2.4 2.56 v 0.16 0.16 z m 3.52,0 H 5.76 v -0.16 -0.16 h 0.16 0.16 v 0.16 0.16 z m 6.72,-0.32 H 12.48 V 44 43.84 h 0.16 0.16 V 44 44.16 Z M 3.68,43.84 H 3.52 v -0.16 -0.16 h 0.16 0.16 v 0.16 0.16 z m 2.8988854,0 H 6.4377709 L 6.2094426,43.470557 5.9811146,43.101114 6.3505574,43.329443 6.72,43.55777 V 43.698886 43.84 Z M 0.8,43.2 H 0.64 V 43.04 42.88 H 0.8 0.96 v 0.16 0.16 z m 6.4,0 H 7.04 V 43.04 42.88 H 7.2 7.36 v 0.16 0.16 z M 2.08,42.88 H 1.92 v -0.16 -0.16 h 0.16 0.16 v 0.16 0.16 z m 1.92,0 H 3.84 V 42.72 42.56 H 4 4.16 v 0.16 0.16 z m 5.76,0 H 9.6 v -0.16 -0.16 h 0.16 0.16 v 0.16 0.16 z M 6.2933334,42.453334 6.08,42.666666 V 42.24 41.813334 L 6.2933334,42.026666 6.5066666,42.24 Z M 14.24,42.56 H 14.08 V 42.4 42.24 h 0.16 0.16 v 0.16 0.16 z M 9.76,42.24 H 9.6 v -0.16 -0.16 h 0.16 0.16 v 0.16 0.16 z M 13.6,41.6 h -0.16 v -0.16 -0.16 h 0.16 0.16 v 0.16 0.16 z M 1.76,41.28 H 1.6 v -0.16 -0.16 h 0.16 0.16 v 0.16 0.16 z M 5.28,40.96 H 5.12 V 40.8 40.64 h 0.16 0.16 v 0.16 0.16 z M 2.4,40.64 H 2.24 V 40.48 40.32 H 2.4 2.56 v 0.16 0.16 z m 1.5657635,0 H 3.84 V 40.16 39.68 H 4.1499568 4.4599136 L 4.2757203,40.16 4.091527,40.64 Z M 8.48,40.32 H 8.32 V 40.16 40 h 0.16 0.16 v 0.16 0.16 z M 3.36,40 H 3.2 V 39.84 39.68 H 3.36 3.52 V 39.84 40 Z M 11.413333,39.893334 11.2,40.106666 V 39.68 39.253334 L 11.413333,39.466666 11.626667,39.68 Z M 7.84,39.68 H 7.68 V 39.52 39.36 H 7.84 8 v 0.16 0.16 z m 2.88,0 h -0.16 v -0.16 -0.16 h 0.16 0.16 v 0.16 0.16 z M 0.48,39.36 H 0.32 V 39.2 39.04 h 0.16 0.16 v 0.16 0.16 z M 2.4,39.04 H 2.24 V 38.88 38.72 H 2.4 2.56 v 0.16 0.16 z m 9.28,0 h -0.16 v -0.16 -0.16 h 0.16 0.16 v 0.16 0.16 z m 0.64,0 h -0.16 v -0.16 -0.16 h 0.16 0.16 v 0.16 0.16 z M 3.04,38.72 H 2.88 V 38.56 38.4 H 3.04 3.2 v 0.16 0.16 z m 0.9222291,0 h -0.16 L 4,38.4 4.1977709,38.08 h 0.16 0.16 L 4.32,38.4 4.1222291,38.72 Z M 6.56,38.72 H 6.4 V 38.56 38.4 h 0.16 0.16 v 0.16 0.16 z m 1.28,0 H 7.68 V 38.56 38.4 H 7.84 8 v 0.16 0.16 z M 8.8333334,38.633334 8.64,38.826666 8.665264,38.213334 8.690528,37.6 8.8585981,38.02 9.0266682,38.44 8.833335,38.633334 Z m -7.6600001,-0.34 L 0.96,38.506666 V 38.08 37.653334 L 1.1733333,37.866666 1.3866667,38.08 Z m 9.9199997,0 L 10.88,38.506666 V 38.08 37.653334 L 11.093333,37.866666 11.306667,38.08 Z M 12.32,38.4 h -0.16 v -0.16 -0.16 h 0.16 0.16 v 0.16 0.16 z M 9.76,38.08 H 9.6 v -0.16 -0.16 h 0.16 0.16 v 0.16 0.16 z M 3.68,37.76 H 3.52 V 37.6 37.44 h 0.16 0.16 v 0.16 0.16 z m 3.84,0 H 7.36 V 37.6 37.44 h 0.16 0.16 v 0.16 0.16 z M 1.44,37.44 H 1.28 V 37.28 37.12 H 1.44 1.6 v 0.16 0.16 z m 5.44,0 H 6.72 v -0.16 -0.16 h 0.16 0.16 v 0.16 0.16 z m 4.8,0 h -0.16 v -0.16 -0.16 h 0.16 0.16 v 0.16 0.16 z M 0.16,37.12 H 0 V 36.96 36.8 h 0.16 0.16 v 0.16 0.16 z M 6.88,36.8 H 6.72 v -0.16 -0.16 h 0.16 0.16 v 0.16 0.16 z m 5.44,0 h -0.16 v -0.16 -0.16 h 0.16 0.16 v 0.16 0.16 z M 7.52,36.48 H 7.36 v -0.16 -0.16 h 0.16 0.16 v 0.16 0.16 z m 6.042229,0 h -0.16 L 13.6,36.16 13.797771,35.84 h 0.16 0.16 L 13.92,36.16 13.722229,36.48 Z M 1.44,36.16 H 1.28 V 36 35.84 H 1.44 1.6 V 36 36.16 Z M 12.033333,36.07333 11.84,36.266662 l 0.02526,-0.613332 0.02526,-0.613334 0.16807,0.42 0.16807,0.42 -0.193333,0.193334 z M 7.52,35.84 H 7.36 v -0.16 -0.16 h 0.16 0.16 v 0.16 0.16 z m 1.4211146,0 H 8.64 V 35.714237 35.588474 L 9.1366202,35.397901 9.6332403,35.207331 9.4377347,35.523664 9.2422291,35.84 Z M 0.8,35.2 H 0.64 V 35.04 34.88 H 0.8 0.96 v 0.16 0.16 z M 3.04,34.88 H 2.88 V 34.72 34.56 H 3.04 3.2 v 0.16 0.16 z m 10.24,0 H 13.157771 L 12.992962,34.613334 12.828153,34.346666 H 13.28 13.731847 L 13.567038,34.613334 13.402229,34.88 Z M 1.44,34.56 H 1.28 V 34.4 34.24 H 1.44 1.6 v 0.16 0.16 z m 10.56,0 H 11.84 V 34.4 34.24 H 12 12.16 v 0.16 0.16 z m -0.997771,-0.32 h -0.16 L 11.04,33.92 11.237771,33.6 h 0.16 0.16 L 11.36,33.92 11.162229,34.24 Z M 1.12,33.92 H 0.96 V 33.76 33.6 h 0.16 0.16 v 0.16 0.16 z m 1.12,0 H 1.8133333 L 2.0266667,33.706666 2.24,33.493334 2.4533333,33.706666 2.6666667,33.92 Z m 3.04,0 H 5.12 V 33.76 33.6 h 0.16 0.16 v 0.16 0.16 z m 8.16,0 H 13.013333 L 13.226667,33.706666 13.44,33.493334 13.653333,33.706666 13.866667,33.92 Z M 8.7622291,33.6 h -0.16 L 8.8,33.28 8.9977709,32.96 h 0.16 0.16 L 9.12,33.28 8.9222291,33.6 Z M 2.0406886,32.853334 H 1.5786667 L 1.8843269,32.547674 2.1899872,32.242013 2.0040082,31.721006 1.8180292,31.2 l 0.2210206,0.196702 0.2210205,0.196702 0.1213202,0.629966 0.1213201,0.629964 z M 6.9319299,32.4 6.7705264,32.8 V 32 31.2 L 6.9319299,31.6 7.0933334,32 Z M 1.12,32.32 H 0.96 V 32.16 32 h 0.16 0.16 v 0.16 0.16 z m 8,0 H 8.96 V 32.16 32 h 0.16 0.16 v 0.16 0.16 z M 5.0133334,31.893333 4.8,32.106666 V 31.68 31.253333 L 5.0133334,31.466667 5.2266666,31.68 Z M 3.36,31.68 H 3.2 v -0.16 -0.16 h 0.16 0.16 v 0.16 0.16 z m 5.12,0 H 8.32 v -0.16 -0.16 h 0.16 0.16 v 0.16 0.16 z m 2.24,-0.32 H 10.56 V 31.2 31.04 h 0.16 0.16 v 0.16 0.16 z m 2.56,0 H 13.12 V 31.2 31.04 h 0.16 0.16 v 0.16 0.16 z M 6.24,31.04 H 6.08 V 30.88 30.72 H 6.24 6.4 v 0.16 0.16 z M 8.16,30.72 H 8 V 30.56 30.4 h 0.16 0.16 v 0.16 0.16 z m 0.64,0 H 8.64 V 30.56 30.4 H 8.8 8.96 v 0.16 0.16 z M 12,30.4 H 11.84 V 30.24 30.08 H 12 12.16 v 0.16 0.16 z m 1.28,0 h -0.16 v -0.16 -0.16 h 0.16 0.16 v 0.16 0.16 z M 1.76,29.76 H 1.6 V 29.6 29.44 h 0.16 0.16 v 0.16 0.16 z m 8.96,0 H 10.56 V 29.6 29.44 h 0.16 0.16 v 0.16 0.16 z M 12.053333,29.653333 11.84,29.866667 V 29.44 29.013333 L 12.053333,29.226667 12.266667,29.44 Z M 6.88,29.44 H 6.72 v -0.16 -0.16 h 0.16 0.16 v 0.16 0.16 z m 1.9388854,0 H 8.6777709 L 8.4494426,29.070557 8.2211146,28.701115 8.5905574,28.929443 8.96,29.157771 V 29.298885 29.44 Z m -7.36,-0.32 H 1.3177709 L 1.0894427,28.750557 0.86111456,28.381115 1.2305573,28.609443 1.6,28.837771 V 28.978885 29.12 Z M 3.0933333,29.013333 2.88,29.226667 V 28.8 28.373333 L 3.0933333,28.586667 3.3066666,28.8 Z M 5.5622291,29.12 h -0.16 L 5.6,28.8 5.7977709,28.48 h 0.16 0.16 L 5.92,28.8 5.7222291,29.12 Z M 12.64,29.12 H 12.48 V 28.96 28.8 h 0.16 0.16 v 0.16 0.16 z M 7.2,28.8 H 7.04 V 28.64 28.48 H 7.2 7.36 v 0.16 0.16 z m 3.52,0 h -0.16 v -0.16 -0.16 h 0.16 0.16 v 0.16 0.16 z M 8.48,28.48 H 8.32 v -0.16 -0.16 h 0.16 0.16 v 0.16 0.16 z M 0.35970806,27.925333 -0.03791722,28.32 0.18057374,27.746199 0.3990647,27.172398 0.57819901,27.351532 0.75733334,27.530667 Z M 2.4,28.16 H 2.24 V 28 27.84 H 2.4 2.56 V 28 28.16 Z m 10.88,0 H 13.12 V 28 27.84 h 0.16 0.16 V 28 28.16 Z m -8,-0.32 H 5.12 v -0.16 -0.16 h 0.16 0.16 v 0.16 0.16 z M 6.9133334,27.753333 6.72,27.946667 6.745263,27.333333 6.7705264,26.72 6.9385965,27.14 7.1066666,27.56 Z M 8.8188854,27.84 H 8.6777709 L 8.4494426,27.470557 8.2211146,27.101115 8.5905574,27.329443 8.96,27.557771 V 27.698885 27.84 Z m 5.1011146,0 h -0.16 v -0.16 -0.16 h 0.16 0.16 v 0.16 0.16 z M 11.36,27.52 H 11.2 V 27.36 27.2 h 0.16 0.16 v 0.16 0.16 z M 2.4,27.2 H 2.24 V 27.04 26.88 H 2.4 2.56 v 0.16 0.16 z M 0.16,26.88 H 0 v -0.16 -0.16 h 0.16 0.16 v 0.16 0.16 z m 8.96,0 H 8.96 v -0.16 -0.16 h 0.16 0.16 v 0.16 0.16 z M 6.56,26.56 H 6.4 V 26.4 26.24 h 0.16 0.16 v 0.16 0.16 z m 4.48,0 H 10.88 V 26.4 26.24 h 0.16 0.16 v 0.16 0.16 z M 0.8,26.24 H 0.64 V 26.08 25.92 H 0.8 0.96 v 0.16 0.16 z M 6.56,25.92 H 6.4 V 25.76 25.6 h 0.16 0.16 v 0.16 0.16 z m 0.96,0 H 7.36 V 25.76 25.6 h 0.16 0.16 v 0.16 0.16 z m 3.2,0 H 10.56 V 25.76 25.6 h 0.16 0.16 v 0.16 0.16 z m 3.52,0 H 14.08 V 25.76 25.6 h 0.16 0.16 v 0.16 0.16 z M 5.6,25.6 H 5.44 V 25.44 25.28 H 5.6 5.76 v 0.16 0.16 z m 7.04,0 h -0.16 v -0.16 -0.16 h 0.16 0.16 v 0.16 0.16 z M 4,25.28 H 3.84 V 25.12 24.96 H 4 4.16 v 0.16 0.16 z m 2.24,0 H 6.08 V 25.12 24.96 H 6.24 6.4 v 0.16 0.16 z m 3.52,0 H 9.6 v -0.16 -0.16 h 0.16 0.16 v 0.16 0.16 z M 5.2988854,24.96 H 5.1577709 L 4.9294426,24.590557 4.7011146,24.221115 5.0705574,24.449443 5.44,24.677771 V 24.818885 24.96 Z M 3.04,24.64 H 2.88 V 24.48 24.32 H 3.04 3.2 v 0.16 0.16 z m 3.84,0 H 6.7577709 L 6.5929619,24.373333 6.4281526,24.106667 H 6.88 7.3318474 L 7.1670381,24.373333 7.0022291,24.64 Z m 4.48,0 H 11.2 v -0.16 -0.16 h 0.16 0.16 v 0.16 0.16 z M 5.92,24 H 5.76 V 23.84 23.68 H 5.92 6.08 V 23.84 24 Z m 5.44,0 H 11.2 v -0.16 -0.16 h 0.16 0.16 V 23.84 24 Z m 2.88,0 h -0.16 v -0.16 -0.16 h 0.16 0.16 V 23.84 24 Z M 0.16,23.68 H 0 v -0.16 -0.16 h 0.16 0.16 v 0.16 0.16 z m 12.48,0 h -0.16 v -0.16 -0.16 h 0.16 0.16 v 0.16 0.16 z m 0.64,0 h -0.16 v -0.16 -0.16 h 0.16 0.16 v 0.16 0.16 z M 2.08,23.36 H 1.92 V 23.2 23.04 h 0.16 0.16 v 0.16 0.16 z M 4.0920842,23.083747 3.9521686,23.503494 3.7539882,22.745651 3.5558077,21.987808 3.893904,22.325904 4.232,22.664 Z M 4.64,23.04 H 4.48 V 22.88 22.72 H 4.64 4.8 v 0.16 0.16 z m 1.28,0 H 5.76 v -0.16 -0.16 h 0.16 0.16 v 0.16 0.16 z M 1.76,22.72 H 1.6 V 22.56 22.4 h 0.16 0.16 v 0.16 0.16 z m 4.8,0 H 6.4 V 22.56 22.4 h 0.16 0.16 v 0.16 0.16 z m 4.48,-0.32 h -0.16 v -0.16 -0.16 h 0.16 0.16 v 0.16 0.16 z M 7.2533334,21.973333 7.04,22.186667 V 21.76 21.333333 L 7.2533334,21.546667 7.4666666,21.76 Z M 9.12,22.08 H 8.96 v -0.16 -0.16 h 0.16 0.16 v 0.16 0.16 z m 1.6,-0.32 H 10.56 V 21.6 21.44 h 0.16 0.16 v 0.16 0.16 z m 2.88,0 H 13.44 V 21.6 21.44 h 0.16 0.16 v 0.16 0.16 z M 3.04,21.12 H 2.88 V 20.96 20.8 H 3.04 3.2 v 0.16 0.16 z M 2.4,20.8 H 2.24 V 20.64 20.48 H 2.4 2.56 v 0.16 0.16 z m 1.28,0 H 3.52 v -0.16 -0.16 h 0.16 0.16 v 0.16 0.16 z M 1.76,20.48 H 1.6 v -0.16 -0.16 h 0.16 0.16 v 0.16 0.16 z m 3.84,0 H 5.44 V 20.32 20.16 H 5.6 5.76 v 0.16 0.16 z m 7.68,0 h -0.16 v -0.16 -0.16 h 0.16 0.16 v 0.16 0.16 z M 6.6791824,20.1551 6.56,20.1502 6.0892672,19.852499 5.6185347,19.554799 5.8036672,19.369666 5.9887997,19.184534 6.3935821,19.672267 6.7983645,20.16 Z M 10.4,20.16 H 10.24 V 20 19.84 h 0.16 0.16 V 20 20.16 Z M 3.0933333,19.733333 2.88,19.946667 V 19.52 19.093333 L 3.0933333,19.306667 3.3066666,19.52 Z M 12.32,19.52 H 12.16 V 19.36 19.2 h 0.16 0.16 v 0.16 0.16 z M 1.44,18.88 H 1.28 V 18.72 18.56 H 1.44 1.6 v 0.16 0.16 z m 2.88,0 H 4.16 v -0.16 -0.16 h 0.16 0.16 v 0.16 0.16 z m 1.28,0 H 5.44 V 18.72 18.56 H 5.6 5.76 v 0.16 0.16 z m 7.68,0 h -0.16 v -0.16 -0.16 h 0.16 0.16 v 0.16 0.16 z M 0.16,18.56 H 0 V 18.4 18.24 h 0.16 0.16 v 0.16 0.16 z M 5.28,18.24 H 5.12 v -0.16 -0.16 h 0.16 0.16 v 0.16 0.16 z m 8.64,0 h -0.16 v -0.16 -0.16 h 0.16 0.16 v 0.16 0.16 z M 0.16,17.92 H 0 V 17.76 17.6 h 0.16 0.16 v 0.16 0.16 z m 0.96,0 H 0.96 V 17.76 17.6 h 0.16 0.16 v 0.16 0.16 z M 13.242229,17.6 h -0.16 L 13.28,17.28 13.477771,16.96 h 0.16 0.16 L 13.6,17.28 13.402229,17.6 Z M 12,17.28 H 11.84 V 17.12 16.96 H 12 12.16 v 0.16 0.16 z M 3.36,16.96 H 3.2 V 16.8 16.64 h 0.16 0.16 v 0.16 0.16 z m 2.56,0 H 5.76 V 16.8 16.64 h 0.16 0.16 v 0.16 0.16 z m 1.6,0 H 7.36 V 16.8 16.64 h 0.16 0.16 v 0.16 0.16 z M 8.8533334,16.853333 8.64,17.066667 V 16.64 16.213333 L 8.8533334,16.426667 9.0666666,16.64 Z M 10.08,16.96 H 9.92 V 16.8 16.64 h 0.16 0.16 v 0.16 0.16 z M 1.76,16.32 H 1.6 V 16.16 16 h 0.16 0.16 v 0.16 0.16 z m 0.64,0 H 2.24 V 16.16 16 H 2.4 2.56 v 0.16 0.16 z M 0.8,16 H 0.64 V 15.84 15.68 H 0.8 0.96 V 15.84 16 Z m 9.28,0 H 9.92 v -0.16 -0.16 h 0.16 0.16 V 15.84 16 Z M 5.6,15.68 H 5.44 V 15.52 15.36 H 5.6 5.76 v 0.16 0.16 z m 1.28,0 H 6.72 v -0.16 -0.16 h 0.16 0.16 v 0.16 0.16 z m 5.12,0 H 11.84 V 15.52 15.36 H 12 12.16 v 0.16 0.16 z M 8.8,15.36 H 8.64 V 15.2 15.04 H 8.8 8.96 v 0.16 0.16 z m 0.64,0 H 9.28 V 15.2 15.04 H 9.44 9.6 v 0.16 0.16 z m 4.48,0 H 13.76 V 15.2 15.04 h 0.16 0.16 v 0.16 0.16 z M 3.7333334,14.933333 3.52,15.146667 V 14.72 14.293333 L 3.7333334,14.506667 3.9466666,14.72 Z M 1.44,14.72 H 1.28 V 14.56 14.4 H 1.44 1.6 v 0.16 0.16 z m 7.36,0 H 8.64 V 14.56 14.4 H 8.8 8.96 v 0.16 0.16 z m 1.6,0 H 10.24 V 14.56 14.4 h 0.16 0.16 v 0.16 0.16 z m 1.6,0 H 11.84 V 14.56 14.4 H 12 12.16 v 0.16 0.16 z m 0.64,-0.32 h -0.16 v -0.16 -0.16 h 0.16 0.16 v 0.16 0.16 z M 7.5733334,13.973333 7.36,14.186667 V 13.76 13.333333 L 7.5733334,13.546667 7.7866666,13.76 Z M 13.28,14.08 h -0.16 v -0.16 -0.16 h 0.16 0.16 v 0.16 0.16 z M 0.16,13.76 H 0 V 13.6 13.44 h 0.16 0.16 v 0.16 0.16 z m 14.08,0 H 14.08 V 13.6 13.44 h 0.16 0.16 v 0.16 0.16 z M 1.12,13.44 H 0.96 v -0.16 -0.16 h 0.16 0.16 v 0.16 0.16 z m 2.5222291,-0.32 h -0.16 L 3.68,12.8 3.8777709,12.48 h 0.16 0.16 L 4,12.8 3.8022291,13.12 Z M 14.293333,13.013333 14.08,13.226667 V 12.8 12.373333 L 14.293333,12.586667 14.506667,12.8 Z M 5.28,12.8 H 5.12 v -0.16 -0.16 h 0.16 0.16 v 0.16 0.16 z m 5.12,0 h -0.16 v -0.16 -0.16 h 0.16 0.16 v 0.16 0.16 z m 0.64,0 h -0.16 v -0.16 -0.16 h 0.16 0.16 v 0.16 0.16 z m 1.6,0 h -0.16 v -0.16 -0.16 h 0.16 0.16 v 0.16 0.16 z M 6.56,12.16 H 6.4 V 12 11.84 H 6.56 6.72 V 12 12.16 Z m 5.12,-0.32 h -0.16 v -0.16 -0.16 h 0.16 0.16 v 0.16 0.16 z m 0.96,0 h -0.16 v -0.16 -0.16 h 0.16 0.16 v 0.16 0.16 z M 13.6,11.52 H 13.44 V 11.36 11.2 h 0.16 0.16 v 0.16 0.16 z M 6.24,10.56 H 6.08 V 10.4 10.24 H 6.24 6.4 v 0.16 0.16 z M 7.298199,10.408468 7.1190646,10.587602 6.9005738,10.013801 6.6820829,9.44 7.0797082,9.8346666 7.4773334,10.229333 Z M 12.32,10.56 H 12.16 V 10.4 10.24 h 0.16 0.16 v 0.16 0.16 z m -8,-0.32 H 4.16 V 10.08 9.92 h 0.16 0.16 v 0.16 0.16 z m 5.44,0 H 9.6 V 10.08 9.92 h 0.16 0.16 v 0.16 0.16 z M 13.653333,10.133333 13.44,10.346667 V 9.92 9.4933334 L 13.653333,9.7066666 13.866667,9.92 Z M 7.52,9.28 H 7.36 V 9.12 8.96 H 7.52 7.68 V 9.12 9.28 Z M 2.08,8.96 H 1.92 V 8.8 8.64 H 2.08 2.24 V 8.8 8.96 Z M 0.48,8.64 H 0.32 V 8.48 8.32 h 0.16 0.16 v 0.16 0.16 z m 10.56,0 H 10.88 V 8.48 8.32 h 0.16 0.16 V 8.48 8.64 Z M 9.44,8.32 H 9.28 V 8.16 8 H 9.44 9.6 v 0.16 0.16 z m 4.48,0 H 13.76 V 8.16 8 h 0.16 0.16 V 8.16 8.32 Z M 0.8,8 H 0.64 V 7.84 7.68 H 0.8 0.96 V 7.84 8 Z M 2.4,8 H 2.24 V 7.84 7.68 H 2.4 2.56 V 7.84 8 Z M 5.6,7.36 H 5.44 V 7.2 7.04 H 5.6 5.76 V 7.2 7.36 Z m 6.682229,0 h -0.16 L 12.32,7.04 12.517771,6.72 h 0.16 0.16 L 12.64,7.04 12.442229,7.36 Z M 3.36,7.04 H 3.2 V 6.88 6.72 h 0.16 0.16 v 0.16 0.16 z m 3.2,0 H 6.4 V 6.88 6.72 H 6.56 6.72 V 6.88 7.04 Z M 5.9733334,5.9733334 5.76,6.1866666 V 5.76 5.3333334 L 5.9733334,5.5466666 6.1866666,5.76 Z M 7.52,6.08 H 7.36 V 5.92 5.76 H 7.52 7.68 V 5.92 6.08 Z M 0.6055521,5.76 H 0.35777088 L 0.18072338,5.4735312 0.00367588,5.1870624 0.42850461,5.0240403 0.85333334,4.8610182 V 5.3105091 5.76 Z M 2.4,5.76 H 2.24 V 5.6 5.44 H 2.4 2.56 V 5.6 5.76 Z m 8.64,0 H 10.88 V 5.6 5.44 h 0.16 0.16 V 5.6 5.76 Z M 7.2,5.44 H 7.04 V 5.28 5.12 H 7.2 7.36 v 0.16 0.16 z m 3.2,0 H 10.24 V 5.28 5.12 h 0.16 0.16 V 5.28 5.44 Z M 7.84,5.12 H 7.68 V 4.96 4.8 H 7.84 8 V 4.96 5.12 Z M 11.68,4.8 H 11.52 V 4.64 4.48 h 0.16 0.16 V 4.64 4.8 Z M 5.1409667,4.4196778 4.7378525,4.5540493 5.100185,3.8770246 5.4625178,3.2 H 5.582944 5.7033702 L 5.6237258,3.7426531 5.5440813,4.2853062 Z M 7.2,4.48 H 7.04 V 4.32 4.16 H 7.2 7.36 v 0.16 0.16 z m 3.84,0 H 10.88 V 4.32 4.16 h 0.16 0.16 V 4.32 4.48 Z M 1.76,4.16 H 1.6 V 4 3.84 H 1.76 1.92 V 4 4.16 Z M 0.96,3.84 H 0.53333334 L 0.74666666,3.6266666 0.96,3.4133334 1.1733333,3.6266666 1.3866667,3.84 Z m 3.68,0 H 4.48 V 3.68 3.52 H 4.64 4.8 v 0.16 0.16 z m 1.92,0 H 6.4 V 3.68 3.52 H 6.56 6.72 V 3.68 3.84 Z M 7.8733334,3.4333334 7.68,3.6266666 7.705263,3.0133333 7.7305264,2.4 7.8985965,2.82 8.0666666,3.24 Z M 11.68,3.2 H 11.52 V 3.04 2.88 h 0.16 0.16 V 3.04 3.2 Z M 6.24,2.88 H 6.08 V 2.72 2.56 H 6.24 6.4 v 0.16 0.16 z m 4.16,0 H 10.24 V 2.72 2.56 h 0.16 0.16 v 0.16 0.16 z m 2.56,0 H 12.8 V 2.72 2.56 h 0.16 0.16 V 2.72 2.88 Z M 11.04,2.56 H 10.88 V 2.4 2.24 h 0.16 0.16 V 2.4 2.56 Z M 0.8,2.24 H 0.64 V 2.08 1.92 H 0.8 0.96 V 2.08 2.24 Z M 1.76,1.92 H 1.6 V 1.76 1.6 h 0.16 0.16 v 0.16 0.16 z m 4.5173046,0 H 6.1546093 L 6.0016797,1.12 5.8487501,0.32 H 6.124375 6.4 v 0.8 0.8 z M 8.48,1.92 H 8.32 V 1.76 1.6 h 0.16 0.16 v 0.16 0.16 z m 5.402229,0 h -0.16 L 13.92,1.6 14.117771,1.28 h 0.16 0.16 L 14.24,1.6 14.042229,1.92 Z M 1.76,1.28 H 1.6 V 1.12 0.96 H 1.76 1.92 V 1.12 1.28 Z M 7.8933334,1.1733333 7.68,1.3866667 V 0.96 0.53333334 L 7.8933334,0.74666666 8.1066666,0.96 Z M 8.9066666,0.96 H 8.64 V 0.65888544 0.35777088 L 8.9066666,0.19296181 9.1733334,0.02815275 V 0.49407638 0.96 Z M 1.2611146,0.64 H 0.92222912 L 1.12,0.32 1.3177709,0 H 1.4588854 1.6 V 0.32 0.64 Z M 14.24,0.32 H 14.08 V 0.16 0 h 0.16 0.16 v 0.16 0.16 z"
         id="path67839" />
    </g>
  </g>
</svg>
