<?xml version="1.0" encoding="UTF-8" standalone="no"?>
<!-- Created with Inkscape (http://www.inkscape.org/) -->

<svg
   width="162.13437mm"
   height="17.829193mm"
   viewBox="0 0 162.13437 17.829193"
   version="1.1"
   id="svg1266"
   xmlns="http://www.w3.org/2000/svg"
   xmlns:svg="http://www.w3.org/2000/svg">
  <defs
     id="defs1263" />
  <g
     id="layer1"
     transform="translate(-42.283216,-125.31178)">
    <g
       aria-label="daleTristanHutchinson"
       id="text1441"
       style="font-size:16.9333px;font-family:'Lemon Tuesday';-inkscape-font-specification:'Lemon Tuesday, Normal';fill:#ffffff;stroke:#ee0000;stroke-width:0.1;stroke-linecap:square;stroke-linejoin:round">
      <path
         d="m 48.480037,130.64503 c -0.03387,0 -0.08467,-0.0508 -0.08467,-0.0847 0,-0.11853 0.186266,-0.16933 0.270932,-0.16933 0.220133,0 0.3556,0.0169 0.3556,0.3556 0,0.508 -0.254,0.98213 -0.254,1.49013 0,0.0508 0.01693,0.0677 0.0508,0.0677 0.01693,0 0.08467,-0.0339 0.118533,-0.0339 0.06773,0 0.06773,0.1524 0.06773,0.2032 0,0.254 -0.355599,0.8128 -0.406399,0.8636 -0.06773,0.1016 -0.08467,0.1524 -0.08467,0.28787 0,0.1016 0.0508,0.22013 0.0508,0.32173 0,0.254 -0.169333,0.57573 -0.169333,0.79587 0,0.1016 0.08467,0.2032 0.08467,0.32173 0,0.23706 -0.220133,0.54186 -0.220133,0.84666 0,0.0508 0.01693,0.0847 0.06773,0.0847 0,-0.47413 0.372533,-0.3556 0.507999,-0.72813 v -0.508 c -0.0508,-0.0508 -0.186266,-0.0847 -0.186266,-0.18627 0,-0.0677 0.304799,-0.37253 0.338666,-0.37253 0,0.254 -0.03387,0.77893 0.186266,0.77893 0.4064,0 0.1524,-0.8636 0.321733,-0.99906 0.321733,-0.254 0.321733,-1.81187 0.321733,-1.81187 0.186266,-0.18626 0.321732,-0.1016 0.321732,-0.28786 0,-0.0847 -0.08467,-0.23707 -0.08467,-0.33867 0,-0.0677 0.08467,-0.13546 0.08467,-0.2032 0,-0.2032 -0.237066,-0.0847 -0.237066,-0.23706 0,-0.16934 0.524933,-0.18627 0.524933,-0.62654 0,-0.45719 0.03387,-1.11759 0.338666,-1.59173 0.118533,-0.18626 0.186266,-0.42333 0.270932,-0.64346 0.0508,-0.762 0.558799,-1.4732 0.558799,-2.31986 0,-0.28787 -0.389466,-0.5588 -0.694265,-0.5588 -0.626532,0 -1.168398,0.508 -1.219198,0.98213 -0.0508,0.3556 -0.321732,0.52493 -0.304799,0.88053 -0.1016,0.54187 -0.761999,0.99907 -0.761999,1.5748 0,0.27093 -0.491065,0.4064 -0.491065,0.89746 0,0.22014 -0.08467,0.42334 -0.135467,0.62653 0,0.0169 -0.287866,0.62654 -0.389466,0.6604 -0.355599,0.1016 -0.423332,0.9144 -0.931331,0.9144 -0.254,0 -0.592666,-0.16933 -0.846665,-0.16933 -0.1524,0 -0.677332,0.13546 -0.677332,0.16933 -0.118533,0.44027 -0.728132,0.54187 -0.761999,0.7112 -0.101599,0.42333 -0.440265,0.98213 -0.711198,1.27 -0.3048,0.32173 -0.609599,0.99906 -0.711199,1.23613 -0.118533,0.28786 -0.270933,0.4572 -0.304799,0.74506 0,0.28787 -0.270933,0.44027 -0.270933,0.69427 0,0.18627 -0.0508,0.37253 -0.0508,0.54186 0,0.32174 0,0.93134 0.270933,1.25307 0.220133,0.254 -0.08467,0.4572 0.982131,0.82973 0.06773,0.0169 0.1524,0.0339 0.237067,0.0339 0.152399,0 0.321732,-0.0677 0.491065,-0.0677 0.1016,0 0.728132,-0.60959 0.812799,-0.81279 0.287866,-0.77894 0.745065,-1.3716 1.015998,-2.25213 0.03387,-0.11854 0.389466,-0.94827 0.389466,-1.0668 0,-0.0169 0,-0.0169 0,-0.0169 0.355599,-0.0847 0.304799,-0.762 0.355599,-1.13454 0.08467,-0.0339 0.237066,-0.3048 0.372532,-0.3048 0.220133,0 0,-0.71119 0.254,-0.79586 0.118533,0 0.1016,0.3556 0.1524,0.3556 0.220133,0 0.270932,-1.016 0.270932,-1.10067 0,0 0,0 0,0.0169 0,-0.0169 0.06773,-0.0339 0.1016,-0.0508 0,0.0339 0.03387,0.13546 0.0508,0.13546 0.118533,0 0.118533,-0.22013 0.118533,-0.32173 0,-0.13546 -0.03387,-0.27093 -0.03387,-0.4064 0,-0.27093 0.338666,-0.44026 0.338666,-0.6096 0,-0.0339 -0.01693,-0.0847 -0.03387,-0.13546 z m -1.964263,1.99813 c 0.0508,0.0677 0.08467,0.11853 0.08467,0.16933 0,0.1524 -0.287866,0.67733 -0.474133,0.79586 -0.304799,0.6096 -0.694265,1.1684 -1.015998,1.76107 -0.355599,0.6604 -1.151464,2.40453 -1.33773,2.40453 -0.2032,0 -0.220133,-0.59267 -0.220133,-0.7112 0,-0.3556 0.220133,-1.28693 0.524932,-1.79493 0.06773,-0.11853 0.118533,-0.23707 0.1524,-0.3556 0.457199,-1.18533 1.405464,-2.032 2.285995,-2.26906 z m 1.168398,-0.32174 c 0,-0.0508 -0.01693,-0.1524 -0.01693,-0.22013 0.03387,0.0339 0.03387,0.0677 0.03387,0.1016 0,0.0508 -0.01693,0.0677 -0.01693,0.11853 z m 1.507064,0.88054 c 0.08467,0.0508 0.08467,0.0339 0.08467,0.1016 0,0.0847 -0.03387,0.1016 -0.06773,0.16933 -0.01693,-0.0339 -0.0508,-0.0677 -0.0508,-0.1016 0,-0.0508 0.01693,-0.1016 0.03387,-0.16933 z m 0.253999,0.0508 c -0.03387,0 -0.0508,-0.0677 -0.0508,-0.0847 0,-0.0508 0.01693,-0.0847 0.0508,-0.1016 0.06773,0 0.0508,0.1016 0.0508,0.1524 0,0.0169 -0.03387,0.0169 -0.0508,0.0339 z m -0.999065,7.24745 c 0,0.0508 0,0.1016 0,0.1524 0,-0.22014 0.220133,-0.18627 0.220133,-0.4064 -0.01693,-0.0339 -0.01693,-0.1016 -0.01693,-0.1524 0,-0.254 -0.03387,-0.74507 0.220133,-0.98213 0.0508,-0.0169 0.1016,-0.0847 0.1016,-0.13547 0,-0.0847 -0.135467,-0.11853 -0.135467,-0.2032 0,-0.0677 0.1524,-0.16933 0.1524,-0.27093 0,-0.1016 -0.118533,-0.18627 -0.118533,-0.27093 0,-0.11854 0.186266,-0.254 0.186266,-0.508 0,-0.2032 0.03387,-0.4064 0.03387,-0.6096 0,-0.1524 -0.06773,-0.28787 -0.06773,-0.44027 0,-0.508 0.355599,-0.6096 0.355599,-0.84666 0,-0.1016 -0.1016,-0.52494 -0.270933,-0.52494 -0.118533,0 -0.0508,0.44027 -0.304799,0.44027 -0.03387,0 -0.06773,-0.0169 -0.1016,-0.0169 -0.03387,0 -0.660399,1.016 -0.728132,1.10066 -0.08467,0.18627 -0.135466,0.4064 -0.169333,0.59267 0,0.0508 0.06773,0.1016 0.118533,0.1016 0.118533,0 0.254,-0.7112 0.406399,-0.7112 0.01693,0 0.03387,0.0339 0.03387,0.0508 0,0.22013 -0.135466,0.72813 -0.389466,0.9652 0.03387,0 0.1016,0 0.1016,0.0508 0,0.0169 -0.01693,0.0339 -0.03387,0.0339 -0.0508,0 -0.03387,-0.0677 -0.0508,-0.1016 -0.101599,0.0677 -0.135466,0.1524 -0.135466,0.23707 0,0.0508 0.01693,0.1016 0.01693,0.1524 0,0.23707 -0.270933,0.254 -0.270933,0.49106 0,0.0677 0.01693,0.11854 0.01693,0.18627 0,0.2032 -0.169333,0.4064 -0.169333,0.57573 0,0.13547 0.118533,0.22014 0.118533,0.42334 0,0.32173 -0.06773,0.71119 -0.118533,1.04986 0.0508,0.0847 0.1016,0.1524 0.1016,0.23707 0,0.1016 -0.118534,0.23706 -0.118534,0.38946 0,0.254 0.270933,0.9652 0.541866,0.9652 0.524932,0 0.643465,-0.9144 0.643465,-0.9652 0,-0.27093 0.01693,-0.52493 0.1524,-0.79586 0,-0.11854 -0.203199,-0.1524 -0.321733,-0.254 z m 0.321733,-4.19946 c 0,-0.0169 -0.01693,-0.13547 0.03387,-0.16933 0.03387,0 0.0508,0.0339 0.0508,0.0677 0,0.0169 -0.118533,0.37253 -0.1524,0.69427 -0.0508,-0.11854 -0.06773,-0.22014 -0.06773,-0.32174 0,-0.1016 0,-0.2032 0.135466,-0.27093 z m -0.948265,3.94546 c -0.01693,-0.0339 -0.06773,-0.0677 -0.06773,-0.0847 0,-0.0339 0.0508,-0.0677 0.06773,-0.1016 0.01693,0.0339 0.06773,0.0677 0.06773,0.1016 0,0.0169 -0.0508,0.0508 -0.06773,0.0847 z m 0.880532,-2.87866 v 0.0508 H 48.6663 Z m -0.626532,1.03293 c -0.01693,-0.0339 -0.06773,-0.0508 -0.06773,-0.0677 0,-0.0339 0.03387,-0.0677 0.03387,-0.0847 0.0508,0.0339 0.06773,0.0339 0.06773,0.0677 0,0.0339 -0.01693,0.0677 -0.03387,0.0847 z m 0.406399,-7.73852 c 0,0 0,-0.0169 0,-0.0169 0.01693,0.0169 0.03387,0.0169 0.06773,0.0169 0.01693,0 0.03387,0 0.03387,-0.0508 -0.03387,0.0169 -0.06773,0.0339 -0.1016,0.0508 z"
         style="fill:#ee0000"
         id="path2149" />
      <path
         d="m 51.42641,137.63848 c 0.321732,0.0339 0.203199,0.2032 0.253999,0.32173 0,0.7112 0.626532,1.08373 1.185331,1.08373 0.795865,0 0.761999,-0.0169 1.608664,-1.55786 0.338666,-0.7112 0.931331,-2.01506 1.049864,-2.04893 0.423333,-0.11853 0.3556,-0.38946 0.457199,-0.8128 0.03387,-0.1524 0.643466,-0.69426 0.677332,-0.69426 0.220133,-0.11854 0.270933,-0.27094 0.389466,-0.54187 0.423333,0 0.220133,-0.42333 0.491066,-0.47413 0.135466,-0.0169 0.254,-0.0508 0.406399,-0.0847 0.01693,0.18627 0.1016,0.3556 0.1016,0.5588 -0.169333,0.32173 -0.253999,0.1016 -0.253999,1.28693 0,0.0847 0,0.18627 0.01693,0.27094 0,0.18626 -0.254,0.49106 -0.270933,0.82973 -0.08467,1.43933 -0.237066,3.11572 -0.237066,4.43652 0,0.23707 0.253999,0.32173 0.253999,0.6096 0,0.16933 -0.01693,0.33867 -0.01693,0.508 0.01693,0.28787 -0.01693,0.59267 0.237066,0.8128 0.08467,0.0508 0.01693,0.254 0.186267,0.4064 0.287866,0.27093 0.491065,0.54186 0.914398,0.54186 0.253999,0 0.660398,0 0.795865,-0.3048 0.118533,-0.27093 0.355599,-0.47413 0.406399,-0.82973 0,-0.3556 0,-0.93133 0.135466,-1.18533 0.169333,-0.22013 0.06773,-0.49106 0.186267,-0.6604 0.220133,-0.42333 0.304799,-1.04986 0.423332,-1.52399 0.118533,-0.49107 0.389466,-0.94827 0.457199,-1.45627 0,-0.52493 0.897465,-1.60866 1.015998,-1.79493 0.01693,-0.0169 0.03387,-0.0508 0.03387,-0.0847 0,-0.16933 -0.254,-0.25399 -0.372533,-0.25399 -0.355599,0 -0.846665,0.55879 -0.965198,0.99906 -0.01693,0.0677 -0.0508,0.16933 -0.118533,0.22013 -0.474132,0.44027 -0.389466,0.8636 -0.558799,1.50707 -0.0508,0.22013 -0.220133,0.23706 -0.237066,0.4064 -0.220133,0.60959 -0.389466,1.21919 -0.575732,1.87959 0,0.37253 -0.389466,1.64253 -0.643466,1.64253 -0.0508,0 -0.237066,-0.59266 -0.237066,-0.6604 0,-0.0677 0.01693,-0.1524 0.03387,-0.22013 -0.1016,-0.1016 -0.135467,-0.22013 -0.135467,-0.33867 0,-0.1016 0.01693,-0.23706 0.01693,-0.35559 0,-0.254 -0.01693,-0.508 -0.01693,-0.77894 0,-0.77893 0.169333,-1.64253 0.169333,-2.42146 0,-0.3556 0.270933,-0.7112 0.270933,-0.9652 0,-1.26999 0.491066,-2.55692 0.491066,-3.65759 0,-0.79586 -0.524932,-0.98213 -0.897465,-0.98213 -0.423332,0 -0.592665,0.28787 -0.880532,0.4064 -0.524932,0.2032 -0.812798,0.74506 -1.253064,0.9652 -0.389466,-0.508 -0.778932,-0.8636 -1.557863,-0.8636 -1.168398,0 -1.371598,0.84666 -1.84573,1.524 -0.592666,0.84666 -0.711199,1.40546 -0.914398,1.93039 -0.2032,0.52493 -0.423333,1.08373 -0.423333,1.64253 -0.01693,0.1524 -0.118533,0.22013 -0.253999,0.254 z m 4.605857,-4.65666 c 0,0.0508 0.01693,0.0847 0.01693,0.11854 0,0.16933 -0.254,0.50799 -0.254,0.50799 -0.372532,0.28787 -0.575732,0.72814 -0.931331,1.016 -0.186267,0.1524 -0.321733,0.3556 -0.440266,0.54187 -0.237066,0.38946 -1.117598,1.5748 -1.185331,1.5748 -0.08467,0 -0.1016,-0.0508 -0.1016,-0.11854 0.254,-1.28693 1.049865,-2.92946 2.116663,-3.64066 0.118533,-0.0677 0.220132,-0.1016 0.355599,-0.1016 0.118533,0 0.304799,0.0508 0.423332,0.1016 z"
         style="fill:#ee0000"
         id="path2151" />
      <path
         d="m 62.974901,135.42022 c 0,0.0169 0,0.0339 0,0.0339 0.0508,-0.32173 0.1016,-0.45719 0.1524,-0.88053 0,-0.16933 -0.1524,-0.254 -0.1524,-0.38946 0,-0.13547 0.1524,-0.27094 0.1524,-0.4064 0,-0.1016 -0.06773,-0.2032 -0.06773,-0.3048 0,-0.254 0.135466,-0.5588 0.135466,-0.8636 0,-0.13547 -0.06773,-0.27093 -0.06773,-0.4064 0,-0.13547 0.06773,-0.33867 0.06773,-0.47413 0,-0.0847 -0.0508,-0.1524 -0.0508,-0.23707 0,-0.0508 0.0508,-0.11853 0.0508,-0.18626 0,-0.1016 -0.06773,-0.16934 -0.06773,-0.27094 0.03387,-0.23706 -0.01693,-0.47413 0.1016,-0.69426 0,0 0.01693,-0.0169 0.01693,-0.0339 0,-0.1016 -0.06773,-0.18626 -0.06773,-0.27093 0,-0.72813 0.203199,-1.9304 0.203199,-2.81093 0,-0.4572 -0.0508,-0.57573 -0.609598,-0.57573 -0.3048,0 -0.778932,0.0169 -0.778932,0.38946 0,0.18627 0.1016,0.3556 0.1016,0.59267 0,0.254 -0.01693,0.508 -0.01693,0.77893 0,0.11853 0.01693,0.254 0.01693,0.38947 0,0.33866 -0.118533,0.82973 -0.118533,1.20226 0,0.13547 0.03387,0.254 0.03387,0.37253 0,0.1524 -0.1016,0.28787 -0.1016,0.44027 0,0.16933 0.0508,0.32173 0.0508,0.47413 0,0.0677 -0.01693,0.11854 -0.03387,0.1524 -0.1016,0.57573 -0.237067,1.08373 -0.237067,1.69333 0,0.37254 0.186267,0.7112 0.186267,1.1176 0,0.33867 -0.01693,0.67733 -0.03387,1.016 0,0.1016 0.01693,0.2032 0.01693,0.3048 0,0.2032 -0.287866,-0.0169 -0.287866,0.3048 0.01693,0.16933 0.01693,0.32173 0.01693,0.49106 0,0.38947 -0.1016,0.77893 -0.1016,1.1684 0,0.27093 0.1016,0.508 0.1016,0.79587 0,0.22013 -0.01693,0.54186 -0.01693,0.82973 0,0.99906 0.270933,0.77893 0.270933,1.57479 0,0.1524 0.01693,0.27094 0.06773,0.32174 0.372533,0.3556 0.372533,1.74413 1.117598,1.82879 0.118533,0 0.254,-0.0847 0.372533,-0.0847 0.1016,0 0.169333,0.11853 0.253999,0.11853 0.01693,0 0.338666,-0.27093 0.389466,-0.42333 0.08467,-0.23707 0.491066,-0.23707 0.626532,-0.67733 0.1524,-0.52494 0.423333,-0.9652 0.440266,-1.55787 0,-0.0677 -0.01693,-0.13546 -0.01693,-0.18626 0,-0.0847 0.01693,-0.16934 0.01693,-0.254 0,-0.1016 -0.0508,-0.18627 -0.0508,-0.27094 0,-0.0339 0.01693,-0.0677 0.03387,-0.1016 0.08467,0 0.169333,0.0169 0.237066,0.0169 0.135466,-0.62654 0.0508,-1.27 0.1016,-1.89653 0.08467,-0.0508 0.152399,-0.0847 0.220133,-0.13547 0.0508,-0.62653 0.01693,-2.16746 0.169333,-2.16746 0.08467,0 0.101599,0.11853 0.169333,0.11853 0.169333,0 0.440265,-1.1176 0.829731,-1.40546 0.270933,-0.27094 0.677332,-0.67733 0.677332,-1.0668 0,-0.0847 -0.169333,-0.13547 -0.270932,-0.13547 -0.270933,0 -0.846665,0.47414 -0.880532,0.62654 -0.08467,0.28786 -0.304799,0.50799 -0.355599,0.79586 -0.0508,0.22013 -0.08467,0.69427 -0.220133,0.762 -0.406399,0.22013 -0.541866,0.84666 -0.541866,1.28693 0,0.13547 0.03387,0.28787 0.03387,0.42333 0,0.3048 0,0.762 -0.118533,0.88053 -0.118533,0 -0.08467,-0.64346 -0.169333,-0.64346 -0.118533,0 0,0.38946 -0.169333,0.38946 -0.03387,0 -0.06773,0 -0.118533,-0.0169 -0.423333,0.8128 -0.982132,3.21733 -1.236131,3.21733 -0.1016,-0.0169 -0.08467,-0.37253 -0.1016,-0.62653 -0.01693,0.0169 -0.03387,0.0169 -0.0508,0.0169 -0.406399,0 -0.474132,-0.32173 -0.474132,-0.64347 0,-0.22013 0.01693,-0.3556 0.01693,-0.5588 0,-0.49106 0.270933,-0.59266 0.270933,-1.16839 0,-0.27094 -0.01693,-0.67733 -0.06773,-0.67733 -0.0508,0 -0.08467,0.0508 -0.101599,0.0508 -0.0508,0 -0.06773,-0.13547 -0.06773,-0.2032 0,-0.28787 0.237067,-0.32174 0.237067,-0.74507 0,-0.254 -0.01693,-0.4064 -0.135467,-0.52493 z m -1.202264,1.91346 c -0.03387,-0.0677 -0.0508,-0.13547 -0.0508,-0.18627 0,-0.13546 0.03387,-0.22013 0.118533,-0.22013 0.08467,0 0.220133,0.0847 0.220133,0.18627 0,0.1524 -0.186266,0.16933 -0.287866,0.22013 z m 2.709328,1.03293 c 0,0.0677 0,0.16934 0,0.254 0,0.1524 0,0.27093 -0.03387,0.27093 -0.01693,-0.0169 -0.03387,-0.0339 -0.03387,-0.0339 0,-0.16934 0,-0.33867 0.01693,-0.508 z m 0.999065,-1.60866 c 0,0.16933 0.01693,0.22013 0.01693,0.28786 0,0.0169 -0.01693,0.0339 -0.01693,0.0508 -0.01693,-0.0169 -0.03387,-0.0508 -0.03387,-0.0847 0,-0.0508 0.01693,-0.1016 0.03387,-0.254 z m -2.285996,3.80999 c 0.01693,0.0169 0.0508,0.0677 0.0508,0.0847 -0.01693,0.0677 -0.0508,0.1016 -0.06773,0.16933 -0.03387,-0.0339 -0.0508,-0.0677 -0.0508,-0.11853 0,-0.0508 0,-0.13547 0.06773,-0.13547 z m 1.964263,-2.42146 c -0.03387,0 -0.06773,-0.0169 -0.06773,-0.0508 0.01693,-0.0508 0.03387,-0.0847 0.08467,-0.0847 0.03387,0 0.0508,0.0169 0.0508,0.0508 0,0.0339 -0.03387,0.0508 -0.06773,0.0847 z m -2.455329,-0.0339 c -0.01693,0.0169 -0.03387,0.0508 -0.0508,0.0677 -0.01693,-0.0169 -0.01693,-0.0339 -0.01693,-0.0508 0,-0.0339 0.01693,-0.0677 0.03387,-0.1016 0.03387,0.0339 0.03387,0.0339 0.03387,0.0847 z m 3.43746,-3.58986 c -0.01693,0.0169 -0.03387,0.0169 -0.0508,0.0169 0,-0.0169 -0.01693,-0.0339 -0.01693,-0.0508 0,-0.0169 0.01693,-0.0339 0.03387,-0.0339 0.01693,0 0.03387,0.0508 0.03387,0.0677 z m -3.488259,1.8796 0.03387,0.0169 -0.01693,0.0339 z"
         style="fill:#ee0000"
         id="path2153" />
      <path
         d="m 65.751913,133.84542 c 0.01693,0.0677 0.03387,0.13547 0.03387,0.2032 0,0.0677 -0.03387,0.0508 -0.0508,0.0677 -0.01693,-0.0169 -0.03387,-0.0508 -0.03387,-0.0847 0,-0.0677 0.03387,-0.13547 0.06773,-0.18627 -0.253999,0.3556 -0.186266,0.89747 -0.423332,1.18533 -0.220133,0.27093 -0.2032,1.04987 -0.2032,1.38853 0,0.13547 0.118533,0.27094 0.118533,0.38947 0,0.0847 -0.08467,0.18626 -0.08467,0.27093 0,0.11853 0.06773,0.22013 0.06773,0.32173 0,0.0677 -0.0508,0.13547 -0.0508,0.18627 0,0.13547 0.186267,0.27093 0.186267,0.42333 0,0.0847 -0.03387,0.16934 -0.03387,0.23707 0,0.0508 0.2032,0.64346 0.491066,0.79586 0.06773,0.0339 0.118533,0.11854 0.152399,0.2032 0.3556,0.52494 0.812799,0.508 1.473197,0.57574 0.1016,-0.0677 0.2032,-0.13547 0.321733,-0.2032 0.0508,0.0339 0.118533,0.0508 0.169333,0.0508 0.287866,0 1.405464,-1.3716 1.676397,-1.4732 0.287866,-0.1016 0.541865,-0.8636 1.015998,-1.10067 0.186266,0 0.270933,-0.27093 0.270933,-0.40639 0,-0.16934 0.914398,-0.93134 0.914398,-0.93134 0.169333,-0.11853 0.677332,-0.32173 0.677332,-0.54186 0,-0.13547 -0.169333,-0.18627 -0.270933,-0.18627 -0.524932,0 -1.236131,0.8128 -1.422397,0.98213 -0.880532,0.77894 -1.777997,1.49013 -2.692395,2.2352 -0.186266,0.1524 -0.491066,0.3556 -0.745065,0.3556 -0.609599,0 -0.660399,-1.4224 -0.660399,-2.1844 0,-0.27093 0.01693,-0.74506 0.338666,-0.74506 0.237066,0 0.474133,0.0677 0.711199,0.0677 0.948265,0 1.913463,-0.88053 2.099729,-1.23613 0.08467,-0.16933 0.2032,-0.27093 0.321733,-0.38947 0.135466,-0.1524 0.203199,-0.42333 0.372532,-0.508 0.169333,-0.11853 0.237067,-0.28786 0.237067,-0.49106 0,-0.1016 -0.01693,-0.2032 -0.01693,-0.32173 0,-0.0508 0.01693,-0.11854 0.01693,-0.16934 0,-0.91439 -1.439331,-1.55786 -2.319863,-1.55786 -0.270932,0 -0.389465,0.254 -0.609598,0.33867 -0.372533,0.1524 -0.592666,0.49106 -0.846665,0.74506 -0.118533,0.37253 -0.694266,0.52493 -0.846665,0.99907 -0.08467,0.27093 -0.254,0.49106 -0.423333,0.69426 z m 1.608664,0.84667 c -0.270933,-0.0339 -0.3556,-0.0339 -0.3556,-0.1524 0,-0.4572 0.897465,-2.25213 2.015063,-2.25213 0.338666,0 0.406399,0.47413 0.406399,0.762 0,1.08373 -1.456264,1.54093 -2.065862,1.64253 z"
         style="fill:#ee0000"
         id="path2155" />
      <path
         d="m 76.352152,137.46915 c 0,0 -0.01693,0.0169 -0.01693,0.0169 0.01693,-0.0339 0.0508,-0.1016 0.0508,-0.1524 0,-0.0677 -0.06773,-0.1524 -0.06773,-0.23707 0,-0.33866 0.203199,-0.81279 0.253999,-1.18533 0.06773,-0.47413 0,-0.96519 0.08467,-1.45626 0,-0.3048 -0.03387,-0.62653 -0.03387,-0.93133 0,-0.49107 0.06773,-0.98213 0.06773,-1.45627 0,-0.1016 -0.03387,-0.2032 -0.03387,-0.32173 0,-0.6604 0.1016,-2.40453 0.491066,-2.48919 0.423332,-0.0847 0.982131,-0.23707 1.269997,-0.4572 0.08467,0.0169 0.169333,0.0847 0.254,0.0847 0.101599,0 0.152399,-0.1524 0.304799,-0.1524 0.643465,-0.13546 2.285995,-0.0677 2.285995,-0.81279 0,-0.54187 -1.049864,-0.54187 -1.28693,-0.54187 -1.015998,0 -1.94733,0.32173 -2.946395,0.42333 -0.186266,0.0169 -0.372532,0.1016 -0.575732,0.1016 -0.287866,0 -0.541865,-0.2032 -0.829731,-0.2032 -0.186267,0 -0.592666,0.0847 -0.592666,0.23707 0,0.0847 0.03387,0.13547 0.03387,0.2032 0,0.22013 -2.455329,0.7112 -2.709328,0.762 -0.220133,0.0508 -0.423333,0.0847 -0.643466,0.0847 -0.169333,0 -0.372532,-0.1016 -0.541865,-0.1016 -0.186267,0 -0.3556,0.16934 -0.3556,0.32174 0,0.54186 0.728132,0.89746 0.778932,0.93133 0.321733,0.1524 0.609599,0.23706 0.982132,0.23706 0.778931,0 1.761063,-0.54186 2.336795,-0.54186 0.06773,0 0.237066,0.1016 0.237066,0.5588 0,0.13546 -0.08467,0.23706 -0.08467,0.37253 0,0.1524 0.118533,0.33867 0.118533,0.508 0,0.18627 -0.186267,0.37253 -0.186267,0.5588 0,0.1016 0.01693,0.2032 0.01693,0.3048 0,0.42333 -0.1016,0.8636 -0.1016,1.27 0,0.20319 0.220133,0.38946 0.220133,0.54186 -0.169333,0.33867 -0.2032,0.49107 -0.2032,0.99907 0,0.18626 0.0508,0.37253 0.0508,0.52493 0,0.23706 -0.06773,0.4572 -0.06773,0.69426 0.0508,0.6096 -0.0508,1.4224 0.338666,1.84573 l -0.03387,-0.0508 c 0,0.0169 -0.01693,0.0169 -0.01693,0.0339 0,0 0.01693,0.0169 0.01693,0.0169 0,0 0.01693,-0.0169 0.03387,-0.0339 -0.03387,0.0339 -0.0508,0.0847 -0.0508,0.11853 0,0.27093 0.1524,0.69426 0.2032,0.9652 -0.01693,0.0508 -0.03387,0.1016 -0.03387,0.1524 0,0.254 0.287866,0.4572 0.457199,0.62653 0.406399,-0.1016 0.846665,-0.1524 0.846665,-0.59267 0,-0.23706 -0.220133,-0.57573 -0.220133,-0.67733 0,-0.1524 -0.1016,-0.27093 -0.1016,-0.38946 0,-0.0677 0.0508,-0.13547 0.0508,-0.22014 0,-0.11853 -0.101599,-0.22013 -0.101599,-0.32173 0,-0.0339 0.01693,-0.0508 0.03387,-0.0508 h -0.01693 c 0.01693,-0.0339 0.01693,-0.0847 0.03387,-0.11853 z m -0.03387,0.11853 c 0.01693,0.0508 0.01693,0.1016 0.01693,0.1524 0,-0.0508 0,-0.1016 -0.01693,-0.1524 z m 0.03387,-0.11853 c 0,0 -0.01693,0.0169 -0.01693,0.0169 0,0 0.01693,-0.0169 0.01693,-0.0169 z"
         style="fill:#ee0000"
         id="path2157" />
      <path
         d="m 80.399174,136.06368 c -0.03387,0.13547 -0.101599,0.3556 -0.101599,0.508 0,0.0847 0.08467,0.18627 0.08467,0.28787 0,0.0339 -0.01693,0.0508 -0.01693,0.0677 -0.220133,0.27093 -0.287866,0.84667 -0.287866,1.1684 0,0.28787 0.06773,0.52493 0.06773,0.762 0,0.16933 -0.03387,0.3048 -0.03387,0.4572 0,0.5588 0.1524,1.13453 0.575733,1.13453 0.643465,0 0.948264,-1.4732 0.931331,-1.43933 0.304799,-0.54187 0.287866,-1.1684 0.524932,-1.74413 0.491066,-1.1684 0.372533,-1.54093 0.660399,-1.96427 0.169333,-0.25399 0.254,-0.54186 0.372533,-0.81279 0.321732,-0.79587 1.185331,-2.11667 1.862663,-2.52307 0.01693,0 0.01693,-0.0169 0.03387,-0.0169 0.254,0 0.0508,2.04893 0.761999,2.04893 0.253999,0 0.169333,-0.508 0.474132,-0.72813 0.491066,-0.3556 0.626532,-0.6096 0.626532,-1.25307 0,-0.60959 -0.253999,-1.52399 -1.168397,-1.52399 -0.575733,0 -1.320798,0.69426 -1.388531,0.9652 -0.0508,0.22013 -0.524932,0.64346 -0.812798,1.03293 0.01693,-0.1524 0.0508,-0.23707 0.0508,-0.33867 -0.101599,-0.37253 -0.152399,-0.98213 -0.677332,-0.98213 -0.186266,0 -0.355599,0.0677 -0.541865,0.0677 -0.03387,0 -0.08467,-0.0169 -0.118533,-0.0169 -0.135467,0 -0.575732,0.84666 -0.660399,1.04986 -0.270933,0.59267 -0.711199,1.25307 -0.745065,1.8796 0,0.18627 -0.186266,0.508 -0.186266,0.79587 0,0.0847 0,0.1524 0.01693,0.23706 -0.135467,0.13547 -0.237066,0.74507 -0.440266,0.77893 z m 2.167463,-1.42239 h -0.0508 l 0.03387,-0.0508 z"
         style="fill:#ee0000"
         id="path2159" />
      <path
         d="m 87.612753,135.87742 c 0,0.37253 0.06773,0.74506 0.06773,1.13453 0,0.49106 0.440266,1.10066 0.592666,1.43933 0.253999,0.57573 0.982131,1.20226 1.54093,1.20226 0.389466,0 1.049865,-0.23706 1.236131,-0.57573 0.08467,-0.254 0.423332,-0.49106 0.423332,-0.67733 0.03387,-0.22013 0.321733,-0.4572 0.457199,-0.74507 0.08467,-0.1524 0.03387,-0.3556 0.186267,-0.4572 0.186266,-0.1524 0.355599,-0.66039 0.406399,-0.77893 0.08467,-0.3556 0.575732,-0.762 0.575732,-1.016 0,-0.20319 -0.186266,-0.30479 -0.406399,-0.30479 -0.270933,0 -0.507999,0.20319 -0.575732,0.54186 -0.237066,1.10067 -0.863599,1.84573 -1.59173,2.70933 -0.03387,0.0339 -0.06773,0.0339 -0.1016,0.0339 -0.440266,0 -0.457199,-1.86267 -0.457199,-2.1844 0,-0.0339 0,-0.0677 0.01693,-0.0847 0.118533,-0.3048 0.01693,-0.62653 0.135466,-0.93133 0.03387,-0.4064 0.08467,-0.8128 0.08467,-1.23613 0,-0.6096 -0.3048,-1.86266 -0.761999,-1.99813 -0.253999,-0.0677 -0.575732,-0.18626 -0.812798,-0.18626 -0.524932,0 -1.015998,3.69145 -1.015998,4.11479 z m 1.269997,-6.53626 c 0,0.3048 0.118534,0.82973 0.524933,0.82973 0.440266,0 0.643465,-0.45719 0.643465,-0.84666 0,-0.42333 -0.457199,-0.4064 -0.846665,-0.49107 -0.287866,0 -0.321733,0.33867 -0.321733,0.508 z"
         style="fill:#ee0000"
         id="path2161" />
      <path
         d="m 97.738866,137.79088 c 0,0.0847 0.01693,0.1524 0.01693,0.23707 -0.03387,0.28786 -0.01693,0.44026 -0.321733,0.44026 0.03387,-0.0677 0.03387,-0.11853 0.118533,-0.11853 0.0508,0 0.1016,0.0508 0.169333,0.0677 -0.06773,-0.11853 -0.08467,-0.23706 -0.08467,-0.37253 0,-0.2032 0.118533,-0.32173 0.270933,-0.32173 0.0508,0 0.118533,0.0169 0.186266,0.0169 0.06773,0 0.1016,-0.0169 0.1016,-0.0847 0,-0.0508 -0.01693,-0.1016 -0.01693,-0.1524 0,-0.28786 0.491066,-0.69426 0.660399,-0.69426 0.0508,0 0.118533,0.0169 0.169333,0.0169 0.08467,0 0.1524,-0.0339 0.186266,-0.1016 0.2032,-0.508 1.337734,-0.72813 1.693334,-0.72813 0.0847,0 0.16933,0.0339 0.27093,0.0339 0.2032,0 0.54187,-0.23707 0.54187,-0.47414 0,-0.3048 -0.57573,-0.3048 -0.8128,-0.37253 -0.3048,0.11853 -0.62653,0.0169 -0.931335,0.16933 -0.1016,0.0508 -0.2032,0.0677 -0.321733,0.0677 -0.474132,0 -0.253999,-0.33867 -0.541865,-0.38947 -0.03387,-0.16933 -0.03387,-0.59266 -0.169333,-0.59266 -0.0508,0 -0.1524,0.0847 -0.220133,0.13546 -0.186267,-0.18626 -0.08467,-0.44026 -0.169333,-0.6604 -0.3556,-0.3556 -0.626532,-0.52493 -1.269998,-0.52493 -1.303864,0 -2.472262,0.4064 -3.301993,0.62653 -0.03387,0.0169 -0.06773,0.0169 -0.1016,0.0169 -0.1016,0 -0.1524,-0.0508 -0.1524,-0.11854 0,-0.13546 0.237066,-0.40639 0.3048,-0.55879 0.118533,-0.4064 0.575732,-0.54187 0.643465,-0.79587 0.220133,-0.8128 0.812798,-0.88053 1.117598,-1.23613 0.237066,-0.3556 0.660398,-0.77893 1.134531,-0.84667 0.06773,-0.0169 0.118533,-0.13546 0.118533,-0.22013 -0.06773,-0.59266 -1.049865,-0.6096 -1.405464,-0.67733 -0.304799,0.3048 -0.592665,0.4572 -0.846665,0.8636 -0.186266,0.3048 -0.660399,0.42333 -0.728132,0.62653 -0.1524,0.4572 -0.677332,0.28787 -0.795865,0.74507 0,0.0169 -0.558799,0.60959 -0.728132,0.77893 -0.237066,0.22013 -0.457199,0.49106 -0.474132,0.8636 0,0.18626 -0.135467,0.35559 -0.135467,0.52493 0,0.11853 0.0508,0.22013 0.0508,0.33866 0,0.0508 -0.03387,0.1016 -0.03387,0.1524 0,0.49107 0.406399,0.77893 0.948264,0.98213 0.118534,0.0677 0.135467,0.3048 0.237067,0.3048 0.694265,0 1.236131,-0.47413 1.236131,-0.47413 0.06773,0 0.152399,0.0677 0.270932,0.11853 0.3556,-0.23706 0.440266,-0.32173 0.812799,-0.44026 0.524932,-0.1524 0.863598,-0.4572 1.083731,-0.4572 0.118533,0 0.220133,0.0847 0.321733,0.0847 0.06773,0 0.152399,-0.0339 0.237066,-0.0339 0.253999,0 0.406399,0.254 0.406399,0.47413 -0.135466,0.8636 -0.06773,1.55787 -0.745065,1.7272 -0.440266,0.1016 -0.541866,0.69426 -0.914398,0.69426 -0.338666,0 -0.3556,0.3556 -0.694266,0.4064 -0.169333,0 -0.389466,0.59267 -0.897465,0.72814 -0.389465,0.10159 -0.423332,0.45719 -0.711198,0.62653 -0.846665,0.508 -1.151465,1.89653 -1.168398,2.03199 -0.08467,0.254 -0.287866,0.6096 -0.287866,0.6604 0,0.3048 0.507999,1.18533 0.931332,1.18533 0.203199,0 0.220132,-0.3048 0.592665,-0.3048 0.406399,0 0.643465,-0.0169 1.049865,-0.33866 0.101599,-0.0847 0.203199,-0.1524 0.321732,-0.18627 0.169333,-0.0508 0.2032,-0.37253 0.423333,-0.37253 0.440266,0 0.186266,-0.49107 0.507999,-0.62653 0.220133,-0.0847 0.135466,-0.4572 0.338666,-0.49107 0.304799,-0.1016 0.287866,-0.4572 0.287866,-0.8128 -0.06773,-0.0169 -0.135466,-0.0339 -0.186266,-0.0508 l 0.01693,0.0508 c 0,0 -0.03387,-0.0339 -0.03387,-0.0339 0.06773,0.0169 0.118533,0.0339 0.186267,0.0339 0.423332,-0.23706 0.728132,-0.508 0.728132,-0.77893 0,-0.0677 -0.06773,-0.1016 -0.118534,-0.1016 -0.101599,0 -0.152399,0.0169 -0.203199,0.0169 -0.118533,0 -0.01693,-0.42333 -0.270933,-0.42333 -0.0508,0 -0.355599,0.54187 -0.406399,0.54187 0,0 0,0 0,-0.0169 0,0.32174 -0.457199,0.88054 -0.626532,1.15147 -0.186267,0.49106 -0.287866,0.99906 -0.761999,1.1176 -0.423332,0.11853 -0.321732,0.66039 -0.677332,0.64346 -0.06773,0 -0.118533,-0.0169 -0.186266,-0.0169 -0.118533,0 -0.254,0.0508 -0.389466,0.0508 -0.118533,0 -0.355599,-0.0508 -0.355599,-0.22013 0.03387,-0.23707 0,-0.508 0.135466,-0.72814 0.270933,-0.42333 0.541866,-1.11759 0.931332,-1.25306 0.355599,-0.2032 0.660398,-0.69427 1.185331,-0.93133 0.558799,-0.254 0.660398,-0.89747 1.320797,-0.89747 0.01693,0.254 0.1016,0.7112 0.338666,0.7112 0.474132,0 0.745065,-0.28786 0.745065,-0.7112 0,-0.13546 -0.0508,-0.23706 -0.152399,-0.32173 z"
         style="fill:#ee0000"
         id="path2163" />
      <path
         d="m 103.22523,135.03075 c 0.0677,-0.3556 0.1016,-0.47413 0.1016,-0.88053 0,-0.254 0.22013,-0.44027 0.22013,-0.69426 0.0508,-0.42334 0.0847,-0.82974 0.13547,-1.25307 -0.0169,-0.0169 -0.0169,-0.0508 -0.0169,-0.0677 0,-0.11854 0.0847,-0.23707 0.0847,-0.3556 0,-0.0339 0,-0.0847 -0.0169,-0.11853 0.11853,-0.27094 1.25306,-0.82974 1.23613,-0.82974 0.5588,-0.11853 0.94826,-0.11853 1.49013,-0.4572 0.0508,-0.0339 0.11853,-0.0508 0.18627,-0.0508 0.0508,0 0.11853,0.0169 0.16933,0.0169 0.1016,0 0.22013,-0.11854 0.28786,-0.11854 0.0847,0 0.27094,0.1016 0.3048,0.1016 0.0677,0 0.38947,-0.30479 0.38947,-0.42333 0,-0.0508 -0.0169,-0.1016 -0.0508,-0.16933 -0.0169,0.0339 -0.0508,0.0508 -0.0677,0.0508 -0.18627,0 0.0847,-0.6604 -0.6096,-0.6604 -0.23707,0 -0.2032,0.3048 -0.3556,0.3048 -0.1016,0 -0.18627,-0.22013 -0.28787,-0.22013 -0.2032,0 -0.52493,0.42333 -0.762,0.42333 -0.50799,0 -1.15146,0.32173 -1.42239,0.42333 -0.16934,-0.0677 -0.13547,-0.28786 -0.28787,-0.38946 0,0.0169 0.0169,0.0339 0.0169,0.0508 0.0169,-0.0169 0.0169,-0.0339 0.0169,-0.0339 -0.0169,0 -0.0339,0 -0.0508,0.0169 0.1016,-0.0677 0.13546,-0.3048 0.13546,-0.54186 0,-0.72813 -0.13546,-1.1176 -0.69426,-1.1176 -0.44027,0 -0.59267,0.254 -0.79587,0.64346 0.0169,0.1524 0.0339,0.3048 0.0339,0.4572 0,0.62654 -0.0508,1.74413 -0.49107,1.84573 -0.66039,0.1016 -1.15146,0.57574 -1.20226,0.57574 -0.18627,0 -0.5588,0.30479 -0.9144,0.37253 -0.203197,0.0339 -0.67733,0.0339 -0.67733,0.22013 0,0.508 0.93133,0.6604 1.1176,0.6604 0.8636,0 0.9652,-0.49107 1.4732,-0.49107 0.0508,-0.0339 0.0508,-0.1016 0.16933,-0.1016 0.11853,0 0.2032,0.0847 0.2032,0.18627 0,0.0677 -0.0169,0.13547 -0.0169,0.2032 0,0.1016 0.1016,0.18627 0.1016,0.28787 0,0.0508 -0.0169,0.1016 -0.0339,0.13546 -0.16934,0.32174 -0.22014,0.64347 -0.22014,0.9652 0,0.1016 0.0169,0.22013 0.0169,0.3048 0,0.13547 -0.0508,0.27093 -0.0508,0.38947 0,0.16933 0.0508,0.33866 0.0508,0.508 0,0.0508 -0.0169,0.10159 -0.0169,0.13546 0,0.0677 0.16934,0.16933 0.16934,0.27093 0,0.13547 -0.23707,0.16934 -0.23707,0.27094 0,0.13546 0.28787,0.0339 0.28787,0.28786 v -0.0169 c 0.13546,-0.0677 0.1524,-0.2032 0.1524,-0.3556 0,-0.11853 -0.0169,-0.23707 -0.0169,-0.3556 0,-0.3048 0.254,-0.508 0.254,-0.57573 0,-0.1524 -0.23706,-0.37253 -0.23706,-0.508 0,-0.13547 0.1016,-0.22013 0.254,-0.37253 -0.0169,0.0169 -0.0169,0.0339 -0.0169,0.0339 0.0169,-0.0169 0.0169,0 0.0169,-0.0339 0,0 -0.0169,0.0169 -0.0339,0.0169 0,0.2032 0.1016,0.82973 0.254,0.82973 0.0677,0 0.11853,-0.0169 0.1524,-0.0169 0.0847,0 0.0847,0.0508 0.1016,0.22013 z m -0.4064,-1.4732 c -0.0169,-0.0169 -0.0339,-0.0169 -0.0339,-0.0169 0,-0.0169 0,-0.0508 0.0169,-0.0508 0.0169,0 0.0339,0 0.0339,0.0169 0,0.0169 -0.0169,0.0339 -0.0169,0.0508 z m 0.0847,-0.74506 c 0.0508,0 0.0508,0.0339 0.0508,0.0508 -0.0169,0.0169 -0.0339,0.0339 -0.0339,0.0339 -0.0169,0 -0.0339,-0.0169 -0.0339,-0.0508 0,-0.0169 0.0169,-0.0339 0.0169,-0.0339 z m -0.0169,3.08186 c 0,0 0.0169,-0.0169 0.0169,-0.0169 0,0.1524 -0.0508,0.3048 -0.0508,0.4572 0,0.0677 0.0339,0.13546 0.0339,0.2032 0,0.22013 -0.2032,0.47413 -0.2032,0.54186 0,0.11853 0.16934,0.27093 0.16934,0.44027 0,0.1524 -0.11854,0.28786 -0.11854,0.4572 0,0.0339 0.0169,0.0847 0.0169,0.11853 0,0.0677 -0.0508,0.22013 -0.1016,0.22013 -0.18627,0 -0.22014,-0.42333 -0.22014,-0.84666 0,-0.16934 0.0169,-0.32174 0.0169,-0.4572 0,-0.23707 -0.0169,-0.4064 -0.0677,-0.4064 -0.0847,0.0339 -0.0847,0.11853 -0.0847,0.18627 0,0.0677 0.0169,0.11853 0.0169,0.18626 0,0.13547 -0.0508,0.27093 -0.11853,0.37253 h 0.0169 c 0.11853,0.0508 0.16933,0.0847 0.16933,0.1524 0,0.1524 -0.1524,0.27094 -0.22013,0.27094 -0.11853,0 -0.16933,-0.11854 -0.23706,-0.11854 -0.16934,0 -0.16934,0.57574 -0.28787,0.79587 0,0.0339 0.0847,0.1016 0.11853,0.1016 0.13547,0 0.22014,-0.52493 0.3556,-0.52493 0.0677,0 0.0847,0.0677 0.11853,0.11853 0,0.18627 -0.22013,0.37253 -0.22013,0.6096 0,0.0677 0.0169,0.13546 0.0169,0.2032 0,0.32173 -0.37253,0.8636 -0.37253,0.93133 0,0.2032 0.2032,0.67733 0.2032,0.74506 0,0.0508 -0.0169,0.11854 -0.0169,0.16934 0,0.28786 0.38946,0.69426 0.38946,1.04986 -0.0169,0.0508 -0.0169,0.0847 -0.0169,0.11854 0,0.20319 0.4064,0.60959 0.84667,0.60959 0.11853,0 0.57573,-0.0677 0.66039,-0.32173 0,-0.0339 0.1016,-0.0677 0.1524,-0.0677 0.0339,0 0.0677,0.0169 0.1016,0.0169 0.0339,0 0.52494,-0.4572 0.54187,-0.52493 0.0508,-0.18627 0.254,-0.1524 0.254,-0.33867 0.0508,-0.23706 0.0677,-0.254 0.33867,-0.254 0.0169,0 0.0847,0.0508 0.11853,0.0508 0.0847,0 0.0508,-0.3048 0.0677,-0.44026 0.0508,-0.28787 0.44027,-0.254 0.44027,-0.8128 0,-0.33867 -0.1016,-0.74507 -0.1016,-1.1176 0,-0.2032 0.0169,-0.4064 0.0508,-0.6096 0.16933,-0.18626 0.23706,-0.254 0.23706,-0.37253 0,-0.0677 -0.0339,-0.13547 -0.0677,-0.27093 -0.47413,0.67733 -0.94826,1.28693 -1.33773,1.99813 -0.27093,0.49106 -0.82973,1.45626 -1.10066,1.45626 -0.52494,0 -0.0847,-0.762 -0.44027,-0.9652 -0.0677,-0.0339 -0.0847,-0.18626 -0.0847,-0.23706 0,-0.18627 0.2032,-0.23707 0.2032,-0.3556 0,-0.16934 -0.18626,-0.27094 -0.18626,-0.44027 0,-0.74506 0.1524,-1.43933 0.1524,-2.23519 0,-0.0847 -0.0339,-0.18627 -0.0339,-0.27094 0,-0.2032 0.11853,-0.3556 0.18627,-0.57573 -0.0847,0 -0.1524,0.0339 -0.23707,0.0339 -0.0169,0 -0.0508,0 -0.0847,-0.0339 z m -0.38946,3.09879 c 0.0169,-0.1524 -0.0339,-0.32173 0.1524,-0.40639 0.0677,0 0.1016,0.25399 0.1016,0.33866 0,0.13547 -0.0677,0.42333 -0.27094,0.42333 -0.0169,0 -0.0339,-0.0339 -0.0339,-0.0508 0.0169,-0.1016 0.0339,-0.2032 0.0508,-0.3048 z m 2.48919,1.79493 c -0.0677,-0.0339 -0.16933,0 -0.16933,-0.13546 0.0339,-0.0677 0.0508,-0.11854 0.13547,-0.11854 0.0847,0 0.1524,0.0508 0.1524,0.13547 0,0.13547 0,0.11853 -0.11854,0.11853 z m 0.1524,-0.69426 c -0.0508,0.0847 -0.0847,0.1016 -0.13546,0.1016 -0.0508,-0.0339 -0.1016,-0.0677 -0.1016,-0.1016 0,-0.0847 0.0339,-0.11853 0.0847,-0.11853 0.0508,0 0.1016,0.0847 0.1524,0.11853 z m 0.38947,-0.98213 c -0.0169,0 -0.0169,0.0169 -0.0339,0.0169 -0.0339,0 -0.0508,-0.0508 -0.0508,-0.0847 0,-0.0169 0.0169,-0.0508 0.0508,-0.0508 0.0169,0 0.0339,0.0677 0.0339,0.11854 z m -0.89747,2.03199 c 0,0.0508 0,0.0847 -0.0508,0.0847 -0.0339,0 -0.0339,-0.0677 -0.0339,-0.1016 0.0169,-0.0169 0.0339,-0.0339 0.0508,-0.0339 0.0169,0.0169 0.0339,0.0339 0.0339,0.0508 z m 0.42334,-1.71026 c 0.0169,-0.0339 0.0339,-0.0677 0.0508,-0.1016 0,0.0169 0.0339,0.0339 0.0339,0.0508 -0.0169,0.0339 -0.0339,0.0508 -0.0508,0.0847 0,-0.0169 -0.0169,-0.0169 -0.0339,-0.0339 z m -1.84573,-4.41959 c 0,0 0.0169,0.0169 0.0169,0.0169 -0.22013,0.0677 -0.32173,0.0508 -0.38947,0.42333 -0.0508,-0.0339 -0.11853,-0.0677 -0.1524,-0.13546 -0.0847,0.16933 -0.0677,0.38946 -0.0677,0.59266 0,0.0339 0.0508,0.0847 0.1016,0.0847 0.0508,0 0.11853,-0.0677 0.18627,-0.11853 0,0 -0.0169,0.0169 -0.0169,0.0169 0,-0.23707 0.4064,-0.3048 0.4064,-0.6096 0,-0.0847 -0.0339,-0.16933 -0.0847,-0.27093 z m 3.40359,1.1176 c 0.0847,0.0508 0.18627,0.1524 0.28787,0.1524 0.23706,0 0.40639,-0.49107 0.40639,-0.762 0,-0.0339 -0.0339,-0.0508 -0.0677,-0.0508 -0.33866,0 -0.3556,0.49106 -0.62653,0.6604 z m 3.75919,-3.38666 c 0.3556,-0.11854 0.44027,-0.11854 0.44027,-0.49107 0,-0.0339 -0.0677,-0.0677 -0.0847,-0.0677 -0.23707,0.0169 -0.508,0.16933 -0.508,0.42333 0,0.1016 0.0847,0.13547 0.1524,0.13547 z m -2.31986,1.99813 c 0.0677,0 0.23707,-0.2032 0.23707,-0.27094 0,-0.0508 -0.0508,-0.11853 -0.11854,-0.11853 -0.11853,0 -0.18626,0.1524 -0.18626,0.22013 0,0.0677 0,0.1016 0.0677,0.16934 z m -6.16372,1.94733 c 0,0.2032 -0.0169,0.30479 0.0508,0.30479 0.0339,-0.0169 0.0508,-0.0677 0.0508,-0.0847 0,-0.0847 -0.0508,-0.11853 -0.1016,-0.22013 z m 5.74039,-1.49013 c 0.0169,-0.0169 0.0169,-0.0339 0.0169,-0.0508 0,-0.0169 -0.0339,-0.0508 -0.0847,-0.0508 -0.0339,0 -0.0508,0.0169 -0.0677,0.0508 0,0.0339 0.0169,0.0677 0.0339,0.10159 0.0339,-0.0169 0.0677,-0.0339 0.1016,-0.0508 z m -1.38853,1.89652 c -0.0677,0 -0.11854,0.0508 -0.11854,0.0847 0,0.0339 0.0508,0.0677 0.13547,0.0677 0.0677,0 0.11853,-0.0339 0.11853,-0.0847 0,-0.0508 -0.0508,-0.0677 -0.13546,-0.0677 z m 2.99719,-3.75919 c 0.0169,0 0.0169,0.0169 0.0339,0.0169 0.0339,0 0.0677,-0.0677 0.0677,-0.1016 0,-0.0339 -0.0339,-0.0847 -0.0677,-0.0847 -0.0339,0 -0.0847,0.0339 -0.0847,0.0847 0,0.0169 0.0339,0.0508 0.0508,0.0847 z m -0.4064,0.28787 c 0.0508,0 0.11853,0.0508 0.16933,0.0508 0.0339,0 0.0677,-0.0339 0.0677,-0.0677 -0.0339,-0.0508 -0.0677,-0.0677 -0.11854,-0.0677 -0.0508,0 -0.0847,0.0508 -0.11853,0.0847 z m -0.0169,-0.0339 c 0,0 0.0169,0.0339 0.0169,0.0339 -0.0677,0.0339 -0.16933,0.1016 -0.16933,0.1524 0,0.0169 0.0169,0.0339 0.0508,0.0339 0.0677,0 0.0847,-0.1524 0.1016,-0.22013 z m -2.67546,4.18253 c 0,-0.0169 0,-0.0339 -0.0169,-0.0508 0,0.0169 -0.0339,0.0169 -0.0339,0.0339 0,0.0169 0.0169,0.0339 0.0169,0.0508 0.0169,-0.0169 0.0339,-0.0169 0.0339,-0.0339 z m -3.92853,-1.43933 c -0.0339,0.0169 -0.13547,0 -0.18627,0.0508 0.0339,0.0169 0.0677,0.0677 0.0847,0.0677 0.0677,0 0.1016,-0.0508 0.1016,-0.11853 z m 0.13547,-0.18627 c -0.0508,0.0677 -0.0847,0.11853 -0.13547,0.18627 0,0 0.0169,0.0169 0.0169,0.0169 0.0508,-0.0677 0.1016,-0.11853 0.11854,-0.2032 z m -0.13547,1.20226 c 0,0 -0.0169,0 -0.0169,0 0.0169,0 0.0169,0 0.0339,0 -0.0169,0.0169 -0.0169,0.0169 -0.0339,0.0169 0,0 0.0169,-0.0169 0.0169,-0.0169 z"
         style="fill:#ee0000"
         id="path2165" />
      <path
         d="m 107.93264,137.63848 c 0.32173,0.0339 0.2032,0.2032 0.254,0.32173 0,0.7112 0.62653,1.08373 1.18533,1.08373 0.79586,0 0.762,-0.0169 1.60866,-1.55786 0.33867,-0.7112 0.93133,-2.01506 1.04987,-2.04893 0.42333,-0.11853 0.3556,-0.38946 0.45719,-0.8128 0.0339,-0.1524 0.64347,-0.69426 0.67734,-0.69426 0.22013,-0.11854 0.27093,-0.27094 0.38946,-0.54187 0.42334,0 0.22014,-0.42333 0.49107,-0.47413 0.13546,-0.0169 0.254,-0.0508 0.4064,-0.0847 0.0169,0.18627 0.1016,0.3556 0.1016,0.5588 -0.16934,0.32173 -0.254,0.1016 -0.254,1.28693 0,0.0847 0,0.18627 0.0169,0.27094 0,0.18626 -0.254,0.49106 -0.27093,0.82973 -0.0847,1.43933 -0.23707,3.11572 -0.23707,4.43652 0,0.23707 0.254,0.32173 0.254,0.6096 0,0.16933 -0.0169,0.33867 -0.0169,0.508 0.0169,0.28787 -0.0169,0.59267 0.23706,0.8128 0.0847,0.0508 0.0169,0.254 0.18627,0.4064 0.28787,0.27093 0.49107,0.54186 0.9144,0.54186 0.254,0 0.6604,0 0.79586,-0.3048 0.11854,-0.27093 0.3556,-0.47413 0.4064,-0.82973 0,-0.3556 0,-0.93133 0.13547,-1.18533 0.16933,-0.22013 0.0677,-0.49106 0.18627,-0.6604 0.22013,-0.42333 0.3048,-1.04986 0.42333,-1.52399 0.11853,-0.49107 0.38946,-0.94827 0.4572,-1.45627 0,-0.52493 0.89746,-1.60866 1.016,-1.79493 0.0169,-0.0169 0.0339,-0.0508 0.0339,-0.0847 0,-0.16933 -0.254,-0.25399 -0.37253,-0.25399 -0.3556,0 -0.84667,0.55879 -0.9652,0.99906 -0.0169,0.0677 -0.0508,0.16933 -0.11853,0.22013 -0.47413,0.44027 -0.38947,0.8636 -0.5588,1.50707 -0.0508,0.22013 -0.22013,0.23706 -0.23707,0.4064 -0.22013,0.60959 -0.38946,1.21919 -0.57573,1.87959 0,0.37253 -0.38946,1.64253 -0.64346,1.64253 -0.0508,0 -0.23707,-0.59266 -0.23707,-0.6604 0,-0.0677 0.0169,-0.1524 0.0339,-0.22013 -0.1016,-0.1016 -0.13547,-0.22013 -0.13547,-0.33867 0,-0.1016 0.0169,-0.23706 0.0169,-0.35559 0,-0.254 -0.0169,-0.508 -0.0169,-0.77894 0,-0.77893 0.16933,-1.64253 0.16933,-2.42146 0,-0.3556 0.27094,-0.7112 0.27094,-0.9652 0,-1.26999 0.49106,-2.55692 0.49106,-3.65759 0,-0.79586 -0.52493,-0.98213 -0.89746,-0.98213 -0.42334,0 -0.59267,0.28787 -0.88054,0.4064 -0.52493,0.2032 -0.81279,0.74506 -1.25306,0.9652 -0.38947,-0.508 -0.77893,-0.8636 -1.55786,-0.8636 -1.1684,0 -1.3716,0.84666 -1.84573,1.524 -0.59267,0.84666 -0.7112,1.40546 -0.9144,1.93039 -0.2032,0.52493 -0.42333,1.08373 -0.42333,1.64253 -0.0169,0.1524 -0.11854,0.22013 -0.254,0.254 z m 4.60585,-4.65666 c 0,0.0508 0.0169,0.0847 0.0169,0.11854 0,0.16933 -0.254,0.50799 -0.254,0.50799 -0.37253,0.28787 -0.57573,0.72814 -0.93133,1.016 -0.18627,0.1524 -0.32174,0.3556 -0.44027,0.54187 -0.23706,0.38946 -1.1176,1.5748 -1.18533,1.5748 -0.0847,0 -0.1016,-0.0508 -0.1016,-0.11854 0.254,-1.28693 1.04987,-2.92946 2.11666,-3.64066 0.11854,-0.0677 0.22014,-0.1016 0.3556,-0.1016 0.11854,0 0.3048,0.0508 0.42333,0.1016 z"
         style="fill:#ee0000"
         id="path2167" />
      <path
         d="m 123.68059,141.39767 c 0.25399,-0.22013 0.45719,-0.77893 0.50799,-0.8128 0.16934,-0.0847 0.16934,-0.2032 0.16934,-0.38946 0,-0.22013 0.33866,-0.42333 0.33866,-0.762 0,-0.1016 -0.0339,-0.22013 -0.0339,-0.32173 0,0.0169 0.22013,-0.88053 0.23706,-0.89747 0.2032,-0.22013 0.1524,-0.5588 0.42334,-0.82973 0.1524,-0.11853 0.0339,-0.37253 0.13546,-0.52493 0.22013,-0.13547 0.77893,-0.9652 0.77893,-1.27 0,-0.11853 -0.0847,-0.18627 -0.2032,-0.18627 -0.66039,0 -0.76199,0.79587 -1.08373,1.13454 -0.16933,0.18626 -0.2032,0.32173 -0.22013,0.55879 0,0.11854 -0.22013,0.1016 -0.27093,0.254 -0.27094,0.5588 -0.89747,2.1336 -1.1176,2.1336 -0.16933,0 -0.13547,-0.98213 -0.13547,-1.49013 0,-0.54187 0.0169,-1.04987 0.1524,-1.28693 0,0 0,0 0,-0.0169 0,-0.0339 -0.0677,-0.16934 -0.0677,-0.27094 0.0847,-0.0677 0.27093,-0.11853 0.27093,-0.22013 0,-0.0847 -0.18626,-0.22013 -0.18626,-0.33867 0,-0.0677 0.0508,-0.16933 0.0508,-0.23706 0,-0.0677 -0.0339,-0.13547 -0.0339,-0.18627 0,-0.28786 0.3556,-0.4064 0.3556,-0.74506 0,-1.65947 0.0677,-2.25213 -0.7112,-2.25213 -0.28787,0 -0.64347,0.0508 -0.82973,0.32173 -0.0847,0.13547 -0.72813,0.4064 -0.99907,0.72813 -0.2032,0.23707 -0.37253,0.5588 -0.5588,0.762 -0.67733,0.47413 -1.23613,1.778 -1.65946,1.778 -0.0339,-0.0508 -0.0677,-0.0847 -0.0677,-0.13547 0,-0.33867 0.27093,-0.7112 0.32173,-1.03293 0.0339,-0.74507 0.0677,-1.49013 0.0677,-2.2352 0,-0.38946 -0.0169,-0.81279 -0.52493,-0.81279 -0.3048,0 -0.82973,0.20319 -0.82973,0.44026 0,0.59267 -0.23707,1.23613 -0.23707,1.81186 0,0.1016 0.0169,0.18627 0.0169,0.27094 0,0.11853 -0.0847,0.2032 -0.0847,0.3048 0,0.13546 0.0677,0.27093 0.0677,0.4064 0,0.40639 -0.0339,0.72813 -0.0339,1.20226 0,0.74506 0.0677,1.6764 0.72813,1.6764 0.98213,0 1.40546,-0.74507 1.91346,-1.524 0.23707,-0.3556 0.74507,-1.13453 0.77893,-1.4224 0.0508,-0.42333 1.016,-1.33773 1.1684,-1.33773 0.0339,0 0.0508,0.1016 0.0508,0.13547 0,0.1524 -0.0677,0.33866 -0.0677,0.49106 0,0.27094 0.0677,0.54187 0.0677,0.8128 0,0.13547 -0.0169,0.54187 -0.22013,0.67733 -0.0339,0.0339 -0.0677,0.0677 -0.0677,0.1016 0,0.0847 0.10159,0.13547 0.10159,0.23707 -0.0339,0.2032 -0.13546,0.42333 -0.13546,0.6096 0,0.13547 0.16933,0.2032 0.16933,0.3048 0,0.0508 -0.0339,0.11853 -0.0339,0.16933 0,0.0677 0.0169,0.11853 0.0169,0.18627 0,0.0677 -0.3048,0.54186 -0.3048,0.8128 0,0.22013 0.0677,0.42333 0.0677,0.66039 0,0.1524 -0.0169,0.32174 -0.0169,0.49107 0.0339,0.89747 0.33866,2.15053 1.23613,2.15053 0.13547,-0.0847 0.2032,-0.11853 0.28787,-0.11853 0.0508,0 0.13546,0.0169 0.254,0.0339 z m -1.23614,-5.11385 c -0.0169,0.0339 -0.0339,0.0508 -0.0339,0.0847 -0.0339,-0.0339 -0.0339,-0.0508 -0.0339,-0.1016 0.0169,-0.0169 0.0339,-0.0169 0.0339,-0.0339 0.0169,0.0169 0.0339,0.0339 0.0339,0.0508 z m 0.6096,2.59079 0.0169,0.0508 h -0.0339 z"
         style="fill:#ee0000"
         id="path2169" />
      <path
         d="m 133.48495,131.13609 c -0.0508,-0.1016 -0.13546,-0.18626 -0.13546,-0.3048 0,-0.0339 0.0169,-0.0677 0.0169,-0.11853 0,-0.0508 -0.0508,-0.1524 -0.0508,-0.22013 0,-0.13547 0.27093,-0.0339 0.32173,-0.22014 0.1524,-1.11759 0.4064,-1.74413 0.4064,-1.96426 0,-0.67733 -0.27093,-0.79586 -0.94826,-0.79586 -0.52494,0 -1.1176,0.0677 -1.1176,0.6604 0,0.64346 -0.54187,1.93039 -0.59267,2.59079 0,0.49107 -0.27093,0.9144 -0.27093,1.33773 0,0.1016 0.0169,0.23707 0.0169,0.32173 0,0.4064 -0.1524,0.11854 -0.7112,0.49107 -0.28786,0.2032 -0.82973,0.28787 -1.18533,0.37253 -0.4064,0.1016 -0.7112,0.4064 -1.30386,0.44027 -0.0847,0 -0.1524,-0.0508 -0.23707,-0.0508 -0.1524,0 -0.11853,0.18626 -0.27093,0.18626 -0.0508,0 -0.0677,-0.0677 -0.0677,-0.11853 0,-0.3556 0.42333,-0.37253 0.42333,-0.72813 0,-0.0508 -0.0339,-0.11853 -0.0339,-0.16933 0,-0.1016 0.0847,-0.2032 0.0847,-0.28787 0,-0.11853 -0.0847,-0.254 -0.0847,-0.38947 0,-0.22013 0.254,-0.40639 0.254,-0.57573 0,-0.0508 -0.0339,-0.11853 -0.0339,-0.18626 0,-0.1016 0.1016,-0.2032 0.1016,-0.3048 0,-0.11854 -0.1016,-0.2032 -0.1016,-0.32174 0,-0.42333 0.37253,-0.89746 0.37253,-1.20226 0,-0.16933 -0.32173,0 -0.32173,-0.22013 0.0677,-0.32174 0.0847,-0.6096 0.0847,-0.99907 0,-0.3556 -0.0508,-0.7112 -0.33866,-0.7112 -0.3556,0 -0.93134,0.11854 -1.1684,0.23707 -0.0508,0.37253 -0.0169,0.72813 -0.13547,1.08373 0,0.0169 -0.0169,0.0339 -0.0169,0.0677 0,0.1524 0.0339,0.28787 0.0339,0.44027 0,0.22013 -0.0508,0.42333 -0.0508,0.64347 0,0.22013 0.23706,0.28786 0.23706,0.42333 0,0.0339 -0.0169,0.0847 -0.0339,0.1016 -0.22014,0.3048 -0.254,0.74506 -0.254,1.1684 0,0.20319 0.0169,0.38946 0.0169,0.57573 0,0.22013 -0.0169,0.42333 -0.0677,0.5588 -0.1524,0.38946 -0.1016,1.11759 -0.23707,1.28693 -0.13547,0.1524 -0.18627,0.32173 -0.18627,0.49106 0,0.38947 0.0677,0.8636 0.0677,1.28693 0,0.23707 -0.0508,0.4572 -0.0508,0.67734 0,0.1524 0.0339,0.30479 0.0339,0.45719 0,0.11854 -0.0169,0.22014 -0.0169,0.32174 0,0.44026 0.0677,0.89746 0.0847,1.33773 -0.0339,0.0847 -0.0339,0.1524 -0.0339,0.22013 0,0.32173 0.16933,0.59267 0.16933,0.94827 0,0.38946 0.23707,0.69426 0.23707,1.06679 0,0.0339 -0.0169,0.0677 -0.0169,0.1016 0,0.27094 0.45719,0.6096 0.60959,0.6096 0.3048,0 0.62654,-0.762 0.62654,-1.15146 0,-0.254 -0.1524,-0.49107 -0.1524,-0.77893 0,-0.42334 -0.13547,-0.82974 -0.16934,-1.25307 -0.1016,0.11853 -0.1016,0.28787 -0.27093,0.28787 -0.13547,0 -0.0677,-0.4064 -0.0847,-0.4064 0,-0.3556 -0.23706,-0.16933 -0.23706,-1.0668 0,-0.1524 0.18626,-0.27093 0.18626,-0.38947 0,-0.15239 -0.22013,-0.15239 -0.25399,-0.30479 0,-0.254 -0.0169,-0.508 -0.0339,-0.762 0.11853,-0.16934 0.22013,-0.32174 0.32173,-0.47414 -0.1016,0.0339 -0.18626,0.0677 -0.28786,0.1016 0,0 -0.0339,-0.0508 -0.0339,-0.0847 0,-0.0169 0.0169,-0.0508 0.0339,-0.0508 0.35559,0 0.25399,0.33866 0.38946,0.33866 0.0169,0 0.0339,-0.0339 0.0339,-0.0677 0,-0.0339 -0.0169,-0.0847 -0.0169,-0.11853 0,-0.11854 0.0339,-0.23707 0.11854,-0.23707 0.0508,0 0.1016,0.16933 0.13546,0.16933 0.11854,0 0.4064,-0.62653 0.8636,-0.62653 0.52493,0 1.79493,-0.7112 2.2352,-0.7112 0.2032,0 0.254,0.762 0.37253,0.99907 0.0169,0.0508 0.0339,0.1016 0.0339,0.16933 0,0.23707 -0.1524,0.4572 -0.1524,0.74507 0,0.28786 0.59266,0.8128 0.59266,0.94826 0,0.11853 -0.16933,0.16933 -0.254,0.23707 -0.0508,-0.0677 -0.0847,-0.13547 -0.1524,-0.23707 -0.0677,0.22013 -0.2032,0.4064 -0.2032,0.54187 0,0.82973 0.2032,1.50706 0.254,2.37066 0.0169,0.18627 0.18627,0.4064 0.3556,0.4064 0.42334,0 0.9144,-1.3208 0.9144,-1.4732 0,-0.3048 -0.23707,-0.69426 -0.23707,-0.88053 0,-0.18627 0.22014,-0.37253 0.22014,-0.508 0,-0.1524 -0.13547,-0.1524 -0.16934,-0.18627 0,-0.254 0.16934,-0.32173 0.16934,-0.54186 0,-0.0339 -0.0169,-0.0847 -0.0169,-0.11853 0,-0.0508 0.0169,-0.0847 0.0339,-0.1016 0.1524,-0.22014 0.18627,-0.49107 0.18627,-0.762 0,-0.254 -0.0339,-0.49107 -0.0339,-0.69427 0,-0.254 0.0508,-0.42333 0.3048,-0.42333 0.0339,0 0.0677,0.0847 0.13547,0.2032 0.11853,-0.5588 0.1524,-1.10067 0.67733,-1.4224 0.33866,-0.2032 0.69426,-0.74506 0.69426,-1.016 0,-0.0677 -0.0508,-0.32173 -0.18626,-0.32173 -0.11854,0 -0.16934,0.28787 -0.54187,0.28787 -0.13546,0 -0.2032,-0.0677 -0.2032,-0.28787 0,-0.38946 0.0339,-0.64346 0.3048,-0.9652 z m -1.27,1.016 c 0,0.0169 -0.0169,0.0169 -0.0169,0.0169 0.0169,0 0.0169,0 0.0339,0 l -0.0169,0.0339 c 0,0 0,-0.0508 0,-0.0508 z m -0.38946,4.09786 c -0.0339,-0.0508 -0.0847,-0.1016 -0.11853,-0.1524 0,-0.0169 0.0339,-0.11853 0.0847,-0.11853 0.0339,0.0339 0.0677,0.0677 0.0677,0.1016 0,0.0508 -0.0339,0.11853 -0.0508,0.16933 0.0339,0.0847 0.13546,0.13547 0.13546,0.22013 0,0.0677 -0.0339,0.0847 -0.1016,0.11854 -0.0169,0 -0.0677,-0.0508 -0.0677,-0.0847 0,-0.0847 0.0339,-0.18627 0.0508,-0.254 z m -4.77519,-2.26906 c 0.0169,0.0169 0.0169,0.0339 0.0169,0.0508 0,0.0169 0,0.0339 -0.0169,0.0508 -0.0169,0 -0.0339,-0.0169 -0.0508,-0.0169 0.0169,-0.0339 0.0508,-0.0508 0.0677,-0.0677 -0.13547,-0.11853 -0.254,-0.32173 -0.254,-0.47413 0,-0.1016 0.1016,-0.18627 0.22013,-0.22013 0.13547,0 0.13547,0.22013 0.13547,0.33866 0,0.1016 0,0.33867 -0.11853,0.33867 z m -0.64347,4.43652 c 0,0.0339 0.0169,0.0169 0.0169,0.0169 -0.254,-0.23707 -0.23707,-0.4572 -0.23707,-0.762 0,-0.16934 0.0169,-0.37254 0.1524,-0.4572 0.0339,0 0.0508,0.0169 0.0508,0.0508 0,0.0508 -0.0339,0.1016 -0.0339,0.13546 0,0.1524 0.18627,0.3556 0.18627,0.5588 0,0.1524 -0.13547,0.33867 -0.13547,0.4572 z m 5.36786,-0.44026 c -0.0169,0.0677 -0.0169,0.254 -0.1524,0.32173 -0.16933,0 -0.16933,-0.1524 -0.16933,-0.27093 0,-0.11854 0.0677,-0.38947 0.2032,-0.38947 0.1016,0 0.0847,0.16933 0.11853,0.33867 z m -5.28319,0.91439 c 0.0508,0.18627 0.0847,0.38947 0.0847,0.57574 0,0.1016 -0.0339,0.2032 -0.0339,0.28786 -0.0508,-0.0169 -0.22013,-0.5588 -0.22013,-0.74506 0,-0.0339 0.0508,-0.0847 0.16933,-0.11854 z m -0.0677,-3.42052 c -0.0339,0.0339 -0.0677,0.0677 -0.0847,0.0847 -0.11853,0 -0.1016,-0.28786 -0.1016,-0.33866 0,0 0.0339,-0.0339 0.0508,-0.0339 0.13547,0.0677 0.11853,0.2032 0.13547,0.28787 z m 4.82599,2.99719 c 0.0339,0 0.0339,0.0508 0.0339,0.1016 0,0.11853 0,0.254 -0.0847,0.254 -0.1016,0 -0.1524,-0.13547 -0.1524,-0.18627 0,-0.0847 0.0677,-0.16933 0.2032,-0.16933 z m -3.84386,-6.04519 c 0.0169,0.0677 0.0339,0.13547 0.0339,0.2032 0,0.0508 -0.0169,0.1016 -0.0339,0.1524 -0.0339,-0.0677 -0.0339,-0.1016 -0.0339,-0.1524 0,-0.0508 0,-0.1016 0.0339,-0.2032 z m 0.0677,-1.33773 c -0.0677,0 -0.1016,-0.0169 -0.1016,-0.0847 0,-0.0847 0.13547,-0.16934 0.13547,-0.16934 0.0677,0 0.0847,0.0847 0.0847,0.11854 0,0.0847 -0.0508,0.11853 -0.11853,0.13546 z m 3.52213,4.89373 c 0,0.0339 -0.0339,0.0508 -0.0677,0.0847 0,-0.0339 -0.0339,-0.0677 -0.0339,-0.1016 0,-0.0339 0.0339,-0.0508 0.0677,-0.0847 0.0169,0.0339 0.0339,0.0677 0.0339,0.1016 z m 0.88053,-0.8636 c -0.0169,0.0508 -0.0339,0.11853 -0.0847,0.11853 -0.0339,0 -0.0677,-0.0169 -0.0677,-0.0677 0,-0.0508 0.0508,-0.1016 0.1016,-0.1016 0.0169,0 0.0508,0.0169 0.0508,0.0508 z m -0.0508,0.62653 c -0.0169,0 -0.0339,0.0169 -0.0508,0.0169 0,0 -0.0169,-0.0339 -0.0169,-0.0339 0,0 0.0169,-0.0339 0.0508,-0.0339 0,0 0.0169,0 0.0339,0.0169 0,0 -0.0169,0.0169 -0.0169,0.0339 z m 1.20226,-4.21639 c -0.0169,0.0169 -0.0169,0.0339 -0.0339,0.0339 -0.0169,0 -0.0339,-0.0169 -0.0339,-0.0169 0,-0.0339 0.0169,-0.0677 0.0169,-0.0847 0.0508,0 0.0508,0.0508 0.0508,0.0677 z m -5.62185,0.37253 c 0,0.0169 0,0.0339 -0.0169,0.0508 0,-0.0169 -0.0169,-0.0339 -0.0169,-0.0508 0,-0.0169 0.0169,-0.0339 0.0169,-0.0508 0.0169,0.0169 0.0169,0.0339 0.0169,0.0508 z m -0.27094,0.49107 c -0.0169,-0.0339 -0.0508,-0.0677 -0.0508,-0.1016 0,-0.0339 0.0339,-0.0677 0.0508,-0.1016 0.0169,0.0339 0.0508,0.0677 0.0508,0.1016 0,0.0339 -0.0339,0.0677 -0.0508,0.1016 z m -0.38946,7.14585 c 0,0 0.0339,0.0169 0.0339,0.0169 0,0.0169 -0.0169,0.0339 -0.0169,0.0508 -0.0169,-0.0169 -0.0339,-0.0169 -0.0339,-0.0169 0,-0.0169 0,-0.0339 0.0169,-0.0508 z m 4.97839,-2.40453 c 0.0169,0.0339 0.0339,0.0677 0.0339,0.1016 0,0.0169 -0.0169,0.0339 -0.0339,0.0339 -0.0169,0 -0.0339,-0.0169 -0.0339,-0.0339 0,-0.0339 0.0169,-0.0677 0.0339,-0.1016 z m -4.89373,-0.7112 c 0.11854,-0.0677 0.1016,-0.0677 0.13547,-0.2032 0,0 -0.0169,-0.0169 -0.0339,-0.0169 -0.0339,0 -0.11853,0.0169 -0.11853,0.0508 0,0.0508 0.0169,0.1016 0.0169,0.16933 z m 6.67173,-5.26625 c 0,0 -0.0169,-0.0169 -0.0169,-0.0169 0.0508,-0.0847 0.13547,-0.23706 0.13547,-0.3048 0,-0.0169 0,-0.0339 -0.0339,-0.0339 -0.1016,0 -0.13546,0.13546 -0.13546,0.2032 0,0.0508 0.0169,0.1016 0.0508,0.1524 z m -6.58706,6.73945 c 0,-0.0508 -0.0169,-0.0677 -0.0508,-0.1016 -0.0169,0.0339 -0.0339,0.0677 -0.0508,0.1016 0,0.0339 0.0169,0.0677 0.0508,0.0677 0.0169,0 0.0339,-0.0339 0.0508,-0.0677 z m -0.52493,0.0339 c 0,-0.0169 -0.0169,-0.0339 -0.0169,-0.0508 -0.0169,0.0169 -0.0339,0.0339 -0.0339,0.0508 0,0 0.0169,0.0169 0.0339,0.0339 0,-0.0169 0.0169,-0.0169 0.0169,-0.0339 z"
         style="fill:#ee0000"
         id="path2171" />
      <path
         d="m 141.30812,133.38822 c 0.0169,0.0677 0.0169,0.1524 0.0169,0.22013 0,0.254 -0.0677,0.508 -0.0677,0.762 0,0.0677 0.0169,0.1524 0.0169,0.22014 0,0.6096 -0.16934,1.26999 -0.16934,1.89653 0,0.254 0.0508,0.50799 0.0508,0.76199 0,0.22014 -0.0169,0.47414 -0.0169,0.69427 0,0.13547 0.0508,0.254 0.0508,0.37253 0,0.13547 -0.0339,0.254 -0.0508,0.37253 0,0.88054 0.33867,1.10067 0.37253,1.43934 0.0339,0.23706 0.508,0.54186 0.8636,0.54186 1.016,0 1.18533,-1.64253 1.64253,-2.20133 0.1524,-0.18626 0.0677,-0.49106 0.22013,-0.7112 0.27094,-0.38946 0.42334,-0.8128 0.64347,-1.23613 0.3048,-0.44026 0.762,-0.93133 0.9144,-1.35466 0,-0.16933 -0.16933,-0.16933 -0.28787,-0.16933 -0.47413,0 -0.74506,0.60959 -0.93133,0.99906 -0.37253,0.49107 -0.6604,1.03293 -0.93133,1.5748 -0.22013,0.44026 -0.8636,1.82879 -1.10067,1.82879 -0.16933,0 -0.2032,-0.4572 -0.2032,-0.67733 0,-0.1524 0.0339,-0.3048 0.1016,-0.4572 0.1524,-0.3556 0.16934,-0.72813 0.18627,-1.1176 0,-0.0677 -0.0169,-0.1524 -0.0169,-0.22013 0,-0.42333 0.254,-0.762 0.254,-1.13453 0,-0.2032 -0.0169,-0.38947 -0.0169,-0.59266 0,-0.62654 0.27094,-0.94827 0.27094,-1.79493 0,-1.1684 -0.254,-1.3208 -1.28693,-1.3208 -0.37254,0 -0.59267,0.3048 -0.8636,0.49106 -1.10067,0.77894 -1.99813,1.8288 -2.794,2.92946 -0.16933,0.23707 -0.33866,0.59267 -0.59266,0.72814 -0.18627,0 -0.22014,-0.508 -0.22014,-1.03293 0,-1.35467 0.13547,-1.86267 0.13547,-3.03107 0,-0.69426 -0.88053,-0.71119 -1.35466,-0.71119 -0.23707,0 -0.37254,2.33679 -0.42334,2.87866 -0.0339,0.3556 -0.0847,0.72813 -0.0847,1.08373 0,0.4572 0.23706,0.82973 0.23706,1.30386 0,0.98213 0.84667,1.49013 1.4732,1.49013 1.18533,0 1.45627,-0.9652 1.778,-1.98119 0.0677,-0.2032 0.1016,-0.42334 0.28786,-0.54187 0.0169,-0.2032 0.254,-0.27093 0.28787,-0.47413 0.0339,-0.2032 0.99906,-1.8288 1.60866,-1.8288 z"
         style="fill:#ee0000"
         id="path2173" />
      <path
         d="m 148.1661,135.03075 c 0.0677,-0.3556 0.1016,-0.47413 0.1016,-0.88053 0,-0.254 0.22013,-0.44027 0.22013,-0.69426 0.0508,-0.42334 0.0847,-0.82974 0.13547,-1.25307 -0.0169,-0.0169 -0.0169,-0.0508 -0.0169,-0.0677 0,-0.11854 0.0847,-0.23707 0.0847,-0.3556 0,-0.0339 0,-0.0847 -0.0169,-0.11853 0.11853,-0.27094 1.25306,-0.82974 1.23613,-0.82974 0.5588,-0.11853 0.94826,-0.11853 1.49013,-0.4572 0.0508,-0.0339 0.11853,-0.0508 0.18626,-0.0508 0.0508,0 0.11854,0.0169 0.16934,0.0169 0.1016,0 0.22013,-0.11854 0.28786,-0.11854 0.0847,0 0.27094,0.1016 0.3048,0.1016 0.0677,0 0.38947,-0.30479 0.38947,-0.42333 0,-0.0508 -0.0169,-0.1016 -0.0508,-0.16933 -0.0169,0.0339 -0.0508,0.0508 -0.0677,0.0508 -0.18627,0 0.0847,-0.6604 -0.6096,-0.6604 -0.23707,0 -0.2032,0.3048 -0.3556,0.3048 -0.1016,0 -0.18627,-0.22013 -0.28787,-0.22013 -0.2032,0 -0.52493,0.42333 -0.762,0.42333 -0.508,0 -1.15146,0.32173 -1.42239,0.42333 -0.16934,-0.0677 -0.13547,-0.28786 -0.28787,-0.38946 0,0.0169 0.0169,0.0339 0.0169,0.0508 0.0169,-0.0169 0.0169,-0.0339 0.0169,-0.0339 -0.0169,0 -0.0339,0 -0.0508,0.0169 0.1016,-0.0677 0.13546,-0.3048 0.13546,-0.54186 0,-0.72813 -0.13546,-1.1176 -0.69426,-1.1176 -0.44027,0 -0.59267,0.254 -0.79587,0.64346 0.0169,0.1524 0.0339,0.3048 0.0339,0.4572 0,0.62654 -0.0508,1.74413 -0.49107,1.84573 -0.6604,0.1016 -1.15146,0.57574 -1.20226,0.57574 -0.18627,0 -0.5588,0.30479 -0.9144,0.37253 -0.2032,0.0339 -0.67733,0.0339 -0.67733,0.22013 0,0.508 0.93133,0.6604 1.1176,0.6604 0.86359,0 0.96519,-0.49107 1.47319,-0.49107 0.0508,-0.0339 0.0508,-0.1016 0.16934,-0.1016 0.11853,0 0.2032,0.0847 0.2032,0.18627 0,0.0677 -0.0169,0.13547 -0.0169,0.2032 0,0.1016 0.1016,0.18627 0.1016,0.28787 0,0.0508 -0.0169,0.1016 -0.0339,0.13546 -0.16934,0.32174 -0.22014,0.64347 -0.22014,0.9652 0,0.1016 0.0169,0.22013 0.0169,0.3048 0,0.13547 -0.0508,0.27093 -0.0508,0.38947 0,0.16933 0.0508,0.33866 0.0508,0.508 0,0.0508 -0.0169,0.10159 -0.0169,0.13546 0,0.0677 0.16934,0.16933 0.16934,0.27093 0,0.13547 -0.23707,0.16934 -0.23707,0.27094 0,0.13546 0.28787,0.0339 0.28787,0.28786 v -0.0169 c 0.13546,-0.0677 0.1524,-0.2032 0.1524,-0.3556 0,-0.11853 -0.0169,-0.23707 -0.0169,-0.3556 0,-0.3048 0.254,-0.508 0.254,-0.57573 0,-0.1524 -0.23706,-0.37253 -0.23706,-0.508 0,-0.13547 0.1016,-0.22013 0.254,-0.37253 -0.0169,0.0169 -0.0169,0.0339 -0.0169,0.0339 0.0169,-0.0169 0.0169,0 0.0169,-0.0339 0,0 -0.0169,0.0169 -0.0339,0.0169 0,0.2032 0.1016,0.82973 0.254,0.82973 0.0677,0 0.11853,-0.0169 0.1524,-0.0169 0.0847,0 0.0847,0.0508 0.1016,0.22013 z m -0.4064,-1.4732 c -0.0169,-0.0169 -0.0339,-0.0169 -0.0339,-0.0169 0,-0.0169 0,-0.0508 0.0169,-0.0508 0.0169,0 0.0339,0 0.0339,0.0169 0,0.0169 -0.0169,0.0339 -0.0169,0.0508 z m 0.0847,-0.74506 c 0.0508,0 0.0508,0.0339 0.0508,0.0508 -0.0169,0.0169 -0.0339,0.0339 -0.0339,0.0339 -0.0169,0 -0.0339,-0.0169 -0.0339,-0.0508 0,-0.0169 0.0169,-0.0339 0.0169,-0.0339 z m -0.0169,3.08186 c 0,0 0.0169,-0.0169 0.0169,-0.0169 0,0.1524 -0.0508,0.3048 -0.0508,0.4572 0,0.0677 0.0339,0.13546 0.0339,0.2032 0,0.22013 -0.2032,0.47413 -0.2032,0.54186 0,0.11853 0.16934,0.27093 0.16934,0.44027 0,0.1524 -0.11854,0.28786 -0.11854,0.4572 0,0.0339 0.0169,0.0847 0.0169,0.11853 0,0.0677 -0.0508,0.22013 -0.1016,0.22013 -0.18627,0 -0.22014,-0.42333 -0.22014,-0.84666 0,-0.16934 0.0169,-0.32174 0.0169,-0.4572 0,-0.23707 -0.0169,-0.4064 -0.0677,-0.4064 -0.0847,0.0339 -0.0847,0.11853 -0.0847,0.18627 0,0.0677 0.0169,0.11853 0.0169,0.18626 0,0.13547 -0.0508,0.27093 -0.11853,0.37253 h 0.0169 c 0.11853,0.0508 0.16933,0.0847 0.16933,0.1524 0,0.1524 -0.1524,0.27094 -0.22013,0.27094 -0.11853,0 -0.16933,-0.11854 -0.23707,-0.11854 -0.16933,0 -0.16933,0.57574 -0.28786,0.79587 0,0.0339 0.0847,0.1016 0.11853,0.1016 0.13547,0 0.22013,-0.52493 0.3556,-0.52493 0.0677,0 0.0847,0.0677 0.11853,0.11853 0,0.18627 -0.22013,0.37253 -0.22013,0.6096 0,0.0677 0.0169,0.13546 0.0169,0.2032 0,0.32173 -0.37253,0.8636 -0.37253,0.93133 0,0.2032 0.2032,0.67733 0.2032,0.74506 0,0.0508 -0.0169,0.11854 -0.0169,0.16934 0,0.28786 0.38946,0.69426 0.38946,1.04986 -0.0169,0.0508 -0.0169,0.0847 -0.0169,0.11854 0,0.20319 0.4064,0.60959 0.84666,0.60959 0.11854,0 0.57574,-0.0677 0.6604,-0.32173 0,-0.0339 0.1016,-0.0677 0.1524,-0.0677 0.0339,0 0.0677,0.0169 0.1016,0.0169 0.0339,0 0.52494,-0.4572 0.54187,-0.52493 0.0508,-0.18627 0.254,-0.1524 0.254,-0.33867 0.0508,-0.23706 0.0677,-0.254 0.33866,-0.254 0.0169,0 0.0847,0.0508 0.11854,0.0508 0.0847,0 0.0508,-0.3048 0.0677,-0.44026 0.0508,-0.28787 0.44027,-0.254 0.44027,-0.8128 0,-0.33867 -0.1016,-0.74507 -0.1016,-1.1176 0,-0.2032 0.0169,-0.4064 0.0508,-0.6096 0.16933,-0.18626 0.23706,-0.254 0.23706,-0.37253 0,-0.0677 -0.0339,-0.13547 -0.0677,-0.27093 -0.47413,0.67733 -0.94827,1.28693 -1.33773,1.99813 -0.27093,0.49106 -0.82973,1.45626 -1.10067,1.45626 -0.52493,0 -0.0847,-0.762 -0.44026,-0.9652 -0.0677,-0.0339 -0.0847,-0.18626 -0.0847,-0.23706 0,-0.18627 0.2032,-0.23707 0.2032,-0.3556 0,-0.16934 -0.18627,-0.27094 -0.18627,-0.44027 0,-0.74506 0.1524,-1.43933 0.1524,-2.23519 0,-0.0847 -0.0339,-0.18627 -0.0339,-0.27094 0,-0.2032 0.11853,-0.3556 0.18626,-0.57573 -0.0847,0 -0.1524,0.0339 -0.23706,0.0339 -0.0169,0 -0.0508,0 -0.0847,-0.0339 z m -0.38946,3.09879 c 0.0169,-0.1524 -0.0339,-0.32173 0.1524,-0.40639 0.0677,0 0.1016,0.25399 0.1016,0.33866 0,0.13547 -0.0677,0.42333 -0.27094,0.42333 -0.0169,0 -0.0339,-0.0339 -0.0339,-0.0508 0.0169,-0.1016 0.0339,-0.2032 0.0508,-0.3048 z m 2.48919,1.79493 c -0.0677,-0.0339 -0.16933,0 -0.16933,-0.13546 0.0339,-0.0677 0.0508,-0.11854 0.13546,-0.11854 0.0847,0 0.1524,0.0508 0.1524,0.13547 0,0.13547 0,0.11853 -0.11853,0.11853 z m 0.1524,-0.69426 c -0.0508,0.0847 -0.0847,0.1016 -0.13547,0.1016 -0.0508,-0.0339 -0.1016,-0.0677 -0.1016,-0.1016 0,-0.0847 0.0339,-0.11853 0.0847,-0.11853 0.0508,0 0.1016,0.0847 0.1524,0.11853 z m 0.38947,-0.98213 c -0.0169,0 -0.0169,0.0169 -0.0339,0.0169 -0.0339,0 -0.0508,-0.0508 -0.0508,-0.0847 0,-0.0169 0.0169,-0.0508 0.0508,-0.0508 0.0169,0 0.0339,0.0677 0.0339,0.11854 z m -0.89747,2.03199 c 0,0.0508 0,0.0847 -0.0508,0.0847 -0.0339,0 -0.0339,-0.0677 -0.0339,-0.1016 0.0169,-0.0169 0.0339,-0.0339 0.0508,-0.0339 0.0169,0.0169 0.0339,0.0339 0.0339,0.0508 z m 0.42333,-1.71026 c 0.0169,-0.0339 0.0339,-0.0677 0.0508,-0.1016 0,0.0169 0.0339,0.0339 0.0339,0.0508 -0.0169,0.0339 -0.0339,0.0508 -0.0508,0.0847 0,-0.0169 -0.0169,-0.0169 -0.0339,-0.0339 z m -1.84573,-4.41959 c 0,0 0.0169,0.0169 0.0169,0.0169 -0.22014,0.0677 -0.32174,0.0508 -0.38947,0.42333 -0.0508,-0.0339 -0.11853,-0.0677 -0.1524,-0.13546 -0.0847,0.16933 -0.0677,0.38946 -0.0677,0.59266 0,0.0339 0.0508,0.0847 0.1016,0.0847 0.0508,0 0.11853,-0.0677 0.18626,-0.11853 0,0 -0.0169,0.0169 -0.0169,0.0169 0,-0.23707 0.4064,-0.3048 0.4064,-0.6096 0,-0.0847 -0.0339,-0.16933 -0.0847,-0.27093 z m 3.4036,1.1176 c 0.0847,0.0508 0.18626,0.1524 0.28786,0.1524 0.23707,0 0.4064,-0.49107 0.4064,-0.762 0,-0.0339 -0.0339,-0.0508 -0.0677,-0.0508 -0.33867,0 -0.3556,0.49106 -0.62653,0.6604 z m 3.75919,-3.38666 c 0.3556,-0.11854 0.44027,-0.11854 0.44027,-0.49107 0,-0.0339 -0.0677,-0.0677 -0.0847,-0.0677 -0.23707,0.0169 -0.508,0.16933 -0.508,0.42333 0,0.1016 0.0847,0.13547 0.1524,0.13547 z m -2.31986,1.99813 c 0.0677,0 0.23706,-0.2032 0.23706,-0.27094 0,-0.0508 -0.0508,-0.11853 -0.11853,-0.11853 -0.11853,0 -0.18627,0.1524 -0.18627,0.22013 0,0.0677 0,0.1016 0.0677,0.16934 z m -6.16372,1.94733 c 0,0.2032 -0.0169,0.30479 0.0508,0.30479 0.0339,-0.0169 0.0508,-0.0677 0.0508,-0.0847 0,-0.0847 -0.0508,-0.11853 -0.1016,-0.22013 z m 5.74039,-1.49013 c 0.0169,-0.0169 0.0169,-0.0339 0.0169,-0.0508 0,-0.0169 -0.0339,-0.0508 -0.0847,-0.0508 -0.0339,0 -0.0508,0.0169 -0.0677,0.0508 0,0.0339 0.0169,0.0677 0.0339,0.10159 0.0339,-0.0169 0.0677,-0.0339 0.1016,-0.0508 z m -1.38853,1.89652 c -0.0677,0 -0.11854,0.0508 -0.11854,0.0847 0,0.0339 0.0508,0.0677 0.13547,0.0677 0.0677,0 0.11853,-0.0339 0.11853,-0.0847 0,-0.0508 -0.0508,-0.0677 -0.13546,-0.0677 z m 2.99719,-3.75919 c 0.0169,0 0.0169,0.0169 0.0339,0.0169 0.0339,0 0.0677,-0.0677 0.0677,-0.1016 0,-0.0339 -0.0339,-0.0847 -0.0677,-0.0847 -0.0339,0 -0.0847,0.0339 -0.0847,0.0847 0,0.0169 0.0339,0.0508 0.0508,0.0847 z m -0.4064,0.28787 c 0.0508,0 0.11853,0.0508 0.16933,0.0508 0.0339,0 0.0677,-0.0339 0.0677,-0.0677 -0.0339,-0.0508 -0.0677,-0.0677 -0.11854,-0.0677 -0.0508,0 -0.0847,0.0508 -0.11853,0.0847 z m -0.0169,-0.0339 c 0,0 0.0169,0.0339 0.0169,0.0339 -0.0677,0.0339 -0.16933,0.1016 -0.16933,0.1524 0,0.0169 0.0169,0.0339 0.0508,0.0339 0.0677,0 0.0847,-0.1524 0.1016,-0.22013 z m -2.67546,4.18253 c 0,-0.0169 0,-0.0339 -0.0169,-0.0508 0,0.0169 -0.0339,0.0169 -0.0339,0.0339 0,0.0169 0.0169,0.0339 0.0169,0.0508 0.0169,-0.0169 0.0339,-0.0169 0.0339,-0.0339 z m -3.92853,-1.43933 c -0.0339,0.0169 -0.13547,0 -0.18627,0.0508 0.0339,0.0169 0.0677,0.0677 0.0847,0.0677 0.0677,0 0.1016,-0.0508 0.1016,-0.11853 z m 0.13547,-0.18627 c -0.0508,0.0677 -0.0847,0.11853 -0.13547,0.18627 0,0 0.0169,0.0169 0.0169,0.0169 0.0508,-0.0677 0.1016,-0.11853 0.11854,-0.2032 z m -0.13547,1.20226 c 0,0 -0.0169,0 -0.0169,0 0.0169,0 0.0169,0 0.0339,0 -0.0169,0.0169 -0.0169,0.0169 -0.0339,0.0169 0,0 0.0169,-0.0169 0.0169,-0.0169 z"
         style="fill:#ee0000"
         id="path2175" />
      <path
         d="m 153.04283,137.16435 c 0.0169,0.27093 -0.0169,0.62653 0.1016,0.8636 0.3556,0.74506 0.4064,1.84573 1.778,1.84573 0.79587,0 2.2352,-1.43933 2.52306,-1.74413 0.254,-0.254 1.60867,-1.6764 1.69333,-1.69333 0.18627,-0.4064 0.98213,-0.74507 0.98213,-1.08374 0,-0.15239 -0.13546,-0.18626 -0.28786,-0.18626 -0.64347,0 -1.9812,1.20226 -2.5908,1.86266 -0.38946,0.42333 -1.98119,1.54093 -2.18439,1.54093 -0.44027,0 -0.6096,-1.35466 -0.6096,-1.98119 0,-0.762 0.33866,-1.4224 0.49106,-2.11667 0.4572,-0.82973 1.3208,-1.99813 1.99813,-1.99813 0.0677,0 0.11854,0.0339 0.11854,0.11854 -0.0169,0.18626 -0.0508,0.37253 -0.0508,0.57573 0,0.254 0.18626,0.59266 0.44026,0.59266 0.49107,0 0.7112,-1.28693 0.7112,-1.74413 0,-0.67733 -1.81186,-0.93133 -1.81186,-0.93133 -0.18627,0 -0.77893,0.3048 -0.89747,0.62654 -0.0847,0.20319 -0.47413,0.0677 -0.52493,0.30479 -0.0508,0.23707 -0.28786,0.27094 -0.3556,0.49107 -0.1016,0.3048 -0.38946,0.52493 -0.5588,0.82973 -0.32173,0.59267 -0.7112,1.50707 -0.7112,1.8796 0,0.64346 -0.254,1.27 -0.254,1.94733 z"
         style="fill:#ee0000"
         id="path2177" />
      <path
         d="m 168.36747,134.57355 c 0.0169,-0.0677 0.0339,-0.11853 0.0339,-0.16933 0,-0.16933 -0.11853,-0.254 -0.27093,-0.254 -0.49106,0 -0.8636,0.9144 -1.33773,1.33773 -0.1524,0.44027 -0.1524,0.8636 -0.42333,1.25307 -0.37253,0.54186 -0.64347,1.04986 -0.74507,1.65946 -0.0508,0.23706 -0.28786,0.2032 -0.28786,0.4572 0,0.1016 -0.6604,1.016 -0.79587,1.016 -0.0847,0 -0.3556,-0.8636 -0.3556,-0.84667 0,-0.27093 0.1524,-0.69426 0.16933,-0.99906 0.0677,-1.1176 0.22014,-2.286 0.22014,-3.38666 0,-0.84667 -0.0508,-1.10067 -0.98213,-1.43933 -0.0677,-0.0169 -0.13547,-0.0339 -0.18627,-0.0339 -0.2032,0 -0.38947,0.23707 -0.62653,0.28787 -0.3048,0.0677 -0.5588,0.20319 -0.6604,0.52493 0,0.23706 -0.42333,0.23706 -0.49107,0.3048 -0.254,0.22013 -0.89746,1.16839 -1.15146,1.16839 -0.1524,0 -0.13547,-0.16933 -0.13547,-0.22013 0,-0.8636 0.62653,-1.45626 0.62653,-2.33679 0,-0.4572 0.38947,-1.25307 0.4064,-1.25307 0,-0.18626 0.0847,-0.37253 0.0847,-0.5588 0,-0.0508 -0.0169,-0.1016 -0.0169,-0.1524 0,-0.16933 0.22013,-0.3556 0.22013,-0.62653 0,-0.508 0.44027,-1.65946 0.4064,-1.6256 0.3556,-0.47413 0.59266,-1.45626 0.59266,-1.67639 0,-0.44027 -0.40639,-0.38947 -0.84666,-0.57573 -0.0677,-0.0339 -0.11853,-0.0508 -0.1524,-0.0508 -0.11853,0 -0.54187,1.94733 -0.52493,2.01506 0,0 0.0169,-0.0169 0.0169,-0.0169 -0.22013,0.35559 -0.2032,0.64346 -0.27093,1.03293 -0.1524,0.38946 -0.38947,0.84666 -0.38947,1.21919 0,0.0677 0.0169,0.11854 0.0169,0.16934 0,0.13546 -0.11854,0.254 -0.11854,0.37253 0,0.0677 0.1016,0.16933 0.1016,0.254 0,0.0847 -0.22013,0.23707 -0.27093,0.44026 -0.0847,0.3048 -0.23707,0.62654 -0.23707,0.89747 0,0.0677 0.0169,0.16933 0.0169,0.23707 0,0.32173 -0.254,0.57573 -0.254,0.93133 0,0.3556 -0.254,0.7112 -0.254,0.9652 0,0.0677 0.0508,0.16933 0.0508,0.23706 0,0.22013 -0.18627,0.38947 -0.18627,0.6096 0,0.0677 0.0169,0.11853 0.0169,0.18627 0,0.16933 -0.11853,0.28786 -0.11853,0.44026 0,0.72813 -0.49106,1.3208 -0.49106,2.01507 0,0.32173 0.93133,0.74506 1.18533,0.74506 0.0847,0 0.67733,-1.54093 0.79586,-1.9304 0.16934,-0.59266 1.04987,-1.64253 1.03293,-1.60866 0.0169,-0.16933 1.0668,-1.13453 1.4224,-1.13453 0.11853,0 0.1524,0.7112 0.1524,0.94826 0,0.1524 -0.0847,0.32174 -0.0847,0.49107 0,0.28787 0.18627,0.59267 0.18627,0.89747 0,0.38946 -0.0169,0.76199 -0.0169,1.11759 0,0.18627 -0.1016,0.33867 -0.1016,0.49107 0,0.2032 0.1524,0.3556 0.2032,0.6096 0.1524,1.43933 0.79586,1.82879 1.45626,1.82879 0.3556,0 0.54187,-1.04986 0.64347,-1.15146 0.18626,-0.18627 0.1016,-0.508 0.22013,-0.7112 0.16933,-0.3048 0.16933,-0.6604 0.37253,-0.94826 0.16933,-0.254 0.3556,-0.64347 0.3556,-0.98214 0,-0.0847 0.4064,-0.57573 0.54187,-0.82973 0.33866,-0.64346 0.74506,-1.10066 1.23613,-1.64253 z"
         style="fill:#ee0000"
         id="path2179" />
      <path
         d="m 167.04667,135.87742 c 0,0.37253 0.0677,0.74506 0.0677,1.13453 0,0.49106 0.44027,1.10066 0.59267,1.43933 0.254,0.57573 0.98213,1.20226 1.54093,1.20226 0.38947,0 1.04986,-0.23706 1.23613,-0.57573 0.0847,-0.254 0.42333,-0.49106 0.42333,-0.67733 0.0339,-0.22013 0.32174,-0.4572 0.4572,-0.74507 0.0847,-0.1524 0.0339,-0.3556 0.18627,-0.4572 0.18627,-0.1524 0.3556,-0.66039 0.4064,-0.77893 0.0847,-0.3556 0.57573,-0.762 0.57573,-1.016 0,-0.20319 -0.18627,-0.30479 -0.4064,-0.30479 -0.27093,0 -0.508,0.20319 -0.57573,0.54186 -0.23707,1.10067 -0.8636,1.84573 -1.59173,2.70933 -0.0339,0.0339 -0.0677,0.0339 -0.1016,0.0339 -0.44027,0 -0.4572,-1.86267 -0.4572,-2.1844 0,-0.0339 0,-0.0677 0.0169,-0.0847 0.11854,-0.3048 0.0169,-0.62653 0.13547,-0.93133 0.0339,-0.4064 0.0847,-0.8128 0.0847,-1.23613 0,-0.6096 -0.3048,-1.86266 -0.762,-1.99813 -0.254,-0.0677 -0.57573,-0.18626 -0.8128,-0.18626 -0.52493,0 -1.016,3.69145 -1.016,4.11479 z m 1.27,-6.53626 c 0,0.3048 0.11853,0.82973 0.52493,0.82973 0.44027,0 0.64347,-0.45719 0.64347,-0.84666 0,-0.42333 -0.4572,-0.4064 -0.84667,-0.49107 -0.28786,0 -0.32173,0.33867 -0.32173,0.508 z"
         style="fill:#ee0000"
         id="path2181" />
      <path
         d="m 177.54531,141.39767 c 0.254,-0.22013 0.4572,-0.77893 0.508,-0.8128 0.16933,-0.0847 0.16933,-0.2032 0.16933,-0.38946 0,-0.22013 0.33867,-0.42333 0.33867,-0.762 0,-0.1016 -0.0339,-0.22013 -0.0339,-0.32173 0,0.0169 0.22013,-0.88053 0.23707,-0.89747 0.2032,-0.22013 0.1524,-0.5588 0.42333,-0.82973 0.1524,-0.11853 0.0339,-0.37253 0.13546,-0.52493 0.22014,-0.13547 0.77894,-0.9652 0.77894,-1.27 0,-0.11853 -0.0847,-0.18627 -0.2032,-0.18627 -0.6604,0 -0.762,0.79587 -1.08373,1.13454 -0.16934,0.18626 -0.2032,0.32173 -0.22014,0.55879 0,0.11854 -0.22013,0.1016 -0.27093,0.254 -0.27093,0.5588 -0.89746,2.1336 -1.1176,2.1336 -0.16933,0 -0.13546,-0.98213 -0.13546,-1.49013 0,-0.54187 0.0169,-1.04987 0.1524,-1.28693 0,0 0,0 0,-0.0169 0,-0.0339 -0.0677,-0.16934 -0.0677,-0.27094 0.0847,-0.0677 0.27094,-0.11853 0.27094,-0.22013 0,-0.0847 -0.18627,-0.22013 -0.18627,-0.33867 0,-0.0677 0.0508,-0.16933 0.0508,-0.23706 0,-0.0677 -0.0339,-0.13547 -0.0339,-0.18627 0,-0.28786 0.3556,-0.4064 0.3556,-0.74506 0,-1.65947 0.0677,-2.25213 -0.7112,-2.25213 -0.28786,0 -0.64346,0.0508 -0.82973,0.32173 -0.0847,0.13547 -0.72813,0.4064 -0.99906,0.72813 -0.2032,0.23707 -0.37254,0.5588 -0.5588,0.762 -0.67733,0.47413 -1.23613,1.778 -1.65947,1.778 -0.0339,-0.0508 -0.0677,-0.0847 -0.0677,-0.13547 0,-0.33867 0.27093,-0.7112 0.32173,-1.03293 0.0339,-0.74507 0.0677,-1.49013 0.0677,-2.2352 0,-0.38946 -0.0169,-0.81279 -0.52494,-0.81279 -0.30479,0 -0.82973,0.20319 -0.82973,0.44026 0,0.59267 -0.23706,1.23613 -0.23706,1.81186 0,0.1016 0.0169,0.18627 0.0169,0.27094 0,0.11853 -0.0847,0.2032 -0.0847,0.3048 0,0.13546 0.0677,0.27093 0.0677,0.4064 0,0.40639 -0.0339,0.72813 -0.0339,1.20226 0,0.74506 0.0677,1.6764 0.72813,1.6764 0.98213,0 1.40547,-0.74507 1.91347,-1.524 0.23706,-0.3556 0.74506,-1.13453 0.77893,-1.4224 0.0508,-0.42333 1.01599,-1.33773 1.16839,-1.33773 0.0339,0 0.0508,0.1016 0.0508,0.13547 0,0.1524 -0.0677,0.33866 -0.0677,0.49106 0,0.27094 0.0677,0.54187 0.0677,0.8128 0,0.13547 -0.0169,0.54187 -0.22013,0.67733 -0.0339,0.0339 -0.0677,0.0677 -0.0677,0.1016 0,0.0847 0.1016,0.13547 0.1016,0.23707 -0.0339,0.2032 -0.13547,0.42333 -0.13547,0.6096 0,0.13547 0.16933,0.2032 0.16933,0.3048 0,0.0508 -0.0339,0.11853 -0.0339,0.16933 0,0.0677 0.0169,0.11853 0.0169,0.18627 0,0.0677 -0.3048,0.54186 -0.3048,0.8128 0,0.22013 0.0677,0.42333 0.0677,0.66039 0,0.1524 -0.0169,0.32174 -0.0169,0.49107 0.0339,0.89747 0.33867,2.15053 1.23613,2.15053 0.13547,-0.0847 0.2032,-0.11853 0.28787,-0.11853 0.0508,0 0.13547,0.0169 0.254,0.0339 z m -1.23613,-5.11385 c -0.0169,0.0339 -0.0339,0.0508 -0.0339,0.0847 -0.0339,-0.0339 -0.0339,-0.0508 -0.0339,-0.1016 0.0169,-0.0169 0.0339,-0.0169 0.0339,-0.0339 0.0169,0.0169 0.0339,0.0339 0.0339,0.0508 z m 0.6096,2.59079 0.0169,0.0508 h -0.0339 z"
         style="fill:#ee0000"
         id="path2183" />
      <path
         d="m 185.08061,137.79088 c 0,0.0847 0.0169,0.1524 0.0169,0.23707 -0.0339,0.28786 -0.0169,0.44026 -0.32174,0.44026 0.0339,-0.0677 0.0339,-0.11853 0.11854,-0.11853 0.0508,0 0.1016,0.0508 0.16933,0.0677 -0.0677,-0.11853 -0.0847,-0.23706 -0.0847,-0.37253 0,-0.2032 0.11854,-0.32173 0.27094,-0.32173 0.0508,0 0.11853,0.0169 0.18626,0.0169 0.0677,0 0.1016,-0.0169 0.1016,-0.0847 0,-0.0508 -0.0169,-0.1016 -0.0169,-0.1524 0,-0.28786 0.49106,-0.69426 0.6604,-0.69426 0.0508,0 0.11853,0.0169 0.16933,0.0169 0.0847,0 0.1524,-0.0339 0.18627,-0.1016 0.2032,-0.508 1.33773,-0.72813 1.69333,-0.72813 0.0847,0 0.16933,0.0339 0.27093,0.0339 0.2032,0 0.54187,-0.23707 0.54187,-0.47414 0,-0.3048 -0.57574,-0.3048 -0.8128,-0.37253 -0.3048,0.11853 -0.62654,0.0169 -0.93133,0.16933 -0.1016,0.0508 -0.2032,0.0677 -0.32174,0.0677 -0.47413,0 -0.254,-0.33867 -0.54186,-0.38947 -0.0339,-0.16933 -0.0339,-0.59266 -0.16934,-0.59266 -0.0508,0 -0.1524,0.0847 -0.22013,0.13546 -0.18627,-0.18626 -0.0847,-0.44026 -0.16933,-0.6604 -0.3556,-0.3556 -0.62653,-0.52493 -1.27,-0.52493 -1.30386,0 -2.47226,0.4064 -3.30199,0.62653 -0.0339,0.0169 -0.0677,0.0169 -0.1016,0.0169 -0.1016,0 -0.1524,-0.0508 -0.1524,-0.11854 0,-0.13546 0.23706,-0.40639 0.3048,-0.55879 0.11853,-0.4064 0.57573,-0.54187 0.64346,-0.79587 0.22014,-0.8128 0.8128,-0.88053 1.1176,-1.23613 0.23707,-0.3556 0.6604,-0.77893 1.13453,-0.84667 0.0677,-0.0169 0.11853,-0.13546 0.11853,-0.22013 -0.0677,-0.59266 -1.04986,-0.6096 -1.40546,-0.67733 -0.3048,0.3048 -0.59267,0.4572 -0.84666,0.8636 -0.18627,0.3048 -0.6604,0.42333 -0.72814,0.62653 -0.1524,0.4572 -0.67733,0.28787 -0.79586,0.74507 0,0.0169 -0.5588,0.60959 -0.72813,0.77893 -0.23707,0.22013 -0.4572,0.49106 -0.47414,0.8636 0,0.18626 -0.13546,0.35559 -0.13546,0.52493 0,0.11853 0.0508,0.22013 0.0508,0.33866 0,0.0508 -0.0339,0.1016 -0.0339,0.1524 0,0.49107 0.4064,0.77893 0.94827,0.98213 0.11853,0.0677 0.13546,0.3048 0.23706,0.3048 0.69427,0 1.23613,-0.47413 1.23613,-0.47413 0.0677,0 0.1524,0.0677 0.27094,0.11853 0.35559,-0.23706 0.44026,-0.32173 0.81279,-0.44026 0.52494,-0.1524 0.8636,-0.4572 1.08374,-0.4572 0.11853,0 0.22013,0.0847 0.32173,0.0847 0.0677,0 0.1524,-0.0339 0.23706,-0.0339 0.254,0 0.4064,0.254 0.4064,0.47413 -0.13546,0.8636 -0.0677,1.55787 -0.74506,1.7272 -0.44027,0.1016 -0.54187,0.69426 -0.9144,0.69426 -0.33867,0 -0.3556,0.3556 -0.69427,0.4064 -0.16933,0 -0.38946,0.59267 -0.89746,0.72814 -0.38947,0.10159 -0.42333,0.45719 -0.7112,0.62653 -0.84666,0.508 -1.15146,1.89653 -1.1684,2.03199 -0.0847,0.254 -0.28786,0.6096 -0.28786,0.6604 0,0.3048 0.508,1.18533 0.93133,1.18533 0.2032,0 0.22013,-0.3048 0.59266,-0.3048 0.4064,0 0.64347,-0.0169 1.04987,-0.33866 0.1016,-0.0847 0.2032,-0.1524 0.32173,-0.18627 0.16933,-0.0508 0.2032,-0.37253 0.42333,-0.37253 0.44027,0 0.18627,-0.49107 0.508,-0.62653 0.22014,-0.0847 0.13547,-0.4572 0.33867,-0.49107 0.3048,-0.1016 0.28787,-0.4572 0.28787,-0.8128 -0.0677,-0.0169 -0.13547,-0.0339 -0.18627,-0.0508 l 0.0169,0.0508 c 0,0 -0.0339,-0.0339 -0.0339,-0.0339 0.0677,0.0169 0.11853,0.0339 0.18626,0.0339 0.42333,-0.23706 0.72813,-0.508 0.72813,-0.77893 0,-0.0677 -0.0677,-0.1016 -0.11853,-0.1016 -0.1016,0 -0.1524,0.0169 -0.2032,0.0169 -0.11853,0 -0.0169,-0.42333 -0.27093,-0.42333 -0.0508,0 -0.3556,0.54187 -0.4064,0.54187 0,0 0,0 0,-0.0169 0,0.32174 -0.4572,0.88054 -0.62653,1.15147 -0.18627,0.49106 -0.28787,0.99906 -0.762,1.1176 -0.42333,0.11853 -0.32173,0.66039 -0.67733,0.64346 -0.0677,0 -0.11854,-0.0169 -0.18627,-0.0169 -0.11853,0 -0.254,0.0508 -0.38947,0.0508 -0.11853,0 -0.3556,-0.0508 -0.3556,-0.22013 0.0339,-0.23707 0,-0.508 0.13547,-0.72814 0.27093,-0.42333 0.54187,-1.11759 0.93133,-1.25306 0.3556,-0.2032 0.6604,-0.69427 1.18533,-0.93133 0.5588,-0.254 0.6604,-0.89747 1.3208,-0.89747 0.0169,0.254 0.1016,0.7112 0.33867,0.7112 0.47413,0 0.74506,-0.28786 0.74506,-0.7112 0,-0.13546 -0.0508,-0.23706 -0.1524,-0.32173 z"
         style="fill:#ee0000"
         id="path2185" />
      <path
         d="m 196.62911,133.15116 c -0.89746,0.0508 -1.71026,0.40639 -2.55693,0.69426 -0.0508,0.0169 -0.1016,0.0339 -0.1524,0.0339 -0.28786,0 -0.33866,-0.3556 -0.40639,-0.62653 -0.18627,-0.62654 -0.8128,-1.3208 -1.28694,-1.49013 -0.40639,-0.13547 -0.77893,-0.49107 -1.23613,-0.49107 -0.28786,0 -0.5588,0 -0.81279,0 -1.1176,0 -1.79493,0.1524 -1.79493,1.91346 0,0.49107 0.47413,1.18533 0.47413,1.54093 0,0.38947 -0.3556,1.23613 -0.3556,1.45627 0,0.32173 -0.13547,0.62653 -0.13547,0.96519 0,1.74413 1.20227,2.6416 1.20227,2.6416 0.33866,0.23707 0.74506,0.3048 1.10066,0.4064 0.22013,-0.13547 0.82973,-0.49107 0.94827,-0.49107 0.0169,0 0.0169,0.0169 0.0169,0.0169 1.20226,-1.20227 1.27,-1.60867 1.50706,-1.91347 0.254,-0.32173 -0.0339,-0.84666 0.33867,-1.04986 0.0677,-0.0677 0.33866,-1.4224 0.33866,-1.524 0.0677,-0.49106 0.18627,-0.59266 0.82974,-0.9144 0.49106,-0.23706 1.03293,-0.508 1.60866,-0.5588 0.54187,-0.0508 0.7112,-0.2032 0.7112,-0.33866 0,-0.1524 -0.22013,-0.3048 -0.3048,-0.3048 -0.0169,0 -0.0339,0.0169 -0.0339,0.0339 z m -3.74226,2.50612 c -0.0508,0.3048 -0.0169,0.77894 -0.2032,0.89747 -0.3048,0.2032 -0.96519,2.23519 -1.79493,2.23519 -0.44026,0 -0.66039,-0.69426 -0.66039,-1.03293 0,-0.2032 0.11853,-0.47413 0.11853,-0.69426 0,-0.0847 -0.0169,-0.16933 -0.0169,-0.254 0,-0.52493 0.11854,-1.03293 0.4572,-1.1176 0.6604,0 1.27,-0.254 1.8796,-0.47413 0.254,0 0.18627,0.22013 0.22013,0.44026 z m -2.45533,-3.80999 c 1.1684,0 1.8796,1.1176 2.30293,2.032 0.0508,0.1016 0.0508,0.2032 0.0508,0.3048 0,0.38946 -0.98213,0.57573 -1.42239,0.62653 -0.0847,0 -0.22014,-0.0169 -0.22014,-0.1524 0,-0.1524 0.23707,-0.4572 0.23707,-0.6096 0,-0.38947 -1.03293,-0.64346 -1.13453,-0.67733 -0.11853,-0.0508 -0.2032,-0.0677 -0.254,-0.0677 -0.11853,0 -0.16933,0.1016 -0.4064,0.33866 0,0.0169 -0.0169,0.0169 -0.0339,0.0169 -0.22013,0 -0.22013,-0.35559 -0.22013,-0.50799 0,-0.49107 0.3048,-1.18534 0.82973,-1.25307 0.1016,-0.0169 0.2032,-0.0339 0.27093,-0.0508 z"
         style="fill:#ee0000"
         id="path2187" />
      <path
         d="m 201.8107,141.39767 c 0.254,-0.22013 0.4572,-0.77893 0.508,-0.8128 0.16934,-0.0847 0.16934,-0.2032 0.16934,-0.38946 0,-0.22013 0.33866,-0.42333 0.33866,-0.762 0,-0.1016 -0.0339,-0.22013 -0.0339,-0.32173 0,0.0169 0.22013,-0.88053 0.23706,-0.89747 0.2032,-0.22013 0.1524,-0.5588 0.42333,-0.82973 0.1524,-0.11853 0.0339,-0.37253 0.13547,-0.52493 0.22013,-0.13547 0.77893,-0.9652 0.77893,-1.27 0,-0.11853 -0.0847,-0.18627 -0.2032,-0.18627 -0.6604,0 -0.762,0.79587 -1.08373,1.13454 -0.16933,0.18626 -0.2032,0.32173 -0.22013,0.55879 0,0.11854 -0.22013,0.1016 -0.27093,0.254 -0.27094,0.5588 -0.89747,2.1336 -1.1176,2.1336 -0.16933,0 -0.13547,-0.98213 -0.13547,-1.49013 0,-0.54187 0.0169,-1.04987 0.1524,-1.28693 0,0 0,0 0,-0.0169 0,-0.0339 -0.0677,-0.16934 -0.0677,-0.27094 0.0847,-0.0677 0.27093,-0.11853 0.27093,-0.22013 0,-0.0847 -0.18626,-0.22013 -0.18626,-0.33867 0,-0.0677 0.0508,-0.16933 0.0508,-0.23706 0,-0.0677 -0.0339,-0.13547 -0.0339,-0.18627 0,-0.28786 0.3556,-0.4064 0.3556,-0.74506 0,-1.65947 0.0677,-2.25213 -0.7112,-2.25213 -0.28787,0 -0.64347,0.0508 -0.82973,0.32173 -0.0847,0.13547 -0.72813,0.4064 -0.99907,0.72813 -0.2032,0.23707 -0.37253,0.5588 -0.5588,0.762 -0.67733,0.47413 -1.23613,1.778 -1.65946,1.778 -0.0339,-0.0508 -0.0677,-0.0847 -0.0677,-0.13547 0,-0.33867 0.27093,-0.7112 0.32173,-1.03293 0.0339,-0.74507 0.0677,-1.49013 0.0677,-2.2352 0,-0.38946 -0.0169,-0.81279 -0.52493,-0.81279 -0.3048,0 -0.82973,0.20319 -0.82973,0.44026 0,0.59267 -0.23707,1.23613 -0.23707,1.81186 0,0.1016 0.0169,0.18627 0.0169,0.27094 0,0.11853 -0.0847,0.2032 -0.0847,0.3048 0,0.13546 0.0677,0.27093 0.0677,0.4064 0,0.40639 -0.0339,0.72813 -0.0339,1.20226 0,0.74506 0.0677,1.6764 0.72813,1.6764 0.98213,0 1.40546,-0.74507 1.91346,-1.524 0.23707,-0.3556 0.74507,-1.13453 0.77893,-1.4224 0.0508,-0.42333 1.016,-1.33773 1.1684,-1.33773 0.0339,0 0.0508,0.1016 0.0508,0.13547 0,0.1524 -0.0677,0.33866 -0.0677,0.49106 0,0.27094 0.0677,0.54187 0.0677,0.8128 0,0.13547 -0.0169,0.54187 -0.22013,0.67733 -0.0339,0.0339 -0.0677,0.0677 -0.0677,0.1016 0,0.0847 0.1016,0.13547 0.1016,0.23707 -0.0339,0.2032 -0.13546,0.42333 -0.13546,0.6096 0,0.13547 0.16933,0.2032 0.16933,0.3048 0,0.0508 -0.0339,0.11853 -0.0339,0.16933 0,0.0677 0.0169,0.11853 0.0169,0.18627 0,0.0677 -0.3048,0.54186 -0.3048,0.8128 0,0.22013 0.0677,0.42333 0.0677,0.66039 0,0.1524 -0.0169,0.32174 -0.0169,0.49107 0.0339,0.89747 0.33866,2.15053 1.23613,2.15053 0.13547,-0.0847 0.2032,-0.11853 0.28787,-0.11853 0.0508,0 0.13546,0.0169 0.25399,0.0339 z m -1.23613,-5.11385 c -0.0169,0.0339 -0.0339,0.0508 -0.0339,0.0847 -0.0339,-0.0339 -0.0339,-0.0508 -0.0339,-0.1016 0.0169,-0.0169 0.0339,-0.0169 0.0339,-0.0339 0.0169,0.0169 0.0339,0.0339 0.0339,0.0508 z m 0.6096,2.59079 0.0169,0.0508 h -0.0339 z"
         style="fill:#ee0000"
         id="path2189" />
    </g>
  </g>
</svg>
