<?xml version="1.0" encoding="UTF-8" standalone="no"?>
<!-- Created with Inkscape (http://www.inkscape.org/) -->

<svg
   width="162.13406mm"
   height="17.829147mm"
   viewBox="0 0 162.13406 17.829147"
   version="1.1"
   id="svg1266"
   xmlns="http://www.w3.org/2000/svg"
   xmlns:svg="http://www.w3.org/2000/svg">
  <defs
     id="defs1263" />
  <g
     id="layer1"
     transform="translate(-42.283307,-125.31186)">
    <g
       aria-label="daleTristanHutchinson"
       id="text1441"
       style="font-size:16.9333px;font-family:'Lemon Tuesday';-inkscape-font-specification:'Lemon Tuesday, Normal';fill:#ffffff;stroke:#ee0000;stroke-width:0.1;stroke-linecap:square;stroke-linejoin:round">
      <path
         id="path2149"
         style="fill:#ee0000"
         d="m 50.901286,125.36186 c -0.626532,0 -1.168247,0.50772 -1.219047,0.98185 -0.0508,0.3556 -0.321824,0.52497 -0.304891,0.88057 -0.1016,0.54187 -0.761711,0.99936 -0.761711,1.57509 0,0.27093 -0.491443,0.40605 -0.491443,0.89711 0,0.22014 -0.0846,0.42364 -0.135392,0.62683 0,0.0169 -0.287524,0.62657 -0.389123,0.66043 -0.355599,0.1016 -0.423728,0.91415 -0.931727,0.91415 -0.253999,0 -0.592461,-0.16898 -0.846459,-0.16898 -0.1524,0 -0.677479,0.13511 -0.677479,0.16898 -0.118532,0.44027 -0.727843,0.54226 -0.76171,0.71159 -0.101599,0.42333 -0.440652,0.98182 -0.711585,1.26969 -0.304799,0.32173 -0.609467,0.99903 -0.711067,1.2361 -0.118533,0.28786 -0.271025,0.45731 -0.304891,0.74517 0,0.28787 -0.270785,0.44002 -0.270785,0.69402 0,0.18627 -0.05064,0.37275 -0.05064,0.54208 0,0.32174 -1.48e-4,0.93143 0.270785,1.25315 0.220133,0.254 -0.08443,0.45688 0.982369,0.82941 0.06773,0.0169 0.152011,0.0341 0.236678,0.0341 0.152399,0 0.32211,-0.0677 0.491443,-0.0677 0.1016,0 0.728203,-0.60967 0.81287,-0.81287 0.287866,-0.77894 0.745026,-1.37153 1.015959,-2.25206 0.03387,-0.11854 0.389123,-0.94807 0.389123,-1.0666 v -0.0171 c 0.355599,-0.0847 0.304734,-0.76176 0.355534,-1.1343 0.08467,-0.0339 0.237121,-0.30489 0.372587,-0.30489 0.220133,0 2.48e-4,-0.71115 0.254248,-0.79582 0.118533,0 0.101646,0.35554 0.152446,0.35554 0.220132,0 0.270784,-1.01604 0.270784,-1.10071 v 0.0171 c 0,-0.0169 0.06793,-0.0343 0.101803,-0.0512 0,0.0339 0.03371,0.13539 0.05064,0.13539 0.118533,0 0.118339,-0.21982 0.118339,-0.32142 0,-0.13546 -0.03359,-0.27123 -0.03359,-0.4067 0,-0.27093 0.338481,-0.43992 0.338481,-0.60926 0,-0.0306 -0.01381,-0.0753 -0.02894,-0.12093 -0.0015,7.6e-4 -0.0031,0.001 -0.0047,0.002 v -0.0165 c -0.03387,0 -0.08475,-0.0508 -0.08475,-0.0848 0,-0.11853 0.186118,-0.1695 0.270784,-0.1695 0.220133,0 0.355534,0.0168 0.355534,0.35553 0,0.508 -0.253731,0.98235 -0.253731,1.49035 0,0.0508 0.01677,0.0677 0.05064,0.0677 0.01693,0 0.08448,-0.0341 0.118339,-0.0341 0.06773,0 0.0677,0.15229 0.0677,0.20309 0,0.254 -0.355377,0.81271 -0.406177,0.86351 -0.06773,0.1016 -0.08475,0.15289 -0.08475,0.28836 0,0.1016 0.05064,0.21982 0.05064,0.32142 0,0.254 -0.168982,0.57568 -0.168982,0.79582 0,0.1016 0.08475,0.20341 0.08475,0.32194 0,0.23706 -0.220142,0.54166 -0.220142,0.84646 0,0.0508 0.0169,0.0848 0.0677,0.0848 0,-0.47413 0.372514,-0.35559 0.50798,-0.72812 v -0.50798 c -0.0508,-0.0508 -0.186552,-0.0845 -0.186552,-0.18603 0,-0.0677 0.30513,-0.37259 0.338997,-0.37259 0,0.254 -0.0341,0.77876 0.186035,0.77876 0.4064,0 0.152612,-0.86344 0.321945,-0.9989 0.321732,-0.254 0.321427,-1.81178 0.321427,-1.81178 0.186266,-0.18626 0.321944,-0.10157 0.321944,-0.28783 0,-0.0847 -0.08475,-0.2374 -0.08475,-0.339 0,-0.0677 0.08475,-0.13535 0.08475,-0.20309 0,-0.2032 -0.237195,-0.0848 -0.237195,-0.23719 0,-0.16934 0.525033,-0.18605 0.525033,-0.62632 0,-0.45719 0.03368,-1.1175 0.338481,-1.59164 0.118532,-0.18626 0.186635,-0.42376 0.271301,-0.64389 0.0508,-0.76199 0.558622,-1.47309 0.558622,-2.31975 0,-0.28787 -0.389732,-0.55862 -0.694531,-0.55862 z m -2.421041,5.2834 c 0.0017,0.005 0.003,0.01 0.0047,0.0145 0.0028,-0.001 0.0054,-0.003 0.0083,-0.005 -0.0045,-0.002 -0.0087,-0.006 -0.01292,-0.01 z m 113.181725,-4.26744 c -0.11853,0 -0.54198,1.94713 -0.52504,2.01486 l 0.0171,-0.0165 c -0.22013,0.35559 -0.20306,0.64355 -0.27079,1.03302 -0.1524,0.38945 -0.38964,0.84651 -0.38964,1.21904 0,0.0677 0.0171,0.11818 0.0171,0.16898 0,0.13546 -0.11886,0.25406 -0.11886,0.37259 0,0.0677 0.1018,0.16958 0.1018,0.25425 0,0.0847 -0.21998,0.23709 -0.27078,0.44028 -0.0847,0.3048 -0.2372,0.62669 -0.2372,0.89762 0,0.0677 0.0171,0.16894 0.0171,0.23668 0,0.32173 -0.25425,0.57613 -0.25425,0.93173 0,0.3556 -0.25373,0.7108 -0.25373,0.9648 0,0.0677 0.0506,0.16946 0.0506,0.23719 0,0.0336 -0.005,0.0661 -0.0119,0.0977 -0.69642,0.25566 -1.76507,1.22875 -2.29133,1.79886 -0.38946,0.42332 -1.98116,1.54099 -2.18436,1.54099 -0.44027,0 -0.60927,-1.35475 -0.60927,-1.98128 0,-0.762 0.33853,-1.4224 0.49093,-2.11666 0.4572,-0.82973 1.321,-1.99833 1.99833,-1.99833 0.0677,0 0.11834,0.0342 0.11834,0.11885 -0.0169,0.18626 -0.0506,0.37248 -0.0506,0.57568 0,0.254 0.18629,0.59273 0.44029,0.59273 0.49107,0 0.71106,-1.28688 0.71106,-1.74408 0,-0.67733 -1.81177,-0.93121 -1.81177,-0.93121 -0.18627,0 -0.77908,0.30458 -0.89762,0.62632 -0.0847,0.20319 -0.47423,0.0678 -0.52503,0.30489 -0.0508,0.23707 -0.2878,0.27079 -0.35554,0.49092 -0.1016,0.3048 -0.38928,0.52513 -0.55862,0.82993 -0.035,0.0644 -0.071,0.13318 -0.10697,0.20412 -0.004,-2.3e-4 -0.007,-0.001 -0.0114,-0.001 -0.0508,0 -0.085,0.0508 -0.11885,0.0847 0.0233,0 0.0504,0.0106 0.0775,0.0222 -0.27794,0.565 -0.5519,1.25724 -0.5519,1.56941 0,0.64346 -0.25374,1.26984 -0.25374,1.94717 0.0169,0.27093 -0.0167,0.62644 0.10181,0.86351 0.3556,0.74506 0.40607,1.84588 1.77767,1.84588 0.79587,0 2.2355,-1.43928 2.52336,-1.74408 0.254,-0.254 1.60826,-1.6765 1.69292,-1.69343 0.033,-0.0721 0.0858,-0.14163 0.14934,-0.20981 -0.0172,0.0458 -0.0305,0.092 -0.0305,0.14211 0,0.72813 -0.49144,1.32111 -0.49144,2.01538 0,0.32173 0.93146,0.74466 1.18546,0.74466 0.0847,0 0.67728,-1.54065 0.79581,-1.93012 0.16934,-0.59266 1.04996,-1.64255 1.03302,-1.60868 0.0169,-0.16933 1.06705,-1.13482 1.42265,-1.13482 0.11853,0 0.15244,0.7112 0.15244,0.94826 0,0.1524 -0.0848,0.32212 -0.0848,0.49145 0,0.28787 0.18604,0.5923 0.18604,0.8971 0,0.38946 -0.0171,0.76216 -0.0171,1.11776 0,0.18627 -0.10129,0.33853 -0.10129,0.49093 0,0.2032 0.15229,0.35578 0.20309,0.60978 0.1524,1.43933 0.79584,1.82883 1.45624,1.82883 0.3556,0 0.54177,-1.04975 0.64337,-1.15135 0.18626,-0.18627 0.10161,-0.50839 0.22014,-0.71159 0.16933,-0.3048 0.16939,-0.6604 0.37259,-0.94826 0.16933,-0.254 0.35553,-0.64318 0.35553,-0.98185 0,-0.0743 0.3123,-0.4607 0.4806,-0.72606 0.0196,0.22707 0.0444,0.45623 0.0444,0.69195 0,0.49106 0.44033,1.10104 0.59273,1.43971 0.254,0.57573 0.98219,1.20199 1.54099,1.20199 0.38947,0 1.04983,-0.237 1.2361,-0.57567 0.0847,-0.254 0.42323,-0.49121 0.42323,-0.67748 0.0339,-0.22013 0.32187,-0.45731 0.45733,-0.74518 0.0847,-0.1524 0.0337,-0.35522 0.18604,-0.45682 0.0206,-0.0169 0.0414,-0.0385 0.0615,-0.063 0.0805,0.44173 0.26228,0.79116 0.66663,0.79116 0.98213,0 1.40558,-0.745 1.91358,-1.52393 0.23706,-0.3556 0.74489,-1.13479 0.77876,-1.42266 0.0508,-0.42332 1.01601,-1.33738 1.16841,-1.33738 0.0339,0 0.0506,0.10152 0.0506,0.13539 0,0.1524 -0.0677,0.33853 -0.0677,0.49093 0,0.27094 0.0677,0.54194 0.0677,0.81287 0,0.13547 -0.0169,0.54202 -0.22014,0.67748 -0.0339,0.0339 -0.0677,0.0674 -0.0677,0.10128 0,0.0847 0.1018,0.1356 0.1018,0.2372 -0.0339,0.2032 -0.13539,0.42351 -0.13539,0.60978 0,0.13547 0.1695,0.20277 0.1695,0.30437 0,0.0508 -0.0341,0.1187 -0.0341,0.1695 0,0.0677 0.0171,0.1183 0.0171,0.18604 0,0.0677 -0.30489,0.54193 -0.30489,0.81287 0,0.22013 0.0677,0.42336 0.0677,0.66042 0,0.1524 -0.017,0.32211 -0.017,0.49144 0.0339,0.89747 0.33864,2.15026 1.2361,2.15026 0.13547,-0.0847 0.20317,-0.11834 0.28784,-0.11834 0.0508,0 0.13572,0.0166 0.25425,0.0336 0.25399,-0.22013 0.45717,-0.779 0.50797,-0.81287 0.16933,-0.0847 0.1695,-0.20286 0.1695,-0.38912 0,-0.22013 0.33848,-0.42356 0.33848,-0.76223 0,-0.1016 -0.0336,-0.21983 -0.0336,-0.32143 0,0.0169 0.21974,-0.88068 0.23668,-0.89762 0.2032,-0.22013 0.15282,-0.55899 0.42375,-0.82992 0.1524,-0.11853 0.0338,-0.37263 0.13539,-0.52503 0.22014,-0.13547 0.77877,-0.96489 0.77877,-1.26969 0,-0.11853 -0.0846,-0.18656 -0.20309,-0.18656 -0.6604,0 -0.76193,0.79615 -1.08366,1.13482 -0.16934,0.18626 -0.2032,0.32156 -0.22014,0.55862 0,0.11854 -0.2205,0.10185 -0.2713,0.25425 -0.27093,0.5588 -0.89711,2.1332 -1.11725,2.1332 -0.16933,0 -0.13539,-0.98183 -0.13539,-1.48983 0,-0.54187 0.017,-1.0502 0.15245,-1.28726 v -0.0165 c 0,-0.0339 -0.0682,-0.1697 -0.0682,-0.2713 0.0847,-0.0677 0.27131,-0.11854 0.27131,-0.22014 0,-0.0847 -0.18656,-0.21994 -0.18656,-0.33848 0,-0.0677 0.0512,-0.16946 0.0512,-0.23719 0,-0.0677 -0.0341,-0.13524 -0.0341,-0.18604 0,-0.28786 0.35553,-0.40651 0.35553,-0.74517 0,-1.65947 0.0678,-2.25206 -0.71107,-2.25206 -0.28786,0 -0.64365,0.051 -0.82992,0.32194 -0.0847,0.13547 -0.72798,0.40639 -0.99891,0.72812 -0.2032,0.23707 -0.37236,0.55851 -0.55862,0.76171 -0.67733,0.47413 -1.2365,1.77819 -1.65984,1.77819 -0.0339,-0.0508 -0.0677,-0.0846 -0.0677,-0.13539 0,-0.33867 0.27114,-0.71128 0.32194,-1.03301 0.0339,-0.74507 0.0677,-1.49046 0.0677,-2.23553 0,-0.38946 -0.017,-0.81235 -0.52503,-0.81235 -0.30479,0 -0.82941,0.20321 -0.82941,0.44028 0,0.59267 -0.23719,1.23605 -0.23719,1.81178 0,0.1016 0.0165,0.18611 0.0165,0.27078 0,0.11853 -0.0842,0.20329 -0.0842,0.30489 0,0.13546 0.0677,0.27071 0.0677,0.40618 0,0.18183 -0.007,0.34708 -0.0145,0.51625 -0.007,0.0248 -0.0144,0.05 -0.0196,0.0765 -0.23707,1.10067 -0.86351,1.8458 -1.59164,2.70939 -0.0339,0.0339 -0.0679,0.0341 -0.1018,0.0341 -0.44027,0 -0.45682,-1.86315 -0.45682,-2.18488 0,-0.0339 -3.6e-4,-0.0672 0.0165,-0.0842 0.11854,-0.3048 0.0173,-0.62693 0.13591,-0.93173 0.0339,-0.4064 0.0842,-0.81277 0.0842,-1.2361 0,-0.6096 -0.30451,-1.86234 -0.76171,-1.99781 -0.254,-0.0677 -0.5758,-0.18655 -0.81287,-0.18655 -0.40013,0 -0.78016,2.1418 -0.93844,3.34915 -0.10653,0.14093 -0.21587,0.27318 -0.33125,0.3762 -0.1524,0.44027 -0.15282,0.86369 -0.42375,1.25316 -0.37253,0.54186 -0.64305,1.04973 -0.74465,1.65933 -0.0508,0.23706 -0.28784,0.20333 -0.28784,0.45733 0,0.1016 -0.66087,1.01596 -0.79634,1.01596 -0.0847,0 -0.35553,-0.86339 -0.35553,-0.84646 0,-0.27093 0.15257,-0.69462 0.1695,-0.99942 0.0677,-1.1176 0.22014,-2.2857 0.22014,-3.38636 0,-0.84667 -0.051,-1.10052 -0.98237,-1.43918 -0.0677,-0.0169 -0.13523,-0.0341 -0.18603,-0.0341 -0.2032,0 -0.38926,0.23704 -0.62632,0.28784 -0.3048,0.0677 -0.55883,0.20329 -0.66043,0.52503 0,0.23706 -0.4237,0.23715 -0.49144,0.30489 -0.254,0.22013 -0.89735,1.1684 -1.15135,1.1684 -0.1524,0 -0.13539,-0.16934 -0.13539,-0.22014 0,-0.8636 0.62632,-1.45628 0.62632,-2.33681 0,-0.4572 0.38976,-1.25315 0.40669,-1.25315 0,-0.18626 0.0847,-0.37287 0.0847,-0.55914 0,-0.0508 -0.017,-0.10113 -0.017,-0.15193 0,-0.16933 0.22014,-0.3559 0.22014,-0.62683 0,-0.508 0.44004,-1.6596 0.40617,-1.62574 0.3556,-0.47413 0.59273,-1.45626 0.59273,-1.67639 0,-0.44027 -0.40619,-0.38941 -0.84646,-0.57567 -0.0677,-0.0339 -0.11857,-0.0506 -0.15244,-0.0506 z m -7.89099,7.24762 -0.0165,-0.0341 h -5.2e-4 c -0.003,0.0133 -0.007,0.0315 -0.0109,0.0496 0.009,-0.005 0.0193,-0.0112 0.0279,-0.0155 z m -0.0279,0.0155 c -0.0647,0.0364 -0.14108,0.0926 -0.14108,0.13694 0,0.0169 0.0168,0.0336 0.0506,0.0336 0.0544,0 0.0753,-0.0967 0.0904,-0.17053 z M 62.771879,126.6486 c -0.3048,0 -0.779281,0.0171 -0.779281,0.38964 0,0.18627 0.101803,0.35566 0.101803,0.59273 0,0.254 -0.01705,0.50783 -0.01705,0.77876 0,0.11853 0.01705,0.25417 0.01705,0.38964 0,0.33866 -0.118339,0.82947 -0.118339,1.202 0,0.13547 0.03359,0.25405 0.03359,0.37258 0,0.1524 -0.101286,0.28789 -0.101286,0.44029 0,0.16933 0.05064,0.32199 0.05064,0.47439 0,0.0677 -0.01717,0.11858 -0.03411,0.15244 -0.1016,0.57573 -0.236678,1.08332 -0.236678,1.69292 0,0.37254 0.186035,0.71136 0.186035,1.11776 0,0.2534 -0.01035,0.50677 -0.02222,0.76016 -0.340543,0.0921 -0.751299,0.58632 -0.858346,0.98392 -0.01693,0.0677 -0.05061,0.16934 -0.118339,0.22014 -0.474132,0.44027 -0.389806,0.86342 -0.559139,1.50689 -0.0508,0.22013 -0.219745,0.23735 -0.236678,0.40669 -0.220133,0.60959 -0.389926,1.21908 -0.576192,1.87948 0,0.37252 -0.389372,1.64279 -0.643372,1.64279 -0.0508,0 -0.236678,-0.59269 -0.236678,-0.66043 0,-0.0677 0.01665,-0.15241 0.03359,-0.22014 -0.1016,-0.1016 -0.135392,-0.22046 -0.135392,-0.33899 0,-0.1016 0.01705,-0.23701 0.01705,-0.35554 0,-0.254 -0.01705,-0.50782 -0.01705,-0.77876 0,-0.77893 0.169498,-1.64263 0.169498,-2.42156 0,-0.3556 0.270785,-0.71132 0.270785,-0.96532 0,-1.26998 0.490926,-2.55698 0.490926,-3.65765 0,-0.79586 -0.525087,-0.98186 -0.89762,-0.98186 -0.423331,0 -0.592183,0.28765 -0.880049,0.40618 -0.524932,0.2032 -0.812888,0.74518 -1.253154,0.96532 -0.389466,-0.508 -0.779114,-0.86352 -1.558044,-0.86352 -1.168397,0 -1.371751,0.8466 -1.845883,1.52394 -0.592665,0.84666 -0.710957,1.4057 -0.914156,1.93063 -0.203199,0.52493 -0.42323,1.08348 -0.42323,1.64228 -0.01693,0.1524 -0.118782,0.22038 -0.254248,0.25425 v 0.50798 c 0.321732,0.0339 0.203448,0.20289 0.254248,0.32142 0,0.7112 0.626143,1.08366 1.184941,1.08366 0.795864,0 0.762023,-0.0166 1.608687,-1.55753 0.338666,-0.7112 0.931533,-2.0151 1.050065,-2.04897 0.423333,-0.11853 0.355738,-0.38953 0.457337,-0.81287 0.03387,-0.1524 0.643095,-0.69401 0.676961,-0.69401 0.220133,-0.11854 0.271108,-0.27116 0.38964,-0.54209 0.423333,0 0.219994,-0.42359 0.490927,-0.47439 0.135465,-0.0169 0.254294,-0.0503 0.406693,-0.0842 0.01693,0.18627 0.101286,0.35542 0.101286,0.55862 -0.169333,0.32173 -0.253731,0.10141 -0.253731,1.28674 0,0.0847 1.23e-4,0.18664 0.01705,0.2713 0,0.18626 -0.254368,0.49074 -0.271301,0.82941 -0.08467,1.43933 -0.236679,3.11562 -0.236679,4.43642 0,0.23707 0.253732,0.32192 0.253732,0.60979 0,0.16933 -0.01705,0.33864 -0.01705,0.50797 0.01693,0.28787 -0.0168,0.59275 0.237194,0.81287 0.08467,0.0508 0.01721,0.25378 0.186552,0.40618 0.287866,0.27093 0.490824,0.54209 0.914156,0.54209 0.253999,0 0.660351,-9e-5 0.795817,-0.30489 0.118533,-0.27093 0.355894,-0.47433 0.406694,-0.82993 0,-0.3556 -7.4e-5,-0.93094 0.135392,-1.18494 0.169333,-0.22013 0.0675,-0.49108 0.186035,-0.66042 0.220133,-0.42333 0.304697,-1.04981 0.42323,-1.52394 0.118533,-0.49107 0.389604,-0.94824 0.457337,-1.45624 0,-0.20238 0.134158,-0.48803 0.304891,-0.77308 v 0.0108 c 0,0.38947 -0.101803,0.77893 -0.101803,1.1684 0,0.27093 0.101803,0.50795 0.101803,0.79582 0,0.22013 -0.01705,0.54206 -0.01705,0.82993 0,0.99905 0.270785,0.77872 0.270785,1.57458 0,0.1524 0.0169,0.27114 0.0677,0.32194 0.372533,0.3556 0.372697,1.74417 1.117761,1.82883 0.118533,0 0.254055,-0.0848 0.372587,-0.0848 0.1016,0 0.169583,0.11834 0.254248,0.11834 0.01693,0 0.338324,-0.27083 0.389124,-0.42323 0.08467,-0.23707 0.491369,-0.23722 0.626835,-0.67748 0.1524,-0.52494 0.42335,-0.96486 0.440283,-1.55753 0,-0.0677 -0.01705,-0.13575 -0.01705,-0.18655 0,-0.0847 0.01705,-0.16907 0.01705,-0.25373 0,-0.1016 -0.05116,-0.18663 -0.05116,-0.2713 0,-0.0339 0.01717,-0.0674 0.03411,-0.10129 0.08467,0 0.169462,0.0171 0.237195,0.0171 0.07273,-0.3364 0.08131,-0.67763 0.08217,-1.01855 0.08205,0.20182 0.235497,0.49404 0.425814,0.5948 0.06773,0.0339 0.118063,0.11894 0.151929,0.2036 0.3556,0.52494 0.812898,0.50794 1.473295,0.57568 0.1016,-0.0677 0.203411,-0.13588 0.321944,-0.20361 0.0508,0.0339 0.118699,0.0512 0.169499,0.0512 0.287866,0 1.405451,-1.37169 1.676383,-1.47329 0.287866,-0.1016 0.541827,-0.86364 1.015959,-1.10071 0.186266,0 0.270785,-0.27072 0.270785,-0.40618 0,-0.16934 0.914156,-0.93172 0.914156,-0.93172 0.169332,-0.11853 0.677478,-0.32144 0.677478,-0.54157 0,-0.13547 -0.169185,-0.18655 -0.270785,-0.18655 -0.524931,0 -1.236386,0.81304 -1.422652,0.98237 -0.880531,0.77894 -1.777945,1.48993 -2.692342,2.235 -0.186266,0.1524 -0.491176,0.35554 -0.745174,0.35554 -0.609599,0 -0.660425,-1.42237 -0.660425,-2.18437 0,-0.27093 0.01726,-0.74465 0.338997,-0.74465 0.237066,0 0.474002,0.0677 0.711068,0.0677 0.948264,0 1.913348,-0.88102 2.099613,-1.23661 0.08467,-0.16933 0.203412,-0.27059 0.321945,-0.38913 0.135465,-0.1524 0.203254,-0.42331 0.372587,-0.50798 0.169333,-0.11853 0.237195,-0.28824 0.237195,-0.49144 0,-0.1016 -0.01705,-0.2029 -0.01705,-0.32143 0,-0.0508 0.01705,-0.1187 0.01705,-0.1695 0,-0.91439 -1.439741,-1.55752 -2.320272,-1.55752 -0.270932,0 -0.389133,0.25381 -0.609265,0.33848 -0.372533,0.1524 -0.592978,0.49117 -0.846977,0.74517 -0.118533,0.37253 -0.694061,0.52477 -0.84646,0.99891 -0.08467,0.27093 -0.253897,0.49133 -0.42323,0.69453 0.0015,0.006 0.0031,0.012 0.0047,0.0181 -0.239386,0.35566 -0.178231,0.8838 -0.411345,1.16686 -0.220132,0.27093 -0.203088,1.04988 -0.203088,1.38854 0,0.13134 0.111021,0.26289 0.117822,0.37879 -5.1e-5,0.009 7.8e-5,0.0184 0,0.0279 -0.0098,0.081 -0.08372,0.17467 -0.08372,0.25373 0,0.0847 0.03401,0.16099 0.05374,0.23461 -0.01746,0.10867 -0.04486,0.19679 -0.08785,0.23978 -0.118533,0 -0.08484,-0.64337 -0.169499,-0.64337 -0.118533,0 3.51e-4,0.38912 -0.168982,0.38912 -0.03387,0 -0.06805,3.6e-4 -0.118855,-0.0165 -0.423333,0.8128 -0.982102,3.21686 -1.236101,3.21686 -0.1016,-0.0169 -0.08435,-0.37232 -0.101285,-0.62632 -0.01693,0.0169 -0.03423,0.0171 -0.05116,0.0171 -0.406399,0 -0.473873,-0.32164 -0.473873,-0.64338 0,-0.22013 0.01705,-0.35593 0.01705,-0.55913 0,-0.49106 0.270785,-0.59268 0.270785,-1.16841 0,-0.27094 -0.0169,-0.67748 -0.0677,-0.67748 -0.0508,0 -0.08487,0.0512 -0.101803,0.0512 -0.0508,0 -0.0677,-0.13536 -0.0677,-0.20309 0,-0.28787 0.237195,-0.32184 0.237195,-0.74517 0,-0.25045 -0.01665,-0.40204 -0.130742,-0.51986 0.04918,-0.30042 0.09862,-0.44181 0.147795,-0.85163 0,-0.16933 -0.152446,-0.25418 -0.152446,-0.38964 0,-0.13547 0.152446,-0.27072 0.152446,-0.40618 0,-0.1016 -0.0677,-0.20329 -0.0677,-0.30489 0,-0.254 0.135392,-0.55871 0.135392,-0.86351 0,-0.13547 -0.0677,-0.27123 -0.0677,-0.4067 0,-0.13547 0.0677,-0.33841 0.0677,-0.47387 0,-0.0847 -0.05064,-0.15252 -0.05064,-0.23719 0,-0.0508 0.05064,-0.11831 0.05064,-0.18604 0,-0.1016 -0.0677,-0.1697 -0.0677,-0.2713 0.03387,-0.23706 -0.01724,-0.47389 0.101286,-0.69402 0,0 0.01705,-0.0171 0.01705,-0.0341 0,-0.1016 -0.0677,-0.18612 -0.0677,-0.27079 0,-0.72813 0.203088,-1.93067 0.203088,-2.81119 0,-0.4572 -0.05047,-0.57568 -0.609265,-0.57568 z m 17.204118,0.72812 c -1.015997,0 -1.947526,0.32215 -2.94659,0.42375 -0.186266,0.0169 -0.372476,0.10128 -0.575676,0.10128 -0.287865,0 -0.542058,-0.20308 -0.829923,-0.20308 -0.186267,0 -0.592212,0.0848 -0.592212,0.23719 0,0.0847 0.03359,0.13536 0.03359,0.20309 0,0.22013 -2.455397,0.71091 -2.709396,0.76171 -0.220133,0.0508 -0.423239,0.0848 -0.643371,0.0848 -0.169333,0 -0.372753,-0.10129 -0.542086,-0.10129 -0.186267,0 -0.355534,0.16903 -0.355534,0.32143 0,0.54186 0.728481,0.89786 0.779281,0.93173 0.321732,0.1524 0.609319,0.23667 0.981852,0.23667 0.77893,0 1.761077,-0.54156 2.336808,-0.54156 0.06773,0 0.237195,0.10142 0.237195,0.55862 0,0.13546 -0.08475,0.23711 -0.08475,0.37258 0,0.1524 0.118339,0.33865 0.118339,0.50798 0,0.18627 -0.186036,0.37236 -0.186036,0.55863 0,0.1016 0.01705,0.20329 0.01705,0.30489 0,0.42333 -0.101803,0.8638 -0.101803,1.2702 0,0.20319 0.220142,0.38917 0.220142,0.54157 -0.169333,0.33867 -0.203089,0.49143 -0.203089,0.99942 0,0.18626 0.05064,0.37264 0.05064,0.52504 0,0.23706 -0.0677,0.45695 -0.0677,0.69401 0.04916,0.58989 -0.04398,1.3701 0.302824,1.80351 -0.0045,0.009 -0.01499,0.0119 -0.01499,0.0253 l 0.01705,0.0171 0.01809,-0.0181 c 5.5e-4,6.3e-4 0.0015,9.1e-4 0.0021,0.002 -0.02406,0.0323 -0.03721,0.0723 -0.03721,0.10077 0,0.27093 0.152288,0.69437 0.203088,0.96531 -0.01693,0.0508 -0.03359,0.10165 -0.03359,0.15245 0,0.254 0.288004,0.4575 0.457337,0.62683 0.406399,-0.1016 0.84646,-0.15246 0.84646,-0.59273 0,-0.23706 -0.220142,-0.57587 -0.220142,-0.67747 0,-0.1524 -0.101802,-0.27111 -0.101802,-0.38964 0,-0.0677 0.05116,-0.13548 0.05116,-0.22015 0,-0.11853 -0.101802,-0.21982 -0.101802,-0.32142 0,-0.0339 0.01717,-0.0512 0.03411,-0.0512 h -0.01705 c 0.01693,-0.0339 0.01665,-0.0845 0.03359,-0.11834 l -0.01654,0.017 c 0.01693,-0.0339 0.05064,-0.10164 0.05064,-0.15244 0,-0.0677 -0.0677,-0.15253 -0.0677,-0.2372 0,-0.33866 0.202931,-0.81292 0.253731,-1.18546 0.06773,-0.47413 8e-5,-0.96517 0.08475,-1.45624 0,-0.3048 -0.03359,-0.62641 -0.03359,-0.93121 0,-0.49107 0.0677,-0.9821 0.0677,-1.45624 0,-0.1016 -0.03411,-0.20341 -0.03411,-0.32194 0,-0.6604 0.101977,-2.40408 0.491443,-2.48874 0.423331,-0.0847 0.981824,-0.23721 1.269689,-0.45734 0.08467,0.0169 0.169582,0.0847 0.254249,0.0847 0.101598,0 0.151974,-0.15244 0.304374,-0.15244 0.643464,-0.13546 2.286165,-0.0678 2.286165,-0.81287 0,-0.54187 -1.049677,-0.54209 -1.286743,-0.54209 z m 53.119243,0.13539 c -0.52494,0 -1.11725,0.0677 -1.11725,0.66043 0,0.64346 -0.54193,1.93066 -0.59273,2.59105 0,0.49107 -0.27078,0.91458 -0.27078,1.33791 0,0.1016 0.0165,0.23676 0.0165,0.32142 0,0.4064 -0.15226,0.1184 -0.71106,0.49093 -0.28786,0.2032 -0.82986,0.28793 -1.18546,0.37259 -0.4064,0.1016 -0.71114,0.40641 -1.3038,0.44028 -0.0847,0 -0.15252,-0.0506 -0.23719,-0.0506 -0.1524,0 -0.11839,0.18603 -0.27079,0.18603 -0.0508,0 -0.0677,-0.0675 -0.0677,-0.11834 0,-0.3556 0.42323,-0.37252 0.42323,-0.72812 0,-0.0508 -0.0336,-0.1187 -0.0336,-0.1695 0,-0.1016 0.0847,-0.20316 0.0847,-0.28783 0,-0.11853 -0.0847,-0.25366 -0.0847,-0.38913 0,-0.22013 0.25373,-0.40633 0.25373,-0.57567 0,-0.0508 -0.0336,-0.11882 -0.0336,-0.18655 0,-0.1016 0.10128,-0.20329 0.10128,-0.30489 0,-0.11854 -0.10128,-0.20289 -0.10128,-0.32143 0,-0.42333 0.37259,-0.89771 0.37259,-1.20251 0,-0.16933 -0.32195,-1e-5 -0.32195,-0.22014 0.0677,-0.32174 0.0847,-0.60944 0.0847,-0.99891 0,-0.3556 -0.0511,-0.71107 -0.339,-0.71107 -0.3556,0 -0.93134,0.11815 -1.1684,0.23668 -0.0508,0.37253 -0.0168,0.72857 -0.13539,1.08417 0,0.0169 -0.0165,0.0339 -0.0165,0.0677 0,0.1524 0.0336,0.28788 0.0336,0.44028 0,0.22013 -0.0506,0.42323 -0.0506,0.64337 0,0.22013 0.23719,0.28776 0.23719,0.42323 0,0.0339 -0.0171,0.0849 -0.0341,0.10181 -0.22014,0.3048 -0.25374,0.74454 -0.25374,1.16788 0,0.20319 0.0165,0.38993 0.0165,0.5762 0,0.22012 -0.0169,0.42315 -0.0677,0.55862 -0.1524,0.38946 -0.10173,1.1174 -0.2372,1.28674 -0.13547,0.1524 -0.18603,0.32211 -0.18603,0.49144 0,0.21053 0.0195,0.44559 0.0377,0.6842 -0.57325,0.075 -0.68092,0.80646 -0.98599,1.12758 -0.16933,0.18626 -0.20321,0.32156 -0.22014,0.55862 0,0.11854 -0.21998,0.10185 -0.27078,0.25425 -0.27094,0.5588 -0.89763,2.1332 -1.11776,2.1332 -0.16933,0 -0.1354,-0.98183 -0.1354,-1.48983 0,-0.54187 0.017,-1.0502 0.15245,-1.28726 v -0.0165 c 0,-0.0339 -0.0677,-0.1697 -0.0677,-0.2713 0.0847,-0.0677 0.27079,-0.11854 0.27079,-0.22014 0,-0.0847 -0.18604,-0.21994 -0.18604,-0.33848 0,-0.0677 0.0506,-0.16946 0.0506,-0.23719 0,-0.0677 -0.0341,-0.13524 -0.0341,-0.18604 0,-0.28786 0.35605,-0.40651 0.35605,-0.74517 0,-1.65947 0.0673,-2.25206 -0.71159,-2.25206 -0.28787,0 -0.64314,0.051 -0.8294,0.32194 -0.0847,0.13547 -0.72848,0.40639 -0.99942,0.72812 -0.2032,0.23707 -0.37236,0.55851 -0.55863,0.76171 -0.67733,0.47413 -1.236,1.77819 -1.65933,1.77819 -0.0339,-0.0508 -0.0677,-0.0846 -0.0677,-0.13539 0,-0.33867 0.27062,-0.71128 0.32142,-1.03301 0.0339,-0.74507 0.0677,-1.49046 0.0677,-2.23553 0,-0.38946 -0.0165,-0.81235 -0.52452,-0.81235 -0.3048,0 -0.82992,0.20321 -0.82992,0.44028 0,0.59267 -0.23719,1.23605 -0.23719,1.81178 0,0.1016 0.017,0.18611 0.017,0.27078 0,0.11853 -0.0847,0.20329 -0.0847,0.30489 0,0.13546 0.0677,0.27071 0.0677,0.40618 0,0.18351 -0.007,0.35008 -0.015,0.5209 v 5.2e-4 c -0.0943,0.14006 -0.16811,0.28926 -0.20516,0.42684 -0.0169,0.0677 -0.0506,0.16934 -0.11833,0.22014 -0.47413,0.44027 -0.3893,0.86342 -0.55863,1.50689 -0.0508,0.22013 -0.22025,0.23735 -0.23719,0.40669 -0.22013,0.60959 -0.38941,1.21908 -0.57568,1.87948 0,0.37252 -0.38937,1.64279 -0.64337,1.64279 -0.0508,0 -0.23719,-0.59269 -0.23719,-0.66043 0,-0.0677 0.0166,-0.15241 0.0336,-0.22014 -0.1016,-0.1016 -0.1354,-0.22046 -0.1354,-0.33899 0,-0.1016 0.0171,-0.23701 0.0171,-0.35554 0,-0.254 -0.0171,-0.50782 -0.0171,-0.77876 0,-0.77893 0.1695,-1.64263 0.1695,-2.42156 0,-0.3556 0.27079,-0.71132 0.27079,-0.96532 0,-1.26998 0.49144,-2.55698 0.49144,-3.65765 0,-0.79586 -0.52509,-0.98186 -0.89762,-0.98186 -0.42334,0 -0.5927,0.28765 -0.88057,0.40618 -0.52493,0.2032 -0.81288,0.74518 -1.25315,0.96532 -0.38947,-0.508 -0.77911,-0.86352 -1.55804,-0.86352 -1.1684,0 -1.37124,0.8466 -1.84537,1.52394 -0.59267,0.84666 -0.71147,1.4057 -0.91467,1.93063 -0.2032,0.52493 -0.42323,1.08348 -0.42323,1.64228 -0.0169,0.1524 -0.11827,0.22038 -0.25373,0.25425 l -5.2e-4,0.50798 c 0.32173,0.0339 0.20345,0.20289 0.25425,0.32142 0,0.7112 0.62666,1.08366 1.18546,1.08366 0.79585,0 0.76202,-0.0166 1.60868,-1.55753 0.33867,-0.7112 0.93101,-2.0151 1.04955,-2.04897 0.42333,-0.11853 0.35575,-0.38953 0.45734,-0.81287 0.0339,-0.1524 0.64361,-0.69401 0.67748,-0.69401 0.22013,-0.11854 0.27059,-0.27116 0.38912,-0.54209 0.42334,0 0.22051,-0.42359 0.49144,-0.47439 0.13546,-0.0169 0.25378,-0.0503 0.40618,-0.0842 0.0169,0.18627 0.1018,0.35542 0.1018,0.55862 -0.16934,0.32173 -0.25425,0.10141 -0.25425,1.28674 0,0.0847 1.6e-4,0.18664 0.0171,0.2713 0,0.18626 -0.25386,0.49074 -0.27079,0.82941 -0.0847,1.43933 -0.23719,3.11562 -0.23719,4.43642 0,0.23707 0.25373,0.32192 0.25373,0.60979 0,0.16933 -0.0165,0.33864 -0.0165,0.50797 0.0169,0.28787 -0.0173,0.59275 0.23668,0.81287 0.0847,0.0508 0.0172,0.25378 0.18655,0.40618 0.28787,0.27093 0.49083,0.54209 0.91416,0.54209 0.254,0 0.66036,-9e-5 0.79582,-0.30489 0.11853,-0.27093 0.35589,-0.47433 0.40669,-0.82993 0,-0.3556 -8e-5,-0.93094 0.13539,-1.18494 0.16933,-0.22013 0.0675,-0.49108 0.18604,-0.66042 0.22013,-0.42333 0.30521,-1.04981 0.42374,-1.52394 0.10981,-0.45494 0.34955,-0.88102 0.43822,-1.34514 0.0899,0.39021 0.27359,0.68471 0.64492,0.68471 0.98213,0 1.40558,-0.745 1.91358,-1.52393 0.23707,-0.3556 0.7449,-1.13479 0.77876,-1.42266 0.0508,-0.42332 1.01601,-1.33738 1.16841,-1.33738 0.0339,0 0.0512,0.10152 0.0512,0.13539 0,0.1524 -0.0677,0.33853 -0.0677,0.49093 0,0.27094 0.0677,0.54194 0.0677,0.81287 0,0.13547 -0.0169,0.54202 -0.22014,0.67748 -0.0339,0.0339 -0.0677,0.0674 -0.0677,0.10128 0,0.0847 0.10128,0.1356 0.10128,0.2372 -0.0339,0.2032 -0.13539,0.42351 -0.13539,0.60978 0,0.13547 0.1695,0.20277 0.1695,0.30437 0,0.0508 -0.0341,0.1187 -0.0341,0.1695 0,0.0677 0.0171,0.1183 0.0171,0.18604 0,0.0677 -0.30489,0.54193 -0.30489,0.81287 0,0.22013 0.0677,0.42336 0.0677,0.66042 0,0.1524 -0.017,0.32211 -0.017,0.49144 0.0339,0.89747 0.33915,2.15026 1.23662,2.15026 0.13547,-0.0847 0.20316,-0.11834 0.28783,-0.11834 0.0508,0 0.1352,0.0166 0.25374,0.0336 h 5.1e-4 c 0.25399,-0.22013 0.45718,-0.779 0.50798,-0.81287 0.16934,-0.0847 0.16898,-0.20286 0.16898,-0.38912 0,-0.22013 0.339,-0.42356 0.339,-0.76223 0,-0.1016 -0.0341,-0.21983 -0.0341,-0.32143 0,0.0169 0.22027,-0.88068 0.2372,-0.89762 0.2032,-0.22013 0.15229,-0.55899 0.42323,-0.82992 0.1524,-0.11853 0.0338,-0.37263 0.13539,-0.52503 0.1149,-0.0707 0.3217,-0.33054 0.49351,-0.60617 -0.015,0.14866 -0.0362,0.29326 -0.0362,0.43718 0,0.1524 0.0336,0.30442 0.0336,0.45682 0,0.11854 -0.0165,0.22035 -0.0165,0.32195 0,0.44026 0.0678,0.89763 0.0847,1.3379 -0.0339,0.0847 -0.0341,0.15241 -0.0341,0.22014 0,0.32173 0.1695,0.59267 0.1695,0.94827 0,0.38945 0.23668,0.69407 0.23668,1.0666 0,0.0339 -0.0165,0.0679 -0.0165,0.1018 0,0.27094 0.45687,0.60926 0.60927,0.60926 0.3048,0 0.62684,-0.76189 0.62684,-1.15135 0,-0.254 -0.15245,-0.4909 -0.15245,-0.77876 0,-0.42334 -0.13563,-0.82982 -0.1695,-1.25315 -0.1016,0.11853 -0.10145,0.28783 -0.27078,0.28783 -0.13547,0 -0.0678,-0.40617 -0.0847,-0.40617 0,-0.3556 -0.2372,-0.16965 -0.2372,-1.06712 0,-0.1524 0.18655,-0.2711 0.18655,-0.38964 0,-0.15239 -0.22038,-0.15198 -0.25424,-0.30438 0,-0.254 -0.0166,-0.50822 -0.0336,-0.76222 0.10062,-0.14376 0.18834,-0.27441 0.27492,-0.40411 0.0714,0.0995 0.0627,0.23461 0.14831,0.23461 0.0169,0 0.0336,-0.0339 0.0336,-0.0677 0,-0.0339 -0.0165,-0.0845 -0.0165,-0.11834 0,-0.11854 0.0337,-0.23719 0.11834,-0.23719 0.0508,0 0.10153,0.1695 0.13539,0.1695 0.11854,0 0.40631,-0.62684 0.86351,-0.62684 0.52493,0 1.79526,-0.71107 2.23553,-0.71107 0.2032,0 0.25405,0.76236 0.37258,0.99943 0.0169,0.0508 0.0336,0.10125 0.0336,0.16898 0,0.23707 -0.15244,0.4573 -0.15244,0.74517 0,0.28786 0.59273,0.81281 0.59273,0.94827 0,0.11853 -0.16906,0.16945 -0.25373,0.23719 -0.0508,-0.0677 -0.0848,-0.13559 -0.15245,-0.23719 -0.0677,0.22012 -0.20361,0.40661 -0.20361,0.54208 0,0.82973 0.20345,1.5068 0.25425,2.3704 0.0169,0.18627 0.18621,0.40669 0.35554,0.40669 0.42334,0 0.91467,-1.32089 0.91467,-1.47329 0,-0.3048 -0.2372,-0.6943 -0.2372,-0.88057 0,-0.18627 0.22015,-0.37251 0.22015,-0.50798 0,-0.1524 -0.13563,-0.15268 -0.1695,-0.18655 0,-0.254 0.1695,-0.32144 0.1695,-0.54157 0,-0.0339 -0.0171,-0.085 -0.0171,-0.11886 0,-0.0508 0.0171,-0.0844 0.0341,-0.10128 0.1524,-0.22014 0.18603,-0.4913 0.18603,-0.76223 0,-0.254 -0.0336,-0.49081 -0.0336,-0.69401 0,-0.254 0.0504,-0.42375 0.30438,-0.42375 0.0339,0 0.0681,0.0851 0.13591,0.20361 0.11853,-0.5588 0.15203,-1.10093 0.67696,-1.42266 0.33866,-0.2032 0.69453,-0.74502 0.69453,-1.01596 0,-0.0677 -0.0511,-0.32142 -0.18655,-0.32142 -0.11854,0 -0.16904,0.28784 -0.54157,0.28784 -0.13546,0 -0.20309,-0.0677 -0.20309,-0.28784 0,-0.38946 0.0335,-0.64358 0.30438,-0.96532 -0.0508,-0.1016 -0.1354,-0.18635 -0.1354,-0.30489 0,-0.0339 0.0171,-0.0675 0.0171,-0.11834 0,-0.0508 -0.0512,-0.15241 -0.0512,-0.22014 0,-0.13547 0.27114,-0.0339 0.32194,-0.22014 0.1524,-1.11759 0.40618,-1.74409 0.40618,-1.96422 0,-0.67733 -0.27094,-0.79634 -0.94826,-0.79634 z m 0.38964,3.62407 0.017,0.0171 c -0.005,-0.008 -0.009,-0.0155 -0.0134,-0.0233 -0.001,0.002 -0.003,0.004 -0.004,0.006 z m 0.004,-0.006 c 0.0511,-0.0856 0.13178,-0.23237 0.13178,-0.29869 0,-0.0169 3.1e-4,-0.0341 -0.0336,-0.0341 -0.1016,0 -0.13539,0.13587 -0.13539,0.20361 0,0.0431 0.0128,0.0861 0.0372,0.12919 z m -30.11082,-3.09283 c -0.44027,0 -0.59262,0.25391 -0.79582,0.64337 0.0169,0.1524 0.0341,0.30493 0.0341,0.45733 0,0.62654 -0.0512,1.74429 -0.49144,1.84589 -0.66039,0.1016 -1.1512,0.57567 -1.202,0.57567 -0.18627,0 -0.55907,0.30485 -0.91467,0.37259 -0.203198,0.0339 -0.676962,0.0339 -0.676962,0.22014 0,0.508 0.930972,0.66043 1.117242,0.66043 0.8636,0 0.9653,-0.49145 1.4733,-0.49145 0.0508,-0.0339 0.051,-0.10128 0.1695,-0.10128 0.11853,0 0.20308,0.0845 0.20308,0.18603 0,0.0677 -0.017,0.13588 -0.017,0.20361 0,0.1016 0.1018,0.18623 0.1018,0.28783 0,0.0508 -0.0171,0.10154 -0.0341,0.1354 -0.16934,0.32174 -0.22014,0.64307 -0.22014,0.9648 0,0.1016 0.017,0.22022 0.017,0.30489 0,0.13547 -0.0506,0.2711 -0.0506,0.38964 0,0.16933 0.0506,0.33864 0.0506,0.50798 0,0.0508 -0.017,0.10152 -0.017,0.13539 0,0.0677 0.16949,0.16918 0.16949,0.27078 0,0.13547 -0.23719,0.1697 -0.23719,0.2713 0,0.13248 0.27466,0.039 0.2868,0.27234 -0.05,0.0668 -0.0842,0.11799 -0.13435,0.185 l 0.017,0.0165 c 0.05,-0.0667 0.0996,-0.11705 0.1173,-0.19947 2.1e-4,0.005 0.001,0.009 0.001,0.0134 v -0.0171 c 0.13546,-0.0677 0.15244,-0.20314 0.15244,-0.35554 0,-0.11852 -0.017,-0.237 -0.017,-0.35553 0,-0.3048 0.25425,-0.50794 0.25425,-0.57567 0,-0.1524 -0.2372,-0.37251 -0.2372,-0.50798 0,-0.12466 0.0887,-0.20853 0.22118,-0.33952 0.004,0.21645 0.10416,0.81339 0.25321,0.81339 0.0677,0 0.11858,-0.017 0.15245,-0.017 0.0847,0 0.0844,0.0508 0.10128,0.22014 0.0677,-0.3556 0.10181,-0.47365 0.10181,-0.88005 0,-0.254 0.22014,-0.44054 0.22014,-0.69453 0.0508,-0.42334 0.0846,-0.82983 0.13539,-1.25316 -0.0169,-0.0169 -0.017,-0.0508 -0.017,-0.0677 0,-0.11854 0.0847,-0.23701 0.0847,-0.35554 0,-0.0339 -1.6e-4,-0.0845 -0.0171,-0.11834 0.11853,-0.27094 1.25303,-0.82992 1.2361,-0.82992 0.5588,-0.11853 0.94848,-0.11867 1.49035,-0.45734 0.0508,-0.0339 0.1183,-0.0506 0.18604,-0.0506 0.0508,0 0.1187,0.0171 0.1695,0.0171 0.1016,0 0.2201,-0.11885 0.28783,-0.11885 0.0847,0 0.27103,0.1018 0.30489,0.1018 0.0677,0 0.38964,-0.30469 0.38964,-0.42323 0,-0.0508 -0.0173,-0.10177 -0.0512,-0.1695 -0.0169,0.0339 -0.0508,0.0506 -0.0677,0.0506 -0.18627,0 0.085,-0.66043 -0.60927,-0.66043 -0.23707,0 -0.20365,0.30489 -0.35605,0.30489 -0.1016,0 -0.18623,-0.22014 -0.28783,-0.22014 -0.2032,0 -0.52465,0.42323 -0.76172,0.42323 -0.50798,0 -1.15172,0.32215 -1.42265,0.42375 -0.15608,-0.0624 -0.1395,-0.25458 -0.25528,-0.36381 0.001,-0.005 0.002,-0.009 0.002,-0.009 -0.003,0 -0.007,8.9e-4 -0.0103,0.001 -0.004,-0.003 -0.008,-0.007 -0.0124,-0.01 0.0796,-0.0899 0.10749,-0.30285 0.10749,-0.51624 0,-0.72813 -0.13573,-1.11776 -0.69453,-1.11776 z m -0.15245,6.99337 -0.017,-0.0165 c 0.003,0.007 0.006,0.0126 0.009,0.0191 0.003,-9.4e-4 0.005,-0.002 0.008,-0.003 z m -0.008,0.003 c -0.21361,0.0644 -0.31461,0.054 -0.38138,0.42116 -0.0508,-0.0339 -0.11806,-0.0681 -0.15193,-0.1359 -0.0847,0.16933 -0.0682,0.38952 -0.0682,0.59272 0,0.0339 0.051,0.0848 0.1018,0.0848 0.0466,0 0.108,-0.0568 0.17002,-0.10542 0.005,-0.23362 0.40566,-0.30268 0.40566,-0.60564 0,-0.0792 -0.0306,-0.15869 -0.076,-0.25167 z m -0.3297,0.85731 c -3e-5,0.001 -5.2e-4,0.003 -5.2e-4,0.004 0.005,0.005 0.0103,0.009 0.0155,0.0124 3.8e-4,-0.01 0.001,-0.0193 0.001,-0.0289 l -0.002,10e-4 c -0.005,0.004 -0.01,0.008 -0.0145,0.0114 z m 0.015,0.0165 c -0.006,0.14262 -0.0496,0.28526 -0.0496,0.42788 0,0.0677 0.0341,0.13535 0.0341,0.20309 0,0.22013 -0.20309,0.47384 -0.20309,0.54157 0,0.11853 0.16899,0.27094 0.16899,0.44028 0,0.1524 -0.11834,0.288 -0.11834,0.45734 0,0.0339 0.017,0.085 0.017,0.11885 0,0.0677 -0.051,0.21963 -0.1018,0.21963 -0.18627,0 -0.22014,-0.42313 -0.22014,-0.84646 0,-0.16934 0.017,-0.32188 0.017,-0.45734 0,-0.23707 -0.0169,-0.40617 -0.0677,-0.40617 -0.0847,0.0339 -0.0847,0.11829 -0.0847,0.18603 0,0.0677 0.0165,0.11882 0.0165,0.18655 0,0.13547 -0.0506,0.27099 -0.11834,0.37259 h 0.0171 0.017 c -0.003,0.003 -0.004,0.003 -0.006,0.005 0.10968,0.0479 0.15813,0.082 0.15813,0.14727 0,0.1524 -0.15241,0.27079 -0.22014,0.27079 -0.11853,0 -0.16895,-0.11834 -0.23668,-0.11834 -0.16934,0 -0.16931,0.57569 -0.28784,0.79582 0,0.0339 0.0845,0.10128 0.11834,0.10128 0.13547,0 0.22007,-0.52503 0.35553,-0.52503 0.0677,0 0.085,0.068 0.11886,0.11886 0,0.18627 -0.22014,0.37219 -0.22014,0.60926 0,0.0677 0.0165,0.13587 0.0165,0.20361 0,0.32173 -0.37258,0.86348 -0.37258,0.93121 0,0.2032 0.2036,0.67744 0.2036,0.74517 0,0.0508 -0.017,0.11818 -0.017,0.16898 0,0.28786 0.38964,0.69447 0.38964,1.05007 -0.0169,0.0508 -0.017,0.0845 -0.017,0.11834 0,0.20319 0.40619,0.60978 0.84646,0.60978 0.11852,0 0.57576,-0.0679 0.66042,-0.32195 0,-0.0339 0.10165,-0.0677 0.15245,-0.0677 0.0339,0 0.0679,0.0171 0.1018,0.0171 0.0339,0 0.52464,-0.4573 0.54157,-0.52503 0.0508,-0.18627 0.25425,-0.15221 0.25425,-0.33848 0.0508,-0.23706 0.0675,-0.25425 0.33848,-0.25425 0.0169,0 0.085,0.0512 0.11885,0.0512 0.0847,0 0.0508,-0.30482 0.0677,-0.44028 0.0508,-0.28787 0.44028,-0.25407 0.44028,-0.81287 0,-0.33867 -0.1018,-0.74524 -0.1018,-1.11777 0,-0.20319 0.0167,-0.40606 0.0506,-0.60926 0.16933,-0.18626 0.2372,-0.25406 0.2372,-0.37259 0,-0.0677 -0.0339,-0.13584 -0.0677,-0.2713 -0.47413,0.67733 -0.94843,1.28713 -1.3379,1.99833 -0.27093,0.49106 -0.82978,1.45624 -1.10071,1.45624 -0.52494,0 -0.0847,-0.76212 -0.44028,-0.96531 -0.0677,-0.0339 -0.0842,-0.18588 -0.0842,-0.23668 0,-0.18627 0.20309,-0.23752 0.20309,-0.35605 0,-0.16934 -0.18655,-0.27096 -0.18655,-0.44029 0,-0.74506 0.15245,-1.43914 0.15245,-2.235 0,-0.0847 -0.0336,-0.18612 -0.0336,-0.27079 0,-0.2032 0.11829,-0.35554 0.18603,-0.57567 -0.0847,0 -0.15252,0.0336 -0.23719,0.0336 -0.0142,0 -0.0405,-9.6e-4 -0.0687,-0.0212 z m -0.68213,1.44901 c -0.004,-0.002 -0.007,-0.003 -0.0108,-0.005 l -0.0171,0.0165 c 0.0139,0 0.0181,-0.002 0.0279,-0.0114 z m -0.0108,-1.02113 c -0.0339,0.0169 -0.13524,-1.6e-4 -0.18604,0.0506 0.0339,0.0169 0.0678,0.0677 0.0847,0.0677 0.0675,0 0.10111,-0.0509 0.10129,-0.11834 z m 46.10933,-8.29768 c -0.44027,0 -0.59262,0.25391 -0.79582,0.64337 0.0169,0.1524 0.0336,0.30493 0.0336,0.45733 0,0.62654 -0.0507,1.74429 -0.49093,1.84589 -0.6604,0.1016 -1.15119,0.57567 -1.20199,0.57567 -0.18627,0 -0.55908,0.30485 -0.91467,0.37259 -0.2032,0.0339 -0.67748,0.0339 -0.67748,0.22014 0,0.508 0.93149,0.66043 1.11776,0.66043 0.86359,0 0.96529,-0.49145 1.47329,-0.49145 0.0508,-0.0339 0.051,-0.10128 0.1695,-0.10128 0.11853,0 0.20309,0.0845 0.20309,0.18603 0,0.0677 -0.017,0.13588 -0.017,0.20361 0,0.1016 0.1018,0.18623 0.1018,0.28783 0,0.0508 -0.0171,0.10154 -0.0341,0.1354 -0.16934,0.32174 -0.22014,0.64307 -0.22014,0.9648 0,0.1016 0.0171,0.22022 0.0171,0.30489 0,0.13547 -0.0507,0.2711 -0.0507,0.38964 0,0.16933 0.0507,0.33864 0.0507,0.50798 0,0.0508 -0.0171,0.10152 -0.0171,0.13539 0,0.0677 0.1695,0.16918 0.1695,0.27078 0,0.13547 -0.23719,0.1697 -0.23719,0.2713 0,0.13248 0.27466,0.039 0.2868,0.27234 -0.05,0.0668 -0.0841,0.11799 -0.13436,0.185 l 0.017,0.0165 c 0.05,-0.0667 0.0996,-0.11705 0.11731,-0.19947 2.1e-4,0.005 0.001,0.009 0.001,0.0134 v -0.0171 c 0.13546,-0.0677 0.15245,-0.20314 0.15245,-0.35554 0,-0.11852 -0.0171,-0.237 -0.0171,-0.35553 0,-0.3048 0.25424,-0.50794 0.25424,-0.57567 0,-0.1524 -0.23719,-0.37251 -0.23719,-0.50798 0,-0.12469 0.0887,-0.20848 0.22117,-0.33952 0.004,0.21645 0.10417,0.81339 0.25322,0.81339 0.0677,0 0.11806,-0.017 0.15193,-0.017 0.0847,0 0.0849,0.0508 0.1018,0.22014 0.0677,-0.3556 0.1018,-0.47365 0.1018,-0.88005 0,-0.254 0.21963,-0.44054 0.21963,-0.69453 0.0508,-0.42334 0.0851,-0.82983 0.13591,-1.25316 -0.0169,-0.0169 -0.0171,-0.0508 -0.0171,-0.0677 0,-0.11854 0.0848,-0.23701 0.0848,-0.35554 0,-0.0339 -1.5e-4,-0.0845 -0.0171,-0.11834 0.11853,-0.27094 1.25303,-0.82992 1.2361,-0.82992 0.5588,-0.11853 0.94848,-0.11867 1.49035,-0.45734 0.0508,-0.0339 0.1183,-0.0506 0.18603,-0.0506 0.0508,0 0.1187,0.0171 0.1695,0.0171 0.1016,0 0.22011,-0.11885 0.28784,-0.11885 0.0847,0 0.27103,0.1018 0.30489,0.1018 0.0677,0 0.38912,-0.30469 0.38912,-0.42323 0,-0.0508 -0.0167,-0.10177 -0.0506,-0.1695 -0.0169,0.0339 -0.0508,0.0506 -0.0677,0.0506 -0.18626,0 0.0845,-0.66043 -0.60978,-0.66043 -0.23707,0 -0.20313,0.30489 -0.35553,0.30489 -0.1016,0 -0.18624,-0.22014 -0.28784,-0.22014 -0.2032,0 -0.52464,0.42323 -0.76171,0.42323 -0.508,0 -1.15172,0.32215 -1.42265,0.42375 -0.15611,-0.0624 -0.13995,-0.25459 -0.2558,-0.36381 0.001,-0.005 0.002,-0.009 0.002,-0.009 -0.004,0 -0.007,8.8e-4 -0.0109,0.001 -0.004,-0.003 -0.008,-0.006 -0.0119,-0.009 0.0798,-0.0897 0.10697,-0.30314 0.10697,-0.51676 0,-0.72813 -0.13522,-1.11776 -0.69401,-1.11776 z m -0.15245,6.99337 -0.017,-0.0165 c 0.003,0.007 0.006,0.0126 0.009,0.0191 0.003,-9.4e-4 0.005,-0.002 0.008,-0.003 z m -0.008,0.003 c -0.21362,0.0644 -0.31462,0.054 -0.38137,0.42116 -0.0508,-0.0339 -0.11858,-0.0681 -0.15245,-0.1359 -0.0847,0.16933 -0.0677,0.38952 -0.0677,0.59272 0,0.0339 0.051,0.0848 0.1018,0.0848 0.0467,0 0.10782,-0.0572 0.17002,-0.10593 0.005,-0.2332 0.40566,-0.3024 0.40566,-0.60513 0,-0.0792 -0.0306,-0.15869 -0.076,-0.25167 z m -0.32969,0.8568 c -4e-5,0.002 -5.2e-4,0.003 -5.2e-4,0.005 0.005,0.005 0.0103,0.009 0.0155,0.0124 3.9e-4,-0.01 10e-4,-0.0197 10e-4,-0.0295 -0.005,0.004 -0.0106,0.008 -0.016,0.0124 z m 0.015,0.017 c -0.006,0.14262 -0.0496,0.28526 -0.0496,0.42788 0,0.0677 0.0341,0.13535 0.0341,0.20309 0,0.22013 -0.20361,0.47384 -0.20361,0.54157 0,0.11853 0.1695,0.27094 0.1695,0.44028 0,0.1524 -0.11834,0.288 -0.11834,0.45734 0,0.0339 0.0165,0.085 0.0165,0.11885 0,0.0677 -0.0505,0.21963 -0.10129,0.21963 -0.18627,0 -0.22014,-0.42313 -0.22014,-0.84646 0,-0.16934 0.0171,-0.32188 0.0171,-0.45734 0,-0.23707 -0.0169,-0.40617 -0.0677,-0.40617 -0.0847,0.0339 -0.0848,0.11829 -0.0848,0.18603 0,0.0677 0.0165,0.11882 0.0165,0.18655 0,0.13547 -0.0506,0.27099 -0.11834,0.37259 h 0.0171 0.017 c -0.003,0.003 -0.004,0.003 -0.006,0.005 0.10968,0.0479 0.15813,0.082 0.15813,0.14727 0,0.1524 -0.15241,0.27079 -0.22014,0.27079 -0.11853,0 -0.16894,-0.11834 -0.23668,-0.11834 -0.16933,0 -0.1693,0.57569 -0.28783,0.79582 0,0.0339 0.0845,0.10128 0.11833,0.10128 0.13547,0 0.22007,-0.52503 0.35554,-0.52503 0.0677,0 0.0845,0.068 0.11834,0.11886 0,0.18627 -0.22014,0.37219 -0.22014,0.60926 0,0.0677 0.0171,0.13587 0.0171,0.20361 0,0.32173 -0.37259,0.86348 -0.37259,0.93121 0,0.2032 0.20361,0.67744 0.20361,0.74517 0,0.0508 -0.0171,0.11818 -0.0171,0.16898 0,0.28786 0.38913,0.69447 0.38913,1.05007 -0.0169,0.0508 -0.0165,0.0845 -0.0165,0.11834 0,0.20319 0.4062,0.60978 0.84646,0.60978 0.11854,0 0.57577,-0.0679 0.66043,-0.32195 0,-0.0339 0.10164,-0.0677 0.15244,-0.0677 0.0339,0 0.0679,0.0171 0.1018,0.0171 0.0339,0 0.52464,-0.4573 0.54157,-0.52503 0.0508,-0.18627 0.25425,-0.15221 0.25425,-0.33848 0.0508,-0.23706 0.0675,-0.25425 0.33848,-0.25425 0.0169,0 0.0845,0.0512 0.11834,0.0512 0.0847,0 0.0508,-0.30482 0.0677,-0.44028 0.0508,-0.28787 0.44028,-0.25407 0.44028,-0.81287 0,-0.33867 -0.10129,-0.74524 -0.10129,-1.11777 0,-0.20319 0.0168,-0.40606 0.0506,-0.60926 0.16933,-0.18626 0.23719,-0.25406 0.23719,-0.37259 0,-0.0677 -0.0339,-0.13584 -0.0677,-0.2713 -0.47413,0.67733 -0.94845,1.28713 -1.33791,1.99833 -0.27093,0.49106 -0.82977,1.45624 -1.1007,1.45624 -0.52493,0 -0.0847,-0.76212 -0.44029,-0.96531 -0.0677,-0.0339 -0.0848,-0.18588 -0.0848,-0.23668 0,-0.18627 0.20361,-0.23752 0.20361,-0.35605 0,-0.16934 -0.18655,-0.27096 -0.18655,-0.44029 0,-0.74506 0.15244,-1.43914 0.15244,-2.235 0,-0.0847 -0.0341,-0.18612 -0.0341,-0.27079 0,-0.2032 0.11883,-0.35554 0.18656,-0.57567 -0.0847,0 -0.15254,0.0336 -0.2372,0.0336 -0.0142,0 -0.0405,-9.6e-4 -0.0687,-0.0212 z m -0.68213,1.44901 c -0.004,-0.002 -0.007,-0.003 -0.0109,-0.005 l -0.0171,0.0165 c 0.0139,0 0.0181,-0.002 0.0279,-0.0114 z m -0.0109,-1.02113 c -0.0339,0.0169 -0.13523,-1.6e-4 -0.18603,0.0506 0.0339,0.0169 0.0672,0.0677 0.0842,0.0677 0.0675,0 0.10163,-0.0509 0.1018,-0.11834 z m -57.945816,-7.50187 c -0.287866,0 -0.321427,0.33865 -0.321427,0.50798 0,0.3048 0.118117,0.82993 0.524516,0.82993 0.440265,0 0.643888,-0.45699 0.643888,-0.84646 0,-0.42333 -0.457511,-0.40678 -0.846977,-0.49145 z m 79.433916,0 c -0.28786,0 -0.32143,0.33865 -0.32143,0.50798 0,0.3048 0.11811,0.82993 0.52451,0.82993 0.44027,0 0.64389,-0.45699 0.64389,-0.84646 0,-0.42333 -0.45751,-0.40678 -0.84697,-0.49145 z m -73.01622,0.74518 c -0.304798,0.3048 -0.59246,0.45711 -0.84646,0.86351 -0.186265,0.3048 -0.660388,0.42312 -0.728121,0.62632 -0.152399,0.4572 -0.677284,0.28797 -0.795817,0.74517 0,0.0169 -0.558788,0.60994 -0.728121,0.77928 -0.237065,0.22013 -0.457456,0.49098 -0.474389,0.86352 0,0.18626 -0.135392,0.35569 -0.135392,0.52503 0,0.11853 0.05064,0.21995 0.05064,0.33848 0,0.0508 -0.03359,0.10165 -0.03359,0.15245 0,0.31983 0.17294,0.5531 0.442867,0.73328 -0.123957,0.0924 -0.218139,0.24165 -0.256832,0.43512 -0.237066,1.10067 -0.863504,1.8458 -1.591634,2.70939 -0.03387,0.0339 -0.06793,0.0341 -0.101803,0.0341 -0.440265,0 -0.456819,-1.86315 -0.456819,-2.18488 0,-0.0339 1.23e-4,-0.0672 0.01705,-0.0842 0.118533,-0.3048 0.01686,-0.62693 0.135392,-0.93173 0.03387,-0.4064 0.08475,-0.81277 0.08475,-1.2361 0,-0.6096 -0.305028,-1.86234 -0.762227,-1.99781 -0.253999,-0.0677 -0.575805,-0.18655 -0.81287,-0.18655 -0.524932,0 -1.015959,3.69165 -1.015959,4.11499 0,0.37253 0.0677,0.74483 0.0677,1.1343 0,0.49106 0.440329,1.10104 0.592729,1.43971 0.253999,0.57573 0.982193,1.20199 1.540991,1.20199 0.389466,0 1.049835,-0.237 1.2361,-0.57567 0.08467,-0.254 0.42323,-0.49121 0.42323,-0.67748 0.03387,-0.22013 0.321871,-0.45731 0.457337,-0.74518 0.08467,-0.1524 0.03364,-0.35522 0.186035,-0.45682 0.186266,-0.1524 0.355893,-0.66074 0.406693,-0.77928 0.06172,-0.2592 0.338733,-0.54479 0.484725,-0.77928 0.03026,0.0641 0.05938,0.11886 0.108004,0.11886 0.694264,0 1.2361,-0.47387 1.2361,-0.47387 0.06773,0 0.152252,0.0675 0.270785,0.11833 0.3556,-0.23706 0.440338,-0.32175 0.81287,-0.44028 0.524932,-0.1524 0.863522,-0.45733 1.083655,-0.45733 0.118533,0 0.220344,0.0847 0.321944,0.0847 0.06773,0 0.152011,-0.0336 0.236678,-0.0336 0.253999,0 0.406694,0.25375 0.406694,0.47388 -0.135466,0.8636 -0.06784,1.55769 -0.745174,1.72702 -0.440266,0.1016 -0.542142,0.69454 -0.914673,0.69454 -0.338666,0 -0.355349,0.35537 -0.694015,0.40617 -0.169333,0 -0.389621,0.59265 -0.897619,0.72812 -0.389465,0.10159 -0.423202,0.4575 -0.711068,0.62684 -0.846664,0.508 -1.151471,1.89646 -1.168404,2.03192 -0.08467,0.254 -0.287838,0.60962 -0.287838,0.66042 0,0.3048 0.507877,1.18546 0.931209,1.18546 0.203199,0 0.220196,-0.30489 0.592729,-0.30489 0.406399,0 0.643666,-0.0172 1.050065,-0.339 0.101599,-0.0847 0.202895,-0.15217 0.321428,-0.18604 0.169332,-0.0508 0.203097,-0.37258 0.423229,-0.37258 0.440266,0 0.186764,-0.49086 0.508497,-0.62632 0.220132,-0.0847 0.13528,-0.45757 0.33848,-0.49144 0.304799,-0.1016 0.287838,-0.45676 0.287838,-0.81236 -0.004,-0.001 -0.0079,-0.002 -0.01189,-0.003 0.420571,-0.23635 0.722954,-0.50638 0.722954,-0.77618 0,-0.0677 -0.06753,-0.10128 -0.118339,-0.10128 -0.101599,0 -0.152289,0.0165 -0.203089,0.0165 -0.118533,0 -0.0173,-0.42323 -0.271301,-0.42323 -0.0508,0 -0.355377,0.54209 -0.406177,0.54209 v -0.0171 c 0,0.32174 -0.457502,0.88043 -0.626835,1.15136 -0.186267,0.49106 -0.287578,0.99922 -0.761711,1.11776 -0.423331,0.11853 -0.321878,0.6603 -0.677478,0.64337 -0.06773,0 -0.118302,-0.0171 -0.186035,-0.0171 -0.118533,0 -0.254174,0.0512 -0.38964,0.0512 -0.118533,0 -0.355534,-0.0508 -0.355534,-0.22014 0.03387,-0.23707 -7.3e-5,-0.50798 0.135392,-0.72812 0.270933,-0.42333 0.541744,-1.11768 0.93121,-1.25315 0.355598,-0.2032 0.660525,-0.69415 1.185457,-0.93121 0.558799,-0.254 0.660451,-0.89762 1.32085,-0.89762 0.01693,0.254 0.101415,0.71107 0.33848,0.71107 0.474132,0 0.745174,-0.28773 0.745174,-0.71107 0,-0.13546 -0.05085,-0.23727 -0.152445,-0.32194 v 5.1e-4 c 0,0.0847 0.01705,0.15201 0.01705,0.23668 -0.01727,0.14677 -0.02178,0.25818 -0.06201,0.33228 -0.04387,-0.0998 -0.05633,-0.20153 -0.05633,-0.31523 0,-0.2032 0.118385,-0.32142 0.270785,-0.32142 0.0508,0 0.118302,0.0165 0.186035,0.0165 0.06773,0 0.101802,-0.017 0.101802,-0.0848 0,-0.0508 -0.01705,-0.10164 -0.01705,-0.15244 0,-0.28786 0.491092,-0.69402 0.660425,-0.69402 0.0508,0 0.118699,0.0171 0.169499,0.0171 0.08467,0 0.152169,-0.0341 0.186035,-0.10181 0.2032,-0.508 1.337837,-0.72812 1.693437,-0.72812 0.0847,0 0.16918,0.0341 0.27078,0.0341 0.2032,0 0.54209,-0.23732 0.54209,-0.47439 0,-0.3048 -0.5758,-0.30486 -0.81287,-0.37259 -0.3048,0.11853 -0.62641,0.0171 -0.93121,0.1695 -0.1016,0.0508 -0.203411,0.0677 -0.321944,0.0677 -0.474131,0 -0.253703,-0.33884 -0.541569,-0.38964 -0.03387,-0.16933 -0.03404,-0.59273 -0.169499,-0.59273 -0.0508,0 -0.152408,0.0846 -0.220141,0.13539 -0.186267,-0.18626 -0.08484,-0.43977 -0.169499,-0.65991 -0.3556,-0.3556 -0.626225,-0.52503 -1.26969,-0.52503 -1.303863,0 -2.472394,0.40619 -3.302124,0.62632 -0.03387,0.0169 -0.06793,0.0171 -0.101803,0.0171 -0.101599,0 -0.152445,-0.0511 -0.152445,-0.11885 0,-0.13546 0.237157,-0.40623 0.304891,-0.55863 0.118533,-0.4064 0.575639,-0.54181 0.643372,-0.79581 0.220132,-0.8128 0.812961,-0.8805 1.117761,-1.2361 0.237066,-0.3556 0.660682,-0.77872 1.134814,-0.84646 0.06773,-0.0169 0.118339,-0.13547 0.118339,-0.22014 -0.06773,-0.59266 -1.05,-0.60975 -1.405599,-0.67748 z m 87.34196,0 c -0.3048,0.3048 -0.59299,0.45711 -0.84698,0.86351 -0.18627,0.3048 -0.66038,0.42312 -0.72812,0.62632 -0.1524,0.4572 -0.67729,0.28797 -0.79582,0.74517 0,0.0169 -0.55879,0.60994 -0.72812,0.77928 -0.23707,0.22013 -0.45693,0.49098 -0.47387,0.86352 0,0.18626 -0.13539,0.35569 -0.13539,0.52503 0,0.11853 0.0506,0.21995 0.0506,0.33848 0,0.0508 -0.0341,0.10165 -0.0341,0.15245 0,0.49106 0.40639,0.77865 0.94826,0.98185 0.11853,0.0677 0.1356,0.30489 0.2372,0.30489 0.69427,0 1.2361,-0.47387 1.2361,-0.47387 0.0677,0 0.15224,0.0675 0.27078,0.11833 0.35559,-0.23706 0.44034,-0.32175 0.81287,-0.44028 0.52494,-0.1524 0.86352,-0.45733 1.08366,-0.45733 0.11853,0 0.22034,0.0847 0.32194,0.0847 0.0677,0 0.15254,-0.0336 0.2372,-0.0336 0.254,0 0.40617,0.25375 0.40617,0.47388 -0.13546,0.8636 -0.0678,1.55769 -0.74517,1.72702 -0.44027,0.1016 -0.54163,0.69454 -0.91416,0.69454 -0.33867,0 -0.35586,0.35537 -0.69453,0.40617 -0.16933,0 -0.3891,0.59265 -0.8971,0.72812 -0.38947,0.10159 -0.42371,0.4575 -0.71158,0.62684 -0.84666,0.508 -1.15095,1.89646 -1.16789,2.03192 -0.0847,0.254 -0.28836,0.60962 -0.28836,0.66042 0,0.3048 0.5084,1.18546 0.93173,1.18546 0.2032,0 0.2202,-0.30489 0.59273,-0.30489 0.4064,0 0.64315,-0.0172 1.04955,-0.339 0.1016,-0.0847 0.20341,-0.15217 0.32194,-0.18604 0.16933,-0.0508 0.2031,-0.37258 0.42323,-0.37258 0.44027,0 0.18625,-0.49086 0.50798,-0.62632 0.22014,-0.0847 0.13528,-0.45757 0.33848,-0.49144 0.3048,-0.1016 0.28784,-0.45676 0.28784,-0.81236 -0.004,-9.7e-4 -0.007,-0.002 -0.0114,-0.003 0.42055,-0.23634 0.72295,-0.50639 0.72295,-0.77618 0,-0.0677 -0.068,-0.10128 -0.11885,-0.10128 -0.1016,0 -0.15229,0.0165 -0.20309,0.0165 -0.11853,0 -0.0168,-0.42323 -0.27079,-0.42323 -0.0508,0 -0.35589,0.54209 -0.40669,0.54209 v -0.0171 c 0,0.32174 -0.45699,0.88043 -0.62632,1.15136 -0.18627,0.49106 -0.2881,0.99922 -0.76222,1.11776 -0.42333,0.11853 -0.32137,0.6603 -0.67697,0.64337 -0.0677,0 -0.11882,-0.0171 -0.18655,-0.0171 -0.11853,0 -0.25417,0.0512 -0.38964,0.0512 -0.11853,0 -0.35553,-0.0508 -0.35553,-0.22014 0.0339,-0.23707 -8e-5,-0.50798 0.13539,-0.72812 0.27093,-0.42333 0.54227,-1.11768 0.93173,-1.25315 0.3556,-0.2032 0.66001,-0.69415 1.18494,-0.93121 0.5588,-0.254 0.66045,-0.89762 1.32085,-0.89762 0.0169,0.254 0.10192,0.71107 0.33899,0.71107 0.47413,0 0.74466,-0.28773 0.74466,-0.71107 0,-0.13546 -0.0503,-0.23727 -0.15193,-0.32194 v 5.1e-4 c 0,0.0847 0.0171,0.15201 0.0171,0.23668 -0.0173,0.14719 -0.022,0.2587 -0.0625,0.3328 -0.044,-0.1 -0.0563,-0.20189 -0.0563,-0.31575 0,-0.2032 0.11838,-0.32142 0.27078,-0.32142 0.0508,0 0.11883,0.0165 0.18656,0.0165 0.0677,0 0.10128,-0.017 0.10128,-0.0848 0,-0.0508 -0.0165,-0.10164 -0.0165,-0.15244 0,-0.28786 0.49108,-0.69402 0.66042,-0.69402 0.0508,0 0.11818,0.0171 0.16898,0.0171 0.0847,0 0.15268,-0.0341 0.18655,-0.10181 0.2032,-0.508 1.33784,-0.72812 1.69344,-0.72812 0.0847,0 0.16919,0.0341 0.27079,0.0341 0.008,0 0.0171,-0.001 0.0258,-0.002 -0.0158,0.0645 -0.0258,0.11861 -0.0258,0.15452 0,0.32172 -0.1354,0.62613 -0.1354,0.96479 0,1.74413 1.202,2.6417 1.202,2.6417 0.33866,0.23707 0.74511,0.3051 1.10071,0.4067 0.22012,-0.13547 0.82972,-0.49145 0.94826,-0.49145 0.0169,0 0.0171,0.0171 0.0171,0.0171 1.20226,-1.20227 1.26983,-1.60878 1.50689,-1.91358 0.254,-0.32173 -0.0336,-0.84635 0.33899,-1.04955 0.0677,-0.0677 0.33848,-1.42234 0.33848,-1.52394 0.0677,-0.49106 0.18646,-0.59293 0.82993,-0.91467 0.37735,-0.18217 0.78473,-0.3835 1.21439,-0.49041 -0.007,0.0798 -0.0124,0.15901 -0.0124,0.23668 0,0.1016 0.017,0.18611 0.017,0.27078 0,0.11853 -0.0847,0.20329 -0.0847,0.30489 0,0.13546 0.0677,0.27071 0.0677,0.40618 0,0.40639 -0.0341,0.72838 -0.0341,1.20251 0,0.74506 0.0677,1.67638 0.72813,1.67638 0.98212,0 1.40557,-0.745 1.91357,-1.52393 0.23707,-0.3556 0.74491,-1.13479 0.77877,-1.42266 0.0508,-0.42332 1.016,-1.33738 1.1684,-1.33738 0.0339,0 0.0512,0.10152 0.0512,0.13539 0,0.1524 -0.0677,0.33853 -0.0677,0.49093 0,0.27094 0.0677,0.54194 0.0677,0.81287 0,0.13547 -0.0169,0.54202 -0.22014,0.67748 -0.0339,0.0339 -0.0677,0.0674 -0.0677,0.10128 0,0.0847 0.10129,0.1356 0.10129,0.2372 -0.0339,0.2032 -0.13539,0.42351 -0.13539,0.60978 0,0.13547 0.1695,0.20277 0.1695,0.30437 0,0.0508 -0.0341,0.1187 -0.0341,0.1695 0,0.0677 0.0171,0.1183 0.0171,0.18604 0,0.0677 -0.30489,0.54193 -0.30489,0.81287 0,0.22013 0.0677,0.42336 0.0677,0.66042 0,0.1524 -0.0165,0.32211 -0.0165,0.49144 0.0339,0.89747 0.33863,2.15026 1.2361,2.15026 0.13547,-0.0847 0.20317,-0.11834 0.28784,-0.11834 0.0508,0 0.1352,0.0166 0.25373,0.0336 h 5.2e-4 c 0.254,-0.22013 0.45718,-0.779 0.50798,-0.81287 0.16934,-0.0847 0.16898,-0.20286 0.16898,-0.38912 0,-0.22013 0.339,-0.42356 0.339,-0.76223 0,-0.1016 -0.0341,-0.21983 -0.0341,-0.32143 0,0.0169 0.22026,-0.88068 0.23719,-0.89762 0.2032,-0.22013 0.1523,-0.55899 0.42323,-0.82992 0.1524,-0.11853 0.0338,-0.37263 0.1354,-0.52503 0.22013,-0.13547 0.77876,-0.96489 0.77876,-1.26969 0,-0.11853 -0.0846,-0.18656 -0.20309,-0.18656 -0.6604,0 -0.76192,0.79615 -1.08365,1.13482 -0.16933,0.18626 -0.20321,0.32156 -0.22014,0.55862 0,0.11854 -0.21999,0.10185 -0.27079,0.25425 -0.27094,0.5588 -0.89763,2.1332 -1.11776,2.1332 -0.16933,0 -0.13539,-0.98183 -0.13539,-1.48983 0,-0.54187 0.0169,-1.0502 0.15244,-1.28726 v -0.0165 c 0,-0.0339 -0.0677,-0.1697 -0.0677,-0.2713 0.0847,-0.0677 0.27078,-0.11854 0.27078,-0.22014 0,-0.0847 -0.18603,-0.21994 -0.18603,-0.33848 0,-0.0677 0.0506,-0.16946 0.0506,-0.23719 0,-0.0677 -0.0341,-0.13524 -0.0341,-0.18604 0,-0.28786 0.35605,-0.40651 0.35605,-0.74517 0,-1.65947 0.0673,-2.25206 -0.71158,-2.25206 -0.28787,0 -0.64315,0.051 -0.82941,0.32194 -0.0847,0.13547 -0.72848,0.40639 -0.99942,0.72812 -0.2032,0.23707 -0.37235,0.55851 -0.55862,0.76171 -0.67733,0.47413 -1.236,1.77819 -1.65933,1.77819 -0.0339,-0.0508 -0.0677,-0.0846 -0.0677,-0.13539 0,-0.33867 0.27063,-0.71128 0.32143,-1.03301 0.0339,-0.74507 0.0677,-1.49046 0.0677,-2.23553 0,-0.38946 -0.0165,-0.81235 -0.52452,-0.81235 -0.3048,0 -0.82992,0.20321 -0.82992,0.44028 0,0.32154 -0.0695,0.65762 -0.13333,0.99012 -0.64104,0.13577 -1.2518,0.3874 -1.88154,0.60152 -0.0508,0.0169 -0.10164,0.0336 -0.15244,0.0336 -0.28786,0 -0.33897,-0.35539 -0.4067,-0.62632 -0.18627,-0.62654 -0.8126,-1.32102 -1.28674,-1.49035 -0.40639,-0.13547 -0.7789,-0.49093 -1.2361,-0.49093 h -0.81287 c -1.1176,0 -1.79472,0.15252 -1.79472,1.91358 0,0.49107 0.47387,1.18539 0.47387,1.54099 0,0.14325 -0.0482,0.34819 -0.10904,0.56121 -0.17823,-0.0514 -0.39356,-0.069 -0.51728,-0.10439 -0.3048,0.11853 -0.62694,0.0171 -0.93172,0.1695 -0.1016,0.0508 -0.20289,0.0677 -0.32143,0.0677 -0.47413,0 -0.25423,-0.33884 -0.54209,-0.38964 -0.0339,-0.16933 -0.0335,-0.59273 -0.16898,-0.59273 -0.0508,0 -0.15241,0.0846 -0.22014,0.13539 -0.18627,-0.18626 -0.0849,-0.43977 -0.1695,-0.65991 -0.3556,-0.3556 -0.62674,-0.52503 -1.27021,-0.52503 -1.30386,0 -2.47188,0.40619 -3.3016,0.62632 -0.0339,0.0169 -0.0679,0.0171 -0.10181,0.0171 -0.1016,0 -0.15244,-0.0511 -0.15244,-0.11885 0,-0.13546 0.23715,-0.40623 0.30489,-0.55863 0.11853,-0.4064 0.57564,-0.54181 0.64337,-0.79581 0.22014,-0.8128 0.81296,-0.8805 1.11776,-1.2361 0.23707,-0.3556 0.66017,-0.77872 1.1343,-0.84646 0.0677,-0.0169 0.11885,-0.13547 0.11885,-0.22014 -0.0677,-0.59266 -1.04999,-0.60975 -1.40559,-0.67748 z m -79.00655,0.10077 c 6e-4,0.001 10e-4,0.003 0.002,0.004 -0.008,0.002 -0.0156,0.006 -0.0233,0.0134 0.007,-0.005 0.0145,-0.0109 0.0212,-0.0176 z m 44.94092,0 c 6.1e-4,0.001 0.001,0.003 0.002,0.004 -0.008,0.002 -0.0155,0.006 -0.0233,0.0134 0.007,-0.005 0.0145,-0.0109 0.0212,-0.0176 z m -63.131542,0.8139 c -0.575733,0 -1.320813,0.69386 -1.388546,0.9648 -0.0508,0.22013 -0.524488,0.64354 -0.812353,1.03301 0.01693,-0.1524 0.05064,-0.23688 0.05064,-0.33848 -0.101599,-0.37253 -0.152546,-0.98237 -0.677478,-0.98237 -0.186266,0 -0.355304,0.0677 -0.541569,0.0677 -0.03387,0 -0.08499,-0.0165 -0.118856,-0.0165 -0.135467,0 -0.575758,0.84635 -0.660425,1.04955 -0.270933,0.59267 -0.711308,1.25346 -0.745174,1.87999 0,0.18627 -0.186035,0.50795 -0.186035,0.79581 0,0.0847 1.23e-4,0.15202 0.01705,0.23668 -0.135467,0.13547 -0.237084,0.74542 -0.440283,0.77928 l 0.135392,0.10129 c -0.03387,0.13547 -0.101803,0.35558 -0.101803,0.50798 0,0.0847 0.08475,0.18624 0.08475,0.28784 0,0.0339 -0.01705,0.0508 -0.01705,0.0677 -0.220132,0.27093 -0.287837,0.84668 -0.287837,1.16841 0,0.28787 0.0677,0.52515 0.0677,0.76222 0,0.16933 -0.03359,0.30494 -0.03359,0.45734 0,0.5588 0.152343,1.1343 0.575676,1.1343 0.643464,0 0.948142,-1.47306 0.931209,-1.43919 0.304799,-0.54187 0.287967,-1.16835 0.525032,-1.74408 0.491066,-1.1684 0.37256,-1.54088 0.660425,-1.96422 0.169333,-0.25399 0.254054,-0.54194 0.372587,-0.81287 0.321732,-0.79587 1.185088,-2.11696 1.862419,-2.52336 0.01693,0 0.01717,-0.0165 0.03411,-0.0165 0.254,0 0.05051,2.04897 0.761711,2.04897 0.253999,0 0.169591,-0.50799 0.47439,-0.72812 0.491065,-0.3556 0.626318,-0.60968 0.626318,-1.25315 0,-0.60959 -0.254007,-1.52394 -1.168404,-1.52394 z m -37.185327,0.11834 c -0.02938,0.0147 -0.05848,0.0292 -0.08785,0.0439 0.0134,0.007 0.02914,0.007 0.05426,0.007 0.01693,0 0.03359,1.6e-4 0.03359,-0.0506 z m 78.925929,0.22014 c 0.0677,0 0.0847,0.0845 0.0847,0.11834 0,0.0847 -0.0506,0.11846 -0.11834,0.13539 v 5.2e-4 c -0.0677,0 -0.1018,-0.017 -0.1018,-0.0848 0,-0.0847 0.13539,-0.1695 0.13539,-0.1695 z m 5.46944,0.62632 c 0.0508,0 0.0506,0.0508 0.0506,0.0677 -0.0169,0.0169 -0.0166,0.0341 -0.0336,0.0341 -0.0169,0 -0.0341,-0.0171 -0.0341,-0.0171 0,-0.0339 0.0171,-0.0677 0.0171,-0.0848 z m 3.16673,0 c -0.23707,0 -0.37243,2.33702 -0.42323,2.87889 -0.0339,0.3556 -0.0848,0.72806 -0.0848,1.08366 0,0.4572 0.23668,0.82966 0.23668,1.30379 0,0.98213 0.84676,1.49035 1.47329,1.49035 1.18533,0 1.45646,-0.96528 1.77819,-1.98127 0.0677,-0.2032 0.10158,-0.42356 0.28784,-0.54209 0.0169,-0.2032 0.25396,-0.27067 0.28783,-0.47387 0.0339,-0.2032 0.99909,-1.82883 1.60869,-1.82883 0.0169,0.0677 0.0171,0.15241 0.0171,0.22014 0,0.254 -0.0677,0.50771 -0.0677,0.76171 0,0.0677 0.0165,0.1524 0.0165,0.22014 0,0.6096 -0.16898,1.27051 -0.16898,1.89705 0,0.254 0.0507,0.50771 0.0507,0.76171 0,0.22014 -0.0171,0.4744 -0.0171,0.69453 0,0.13547 0.0512,0.25354 0.0512,0.37207 0,0.13547 -0.0343,0.25406 -0.0512,0.37259 0,0.88053 0.33873,1.10103 0.37259,1.4397 0.0339,0.23706 0.50791,0.54157 0.86351,0.54157 1.016,0 1.1856,-1.64262 1.6428,-2.20142 0.1524,-0.18626 0.0677,-0.49092 0.22014,-0.71106 0.27094,-0.38946 0.42324,-0.81277 0.64337,-1.2361 0.3048,-0.44026 0.76176,-0.93111 0.91416,-1.35444 0,-0.16933 -0.1693,-0.1695 -0.28784,-0.1695 -0.47413,0 -0.74494,0.60943 -0.93121,0.9989 -0.37253,0.49107 -0.66028,1.03323 -0.93121,1.5751 -0.22013,0.44026 -0.86364,1.82883 -1.10071,1.82883 -0.16933,0 -0.20309,-0.45735 -0.20309,-0.67748 0,-0.1524 0.0336,-0.30493 0.10129,-0.45733 0.1524,-0.3556 0.16962,-0.7283 0.18655,-1.11777 0,-0.0677 -0.017,-0.15241 -0.017,-0.22014 0,-0.42333 0.25425,-0.76177 0.25425,-1.1343 0,-0.20319 -0.0171,-0.38953 -0.0171,-0.59272 0,-0.62654 0.27079,-0.94807 0.27079,-1.79473 0,-1.1684 -0.25382,-1.32085 -1.28675,-1.32085 -0.37254,0 -0.59258,0.30467 -0.86351,0.49093 -1.10067,0.77894 -1.99828,1.82888 -2.79414,2.92954 -0.16933,0.23707 -0.33873,0.59265 -0.59273,0.72812 -0.18627,0 -0.22015,-0.50808 -0.22015,-1.03301 0,-1.35467 0.1354,-1.86243 0.1354,-3.03083 0,-0.69426 -0.88031,-0.71158 -1.35444,-0.71158 z m -8.75451,0.38964 c 0.0169,0.0169 0.0165,0.0337 0.0165,0.0506 0,0.0169 3.6e-4,0.0343 -0.0165,0.0512 0,-0.0169 -0.0171,-0.0343 -0.0171,-0.0512 0,-0.0169 0.0171,-0.0337 0.0171,-0.0506 z m 63.04215,0 c 1.1684,0 1.87989,1.11752 2.30322,2.03192 0.0508,0.1016 0.0506,0.20329 0.0506,0.30489 0,0.38946 -0.98187,0.57552 -1.42213,0.62632 -0.0847,0 -0.22015,-0.0164 -0.22015,-0.15193 0,-0.1524 0.23668,-0.45738 0.23668,-0.60978 0,-0.38947 -1.03269,-0.64361 -1.13429,-0.67748 -0.11853,-0.0508 -0.20294,-0.0677 -0.25374,-0.0677 -0.11853,0 -0.16962,0.10194 -0.40669,0.339 0,0.0169 -0.0171,0.0165 -0.0341,0.0165 -0.22013,0 -0.21962,-0.35558 -0.21962,-0.50798 0,-0.49107 0.30448,-1.18543 0.82941,-1.25316 0.1016,-0.0169 0.20305,-0.0337 0.27078,-0.0506 z m -142.764845,0.2533 c 0.03387,0.0339 0.03359,0.0674 0.03359,0.10128 0,0.0508 -0.01654,0.068 -0.01654,0.11886 0,-0.0508 -0.01705,-0.15241 -0.01705,-0.22014 z m 84.547815,0.0677 h 0.0165 l -0.0165,0.0336 z m -5.08031,0.0165 c 0.0169,0.0339 0.0506,0.0679 0.0506,0.1018 0,0.0339 -0.0337,0.0679 -0.0506,0.10181 -0.0169,-0.0339 -0.0506,-0.0679 -0.0506,-0.10181 0,-0.0339 0.0337,-0.0679 0.0506,-0.1018 z m -58.114804,0.1018 c 0.338666,0 0.406177,0.47436 0.406177,0.76223 0,1.08373 -1.455909,1.54068 -2.065507,1.64228 -0.270932,-0.0339 -0.355534,-0.034 -0.355534,-0.15245 0,-0.4572 0.897268,-2.25206 2.014864,-2.25206 z m 58.386104,0.13539 c 0.0169,0.0677 0.0336,0.13536 0.0336,0.20309 0,0.0508 -0.0166,0.10165 -0.0336,0.15245 -0.0339,-0.0677 -0.0341,-0.10165 -0.0341,-0.15245 0,-0.0508 2.1e-4,-0.10149 0.0341,-0.20309 z m -80.890156,0.22015 c 0.0508,0.0677 0.08423,0.1187 0.08423,0.1695 0,0.15239 -0.287606,0.67728 -0.473873,0.79581 -0.304798,0.6096 -0.694226,1.16847 -1.015958,1.76113 -0.355599,0.6604 -1.151637,2.40451 -1.337903,2.40451 -0.2032,0 -0.220142,-0.59254 -0.220142,-0.71107 0,-0.3556 0.220234,-1.28724 0.525033,-1.79524 0.06773,-0.11853 0.118578,-0.237 0.152445,-0.35553 0.457199,-1.18533 1.405636,-2.03205 2.286166,-2.26911 z m 56.387256,0.1695 c 0.0508,0 0.0512,0.0337 0.0512,0.0506 l -0.0341,0.0341 c -0.0169,0 -0.0336,-0.0173 -0.0336,-0.0512 0,-0.0169 0.0165,-0.0336 0.0165,-0.0336 z m 44.94093,0 c 0.0508,0 0.0512,0.0337 0.0512,0.0506 l -0.0341,0.0341 c -0.0169,0 -0.0341,-0.0173 -0.0341,-0.0512 0,-0.0169 0.0171,-0.0336 0.0171,-0.0336 z m -92.235201,0.0677 c 0.118533,0 0.304697,0.051 0.42323,0.1018 0,0.0508 0.01705,0.0845 0.01705,0.11834 0,0.16933 -0.254248,0.50798 -0.254248,0.50798 -0.372532,0.28787 -0.575611,0.7281 -0.931209,1.01596 -0.186267,0.1524 -0.321751,0.35582 -0.440284,0.54209 -0.237065,0.38946 -1.117724,1.57458 -1.185457,1.57458 -0.08467,0 -0.101286,-0.0506 -0.101286,-0.11834 0.254,-1.28693 1.04987,-2.92941 2.116667,-3.64061 0.118533,-0.0677 0.220067,-0.1018 0.355534,-0.1018 z m 56.506111,0 c 0.11854,0 0.3047,0.051 0.42323,0.1018 0,0.0508 0.0171,0.0845 0.0171,0.11834 0,0.16933 -0.25424,0.50798 -0.25424,0.50798 -0.37253,0.28787 -0.57561,0.7281 -0.93121,1.01596 -0.18627,0.1524 -0.32176,0.35582 -0.44029,0.54209 -0.23706,0.38946 -1.11772,1.57458 -1.18545,1.57458 -0.0847,0 -0.10129,-0.0506 -0.10129,-0.11834 0.254,-1.28693 1.04988,-2.92941 2.11667,-3.64061 0.11854,-0.0677 0.22007,-0.1018 0.35553,-0.1018 z m -62.670076,0.18604 c 0.06773,0 0.05116,0.10164 0.05116,0.15244 0,0.0169 -0.03423,0.0171 -0.05116,0.0341 -0.03387,0 -0.05064,-0.0677 -0.05064,-0.0847 0,-0.0508 0.01677,-0.0849 0.05064,-0.1018 z m 59.825286,0.1018 c -0.0339,0 -0.0847,0.034 -0.0847,0.0847 0,0.0169 0.0343,0.0508 0.0512,0.0848 0.0169,0 0.0166,0.0165 0.0336,0.0165 0.0339,0 0.0677,-0.0674 0.0677,-0.10128 0,-0.0339 -0.0339,-0.0847 -0.0677,-0.0847 z m -60.079017,0.0341 c 0.08467,0.0508 0.08475,0.0336 0.08475,0.10128 0,0.0847 -0.03384,0.10177 -0.0677,0.1695 -0.01693,-0.0339 -0.05116,-0.0679 -0.05116,-0.1018 0,-0.0508 0.01717,-0.10125 0.03411,-0.16898 z m 77.841757,0.10128 c 0.13547,0 0.13591,0.22047 0.13591,0.339 0,0.1016 -3.2e-4,0.33848 -0.11885,0.33848 -0.12796,-0.12018 -0.23668,-0.31159 -0.23668,-0.45734 0,-0.1016 0.10109,-0.18628 0.21962,-0.22014 z m -24.23108,0.18655 c 0.0169,0 0.0336,-3.6e-4 0.0336,0.0165 0,0.0169 -0.0165,0.0343 -0.0165,0.0512 -0.0169,-0.0169 -0.0341,-0.017 -0.0341,-0.017 0,-0.0169 1.5e-4,-0.0507 0.017,-0.0507 z m 44.94093,0 c 0.0169,0 0.0336,-3.6e-4 0.0336,0.0165 0,0.0169 -0.0171,0.0343 -0.0171,0.0512 -0.0169,-0.0169 -0.0336,-0.017 -0.0336,-0.017 0,-0.0169 1.5e-4,-0.0507 0.0171,-0.0507 z m -38.79401,0.0507 c -0.0508,0 -0.085,0.0508 -0.11886,0.0847 0.0508,0 0.1187,0.0506 0.1695,0.0506 0.0339,0 0.0677,-0.0339 0.0677,-0.0677 -0.0339,-0.0508 -0.0675,-0.0677 -0.11833,-0.0677 z m -0.11886,0.0847 -0.0165,-0.0341 c -0.003,0.0133 -0.007,0.0316 -0.0108,0.0496 0.009,-0.005 0.0189,-0.0113 0.0274,-0.0155 z m -0.0274,0.0155 c -0.0648,0.0364 -0.14159,0.0925 -0.14159,0.13694 0,0.0169 0.0167,0.0336 0.0506,0.0336 0.0544,0 0.0758,-0.0967 0.091,-0.17053 z m -43.04595,0.22427 c 0.01515,0.0612 0.02894,0.12228 0.02894,0.18346 0,0.0677 -0.03371,0.0508 -0.05064,0.0677 -0.01693,-0.0169 -0.03411,-0.0508 -0.03411,-0.0847 0,-0.0596 0.02645,-0.11833 0.05581,-0.1664 z m 61.30634,0.13591 c 0.004,0.0102 0.004,0.0204 0.004,0.0305 0,0.0169 -1.5e-4,0.0337 -0.017,0.0506 -0.0169,0 -0.0337,-0.0165 -0.0506,-0.0165 0.0159,-0.0319 0.0459,-0.0487 0.0636,-0.0646 z m -18.89343,0.35244 c -0.11853,0 -0.18603,0.15241 -0.18603,0.22014 0,0.0677 0,0.10124 0.0677,0.16898 0.0677,0 0.23719,-0.20304 0.23719,-0.27078 0,-0.0508 -0.0511,-0.11834 -0.11886,-0.11834 z m 44.94093,0 c -0.11853,0 -0.18603,0.15241 -0.18603,0.22014 0,0.0677 -1e-5,0.10124 0.0677,0.16898 0.0677,0 0.2372,-0.20304 0.2372,-0.27078 0,-0.0508 -0.0511,-0.11834 -0.11886,-0.11834 z m -70.561067,0.23667 0.01705,0.0512 h -0.05064 z m 49.276067,0.47439 c 0.0169,0 0.0506,0.0168 0.0506,0.0507 -0.0169,0.0508 -0.034,0.11885 -0.0848,0.11885 -0.0339,0 -0.0677,-0.0169 -0.0677,-0.0677 0,-0.0508 0.051,-0.10181 0.10181,-0.10181 z m -24.26519,0.0341 c -0.0339,0 -0.0508,0.0167 -0.0677,0.0506 0,0.0339 0.0166,0.0674 0.0336,0.10129 0.0339,-0.0169 0.0679,-0.0337 0.10181,-0.0506 0.0169,-0.0169 0.017,-0.0337 0.017,-0.0506 0,-0.0169 -0.034,-0.0506 -0.0847,-0.0506 z m 44.94093,0 c -0.0339,0 -0.0513,0.0167 -0.0682,0.0506 0,0.0339 0.0171,0.0674 0.0341,0.10129 0.0339,-0.0169 0.0679,-0.0337 0.1018,-0.0506 0.0169,-0.0169 0.0165,-0.0337 0.0165,-0.0506 0,-0.0169 -0.0334,-0.0506 -0.0842,-0.0506 z m -26.21287,0.0842 c 0.13547,0.0677 0.11845,0.20317 0.13539,0.28784 l -0.0847,0.0848 c -0.11853,0 -0.1018,-0.28768 -0.1018,-0.33848 0,0 0.0343,-0.0341 0.0512,-0.0341 z m 66.37837,0.0341 c 0.254,0 0.18628,0.22015 0.22014,0.44028 -0.0508,0.3048 -0.0168,0.77909 -0.20308,0.89762 -0.3048,0.2032 -0.9655,2.23501 -1.79524,2.23501 -0.44026,0 -0.66043,-0.69434 -0.66043,-1.03301 0,-0.2032 0.11886,-0.47389 0.11886,-0.69402 0,-0.0847 -0.0171,-0.16958 -0.0171,-0.25425 0,-0.52493 0.11868,-1.03309 0.45734,-1.11776 0.6604,0 1.26987,-0.25374 1.87947,-0.47387 z m -143.560227,0.0847 c -0.118533,0 -0.05089,0.44028 -0.304891,0.44028 -0.03387,0 -0.06742,-0.017 -0.101285,-0.017 -0.03387,0 -0.660388,1.01605 -0.728121,1.10071 -0.08467,0.18627 -0.135632,0.40646 -0.169499,0.59273 0,0.0508 0.06754,0.10128 0.118339,0.10128 0.118533,0 0.254295,-0.71107 0.406693,-0.71107 0.01693,0 0.03359,0.0338 0.03359,0.0507 0,0.21579 -0.130234,0.70768 -0.374654,0.95033 -0.09984,0.0674 -0.133325,0.15109 -0.133325,0.23512 0,0.0508 0.01705,0.10165 0.01705,0.15245 0,0.23707 -0.270784,0.25387 -0.270784,0.49093 0,0.0677 0.01654,0.11882 0.01654,0.18655 0,0.2032 -0.168982,0.40634 -0.168982,0.57567 0,0.13547 0.118339,0.22003 0.118339,0.42323 0,0.32173 -0.06754,0.7114 -0.118339,1.05007 0.0508,0.0847 0.101286,0.15252 0.101286,0.23719 0,0.1016 -0.118339,0.23673 -0.118339,0.38913 0,0.254 0.271153,0.96531 0.542086,0.96531 0.524931,0 0.643371,-0.91451 0.643371,-0.96531 0,-0.27093 0.01698,-0.52489 0.152446,-0.79582 0,-0.10769 -0.167232,-0.14571 -0.286805,-0.22789 0.06212,-0.0929 0.185002,-0.11556 0.185002,-0.28009 -0.01693,-0.0339 -0.01705,-0.10165 -0.01705,-0.15245 0,-0.254 -0.03386,-0.74479 0.220141,-0.98185 0.0508,-0.0169 0.101803,-0.0851 0.101803,-0.13591 0,-0.0847 -0.135392,-0.11842 -0.135392,-0.20309 0,-0.0677 0.152445,-0.16918 0.152445,-0.27078 0,-0.1016 -0.118856,-0.18612 -0.118856,-0.27078 0,-0.11854 0.186552,-0.25398 0.186552,-0.50798 0,-0.2032 0.03359,-0.40659 0.03359,-0.60979 0,-0.1524 -0.0677,-0.28788 -0.0677,-0.44028 0,-0.508 0.355534,-0.6094 0.355534,-0.84646 0,-0.1016 -0.101452,-0.52503 -0.270785,-0.52503 z m 77.520337,0.11834 c 0.0983,0 0.16103,0.0261 0.20412,0.0636 -0.067,0.024 -0.13212,0.0478 -0.20412,0.0718 0,0 -0.0341,-0.0508 -0.0341,-0.0848 0,-0.0169 0.0171,-0.0506 0.0341,-0.0506 z m -19.38848,0.0506 c -0.33866,0 -0.35539,0.49109 -0.62632,0.66043 0.0847,0.0508 0.18623,0.15244 0.28783,0.15244 0.23706,0 0.40618,-0.49078 0.40618,-0.76171 0,-0.0339 -0.0339,-0.0512 -0.0677,-0.0512 z m 44.94092,0 c -0.33867,0 -0.35539,0.49109 -0.62632,0.66043 0.0847,0.0508 0.18624,0.15244 0.28784,0.15244 0.23707,0 0.40618,-0.49078 0.40618,-0.76171 0,-0.0339 -0.0339,-0.0512 -0.0677,-0.0512 z m -20.37085,0.22014 c 0,0 0.0171,1.6e-4 0.0341,0.0171 0,0 -0.0171,0.0171 -0.0171,0.0341 -0.0169,0 -0.0337,0.0165 -0.0506,0.0165 l -0.0171,-0.0336 c 0,0 0.0167,-0.0341 0.0506,-0.0341 z m -0.84646,0.18655 c 0.0169,0.0339 0.0336,0.0674 0.0336,0.10129 0,0.0339 -0.0339,0.0508 -0.0677,0.0847 0,-0.0339 -0.0336,-0.0674 -0.0336,-0.10129 0,-0.0339 0.0339,-0.0508 0.0677,-0.0848 z m 0.82941,0.10129 c 0.0339,0.0339 0.0677,0.0679 0.0677,0.1018 0,0.0462 -0.0272,0.10528 -0.045,0.154 -0.0332,-0.0456 -0.0766,-0.0913 -0.10697,-0.13694 0,-0.0169 0.0334,-0.11886 0.0842,-0.11886 z m -82.989768,0.15245 c 0.03387,0 0.05064,0.0339 0.05064,0.0677 0,0.0169 -0.118061,0.37279 -0.151928,0.69453 -0.0508,-0.11854 -0.0677,-0.22034 -0.0677,-0.32194 0,-0.1016 -7.3e-5,-0.20306 0.135393,-0.27079 0,-0.0169 -0.01721,-0.13563 0.03359,-0.16949 z m 78.130118,0.0677 c -0.0339,0 -0.11834,0.0173 -0.11834,0.0512 0,0.0508 0.0165,0.10125 0.0165,0.16898 0.11854,-0.0677 0.10153,-0.0676 0.1354,-0.20309 0,0 -0.0166,-0.0171 -0.0336,-0.0171 z m -4.52117,0.0341 c 0.0169,0.0169 0.0336,0.0337 0.0336,0.0506 -0.0169,0.0339 -0.0336,0.0508 -0.0336,0.0847 -0.0339,-0.0339 -0.0341,-0.0505 -0.0341,-0.10129 0.0169,-0.0169 0.0341,-0.0171 0.0341,-0.0341 z m 53.86441,0 c 0.0169,0.0169 0.0341,0.0337 0.0341,0.0506 -0.0169,0.0339 -0.0341,0.0508 -0.0341,0.0847 -0.0339,-0.0339 -0.0336,-0.0505 -0.0336,-0.10129 0.0169,-0.0169 0.0336,-0.0171 0.0336,-0.0341 z m 24.2657,0 c 0.0169,0.0169 0.0336,0.0337 0.0336,0.0506 -0.0169,0.0339 -0.0336,0.0508 -0.0336,0.0847 -0.0339,-0.0339 -0.0341,-0.0505 -0.0341,-0.10129 0.0169,-0.0169 0.0341,-0.0171 0.0341,-0.0341 z m -68.72087,0.0388 c 0.0407,0.0719 0.12402,0.12146 0.12402,0.19843 0,0.0677 -0.0336,0.0845 -0.10128,0.11834 -0.0169,0 -0.0677,-0.0508 -0.0677,-0.0848 0,-0.0771 0.0272,-0.16522 0.045,-0.23202 z m -69.166837,0.13074 0.03411,0.0165 -0.01705,0.0341 z m 39.234297,0.28783 c 0,0.2032 -0.0165,0.3049 0.0512,0.3049 0.0339,-0.0169 0.0506,-0.0677 0.0506,-0.0848 0,-0.0847 -0.051,-0.11855 -0.1018,-0.22015 z m 44.94093,0 c 0,0.2032 -0.0165,0.3049 0.0512,0.3049 0.0339,-0.0169 0.0506,-0.0677 0.0506,-0.0848 0,-0.0847 -0.051,-0.11855 -0.1018,-0.22015 z m -84.988097,0.23668 c 0.08467,0 0.220142,0.085 0.220142,0.18655 0,0.1524 -0.186238,0.16935 -0.287838,0.22015 -0.03387,-0.0677 -0.05064,-0.13576 -0.05064,-0.18656 0,-0.13546 0.03368,-0.22014 0.118339,-0.22014 z m 44.399357,0.1695 c -0.0677,0 -0.11886,0.0508 -0.11886,0.0847 0,0.0339 0.0512,0.0677 0.13591,0.0677 0.0677,0 0.11834,-0.034 0.11834,-0.0847 0,-0.0508 -0.0507,-0.0677 -0.13539,-0.0677 z m 44.94093,0 c -0.0677,0 -0.11886,0.0508 -0.11886,0.0847 0,0.0339 0.0507,0.0677 0.13539,0.0677 0.0677,0 0.11886,-0.034 0.11886,-0.0847 0,-0.0508 -0.0507,-0.0677 -0.13539,-0.0677 z m -19.4567,0.0341 c 0.0169,0.0339 0.0341,0.0674 0.0341,0.10128 0,0.0169 -0.0171,0.0341 -0.0341,0.0341 -0.0169,0 -0.0336,-0.0171 -0.0336,-0.0341 0,-0.0339 0.0166,-0.0674 0.0336,-0.10128 z m -5.38468,0.0842 c 0.0339,0 0.0506,0.0173 0.0506,0.0512 0,0.0508 -0.0336,0.10153 -0.0336,0.13539 0,0.1524 0.18604,0.35542 0.18604,0.55862 0,0.1524 -0.1354,0.33881 -0.1354,0.45734 -0.23538,-0.23065 -0.22014,-0.44768 -0.22014,-0.74517 0,-0.16934 0.0169,-0.37268 0.15245,-0.45734 z m -77.638673,0.15245 v 0.0512 h -0.03411 z m 82.955663,0.2713 c 0.1016,0 0.085,0.16914 0.11885,0.33848 -0.0169,0.0677 -0.0169,0.25421 -0.15244,0.32194 -0.16933,0 -0.1695,-0.15277 -0.1695,-0.2713 0,-0.11854 0.0676,-0.38912 0.20309,-0.38912 z m -25.53488,0.0847 c 0,0.0169 -0.0341,0.0166 -0.0341,0.0336 0,0.0169 0.0171,0.0337 0.0171,0.0506 0.0169,-0.0169 0.0336,-0.0166 0.0336,-0.0336 0,-0.0169 3.6e-4,-0.0337 -0.0165,-0.0506 z m 44.94041,0 c 0,0.0169 -0.0336,0.0166 -0.0336,0.0336 0,0.0169 0.0171,0.0337 0.0171,0.0506 0.0169,-0.0169 0.0336,-0.0166 0.0336,-0.0336 0,-0.0169 -1.5e-4,-0.0337 -0.0171,-0.0506 z m -24.19749,0.0677 c -0.0169,0.0339 -0.0337,0.0674 -0.0506,0.10129 0,0.0339 0.0167,0.0677 0.0506,0.0677 0.0169,0 0.0337,-0.0339 0.0506,-0.0677 0,-0.0508 -0.0167,-0.0674 -0.0506,-0.10129 z m -78.869604,0.0341 c 0.03498,0.001 0.07906,0.009 0.07906,0.0506 0,0.0169 -0.01665,0.0336 -0.03359,0.0336 -0.04323,0 -0.03774,-0.0487 -0.04548,-0.0842 z m 78.378674,0.0506 c -0.0169,0.0169 -0.0341,0.0337 -0.0341,0.0506 l 0.0341,0.0336 c 0,-0.0169 0.0165,-0.0166 0.0165,-0.0336 0,-0.0169 -0.0165,-0.0337 -0.0165,-0.0506 z m -51.121423,0.10129 c -0.0047,0.005 -0.0083,0.0102 -0.0124,0.0155 l -0.001,-0.002 c 0.0056,-0.006 0.0068,-0.007 0.01344,-0.0134 z m -10.075354,0.0341 c 0.03387,0 0.05064,0.0168 0.05064,0.0506 0,0.0339 -0.03384,0.0508 -0.0677,0.0848 -0.03387,0 -0.0677,-0.0173 -0.0677,-0.0512 0.01693,-0.0508 0.03395,-0.0842 0.08475,-0.0842 z m -2.506307,0.0165 c 0.03387,0.0339 0.03411,0.034 0.03411,0.0848 -0.01693,0.0169 -0.03423,0.0508 -0.05116,0.0677 -0.01693,-0.0169 -0.01654,-0.0338 -0.01654,-0.0507 0,-0.0339 0.01665,-0.0679 0.03359,-0.1018 z m -14.630114,0.22014 c 0.0508,0.0339 0.0677,0.0339 0.0677,0.0677 0,0.0339 -0.01717,0.0678 -0.03411,0.0848 -0.01693,-0.0339 -0.0677,-0.0508 -0.0677,-0.0677 0,-0.0339 0.03411,-0.0677 0.03411,-0.0847 z m 16.391247,0.1018 0.05064,0.0171 v 0.25373 c 0,0.1524 2.8e-4,0.2713 -0.03359,0.2713 -0.01693,-0.0169 -0.03411,-0.0341 -0.03411,-0.0341 0,-0.16934 1.23e-4,-0.33865 0.01705,-0.50798 z m 33.121493,0 c 0.0363,0 0.07276,0.0261 0.115238,0.047 -0.04287,0.0472 -0.112827,0.0713 -0.234094,0.0713 0.03387,-0.0677 0.03419,-0.11834 0.118856,-0.11834 z m 87.341438,0 c 0.0364,0 0.0731,0.026 0.11576,0.047 -0.0429,0.0472 -0.11282,0.0713 -0.2341,0.0713 0.0339,-0.0677 0.0337,-0.11834 0.11834,-0.11834 z m -53.64427,0.11834 c 0.0339,0 0.0336,0.051 0.0336,0.10181 0,0.11853 4.7e-4,0.25373 -0.0842,0.25373 -0.1016,0 -0.15245,-0.13524 -0.15245,-0.18604 0,-0.0847 0.0676,-0.1695 0.20309,-0.1695 z m -28.60032,0.11886 c 0.0677,0 0.1018,0.25381 0.1018,0.33848 0,0.13547 -0.0681,0.42323 -0.2713,0.42323 -0.0169,0 -0.0336,-0.0337 -0.0336,-0.0506 0.0169,-0.1016 0.0337,-0.20329 0.0506,-0.30489 0.0169,-0.1524 -0.0339,-0.32152 0.15245,-0.40618 z m 44.94092,0 c 0.0677,0 0.10181,0.25381 0.10181,0.33848 0,0.13547 -0.0681,0.42323 -0.2713,0.42323 -0.0169,0 -0.0336,-0.0337 -0.0336,-0.0506 0.0169,-0.1016 0.0337,-0.20329 0.0506,-0.30489 0.0169,-0.1524 -0.0339,-0.32152 0.15244,-0.40618 z m -24.53648,0.28784 0.017,0.0506 h -0.0341 z m 53.86493,0 0.0165,0.0506 h -0.0336 z m 24.26518,0 0.0171,0.0506 h -0.0341 z m -74.6926,0.0171 c 0.0508,0.18627 0.0847,0.38941 0.0847,0.57568 0,0.1016 -0.0341,0.20317 -0.0341,0.28783 -0.0508,-0.0169 -0.22014,-0.55891 -0.22014,-0.74517 0,-0.0339 0.051,-0.0845 0.16949,-0.11834 z m -20.99716,0.10129 c 0.0169,0 0.0341,0.0675 0.0341,0.11834 v 5.1e-4 c -0.0169,0 -0.0171,0.0165 -0.0341,0.0165 -0.0339,0 -0.0506,-0.0508 -0.0506,-0.0847 0,-0.0169 0.0168,-0.0506 0.0506,-0.0506 z m 44.94092,0 c 0.0169,0 0.0336,0.0675 0.0336,0.11834 v 5.1e-4 c -0.0169,0 -0.0166,0.0165 -0.0336,0.0165 -0.0339,0 -0.0506,-0.0508 -0.0506,-0.0847 0,-0.0169 0.0167,-0.0506 0.0506,-0.0506 z m -45.33056,0.33899 c 0,0.0169 0.0341,0.0337 0.0341,0.0506 -0.0169,0.0339 -0.0337,0.0508 -0.0506,0.0847 0,-0.0169 -0.0171,-0.0171 -0.0341,-0.0341 0.0169,-0.0339 0.0337,-0.0674 0.0506,-0.10129 z m 44.94092,0 c 0,0.0169 0.0341,0.0337 0.0341,0.0506 -0.0169,0.0339 -0.0337,0.0508 -0.0506,0.0847 0,-0.0169 -0.0171,-0.0171 -0.0341,-0.0341 0.0169,-0.0339 0.0337,-0.0674 0.0506,-0.10129 z m -23.29987,0.20309 0.0336,0.0165 c 0,0.0169 -0.0171,0.0343 -0.0171,0.0512 -0.0169,-0.0169 -0.0336,-0.017 -0.0336,-0.017 0,-0.0169 1.5e-4,-0.0337 0.017,-0.0507 z m -30.429148,0.38913 c 0.0089,0.002 0.01594,0.004 0.02429,0.006 l 0.0093,0.0279 z m 87.341438,0 c 0.009,0.002 0.0163,0.004 0.0248,0.006 l 0.009,0.0279 z m -78.67168,0.0512 c 0.0508,0 0.10164,0.0845 0.15244,0.11833 -0.0508,0.0847 -0.0846,0.10181 -0.13539,0.10181 -0.0508,-0.0339 -0.1018,-0.0679 -0.1018,-0.10181 0,-0.0847 0.0339,-0.11833 0.0847,-0.11833 z m 44.94092,0 c 0.0508,0 0.10165,0.0845 0.15245,0.11833 -0.0508,0.0847 -0.0846,0.10181 -0.13539,0.10181 -0.0508,-0.0339 -0.10181,-0.0679 -0.10181,-0.10181 0,-0.0847 0.0339,-0.11833 0.0847,-0.11833 z m -102.10746,0.0842 c 0.01693,0.0339 0.0677,0.0679 0.0677,0.1018 0,0.0169 -0.05077,0.0508 -0.0677,0.0847 -0.01693,-0.0339 -0.0677,-0.0677 -0.0677,-0.0847 0,-0.0339 0.05077,-0.0679 0.0677,-0.1018 z m 57.13243,0.47439 c 0.0847,0 0.15245,0.0507 0.15245,0.13539 0,0.13547 2e-4,0.11886 -0.11834,0.11886 -0.0677,-0.0339 -0.1695,-4.5e-4 -0.1695,-0.13591 0.0339,-0.0677 0.0507,-0.11834 0.13539,-0.11834 z m 44.94093,0 c 0.0847,0 0.15244,0.0507 0.15244,0.13539 0,0.13547 1.9e-4,0.11886 -0.11834,0.11886 -0.0677,-0.0339 -0.1695,-4.5e-4 -0.1695,-0.13591 0.0339,-0.0677 0.0507,-0.11834 0.1354,-0.11834 z m -86.698071,0.0341 c 0.01693,0.0169 0.05064,0.0672 0.05064,0.0842 -0.01693,0.0677 -0.05077,0.10177 -0.0677,0.1695 -0.03387,-0.0339 -0.05064,-0.0675 -0.05064,-0.11834 0,-0.0508 -3.4e-5,-0.1354 0.0677,-0.1354 z m 41.401611,0.52452 c 0.0169,0.0169 0.0341,0.0343 0.0341,0.0512 0,0.0508 1.6e-4,0.0847 -0.0506,0.0847 -0.0339,0 -0.0341,-0.0679 -0.0341,-0.1018 0.0169,-0.0169 0.0337,-0.0341 0.0507,-0.0341 z m 44.94092,0 c 0.0169,0.0169 0.0341,0.0343 0.0341,0.0512 0,0.0508 -3.6e-4,0.0847 -0.0512,0.0847 -0.0339,0 -0.0336,-0.0679 -0.0336,-0.1018 0.0169,-0.0169 0.0337,-0.0341 0.0506,-0.0341 z" />
    </g>
  </g>
</svg>
