<svg version="1.1" id="Layer_1" xmlns="http://www.w3.org/2000/svg" xmlns:xlink="http://www.w3.org/1999/xlink" x="0px" y="0px"
	 width="100%" viewBox="0 0 800 600" enable-background="new 0 0 800 600" xml:space="preserve">
<path fill="#ffffff88" opacity="0.500000" stroke="none" 
	d="
M793.059631,601.000000 
	C530.217590,601.000000 267.886230,600.991455 5.554893,601.087646 
	C1.903894,601.088989 0.895307,600.431885 0.897599,596.554871 
	C1.014048,399.556396 1.011266,202.557892 0.912735,5.559411 
	C0.910914,1.917480 1.554101,0.895704 5.440609,0.897373 
	C269.105255,1.010601 532.769958,1.008318 796.434570,0.913858 
	C800.064392,0.912557 801.106140,1.535097 801.103760,5.434620 
	C800.985596,201.433060 801.000000,397.431610 801.000000,593.430115 
	C801.000000,601.000000 801.000000,601.000000 793.059631,601.000000 
z"/>
<path fill="#BFBFBF88" opacity="0.500000" stroke="none" 
	d="
M102.439278,597.287231 
	C107.243469,594.270752 109.898445,593.950500 114.413506,596.162598 
	C109.491821,595.245544 106.022781,597.261658 102.439278,597.287231 
z"/>
</svg>