<?xml version="1.0" encoding="UTF-8" standalone="no"?>
<!DOCTYPE svg PUBLIC "-//W3C//DTD SVG 20010904//EN"
              "http://www.w3.org/TR/2001/REC-SVG-20010904/DTD/svg10.dtd">

<svg xmlns="http://www.w3.org/2000/svg"
     width="1470" height="980"
     viewBox="0 0 1470 980">
  <path id="Selection #1"
        fill="none" stroke="black" stroke-width="1"
        d="M 1182.44,149.93
           C 1182.44,149.93 1182.02,149.10 1182.02,149.10
             1180.56,149.06 1179.08,148.81 1178.26,147.48
             1178.26,147.48 1174.76,146.95 1174.76,146.95
             1173.95,146.18 1173.73,146.13 1172.62,146.14
             1172.62,146.14 1168.59,144.26 1168.59,144.26
             1168.59,144.26 1169.12,143.99 1169.12,143.99
             1166.30,143.98 1161.24,142.42 1158.11,141.79
             1156.60,141.48 1155.08,141.06 1153.54,141.30
             1153.54,141.30 1151.93,141.04 1151.93,141.04
             1150.93,140.18 1149.73,139.94 1148.44,139.96
             1148.44,139.96 1146.83,139.42 1146.83,139.42
             1146.83,139.42 1146.02,139.16 1146.02,139.16
             1144.82,138.10 1143.17,137.81 1141.72,137.22
             1140.25,136.62 1138.79,135.63 1137.15,135.66
             1136.47,134.39 1136.21,134.09 1134.74,134.05
             1134.74,134.05 1134.74,132.17 1134.74,132.17
             1132.14,133.36 1132.51,130.49 1129.90,130.56
             1129.90,130.56 1130.44,129.48 1130.44,129.48
             1130.44,129.48 1128.29,129.22 1128.29,129.22
             1127.79,127.70 1126.70,127.60 1125.33,127.07
             1125.33,127.07 1125.60,125.72 1125.60,125.72
             1123.98,126.33 1123.62,125.35 1122.30,124.60
             1121.36,124.07 1118.91,123.38 1117.81,123.31
             1117.04,122.39 1116.37,121.74 1115.13,121.69
             1114.00,120.55 1111.80,119.64 1110.29,119.01
             1110.29,119.01 1100.62,115.67 1100.62,115.67
             1100.62,115.67 1096.59,114.61 1096.59,114.61
             1095.83,114.41 1095.22,114.43 1094.98,113.63
             1094.98,113.63 1093.90,113.90 1093.90,113.90
             1092.68,112.45 1092.63,113.27 1091.22,112.70
             1091.22,112.70 1087.11,110.99 1087.11,110.99
             1086.35,110.89 1086.22,111.37 1084.23,111.22
             1084.23,111.22 1084.23,110.14 1084.23,110.14
             1084.23,110.14 1082.81,110.54 1082.81,110.54
             1082.81,110.54 1080.74,110.95 1080.74,110.95
             1080.74,110.95 1078.86,109.61 1078.86,109.61
             1078.33,110.88 1076.11,110.47 1074.91,110.89
             1074.91,110.89 1071.58,112.35 1071.58,112.35
             1071.58,112.35 1068.65,113.31 1068.65,113.31
             1068.65,113.31 1065.72,114.71 1065.72,114.71
             1064.13,115.37 1064.21,116.31 1062.20,116.05
             1062.20,116.05 1061.78,116.78 1061.78,116.78
             1061.78,116.78 1058.22,118.49 1058.22,118.49
             1058.22,118.49 1057.37,118.20 1057.37,118.20
             1056.96,119.36 1055.03,120.01 1053.88,120.89
             1053.88,120.89 1053.07,120.35 1053.07,120.35
             1053.07,120.35 1053.07,121.43 1053.07,121.43
             1050.50,121.46 1051.07,121.89 1049.04,122.56
             1049.04,122.56 1044.47,123.57 1044.47,123.57
             1044.47,123.57 1045.28,124.11 1045.28,124.11
             1045.28,124.11 1044.47,123.84 1044.47,123.84
             1041.41,126.19 1038.79,125.86 1038.03,128.41
             1038.03,128.41 1035.34,128.68 1035.34,128.68
             1035.34,128.68 1035.88,129.48 1035.88,129.48
             1035.88,129.48 1031.47,132.01 1031.47,132.01
             1031.47,132.01 1028.09,132.98 1028.09,132.98
             1028.09,132.98 1028.89,134.05 1028.89,134.05
             1028.89,134.05 1027.82,133.51 1027.82,133.51
             1026.97,134.23 1025.48,134.55 1025.13,135.66
             1025.13,135.66 1023.52,134.59 1023.52,134.59
             1023.52,134.59 1021.33,135.58 1021.33,135.58
             1021.33,135.58 1018.42,135.58 1018.42,135.58
             1018.42,135.58 1016.54,135.98 1016.54,135.98
             1014.75,136.15 1014.19,135.16 1012.51,135.98
             1010.61,134.56 1011.02,135.27 1009.28,134.98
             1009.28,134.98 1007.13,134.44 1007.13,134.44
             1006.06,134.21 1005.01,134.19 1004.71,132.98
             1004.71,132.98 1003.37,133.25 1003.37,133.25
             1002.46,132.72 1000.71,132.13 1000.42,131.10
             998.71,131.19 997.26,129.96 995.85,129.11
             995.85,129.11 987.25,123.42 987.25,123.42
             986.17,122.65 984.14,120.85 982.96,120.62
             981.74,119.00 978.00,116.37 976.24,114.91
             974.78,113.70 973.71,113.22 973.55,111.22
             973.55,111.22 972.48,111.49 972.48,111.49
             972.48,111.49 971.67,109.61 971.67,109.61
             971.67,109.61 971.13,110.14 971.13,110.14
             971.13,110.14 970.60,108.26 970.60,108.26
             969.42,108.06 968.86,107.48 968.45,106.38
             968.45,106.38 969.25,105.84 969.25,105.84
             967.39,105.69 968.03,105.27 966.80,104.43
             966.25,104.05 965.56,103.96 964.96,103.70
             964.96,103.70 966.30,103.43 966.30,103.43
             962.03,100.29 964.35,100.46 961.46,99.40
             961.46,99.40 962.00,98.59 962.00,98.59
             962.00,98.59 960.66,98.86 960.66,98.86
             959.71,97.53 958.15,95.47 956.36,95.64
             956.36,95.64 956.63,94.56 956.63,94.56
             956.63,94.56 955.55,94.56 955.55,94.56
             955.55,94.56 956.36,94.02 956.36,94.02
             954.80,93.93 954.61,93.82 953.94,92.41
             953.94,92.41 953.40,92.95 953.40,92.95
             953.40,92.95 953.14,91.87 953.14,91.87
             951.42,91.63 951.37,90.89 950.14,89.89
             950.14,89.89 948.03,88.38 948.03,88.38
             948.03,88.38 948.57,87.85 948.57,87.85
             946.81,87.48 947.11,86.93 945.61,87.31
             944.20,85.39 943.42,85.50 941.66,84.49
             941.66,84.49 939.05,82.55 939.05,82.55
             939.05,82.55 937.60,81.87 937.60,81.87
             936.83,81.46 935.73,80.44 934.87,80.86
             934.87,80.86 932.45,79.64 932.45,79.64
             931.09,79.19 928.69,79.12 927.88,77.91
             927.88,77.91 926.81,78.44 926.81,78.44
             926.81,78.44 926.54,77.10 926.54,77.10
             926.54,77.10 921.97,77.37 921.97,77.37
             919.08,75.87 916.95,76.08 913.91,75.72
             912.74,75.57 911.58,75.16 910.41,75.22
             908.74,75.31 908.44,75.72 906.66,75.22
             906.66,75.22 906.39,76.03 906.39,76.03
             906.39,76.03 908.81,76.29 908.81,76.29
             907.54,76.29 906.36,76.60 905.86,75.22
             905.86,75.22 904.78,75.76 904.78,75.76
             903.69,75.11 901.19,75.79 899.95,76.08
             898.89,76.27 898.75,76.03 898.09,76.08
             898.09,76.08 896.43,76.65 896.43,76.65
             895.14,76.88 894.70,76.59 892.96,77.10
             892.96,77.10 893.50,77.64 893.50,77.64
             889.88,77.34 891.51,79.27 888.12,78.71
             888.12,78.71 886.64,80.62 886.64,80.62
             886.64,80.62 860.28,89.82 850.96,92.41
             841.20,90.98 843.53,93.31 837.44,93.13
             837.44,93.13 813.17,80.28 813.17,80.28
             812.53,80.32 811.53,80.34 810.92,80.28
             810.92,80.28 800.82,76.65 800.82,76.65
             794.80,74.64 787.32,72.78 781.09,71.39
             773.14,69.62 765.09,68.47 757.03,67.35
             757.03,67.35 751.40,66.68 751.40,66.68
             749.97,66.50 749.52,66.83 748.70,65.55
             748.70,65.55 747.01,66.17 747.01,66.17
             747.01,66.17 743.93,65.98 743.93,65.98
             743.93,65.98 743.33,65.82 743.33,65.82
             743.33,65.82 744.13,65.55 744.13,65.55
             744.13,65.55 741.45,65.55 741.45,65.55
             741.45,65.55 741.45,64.47 741.45,64.47
             741.45,64.47 739.84,65.28 739.84,65.28
             739.84,65.28 739.30,65.28 739.30,65.28
             739.30,65.28 739.30,64.74 739.30,64.74
             739.30,64.74 737.15,64.74 737.15,64.74
             737.15,64.74 737.42,65.55 737.42,65.55
             737.42,65.55 736.34,65.28 736.34,65.28
             736.34,65.28 736.88,65.01 736.88,65.01
             736.88,65.01 735.00,64.21 735.00,64.21
             734.29,64.86 733.61,64.32 732.85,63.94
             732.16,64.66 731.63,64.18 730.70,64.16
             728.30,64.10 726.62,64.52 724.25,63.40
             724.25,63.40 724.25,64.47 724.25,64.47
             724.25,64.47 721.84,63.96 721.84,63.96
             721.84,63.96 718.88,63.96 718.88,63.96
             718.88,63.96 717.27,63.68 717.27,63.68
             717.27,63.68 712.97,63.68 712.97,63.68
             712.97,63.68 711.90,63.68 711.90,63.68
             710.49,63.60 710.05,63.83 708.94,62.86
             708.94,62.86 708.14,63.94 708.14,63.94
             708.14,63.94 708.14,62.86 708.14,62.86
             708.14,62.86 707.06,63.94 707.06,63.94
             706.32,62.83 705.80,63.27 704.65,63.07
             704.65,63.07 702.99,62.49 702.99,62.49
             702.29,62.40 701.80,62.80 701.15,62.96
             699.99,63.26 699.59,62.86 698.20,63.40
             698.20,63.40 697.93,62.32 697.93,62.32
             697.93,62.32 697.12,62.32 697.12,62.32
             696.78,62.90 695.04,64.21 694.38,64.40
             693.06,64.76 689.71,64.56 688.53,63.94
             688.53,63.94 688.53,64.74 688.53,64.74
             688.53,64.74 686.11,64.47 686.11,64.47
             686.11,64.47 687.72,63.94 687.72,63.94
             687.72,63.94 683.15,64.47 683.15,64.47
             681.74,63.17 680.64,63.71 679.12,64.47
             679.12,64.47 679.12,63.40 679.12,63.40
             677.76,63.79 675.62,63.71 674.29,63.25
             673.43,62.95 673.17,62.52 672.14,62.36
             671.00,62.19 669.21,62.67 668.38,61.79
             668.38,61.79 663.27,62.06 663.27,62.06
             663.27,62.06 664.08,61.52 664.08,61.52
             664.08,61.52 658.47,62.13 658.47,62.13
             658.47,62.13 657.63,61.25 657.63,61.25
             657.63,61.25 655.21,62.06 655.21,62.06
             653.99,61.46 651.49,61.20 650.11,61.26
             648.47,61.33 648.56,61.93 646.89,61.26
             646.89,61.26 646.89,62.32 646.89,62.32
             646.89,62.32 644.20,61.52 644.20,61.52
             644.20,61.52 644.74,62.06 644.74,62.06
             644.74,62.06 644.74,62.32 644.74,62.32
             644.74,62.32 642.05,62.59 642.05,62.59
             641.62,61.98 641.26,61.72 640.98,62.59
             640.98,62.59 636.95,62.06 636.95,62.06
             636.63,63.14 634.64,62.63 633.72,62.52
             633.72,62.52 629.16,61.89 629.16,61.89
             626.75,62.23 627.91,61.89 626.20,61.89
             626.20,61.89 623.25,62.06 623.25,62.06
             623.25,62.06 623.25,61.52 623.25,61.52
             623.25,61.52 625.39,61.25 625.39,61.25
             625.39,61.25 621.63,61.47 621.63,61.47
             621.63,61.47 618.41,60.80 618.41,60.80
             618.41,60.80 616.26,60.80 616.26,60.80
             616.26,60.80 612.50,60.80 612.50,60.80
             612.50,60.80 612.50,58.83 612.50,58.83
             612.50,58.83 611.43,58.56 611.43,58.56
             611.43,58.56 611.96,57.76 611.96,57.76
             611.96,57.76 610.35,57.49 610.35,57.49
             610.35,57.49 609.54,55.88 609.54,55.88
             609.54,55.88 610.35,55.34 610.35,55.34
             608.57,55.39 608.98,54.93 607.62,54.39
             606.07,53.77 603.10,53.26 601.49,53.73
             600.26,53.23 600.45,53.59 599.34,53.50
             598.58,53.44 598.31,53.14 596.65,53.20
             593.98,53.30 593.89,53.88 591.01,52.65
             590.17,53.59 589.33,53.01 588.28,52.89
             588.28,52.89 586.17,52.65 586.17,52.65
             586.17,52.65 584.56,52.47 584.56,52.47
             584.56,52.47 579.99,50.90 579.99,50.90
             579.99,50.90 577.58,50.73 577.58,50.73
             577.58,50.73 575.70,50.40 575.70,50.40
             575.70,50.40 574.40,50.40 574.40,50.40
             574.40,50.40 571.67,49.70 571.67,49.70
             571.67,49.70 571.13,50.24 571.13,50.24
             570.41,49.62 570.39,49.56 569.52,49.97
             568.55,49.26 568.10,49.41 567.10,49.97
             565.91,49.34 564.75,49.13 563.61,49.97
             563.61,49.97 563.07,49.97 563.07,49.97
             562.25,49.44 562.15,49.61 561.46,50.24
             560.24,50.08 559.77,49.98 558.77,50.77
             558.77,50.77 554.47,50.24 554.47,50.24
             554.07,51.14 553.28,50.93 552.32,51.00
             552.32,51.00 546.46,51.50 546.46,51.50
             545.99,51.40 545.96,51.29 545.61,51.04
             545.61,51.04 544.00,52.35 544.00,52.35
             544.00,52.35 535.67,53.57 535.67,53.57
             535.67,53.57 518.48,57.01 518.48,57.01
             518.48,57.01 512.58,58.57 512.58,58.57
             512.58,58.57 510.42,58.10 510.42,58.10
             510.42,58.10 507.19,58.56 507.19,58.56
             507.19,58.56 508.27,59.37 508.27,59.37
             508.27,59.37 507.19,59.64 507.19,59.64
             505.78,59.01 505.20,60.68 502.63,60.18
             502.63,60.18 502.36,61.52 502.36,61.52
             502.36,61.52 498.06,61.79 498.06,61.79
             498.06,61.79 498.60,62.59 498.60,62.59
             498.60,62.59 495.64,62.86 495.64,62.86
             495.64,62.86 495.10,62.32 495.10,62.32
             495.10,62.32 494.84,62.32 494.84,62.32
             494.84,62.32 494.19,62.98 494.19,62.98
             494.19,62.98 490.00,63.94 490.00,63.94
             488.78,63.18 487.07,63.70 485.97,64.47
             485.10,64.08 485.05,64.10 484.36,64.74
             483.06,64.51 481.94,64.26 480.60,64.61
             479.61,64.86 478.00,65.99 477.11,65.28
             476.37,65.66 476.12,65.93 475.49,65.28
             475.49,65.28 474.96,65.28 474.96,65.28
             474.32,65.99 474.18,65.67 473.39,65.97
             472.07,66.48 472.40,67.17 470.12,66.62
             469.12,68.14 466.63,67.95 465.02,67.97
             465.02,67.97 461.79,68.26 461.79,68.26
             461.79,68.26 455.35,66.66 455.35,66.66
             450.09,65.30 441.46,63.94 436.00,63.35
             436.00,63.35 427.68,62.59 427.68,62.59
             427.68,62.59 422.30,62.32 422.30,62.32
             422.30,62.32 417.20,62.32 417.20,62.32
             417.20,62.32 411.56,62.59 411.56,62.59
             411.56,62.59 408.87,62.84 408.87,62.84
             402.30,63.30 395.68,64.26 389.26,65.79
             389.26,65.79 382.50,67.49 382.50,67.49
             380.23,68.15 378.23,69.03 375.83,69.01
             375.83,69.01 371.53,69.01 371.53,69.01
             371.53,69.01 367.50,69.31 367.50,69.31
             367.50,69.31 355.81,72.94 352.99,74.55
             350.17,71.32 332.44,78.58 332.04,80.59
             313.91,74.95 302.35,73.88 294.70,72.67
             294.70,72.67 285.26,68.23 283.68,68.23
             282.79,67.66 280.54,68.13 278.98,67.83
             278.13,67.68 272.73,65.70 272.13,65.68
             272.13,65.68 269.98,65.25 269.98,65.25
             269.06,65.10 265.04,64.85 263.54,64.67
             261.17,64.40 252.79,64.34 252.79,64.34
             251.66,64.63 245.35,65.59 244.73,66.62
             242.03,67.20 232.82,74.86 227.45,79.34
             212.94,91.16 218.14,84.35 193.42,107.81
             175.15,99.22 159.04,96.53 144.17,93.31
             144.17,93.31 135.75,90.80 130.38,90.44
             130.38,90.44 121.25,83.64 109.61,88.11
             109.61,88.11 90.08,82.74 78.80,83.46
             78.80,83.46 64.47,79.79 0.40,77.77
             0.40,77.77 0.00,0.00 0.00,0.00
             0.00,0.00 506.12,0.00 506.12,0.00
             506.12,0.00 1470.00,0.00 1470.00,0.00
             1470.00,0.00 1469.64,179.81 1469.64,179.81
             1469.64,179.81 1461.94,175.87 1459.79,176.23
             1459.79,176.23 1454.78,174.44 1450.12,173.72
             1450.12,173.72 1441.52,173.18 1441.52,173.18
             1441.52,173.18 1436.69,172.83 1433.20,172.72
             1433.20,172.72 1428.09,172.65 1425.41,172.72
             1424.29,172.68 1423.20,173.10 1422.72,171.93
             1421.67,172.58 1421.62,172.58 1420.57,171.93
             1420.13,173.01 1419.20,172.92 1418.16,173.30
             1418.16,173.30 1416.74,173.90 1416.74,173.90
             1416.09,174.10 1415.78,173.82 1415.23,173.90
             1415.23,173.90 1411.97,174.88 1411.97,174.88
             1411.97,174.88 1411.97,174.35 1411.97,174.35
             1411.97,174.35 1411.17,175.42 1411.17,175.42
             1411.17,175.42 1405.53,175.96 1405.53,175.96
             1405.53,175.96 1405.79,176.50 1405.79,176.50
             1405.79,176.50 1403.91,176.23 1403.91,176.23
             1403.31,177.10 1402.75,177.04 1401.77,177.27
             1401.77,177.27 1397.20,178.41 1397.20,178.41
             1397.20,178.41 1384.84,182.05 1384.84,182.05
             1383.75,182.40 1380.44,183.23 1379.74,183.75
             1377.01,183.61 1377.12,185.01 1374.90,183.75
             1374.90,183.75 1375.44,184.82 1375.44,184.82
             1374.40,184.82 1373.72,185.06 1373.29,184.02
             1373.29,184.02 1372.48,185.09 1372.48,185.09
             1370.61,184.68 1369.64,184.29 1368.19,185.90
             1368.19,185.90 1366.57,185.53 1366.57,185.53
             1366.57,185.53 1363.41,186.21 1363.41,186.21
             1363.41,186.21 1362.81,186.71 1362.81,186.71
             1361.27,185.85 1360.71,186.39 1359.05,186.43
             1359.05,186.43 1351.26,186.70 1351.26,186.70
             1351.26,186.70 1344.81,186.70 1344.81,186.70
             1344.81,186.70 1340.25,186.97 1340.25,186.97
             1340.25,186.97 1331.65,186.97 1331.65,186.97
             1329.93,186.99 1325.59,187.51 1324.13,186.97
             1324.13,186.97 1324.93,186.71 1324.93,186.71
             1324.93,186.71 1322.52,187.08 1322.52,187.08
             1322.52,187.08 1320.90,187.08 1320.90,187.08
             1320.90,187.08 1318.22,187.24 1318.22,187.24
             1318.22,187.24 1317.95,186.44 1317.95,186.44
             1317.95,186.44 1313.45,187.07 1313.45,187.07
             1313.45,187.07 1312.58,186.17 1312.58,186.17
             1312.58,186.17 1312.31,186.97 1312.31,186.97
             1312.31,186.97 1311.23,186.44 1311.23,186.44
             1311.23,186.44 1310.96,187.24 1310.96,187.24
             1310.96,187.24 1310.96,186.17 1310.96,186.17
             1310.16,186.81 1310.00,187.10 1309.08,186.44
             1307.88,187.27 1307.87,186.52 1306.66,186.62
             1305.79,186.69 1305.44,187.01 1304.79,187.51
             1303.78,186.96 1303.66,187.00 1302.64,187.51
             1302.64,187.51 1300.76,187.51 1300.76,187.51
             1300.76,187.51 1300.76,186.97 1300.76,186.97
             1300.76,186.97 1300.22,186.97 1300.22,186.97
             1299.62,187.71 1299.02,187.47 1298.34,186.97
             1298.34,186.97 1295.92,188.32 1295.92,188.32
             1295.92,188.32 1295.92,187.78 1295.92,187.78
             1294.29,188.54 1293.11,188.31 1291.35,188.32
             1291.35,188.32 1287.32,188.59 1287.32,188.59
             1287.32,188.59 1283.29,188.59 1283.29,188.59
             1283.29,188.59 1279.00,188.85 1279.00,188.85
             1279.00,188.85 1274.43,188.85 1274.43,188.85
             1274.43,188.85 1270.13,189.12 1270.13,189.12
             1270.13,189.12 1262.61,189.12 1262.61,189.12
             1262.61,189.12 1256.70,189.39 1256.70,189.39
             1256.70,189.39 1251.86,189.39 1251.86,189.39
             1249.47,189.29 1250.14,188.88 1247.30,189.39
             1246.85,188.23 1245.17,188.52 1244.34,189.12
             1244.34,189.12 1243.80,189.12 1243.80,189.12
             1242.04,187.46 1241.97,188.55 1240.04,187.78
             1239.42,188.48 1238.79,188.31 1237.89,188.32
             1237.89,188.32 1236.28,186.44 1236.28,186.44
             1236.28,186.44 1231.98,185.90 1231.98,185.90
             1230.77,183.52 1229.94,184.02 1227.96,182.77
             1226.63,181.93 1226.37,181.26 1224.73,180.79
             1224.73,180.79 1223.12,178.38 1223.12,178.38
             1223.12,178.38 1220.66,177.11 1220.66,177.11
             1220.66,177.11 1218.55,176.23 1218.55,176.23
             1218.55,176.23 1218.55,175.15 1218.55,175.15
             1215.84,174.39 1214.54,171.43 1211.84,170.86
             1211.43,168.97 1209.56,168.10 1207.81,167.63
             1207.81,167.63 1208.04,166.65 1208.04,166.65
             1208.04,166.65 1206.81,166.05 1206.81,166.05
             1206.81,166.05 1203.51,164.41 1203.51,164.41
             1203.07,162.80 1202.61,163.18 1201.50,162.23
             1199.46,160.48 1198.84,159.69 1195.99,159.30
             1195.85,158.33 1195.57,158.27 1194.64,158.23
             1193.85,157.35 1193.46,156.88 1192.23,156.89M 463.67,68.77
           C 463.67,68.77 463.94,68.77 463.94,68.77
             463.94,68.77 463.67,69.04 463.67,69.04
             463.67,69.04 463.67,68.77 463.67,68.77 Z
           M 374.22,69.85
           C 374.22,69.85 374.48,69.85 374.48,69.85
             374.48,69.85 374.22,70.12 374.22,70.12
             374.22,70.12 374.22,69.85 374.22,69.85 Z
           M 920.90,78.71
           C 920.90,78.71 921.17,78.71 921.17,78.71
             921.17,78.71 920.90,78.98 920.90,78.98
             920.90,78.98 920.90,78.71 920.90,78.71 Z
           M 811.83,80.59
           C 811.83,80.59 812.10,80.59 812.10,80.59
             812.10,80.59 811.83,80.86 811.83,80.86
             811.83,80.86 811.83,80.59 811.83,80.59 Z
           M 813.17,81.13
           C 813.17,81.13 813.44,81.13 813.44,81.13
             813.44,81.13 813.17,81.40 813.17,81.40
             813.17,81.40 813.17,81.13 813.17,81.13 Z
           M 814.52,81.67
           C 814.52,81.67 814.79,81.67 814.79,81.67
             814.79,81.67 814.52,81.94 814.52,81.94
             814.52,81.94 814.52,81.67 814.52,81.67 Z
           M 963.34,103.96
           C 963.34,103.96 963.61,103.96 963.61,103.96
             963.61,103.96 963.34,104.23 963.34,104.23
             963.34,104.23 963.34,103.96 963.34,103.96 Z
           M 868.51,113.10
           C 868.51,113.10 868.78,113.10 868.78,113.10
             868.78,113.10 868.51,113.37 868.51,113.37
             868.51,113.37 868.51,113.10 868.51,113.10 Z
           M 1127.48,130.02
           C 1127.48,130.02 1127.75,130.02 1127.75,130.02
             1127.75,130.02 1127.48,130.29 1127.48,130.29
             1127.48,130.29 1127.48,130.02 1127.48,130.02 Z
           M 894.57,132.17
           C 894.57,132.17 894.84,132.17 894.84,132.17
             894.84,132.17 894.57,132.44 894.57,132.44
             894.57,132.44 894.57,132.17 894.57,132.17 Z
           M 928.69,160.38
           C 928.69,160.38 928.96,160.38 928.96,160.38
             928.96,160.38 928.69,160.65 928.69,160.65
             928.69,160.65 928.69,160.38 928.69,160.38 Z
           M 931.11,162.53
           C 931.11,162.53 931.38,162.53 931.38,162.53
             931.38,162.53 931.11,162.80 931.11,162.80
             931.11,162.80 931.11,162.53 931.11,162.53 Z
           M 942.12,172.74
           C 942.12,172.74 942.39,172.74 942.39,172.74
             942.39,172.74 942.12,173.00 942.12,173.00
             942.12,173.00 942.12,172.74 942.12,172.74 Z
           M 977.85,210.88
           C 977.85,210.88 978.12,210.88 978.12,210.88
             978.12,210.88 977.85,211.15 977.85,211.15
             977.85,211.15 977.85,210.88 977.85,210.88 Z
           M 1000.95,243.12
           C 1000.95,243.12 1001.22,243.12 1001.22,243.12
             1001.22,243.12 1000.95,243.39 1000.95,243.39
             1000.95,243.39 1000.95,243.12 1000.95,243.12 Z
           M 1255.36,249.30
           C 1255.36,249.30 1255.62,249.30 1255.62,249.30
             1255.62,249.30 1255.36,249.57 1255.36,249.57
             1255.36,249.57 1255.36,249.30 1255.36,249.30 Z
           M 1259.92,249.57
           C 1259.92,249.57 1260.19,249.57 1260.19,249.57
             1260.19,249.57 1259.92,249.84 1259.92,249.84
             1259.92,249.84 1259.92,249.57 1259.92,249.57 Z
           M 1165.36,250.10
           C 1165.36,250.10 1165.63,250.10 1165.63,250.10
             1165.63,250.10 1165.36,250.37 1165.36,250.37
             1165.36,250.37 1165.36,250.10 1165.36,250.10 Z
           M 1267.71,250.10
           C 1267.71,250.10 1267.98,250.10 1267.98,250.10
             1267.98,250.10 1267.71,250.37 1267.71,250.37
             1267.71,250.37 1267.71,250.10 1267.71,250.10 Z
           M 1427.29,250.91
           C 1427.29,250.91 1427.55,250.91 1427.55,250.91
             1427.55,250.91 1427.29,251.18 1427.29,251.18
             1427.29,251.18 1427.29,250.91 1427.29,250.91 Z
           M 1420.03,251.45
           C 1420.03,251.45 1420.30,251.45 1420.30,251.45
             1420.30,251.45 1420.03,251.72 1420.03,251.72
             1420.03,251.72 1420.03,251.45 1420.03,251.45 Z
           M 1135.01,252.79
           C 1135.01,252.79 1135.27,252.79 1135.27,252.79
             1135.27,252.79 1135.01,253.06 1135.01,253.06
             1135.01,253.06 1135.01,252.79 1135.01,252.79 Z
           M 1398.27,253.06
           C 1398.27,253.06 1398.54,253.06 1398.54,253.06
             1398.54,253.06 1398.27,253.33 1398.27,253.33
             1398.27,253.33 1398.27,253.06 1398.27,253.06 Z
           M 1388.33,253.60
           C 1388.33,253.60 1388.60,253.60 1388.60,253.60
             1388.60,253.60 1388.33,253.87 1388.33,253.87
             1388.33,253.87 1388.33,253.60 1388.33,253.60 Z
           M 1330.84,253.87
           C 1330.84,253.87 1331.11,253.87 1331.11,253.87
             1331.11,253.87 1330.84,254.13 1330.84,254.13
             1330.84,254.13 1330.84,253.87 1330.84,253.87 Z
           M 1371.68,254.13
           C 1371.68,254.13 1371.95,254.13 1371.95,254.13
             1371.95,254.13 1371.68,254.40 1371.68,254.40
             1371.68,254.40 1371.68,254.13 1371.68,254.13 Z
           M 1092.29,257.36
           C 1092.29,257.36 1092.56,257.36 1092.56,257.36
             1092.56,257.36 1092.29,257.63 1092.29,257.63
             1092.29,257.63 1092.29,257.36 1092.29,257.36 Z
           M 1020.03,265.69
           C 1020.03,265.69 1020.30,265.69 1020.30,265.69
             1020.30,265.69 1020.03,265.95 1020.03,265.95
             1020.03,265.95 1020.03,265.69 1020.03,265.69 Z
           M 1182.63,150.12M 1468.93,179.99
           C 1468.93,179.99 1438.84,160.65 1371.14,186.97
             1326.55,185.90 1264.22,190.73 1237.89,189.12
             1197.60,176.77 1206.20,149.36 1151.93,140.77
             1112.71,128.95 1132.05,120.35 1079.93,111.22
             1024.59,121.96 1036.95,175.15 948.84,90.26
             897.26,67.70 914.45,74.14 841.38,95.64
             884.36,121.43 980.00,191.27 1013.31,266.49
             1081.01,261.12 1178.79,240.70 1280.88,251.45
             1430.24,262.19 1430.24,239.63 1466.78,258.97
             1503.31,278.31 1468.93,179.99 1468.93,179.99 Z
           M 2.96,78.31
           C 2.96,78.31 138.89,82.74 193.56,107.86
             215.72,87.17 239.36,54.67 332.44,81.26
             348.70,90.13 385.63,45.80 465.42,69.44
             489.06,75.35 533.39,32.51 614.65,63.53
             638.29,73.88 762.40,45.80 836.28,93.08
             910.15,140.36 964.82,177.30 1013.58,264.48
             1187.93,251.18 1192.36,239.36 1264.76,251.18
             1337.16,263.00 1435.35,236.94 1470.81,263.54
             1469.19,310.28 1473.49,300.07 1467.58,347.35
             1422.45,354.61 1369.26,365.89 1299.95,385.23
             1259.65,377.17 1214.52,371.53 1140.38,387.65
             1121.84,376.37 1125.07,366.69 1042.86,379.59
             1030.77,387.65 969.52,372.34 817.20,371.53
             857.50,364.28 857.50,362.66 863.14,343.32
             852.66,307.86 809.14,308.67 789.00,296.58
             812.37,290.13 815.05,292.82 820.96,268.91
             812.10,254.94 788.19,221.63 715.66,205.51
             648.23,193.42 643.66,264.07 687.99,272.67
             695.51,276.43 697.93,276.70 710.82,282.61
             661.39,276.97 633.72,281.00 622.71,312.70
             614.65,356.49 689.06,358.10 703.57,360.52
             679.12,360.25 638.56,357.83 615.99,382.54
             428.75,407.26 382.54,399.74 325.59,401.35
             202.02,410.48 156.89,397.59 -2.15,425.53M 699.54,431.17
           C 671.33,432.78 630.23,429.56 609.28,462.60
             602.83,482.75 580.26,515.79 680.20,527.88
             546.41,533.52 626.20,633.45 612.50,606.05
             577.85,615.72 604.44,606.86 546.41,619.75
             488.39,632.65 505.04,573.82 421.23,584.56
             292.28,653.33 221.36,657.63 191.27,638.29
             161.18,618.95 85.96,668.38 94.56,702.76
             32.24,698.46 -12.89,728.55 -2.15,724.25
             8.60,719.96 -17.19,438.42 2.15,431.97
             21.49,425.53 94.56,399.74 290.13,401.89
             485.70,404.04 612.50,383.62 612.50,383.62
             623.78,386.04 572.20,419.08 699.54,431.17 Z
           M 786.58,373.14
           C 786.58,373.14 981.07,370.86 1037.22,381.20
             1089.61,382.01 1087.19,363.47 1136.21,385.63
             1192.36,384.16 1227.82,369.38 1295.79,387.11
             1326.81,381.20 1368.19,366.43 1468.66,347.22
             1468.66,409.27 1470.13,450.64 1467.18,466.90
             1406.60,421.09 1301.70,475.76 1300.22,465.42
             1298.74,455.08 1122.92,459.51 1054.95,490.54
             1007.67,499.40 979.60,492.01 942.66,505.31
             923.45,509.75 921.97,508.80 901.29,505.31
             878.99,522.77 961.20,465.82 843.53,451.85
             840.31,451.18 833.59,448.63 831.04,448.23
             831.17,447.29 878.59,447.96 882.89,428.08
             887.72,406.59 831.98,386.04 786.58,373.14 Z
           M 510.42,734.19
           C 499.40,713.78 525.46,715.39 509.34,708.14
             436.27,633.99 368.57,697.39 350.31,689.87
             303.03,661.93 283.68,707.06 260.04,700.61
             236.40,694.17 213.84,678.05 155.81,694.17
             101.01,742.52 97.79,690.94 99.93,683.42
             102.08,675.90 121.43,644.74 170.86,637.21
             221.36,650.11 248.22,639.36 298.73,637.21
             320.45,655.99 418.00,529.76 508.27,615.72
             556.62,626.47 557.70,616.80 607.13,602.83
             609.28,608.74 614.65,616.26 640.44,631.84
             557.16,672.68 590.74,728.82 590.74,728.82
             590.74,728.82 539.43,748.16 510.42,734.19 Z
           M 1469.46,860.05
           C 1462.34,859.78 1456.84,858.44 1450.39,857.77
             1436.15,855.89 1431.21,861.74 1420.84,868.92
             1410.23,849.04 1398.68,877.11 1399.08,871.47
             1411.44,851.19 1409.29,854.81 1422.99,839.37
             1430.51,828.35 1440.99,799.47 1470.00,791.82M 1453.08,828.76M 1399.35,871.65
           C 1405.82,862.27 1404.45,856.25 1422.54,839.95
             1451.91,797.32 1447.04,799.72 1470.27,791.95
             1469.82,848.90 1470.00,811.65 1469.73,860.99
             1451.55,858.04 1440.18,851.50 1420.93,868.51
             1419.05,865.83 1413.23,852.66 1399.35,871.65 Z
           M 1384.04,906.93
           C 1400.15,867.71 1407.68,852.40 1423.26,842.19
             1366.30,801.35 1335.41,799.07 1237.72,772.79
             1241.52,786.58 1399.88,797.86 1384.04,906.93 Z
           M 1381.89,909.62
           C 1381.89,909.62 1412.78,824.46 1270.53,787.52
             1297.13,806.19 1338.37,803.91 1373.56,888.39M 1389.14,885.98
           C 1382.58,879.68 1379.32,840.85 1339.08,812.01
             1315.26,799.83 1317.86,804.40 1269.50,786.85
             1286.25,802.52 1347.50,801.89 1382.07,910.69
             1387.08,895.47 1390.57,891.89 1389.14,885.98 Z
           M 1468.93,978.39
           C 1467.85,977.85 1442.06,979.46 1378.66,979.46
             1396.39,959.58 1381.35,912.84 1381.35,912.84
             1381.35,912.84 1405.53,838.16 1420.57,868.78
             1441.52,853.20 1443.62,857.33 1465.70,860.19M 1422.18,839.23
           C 1371.14,815.59 1334.07,792.49 1240.04,769.92
             1290.12,717.92 1349.65,730.70 1417.35,700.61
             1443.67,693.09 1467.85,654.95 1468.93,652.80
             1470.00,690.41 1470.00,730.16 1470.54,790.88
             1439.37,804.31 1440.99,812.91 1422.18,839.23 Z
           M 1361.47,748.97M 1234.67,758.64
           C 1234.67,758.64 1284.10,721.03 1349.65,724.25
             1424.87,710.29 1446.36,682.35 1466.78,660.86
             1472.15,672.68 1467.85,728.55 1470.00,776.91
             1456.03,774.76 1425.94,782.82 1414.12,827.95
             1378.66,812.37 1351.26,787.12 1234.67,758.64 Z
           M 203.50,780.13
           C 203.50,780.13 199.33,774.22 141.04,756.63
             120.75,752.19 84.52,728.50 71.63,717.49
             61.82,708.76 64.17,706.05 65.01,705.99
             66.22,704.95 70.43,704.47 80.01,707.60
             91.97,712.82 99.75,716.77 101.55,723.18
             134.22,737.88 134.76,730.56 138.62,726.99
             139.79,726.55 144.09,714.34 165.09,711.12
             180.97,704.02 232.51,713.37 253.33,721.48
             301.82,704.37 323.98,687.05 369.92,702.63
             432.01,695.06 454.54,706.93 482.75,722.37
             526.67,742.25 533.65,737.69 557.29,742.25
             545.88,751.25 545.07,749.51 535.40,760.12
             533.52,766.52 462.96,755.95 456.33,817.56
             440.93,827.23 428.21,831.71 411.20,860.01
             391.27,839.77 307.86,733.79 203.50,780.13 Z
           M 202.42,780.40
           C 179.99,769.39 118.87,751.12 96.31,735.00
             78.98,726.94 78.58,724.39 71.59,717.54M 198.66,777.71
           C 198.66,777.71 174.08,768.85 149.90,760.39
             125.72,751.92 94.29,734.60 94.29,734.60
             94.29,734.60 103.16,742.25 71.32,716.87M 410.21,859.65
           C 404.57,848.10 305.71,731.24 203.63,779.06
             116.05,747.89 112.83,747.89 77.37,722.11
             38.68,692.02 96.31,708.40 101.55,722.91
             151.51,746.69 126.13,717.67 164.95,711.09
             172.74,706.79 214.37,707.60 253.46,721.70
             312.70,699.14 333.65,688.66 369.92,702.76
             479.25,691.48 447.02,727.75 556.89,742.52
             545.34,750.04 539.70,755.95 535.53,759.98
             503.97,766.70 460.18,768.31 455.88,817.47
             432.24,833.05 426.33,833.59 410.21,859.65 Z
           M 2.42,727.75
           C 12.89,710.82 38.68,702.76 61.25,710.82
             116.05,743.87 78.98,739.03 189.39,772.07
             233.72,796.65 248.63,824.05 254.67,872.81
             233.72,887.72 236.13,887.32 213.97,896.18
             205.11,912.97 204.03,934.73 172.74,917.41
             156.21,932.85 153.66,938.90 113.23,954.34
             94.29,960.93 90.80,974.36 73.74,978.52
             65.01,981.88 0.81,980.00 0.81,980.00
             0.81,980.00 -2.42,812.37 2.42,727.75 Z
           M 203.90,780.94
           C 256.28,813.98 252.25,871.20 254.67,869.59
             257.09,867.98 244.19,887.32 213.57,896.18
             202.29,928.42 194.23,927.62 173.27,917.94
             157.96,929.23 161.18,936.48 112.83,954.21
             95.10,959.85 90.26,974.36 75.76,977.58
             40.30,988.06 472.27,975.16 472.27,980.00
             472.27,984.84 503.70,941.32 504.51,940.51
             505.31,939.70 411.83,907.47 402.96,874.42
             406.18,865.38 410.03,863.14 411.02,860.72
             397.32,835.74 287.71,730.97 203.90,780.94 Z
           M 72.13,965.90
           C 101.14,959.85 169.24,942.93 188.59,919.56
             222.97,890.27 230.49,899.41 253.06,871.20
             241.78,791.15 197.45,780.40 198.26,773.28
             207.12,757.16 367.90,757.16 408.20,860.72
             408.60,864.22 406.51,875.36 407.26,878.45
             418.32,924.21 468.26,919.62 508.27,940.51
             479.52,970.73 495.64,950.99 470.66,980.00
             176.90,980.40 116.50,978.97 72.17,978.57
             73.74,974.36 70.92,980.40 72.13,965.90 Z
           M 402.96,875.23M 403.23,876.84M 986.45,709.54
           C 986.45,709.54 997.19,709.54 997.19,709.54
             997.19,709.54 1001.76,709.75 1001.76,709.75
             1001.76,709.75 1008.48,709.75 1008.48,709.75
             1008.48,709.75 1012.24,710.02 1012.24,710.02
             1012.24,710.02 1019.76,710.29 1019.76,710.29
             1019.76,710.29 1022.45,710.53 1022.45,710.53
             1022.45,710.53 1033.19,711.31 1033.19,711.31
             1033.19,711.31 1051.73,713.32 1051.73,713.32
             1064.89,715.05 1082.16,718.38 1094.98,721.77
             1102.47,723.74 1109.94,726.05 1117.28,728.55
             1117.28,728.55 1126.14,731.75 1126.14,731.75
             1126.14,731.75 1137.15,733.60 1137.15,733.60
             1143.76,734.95 1150.35,736.85 1156.77,738.94
             1169.21,743.00 1181.47,747.74 1193.57,752.73
             1193.57,752.73 1243.00,773.84 1243.00,773.84
             1243.00,773.84 1258.31,780.55 1258.31,780.55
             1258.31,780.55 1270.40,785.86 1270.40,785.86
             1270.40,785.86 1273.62,787.59 1273.62,787.59
             1273.62,787.59 1289.21,795.37 1289.21,795.37
             1307.54,804.25 1321.47,811.18 1336.49,825.54
             1336.49,825.54 1340.27,829.56 1340.27,829.56
             1351.44,841.57 1360.13,855.50 1367.45,870.13
             1371.30,877.84 1375.21,885.70 1378.28,893.77
             1378.28,893.77 1381.17,902.36 1381.17,902.36
             1386.26,918.28 1389.60,934.78 1389.41,951.52
             1389.41,951.52 1389.13,954.21 1389.13,954.21
             1389.13,954.21 1389.13,956.63 1389.13,956.63
             1388.53,962.52 1387.30,968.50 1384.64,973.82
             1383.96,975.19 1381.76,979.29 1380.46,979.85
             1380.02,980.04 1379.16,980.00 1378.66,980.00
             1378.66,980.00 1164.02,980.00 1164.02,980.00
             1164.02,980.00 963.08,980.00 963.08,980.00
             962.48,980.00 961.54,980.06 961.04,979.73
             960.51,979.38 960.18,978.42 959.91,977.85
             959.91,977.85 957.91,973.55 957.91,973.55
             954.37,966.42 951.45,958.87 947.28,952.06
             947.28,952.06 943.38,946.15 943.38,946.15
             943.38,946.15 939.55,939.70 939.55,939.70
             939.55,939.70 934.80,930.57 934.80,930.57
             934.80,930.57 925.40,912.03 925.40,912.03
             925.40,912.03 909.55,879.80 909.55,879.80
             909.55,879.80 907.15,875.77 907.15,875.77
             907.15,875.77 906.30,873.08 906.30,873.08
             906.30,873.08 903.64,867.44 903.64,867.44
             903.64,867.44 899.13,859.38 899.13,859.38
             898.37,857.86 895.07,853.83 893.77,852.76
             893.77,852.76 891.62,851.25 891.62,851.25
             891.62,851.25 889.42,849.00 889.42,849.00
             886.58,846.44 882.70,843.58 879.53,841.39
             879.53,841.39 875.50,838.56 875.50,838.56
             874.14,837.65 872.51,836.70 873.24,834.67
             873.96,832.68 875.72,832.90 877.38,832.74
             877.38,832.74 880.33,832.44 880.33,832.44
             887.16,831.61 894.27,829.88 900.75,827.61
             906.54,825.57 912.08,822.44 916.87,818.60
             916.87,818.60 920.34,815.85 920.34,815.85
             920.34,815.85 922.27,813.44 922.27,813.44
             928.07,806.28 930.72,799.35 932.20,790.34
             932.76,786.93 932.57,785.68 932.75,782.55
             932.79,781.71 932.97,781.30 932.90,780.40
             932.74,778.43 931.75,774.32 931.19,772.34
             927.35,759.01 919.01,749.18 907.20,742.09
             907.20,742.09 901.56,738.99 901.56,738.99
             895.21,736.11 889.87,734.09 883.02,732.64
             880.96,732.20 877.27,732.45 877.69,729.36
             878.00,727.04 881.62,725.31 883.56,724.48
             889.67,721.86 896.20,720.36 902.63,718.78
             913.91,716.01 929.94,713.64 941.58,712.39
             941.58,712.39 959.05,710.80 959.05,710.80
             959.05,710.80 967.37,710.28 967.37,710.28
             967.37,710.28 970.06,710.03 970.06,710.03
             970.06,710.03 973.55,710.03 973.55,710.03
             973.55,710.03 977.58,709.75 977.58,709.75
             977.58,709.75 986.45,709.54 986.45,709.54 Z
           M 535.67,759.71
           C 535.67,759.71 513.10,762.40 487.31,772.07
             461.52,781.74 456.15,808.61 455.61,816.13
             455.08,823.65 419.62,829.02 402.96,874.69
             413.17,896.72 429.82,910.69 506.66,939.17
             589.93,854.81 595.84,856.43 649.04,832.25
             572.20,818.82 537.46,820.96 528.15,776.91M 1375.71,982.42
           C 1393.84,966.70 1388.87,929.36 1376.51,894.57
             1342.66,813.58 1313.52,811.16 1269.19,787.52
             1206.73,760.12 1154.08,736.21 1125.87,733.79
             1010.62,689.87 875.23,722.64 879.53,730.16
             886.51,730.70 930.57,739.84 934.87,781.21
             934.33,824.99 899.00,832.65 874.29,835.07
             899.27,852.80 899.81,856.16 904.78,865.29
             919.56,896.18 931.24,919.56 939.84,936.08
             950.72,956.09 944.54,939.57 963.08,980.00
             1071.07,980.40 1290.28,975.57 1375.71,982.42 Z
           M 950.18,954.61M 705.65,361.32M 691.08,640.30
           C 669.05,637.84 678.45,638.16 654.81,632.78
             622.71,617.07 614.85,614.98 604.78,593.63
             594.70,572.27 602.02,553.60 618.48,541.31
             634.93,529.02 681.61,528.28 681.61,528.28
             681.61,528.28 644.13,524.52 627.95,516.26
             619.55,511.22 609.28,508.27 603.37,495.44
             601.96,490.13 600.68,485.70 603.30,477.44
             606.66,466.70 607.26,465.89 612.77,458.23
             620.03,450.71 617.36,451.03 629.36,443.86
             632.65,441.31 642.39,436.67 652.93,434.66
             661.93,432.94 672.07,430.83 702.28,432.78
             702.17,432.39 700.84,431.86 697.93,431.17
             657.03,423.91 640.77,420.89 635.40,419.95
             630.03,419.01 623.11,415.72 615.86,407.93
             608.60,400.14 612.43,390.60 615.79,383.82
             619.08,377.04 628.48,372.40 635.74,369.31
             643.19,366.43 665.69,362.19 668.18,362.80
             679.39,359.17 714.72,361.72 705.85,360.92
             696.99,360.11 701.62,360.11 687.45,358.37
             673.41,357.16 665.69,354.47 657.09,351.38
             647.89,350.98 641.18,344.46 636.68,342.31
             632.18,340.17 626.74,333.38 625.60,330.83
             624.45,328.28 622.64,320.69 623.18,315.92
             623.72,311.15 625.80,309.34 625.86,308.67
             625.93,308.00 627.34,302.15 630.43,299.00
             633.52,295.84 638.65,292.77 642.95,289.95
             647.24,287.13 727.30,286.55 786.76,296.76
             867.53,321.47 862.16,333.83 860.54,353.35
             854.63,362.49 843.89,373.23 785.86,372.16
             783.00,375.56 884.01,396.33 883.11,426.42
             880.60,446.66 844.96,444.87 830.82,448.45
             860.19,457.76 919.47,455.26 906.75,496.63
             877.56,539.79 824.37,525.82 786.22,536.39
             799.83,539.07 803.59,540.68 817.92,544.98
             824.73,547.31 881.32,559.67 879.53,596.74
             869.68,645.27 793.38,637.75 814.34,640.62
             824.37,642.41 825.26,642.23 835.11,645.45
             848.72,645.27 900.12,666.05 905.32,694.70
             902.63,696.14 908.12,722.41 863.70,726.35
             809.14,729.81 930.03,713.33 934.87,783.53
             934.33,848.01 840.13,832.79 873.44,834.93
             884.72,841.38 896.72,851.59 902.63,861.26
             923.05,905.32 961.20,978.93 961.20,978.93
             961.20,978.93 467.43,1032.12 474.96,977.85
             570.59,865.02 607.66,851.05 651.18,831.71
             604.98,822.04 543.73,826.34 528.15,776.91
             550.71,716.73 651.86,726.27 635.20,725.46
             618.54,724.66 584.83,713.51 591.68,682.88
             612.77,633.45 691.48,641.11 691.48,641.11M 854.28,727.87M 1379.74,908.00
           C 1379.74,908.00 1407.68,857.50 1420.03,842.99
             1352.34,796.25 1253.48,773.68 1236.82,771.00M 1398.54,867.17
           C 1398.54,867.17 1390.48,883.83 1409.82,856.96
             1355.56,793.56 1302.91,789.27 1261.54,781.74" />
</svg>
